<?xml version="1.0" encoding="UTF-8"?><svg id="LOGO" xmlns="http://www.w3.org/2000/svg" viewBox="0 0 450 120"><defs><style>.cls-1{fill:#010101;}</style></defs><path class="cls-1" d="m440.78-57.58c.11.54.22,1.07.34,1.61.02.26.04.52.06.78-.01.28-.02.56-.03.84-.05.6-.1,1.21-.14,1.81-.02.37,0,.74.02,1.1,0,.25.07.5.11.75.08.43.17.86.25,1.3.02.29.04.57.06.86-.03.29-.06.59-.09.88-.07.34-.17.68-.21,1.03-.05.34-.1.69-.14,1.03,0,.05,0,.1-.01.16,0,.42,0,.85.02,1.26.03.37.06.75.09,1.12.01.35.02.71.03,1.07-.04.4-.08.8-.13,1.19-.02.28-.03.55-.04.83-.03.28-.04.56-.02.84.03.46.06.91.09,1.37.01.46.03.93.04,1.39-.08.49-.15.97-.23,1.46l-.06.8c-.03.33-.05.66-.07,1,0,.07,0,.13.01.2.05.39.11.77.16,1.16.03.19.05.39.08.58.04.57.08,1.15.13,1.72-.02.42-.04.85-.05,1.27,0,.22-.02.43-.03.65.01.45.03.89.04,1.34,0,.22.01.45.02.67-.02.46-.04.92-.06,1.38,0,.23-.02.46-.03.69.01.47.03.94.04,1.42.02.72.05,1.45.08,2.17.04.49.04.98,0,1.48-.01.25-.02.5-.03.75-.04.29-.04.59-.02.88.01.24.03.48.04.71.03.44.05.88.08,1.32-.03.93-.08,1.87-.08,2.8-.01.25-.01.49,0,.74.02.37.04.73.06,1.1-.01.73-.03,1.45-.04,2.18-.06.56-.11,1.12-.14,1.69-.01.25-.03.5-.04.75.02.45.02.9.06,1.34.03.36.06.73.09,1.09,0,.39-.01.79-.02,1.18-.02.36-.04.73-.06,1.09-.02.26.18.5.2.76,0,.26-.08.81-.07,1.07.04.41-.04.57,0,.99.02.41.14.67.16,1.08-.02.44-.14,1.03-.17,1.47-.03.77-.05,1.55-.07,2.32-.03.4-.07.81-.1,1.21,0,.05,0,.11,0,.16,0,.44.01.87.02,1.31,0,.49.16.96.2,1.45.03.41.05.81.08,1.22-.04.69-.09,1.37-.12,2.05-.03.27-.04.54-.02.81.05.45.09.9.14,1.34.01.43.03.86.04,1.29-.08.68-.16,1.37-.23,2.05-.04.28-.07.57-.09.86,0,.48-.02.98,0,1.46.03.39.05.79.08,1.19,0,.46,0,.93.01,1.39,0,.24-.02.47-.03.71-.03.47-.03.94-.02,1.41,0,.47,0,.94.03,1.41.04.47.04.94,0,1.4-.03.46-.05.93-.06,1.4-.03.29-.04.57-.02.86.06.88.13,1.76.19,2.64-.03.7-.05,1.41-.08,2.11-.04.47-.05.94-.02,1.42,0,.23,0,.46.01.69-.03.47-.08.96-.09,1.43,0,.47-.02.93-.03,1.4.01.28.04.56.08.84.02.23.05.46.07.68.03.42.07.85.1,1.27-.02.43-.03.87-.05,1.3-.03.44-.07.89-.1,1.33-.01.09-.01.19,0,.28.05.91.11,1.82.18,2.72-.02.44-.04.88-.06,1.32-.07.43-.13.87-.2,1.3-.08.41-.15.83-.23,1.24-.01.07-.02.13-.03.2-.02.14-.02.28,0,.42.05.55.11,1.11.16,1.66.03.28.05.55.08.83.07.44.13.87.2,1.31,0,.43.02.85.03,1.28-.05.68-.1,1.37-.12,2.05-.03.45-.03.9-.01,1.35.02.45.02.9,0,1.35,0,.46-.02.91-.02,1.37-.02.46-.02.92,0,1.38,0,.28.01.56.03.83.06.45.13.9.19,1.35,0,.43.02.86.03,1.28-.16,1.03-.33,2.06-.47,3.09-.06.29-.09.59-.11.89.01.23.02.46.04.7.01.3.03.6.05.89.04.22.07.45.11.67.09.45.15.9.17,1.35.02.21.04.41.05.62.01.44.03.87.04,1.31-.02.46-.04.92-.06,1.38-.02.47-.05.93-.07,1.4,0,.23,0,.47,0,.7,0,.94.03,1.88.03,2.81,0,.67-.03,1.34-.06,2.01-.04.44-.07.88-.11,1.31,0,.06,0,.12-.01.18,0,.46,0,.92,0,1.37,0,.51.1,1.02.13,1.53.02.41.05.82.07,1.23-.02.46-.03.92-.05,1.39-.02.47-.04.94-.05,1.4.02.47.05.94.07,1.4,0,.47.01.93.02,1.4-.03.42-.06.85-.09,1.27,0,.05,0,.11,0,.16,0,.46-.01.93-.02,1.39,0,.06,0,.11,0,.17.07.45.15.9.22,1.35.03.27.06.55.09.82.05.52.11,1.04.16,1.55-.08.43-.16.85-.22,1.28-.07.45.17.9.1,1.34,0,.05,0,.11,0,.16,0,.5-.02,1.02.01,1.52.03.41.05.81.08,1.22,0,.42,0,.83.01,1.25-.08.63-.16,1.26-.22,1.9-.03.29-.05.57-.07.86.01.23.02.45.03.68.01.29.03.57.04.86.03.22.06.44.09.67.09.64-.18,1.08-.12,1.73,0,.01.03.23.03.24l1.26.02v-.03c.06-.65-.15-1.29-.06-1.94.05-.28.09-.57.1-.85.01-.23.02-.45.03-.68.04-.29.05-.58.02-.87-.02-.22-.04-.44-.06-.67-.06-.64-.14-1.27-.22-1.91,0-.42.27-.85.27-1.27.03-.4.05-.81.08-1.21,0-.05,0-.11,0-.16,0-.45,0-.91,0-1.36,0-.05,0-.11,0-.16-.14-.88-.28-1.75-.43-2.63.05-.52.11-1.03.16-1.55.03-.27.06-.55.09-.82.07-.45.14-.9.22-1.35,0-.06,0-.11,0-.17,0-.52.01-1.04-.03-1.56-.03-.43-.06-.85-.09-1.28,0-.46.01-.93.02-1.39.02-.47.05-.94.07-1.4-.04-.93-.07-1.86-.12-2.65.04-.68.08-1.36.14-2.04.03-.28.05-.57.07-.85,0-.46,0-.92,0-1.37,0-.06,0-.12,0-.18-.04-.45-.08-.9-.11-1.35-.04-.89-.08-1.78-.07-2.68.01-.7.02-1.41.03-2.11.02-.47,0-.93-.03-1.4-.02-.46-.05-.93-.07-1.39-.04-.46-.04-.92-.01-1.38,0-.21.01-.42.02-.63.04-.43.07-.86.11-1.29.07-.45.15-.9.22-1.34.02-.3.03-.6.05-.89.01-.23.02-.46.04-.7-.01-.3-.05-.59-.11-.89-.03-.23-.06-.45-.09-.68-.13-.81-.26-1.61-.38-2.42,0-.43.02-.86.03-1.28.06-.45.13-.9.19-1.34.02-.28.03-.55.03-.83.02-.46.03-.92,0-1.38,0-.46-.02-.91-.02-1.37-.02-.45-.02-.9,0-1.35.02-.45.02-.9-.01-1.35-.03-.69-.07-1.37-.12-2.06,0-.42.02-.85.03-1.27.06-.44.13-.87.19-1.31.03-.28.05-.55.08-.83.05-.55.1-1.11.16-1.66.02-.21,0-.41-.03-.61-.08-.42-.15-.84-.23-1.26-.07-.43-.13-.86-.2-1.29-.02-.44-.04-.88-.06-1.32.06-.91.12-1.81.18-2.72.01-.09.01-.19,0-.28-.04-.45-.07-.9-.1-1.35-.02-.43-.04-.86-.05-1.29.05-.66.1-1.31.17-1.96.04-.28.07-.56.08-.84-.01-.51,0-1.04-.04-1.55-.03-.43-.06-.85-.09-1.28,0-.46.02-.93.03-1.39-.01-.24-.02-.47-.03-.71-.04-.71-.06-1.41-.09-2.12.05-.65.09-1.3.14-1.95.02-.28.04-.56.06-.84-.03-.93-.08-1.86-.13-2.8.02-.47.04-.94.06-1.41,0-.47,0-.94.01-1.41-.02-.47-.03-.95-.05-1.42,0-.47,0-.93,0-1.4.03-.39.05-.79.08-1.18,0-.05,0-.1,0-.15,0-.43,0-.87,0-1.3-.01-.29-.04-.57-.09-.86-.03-.23-.05-.47-.08-.7-.05-.45-.1-.9-.16-1.35.01-.43.03-.86.04-1.3.04-.45.09-.89.13-1.34.02-.27.01-.54-.02-.81-.03-.69-.08-1.37-.12-2.06.03-.41.05-.81.08-1.22.03-.22.06-.43.09-.65.06-.27.09-.53.1-.8,0-.43.01-.87.02-1.31,0-.05,0-.1,0-.16-.04-.41-.07-.81-.11-1.22-.02-.77.11-1.64.07-2.41-.02-.44.12-.79.09-1.23.02-.4-.1-.8-.07-1.2.04-.42-.09-.84-.05-1.25.02-.26-.02-.55-.03-.82.02-.26.06-.5.04-.76-.02-.37-.05-.73-.07-1.1,0-.39-.01-.79-.02-1.18.04-.41.08-.82.1-1.23.02-.4.03-.8.05-1.19-.01-.25-.03-.5-.04-.75-.01-.2-.02-.39-.03-.59-.04-.37-.08-.74-.11-1.12,0-.47-.02-.95-.03-1.42-.03-.45-.02-.91.02-1.36.04-.41.05-.82.03-1.23,0-.45,0-.9-.03-1.34-.02-.49-.04-.97-.06-1.46.03-.48.05-.96.08-1.44.05-.49.06-.98,0-1.47-.02-.5-.04-.99-.07-1.49.04-.97.09-1.93.11-2.9.01-.47.03-.94.04-1.42-.02-.46-.04-.92-.06-1.38-.04-.45-.04-.91,0-1.36.01-.45.03-.89.04-1.34-.03-.64-.06-1.28-.08-1.92.03-.37.05-.74.08-1.11.01-.2.03-.41.04-.61l.24-1.74c.01-.13.02-.27,0-.4-.02-.27-.04-.53-.06-.8-.01-.52-.07-1.04-.17-1.56-.04-.24-.07-.47-.11-.7.02-.47.03-.93.05-1.39.03-.45.06-.91.09-1.36.02-.28.01-.56-.02-.84-.01-.28-.02-.55-.04-.83-.04-.4-.08-.8-.12-1.2.01-.36.02-.71.03-1.06.04-.42.09-.84.1-1.26,0-.37.01-.74.02-1.11,0-.05,0-.1,0-.16-.05-.38-.08-.78-.16-1.16-.06-.3-.13-.61-.19-.91-.03-.3-.06-.59-.09-.89.02-.29.04-.57.06-.86.12-.58.23-1.16.34-1.73.05-.25.04-.51.05-.77.02-.21.02-.42,0-.63-.01-.16-.02-.32-.03-.47-.03-.45-.06-.9-.1-1.35,0-.28-.02-.56-.03-.84.02-.26.04-.51.07-.77.12-.53.24-1.06.35-1.6.04-.21.07-.43.07-.65.02-.22.03-.44.04-.67-.02-.34-.04-.69-.08-1.03-.05-.34-.12-.67-.22-1-.11-.54-.22-1.08-.31-1.52-.11-.54-.17-1.08-.17-1.55.01-.25.03-.51.04-.67.04-.25.08-.5.13-.75.05-.29.12-.59.16-.89.07-.56.12-1.12.14-1.68.06-.93-.01-1.86-.08-2.79-.01-.26-.02-.52-.03-.78,0-.28,0-.57,0-.85,0-.53,0-1.06-.01-1.59-.01-.99-.02-1.98,0-2.82.01-.48.06-.96.14-1.43.03-.23.06-.46.09-.69.03-.31.05-.62.06-.92,0-.24,0-.48,0-.72,0-.72-.16-1.45-.28-2.16-.02-.19-.04-.37-.06-.56-.01-.36,0-.72,0-.94.04-.52.08-1.03.12-1.55.03-.34.05-.69.04-1.02,0-.31,0-.64-.05-.95-.03-.25-.07-.49-.11-.73-.05-.33-.08-.66-.11-1-.01-.35,0-.7,0-1.05.04-.57.27-1.13.3-1.7.02-.41.06-.81.03-1.22-.06-.81-.1-1.17-.15-1.99,0-.11-.04-.74-.04-.85,0-.09-.61-.09-.79-.09-.2,0-.47,0-.47.1,0,.12-.01.63-.01.76-.03.39-.05.7-.09,1.08-.05.46-.04.68-.05,1.15,0,.93.26,1.85.32,2.77.01.36.01.72,0,1.08-.02.21-.04.42-.06.63-.03.23-.07.47-.11.7-.04.31-.09.61-.09.92-.03.99.07,1.98.14,2.83.02.36.03.72.01,1.09-.02.19-.04.38-.06.57-.08.41-.17.86-.21,1.26-.04.29-.06.59-.08.88,0,.24,0,.48-.01.72,0,.53.07,1.08.14,1.61.08.47.12.95.13,1.28.02,1.24,0,2.48-.02,3.72,0,.56,0,1.12,0,1.68-.01.28-.02.56-.04.83-.09,1.19-.16,2.39-.04,3.58.02.33.05.65.11.97.02.14.05.27.07.41.06.37.12.74.18,1.1.01.23.02.46.03.67-.01.24-.03.48-.04.72-.04.25-.08.51-.12.76-.1.53-.2,1.06-.32,1.58-.09.33-.17.66-.22,1-.03.34-.06.69-.08,1.03,0,.22.02.45.04.67,0,.22.02.43.06.65Z"/><path class="cls-1" d="m436.4,6.15c0,.12,0,.23.02.35.03.6.05,1.19.04,1.79-.01.51-.08,1-.2,1.49-.1.41-.04.79-.03,1.22,0,.3.02.61.04.91.05.44.1.89.14,1.33,0,.49.01.99.02,1.48,0,.48-.01.95-.02,1.43,0,.47,0,.94,0,1.41-.03.52-.05,1.04-.08,1.56,0,.52,0,1.05,0,1.57.01.29.04.59.09.88.08.76.18,1.51.28,2.27-.09.77-.26,1.53-.22,2.31s.19,1.54.02,2.3c-.05.24-.13.47-.16.71-.04.4.09.79.1,1.18,0,.48.03.96.04,1.44-.03.52-.07,1.04-.1,1.56-.01.09-.01.18,0,.26.07.49.14.97.21,1.46.05.5.11,1,.16,1.51-.05.27-.09.54-.14.81.06-.07.11-.15.17-.22.03-.07.06-.13.09-.2.15-.36.29-.72.43-1.08.05-.14.11-.27.17-.41.01-.13.03-.26.04-.4l.21-1.46c0-.09.01-.18,0-.26-.04-.52-.07-1.05-.11-1.57.02-.52.03-1.03.04-1.55.1-.46.19-.92.29-1.38,0-.06.02-.12.03-.18.01-.12.02-.25,0-.37-.04-.52-.07-1.04-.11-1.57,0-.05-.02-.1-.03-.16-.1-.47-.2-.95-.3-1.42-.05-.44-.11-.88-.16-1.32.07-.51.13-1.01.2-1.52.05-.49.1-.99.15-1.48.02-.31.02-.62,0-.92.01-.52,0-1.05-.04-1.57-.04-.5-.05-.99-.04-1.49,0-.47,0-.95,0-1.42,0-.73,0-1.47,0-2.2.05-.44.09-.89.14-1.33.02-.3.03-.61.04-.91.03-.31.04-.62.02-.92-.06-.46-.13-.92-.19-1.39-.02-.44-.03-.87-.05-1.31.03-.44.07-.88.1-1.32.02-.28.02-.56-.02-.85,0-.28-.02-.56-.03-.84-.05-.43-.1-.87-.15-1.3.02-.44.03-.88.05-1.32.03-.43-.09-1.07-.06-1.5,0-.08.01-.17,0-.25-.04-.46.08-.72.04-1.19-.02-.43-.05-.86-.07-1.28.08-.9.16-1.79.22-2.69,0-.09.01-.18,0-.27-.02-.43-.05-.85-.07-1.28-.01-.43-.02-.86-.03-1.29.04-.42.08-.83.12-1.25.02-.27.02-.54,0-.82,0-.27,0-.54,0-.82-.03-.41-.05-.83-.08-1.24.02-.42.03-.84.05-1.26.05-.42.09-.84.14-1.26.02-.28.02-.56,0-.84,0-.28,0-.56-.02-.84-.05-.45-.1-.89-.14-1.21-.02-.45-.04-.9-.07-1.35,0-.22,0-.45,0-.67,0-.45,0-.9.03-1.35.02-.46.03-.92.03-1.37,0-.47.01-.93.04-1.4.04-.46.05-.93.03-1.39,0-.28,0-.56-.01-.84-.04-.46-.08-.92-.12-1.37-.02-.42-.05-.84-.07-1.26.02-.66.05-1.31.08-1.96.05-.44.05-.87.01-1.31-.02-.44-.03-.87-.05-1.31,0-.22-.02-.44-.03-.65.01-.39.02-.79.03-1.18.03-.41.06-.81.09-1.22.02-.26.02-.52,0-.79,0-.41,0-.83-.02-1.24-.02-.39-.03-.77-.03-1.16-.01-.36-.01-.71,0-1.07.02-.21.02-.42,0-.64-.05-.65-.1-1.3-.15-1.95,0-.3.01-.59.02-.89.04-.28.07-.56.11-.84.05-.27.1-.53.15-.8,0-.05.02-.1.03-.16.03-.32.05-.65.08-.97.01-.12.01-.24,0-.36-.02-.33-.04-.66-.06-.99-.05-.32-.09-.64-.14-.96-.03-.32-.05-.64-.08-.96l-.11-.97c-.02-.3-.03-.6-.05-.9.01-.3.03-.6.04-.9.08-.67.17-1.34.25-2,.01-.22.02-.43.03-.65,0-.17.02-.33.02-.5-.02-.52-.04-1.04-.09-1.56-.04-.4-.06-.79-.08-1.19-.02-1.1-.03-2.2-.01-3.3,0-.49.01-.97,0-1.46,0-.22-.02-.44-.03-.66-.01-.24-.03-.49-.04-.65-.02-.42-.04-.84-.03-1.26,0-.2.01-.4.02-.6,0-.09.01-.18.02-.26.57-1.57-.14-3.26.03-4.88.19-1.88.62-3.83.09-5.69-.03-.24-.05-.49-.06-.74.03.03.06.06.1.09.03-.5.05-.99.03-1.49-.02-.46-.03-.92-.06-1.37,0-.12,0-.24-.02-.36-.01-.11-.03-.22-.05-.33-.01-.1-.02-.21-.03-.31-.02-.17-.04-.34-.08-.51-.02-.17-.04-.33-.06-.5,0-.29.03-.57.08-.86.08-.98-.13-1.97.07-2.94.07-.99.49-1.92.42-2.91-.15-1.03-.62-1.86-.53-2.86.06-.59.18-1.27-.02-1.9-.11-.34.12-.75.07-1.11,0-.15-.04-.57-.04-.84-.08-.05-.3-.1-.45-.1-.2,0-.38.05-.44.1.05.58-.11.89-.08,1.2.02.41.12.56.12.97,0,.28-.13.44-.16.71-.08.28.12,1,.11,1.27-.02.6-.06.93-.05,1.53-.09,1.14-.09,2.23-.05,3.37.01.51.03,1.02-.02,1.53-.05.52-.08,1.01-.09,1.53,0,.42.08.96.02,1.37,0,.04,0,.07-.01.11-.03.2-.06.41-.09.61-.03.21-.04.42-.07.63-.04.23-.05.46-.06.7-.02.54-.06,1.08-.06,1.62.04.02.07.04.1.05-.03.28-.05.55,0,.83.18.94.1,1.88.08,2.82.01.49.09.98.16,1.47-.05-.09-.11-.16-.17-.2-.15-.24-.74-.49-.95-.15-.21.56.71,1.16,1.07.7.03-.02.03-.04.05-.06-.01.47-.03.93-.06,1.39-.17-.03-.32-.02-.4.08-.04.04-.07.09-.09.15-.06.16-.05.37.02.49.06.11.24.23.44.29.09,1.43-.31,2.84-.2,4.26.06.23.12.46.2.69.01.33.02.67,0,1-.01.43-.03.86-.06,1.29-.03.46-.04.91-.03,1.37,0,.5.01.99.02,1.48,0,.71,0,1.42,0,2.13,0,.4-.03.81-.05,1.21-.03.35-.08.7-.09,1.05-.01.31-.02.62-.03.93,0,.17.02.33.02.5.01.22.02.43.03.65.02.18.05.35.07.53.14,1.07.3,2.22.18,3.28-.03.32-.07.64-.1.96-.03.32-.05.64-.08.96-.04.32-.09.64-.13.96-.02.33-.04.66-.06.99-.03.44.04.89.08,1.33.03.2.07.4.11.6.02.12.04.24.07.36.04.28.08.56.11.84,0,.3.02.59.02.89-.05.65-.09,1.29-.14,1.94-.02.21-.02.42,0,.64.04.45.06,1.02-.02,1.46-.02.11-.05.22-.07.33-.02.16-.01.33,0,.49.03.4.04.79.05,1.19,0,.26,0,.52,0,.79.07.85.03,1.69.11,2.54.01.15.03.31,0,.46-.02.08-.05.16-.08.24-.12.37,0,.69.02,1.06.02.28-.02.58,0,.87.03.4.05.81.07,1.21.02.43.03.86.05,1.29-.02.43-.05.86-.07,1.29-.04.44-.08.88-.12,1.33-.02.28-.03.56-.02.84-.02.28-.02.56,0,.84.02.42.04.84.07,1.26,0,.46.01.92.02,1.38.02.45.03.91.05,1.36,0,.45,0,.89,0,1.34l-.06,1.23c-.05.44-.1.88-.15,1.33-.02.28-.03.56-.02.83-.02.28-.02.56,0,.84.05.43.1.86.15,1.29.02.42.03.84.06,1.13-.03.45-.06.9-.08,1.34-.02.27-.02.54,0,.82-.01.27-.01.54,0,.82.04.42.09.84.13,1.26-.02.67-.03,1.33-.07,2-.04.28-.05.55-.03.83.07.9.15,1.81.23,2.71-.02.43-.04.86-.07,1.29-.04.45.17.72.14,1.17,0,.04,0,.09,0,.13.01.27-.09.96-.07,1.23.02.21.09.49.11.71.02.44-.14.58-.13,1.01.01.35-.11.71-.12,1.05,0,.42.07.83.04,1.25-.01.2-.04.4-.05.59,0,.06,0,.12,0,.17Z"/><path class="cls-1" d="m437.42,42.29c-.08-.38-.16-.75-.12-1.14.05-.44.25-.88.17-1.32-.04-.19-.13-.37-.18-.56-.07-.26-.06-.53-.05-.8.02-.85.05-1.7.17-2.54.05-.37.12-.76-.03-1.1-.25.02-.46.22-.56.45s-.11.49-.12.74c-.05,1.41,0,2.83-.06,4.24-.03.69-.08,1.38-.17,2.06-.09.63-.32,1.26-.24,1.89.04.47.05.93.04,1.4,0,.37,0,.73,0,1.1-.08.54-.15,1.09-.23,1.63-.03.22,0,.5.03.73.03.02.06.04.09.06-.13.61-.3,1.21-.25,1.85.06.79.11,1.57.07,2.36-.01.93.18,1.84.34,2.76,0,.08,0,.16-.01.25-.02.4-.04.81-.06,1.21,0,.04,0,.09,0,.13.04.56.08,1.12.12,1.68.04.56-.13,1.08-.09,1.64.04.61.2,1.21.2,1.83,0,.7-.08,1.38-.04,2.08-.02.41-.03.81-.05,1.22,0,.2-.02.41-.03.61.01.41.02.81.04,1.22.03.81.02,1.62.02,2.42,0,.58-.1,1.18-.15,1.75-.07.65.03,1.25.12,1.89.2,1.44-.14,2.8-.07,4.22.01.26.03.51.07.77.04.41.08.81.11,1.22,0,.31,0,.63,0,.94-.02.34-.06.68-.06,1.02,0,.34,0,.68,0,1.03-.03.47-.06.94-.09,1.42-.02.22-.03.43-.04.65,0,.17.02.35.03.52,0,.22.02.43.03.65.03.17.05.33.08.5.07.33.11.67.11,1,0,.14.02.29.03.43-.02.3-.03.6-.05.9-.02.33-.05.66-.07.99,0,.07,0,.15,0,.22.02.33.04.66.07,1,.03.31.07.63.1.94,0,.31,0,.61,0,.92-.04.31-.07.62-.11.93-.01.22-.03.44-.04.66-.08,1.36-.02,2.71,0,4.07.01.61.02,1.23.09,1.84.03.32.09.65.07.97-.01.32-.08.63-.14.94-.16.89-.18,1.81-.08,2.71.05.42.15.83.17,1.25.02.47.02.95.07,1.42.07.64.21,1.28.09,1.92-.07.42-.24.82-.28,1.24-.03.37,0,.75,0,1.12,0,.21,0,.41.02.62.04.31.08.62.13.93.02.29.04.57.06.86-.02.43-.05.86-.07,1.29-.04.39-.12.77-.09,1.17,0,.21.09.55.1.76.03.34-.07.57-.04.91,0,.31.06.48.06.79,0,.03,0,.16,0,.24h.89s0-.09,0-.12c0-.31.09-.51.08-.83.03-.37-.03-.95-.08-1.35-.04-.36.09-.74.09-1.1-.01-.25,0-.56-.01-.81l-.06-.95c.02-.28.03-.57.05-.85.02-.16.04-.31.06-.47.04-.19.06-.39.07-.59,0-.37.04-.75.01-1.12-.02-.3-.04-.61-.06-.91-.01-.32-.03-.64-.04-.95,0-.33.01-.66.02-.99-.01-.22-.03-.44-.04-.65,0-.15-.02-.31-.03-.46,0-.35-.01-.71-.01-1.07.05-.64.1-1.27.14-1.91.02-.21.01-.42,0-.62-.02-.5-.05-1-.08-1.51.02-.84.06-1.68.04-2.53,0-.35-.01-.69-.03-1.04-.03-.36-.03-.72,0-1.08.02-.56.05-1.12.09-1.68-.01-.27-.03-.53-.05-.8-.03-.44-.06-.89-.09-1.33-.04-.32-.08-.63-.12-.94,0-.31,0-.61-.01-.92.05-.48.09-.95.12-1.43.01-.2.02-.41.04-.61,0-.37-.06-.74-.09-1.1-.02-.3-.03-.61-.05-.91.02-.31.04-.62.06-.93.03-.17.05-.33.08-.5.05-.21.07-.42.08-.63,0-.17.01-.35.02-.52.03-.22.03-.44.01-.66-.01-.17-.02-.34-.04-.51-.03-.48-.07-.96-.1-1.44,0-.37,0-.75-.02-1.12-.02-.3-.04-.61-.06-.91,0-.31,0-.63-.02-.95.05-.62.11-1.24.16-1.85.02-.22.02-.44,0-.66.01-.22,0-.44,0-.66-.02-.32-.04-.63-.06-.95.03-1.06.06-2.12.08-3.18.02-.25.02-.51,0-.76-.02-.21-.04-.41-.06-.62-.04-.39-.07-.79-.11-1.18,0-.6-.02-1.2,0-1.8.01-.41.02-.81.03-1.22.03-.41.02-.81-.02-1.22-.02-.41-.04-.81-.06-1.22.02-.42.04-.84.06-1.26.01-.21.02-.42.03-.63-.02-.41-.03-.83-.05-1.24-.03-.81-.02-1.63-.01-2.44.02-.36.05-.71.07-1.07.02-.24.03-.48.04-.72,0-.04,0-.08,0-.12.2-.5.04-1.38-.03-1.79.23-.98.27-1.99.05-2.98-.12-.62-.08-1.26-.19-1.88,0-.25.06-.49.11-.73.03.02.05.04.08.06.05-.48.09-.95.14-1.43.03-.31-.04-.59-.08-.9-.05-.36-.11-.72-.16-1.08,0-.36,0-.72,0-1.09,0-.2,0-.39,0-.58.02-.54.05-1.09.07-1.63.02-.38-.07-.74-.15-1.11Z"/><path class="cls-1" d="m7.31,54.84c-.05.31-.11.61-.16.92,0,.07,0,.14-.01.21,0,.51,0,1.03.01,1.54,0,.07,0,.14.01.21.08.49.17.98.25,1.47.07.48.14.97.2,1.45.03.44.07.88.1,1.32-.03.44-.07.87-.1,1.31-.06.46-.12.93-.18,1.39-.01.07-.05.3-.09.52-.05.29-.1.58-.14.86-.01.23-.03.46-.04.7-.02.3-.04.61-.05.91,0,.07,0,.15.01.22.06.45.12.89.18,1.34.06.43.15.85.23,1.28.02.39.04.79.07,1.18-.02.38-.04.77-.06,1.15-.01.19-.03.38-.04.57-.02.24-.04.49-.05.73,0,.4.02.8.03,1.19,0,.38-.01.76-.02,1.14-.03.4-.06.8-.07,1.19,0,.45-.05.91-.01,1.36.02.19.03.39.05.58.01.37.06.74.13,1.1.08.5.15.99.21,1.49,0,.31,0,.62,0,.93-.06.48-.12.96-.18,1.45-.07.54-.14,1.08-.15,1.62-.01.48-.03.96-.02,1.44.02.51.05,1.01.09,1.52.01.26.03.52.04.79,0,.27-.01.55-.02.83-.03.31-.05.62-.06.93-.03.52-.03,1.04,0,1.57.02.84.17,1.67.32,2.49.02.21.05.42.07.63,0,.21,0,.43,0,.64-.03.44-.09.88-.17,1.31-.02.23-.04.46-.06.7-.02.29-.04.58-.06.87,0,.43,0,.86.04,1.28.02.42.06.84.09,1.26,0,.18,0,.35,0,.53-.04.34-.07.67-.1,1.01-.04.37-.02.75,0,1.12.02.66.16,1.32.26,1.97,0,.13.01.26.02.39,0,.14-.01.28-.02.42-.04.42-.11.83-.16,1.25-.05.42-.07.84-.08,1.26,0,.22,0,.44.03.66-.09.45-.2.9-.19,1.36.02.32-.03,1.33.22,1.78-.01.1-.04.19-.04.29,0,.13,0,.24,0,.35-.05.39-.14.77-.15,1.16,0,.44.06.89.1,1.33,0,.04,0,.09,0,.13.03.44.04.87-.05,1.31,0,.1-.03.34-.03.56,0,.29,0,.44,0,.66,0,.1,1.27.14,1.26,0,.04-.1.02-.61.03-.72.01-.18,0-.36-.02-.54-.04-.14-.06-.29-.07-.43,0-.09,0-.19,0-.28.07-1.06.27-2.1.11-3.17-.03-.34,0-.67,0-1.01.02-.17.03-.35.02-.52.06-.66.03-1.42.02-1.72-.07-.28-.03-.52-.06-.78,0-.11.01-.23.02-.34.03-.88-.15-1.75-.24-2.61,0-.13-.01-.27-.02-.4,0-.13.02-.27.03-.4.11-.61.22-1.22.3-1.84.05-.36.03-.76.03-1.11,0-.38-.06-.77-.09-1.15,0-.17,0-.34,0-.51.02-.38.05-.76.09-1.14.04-.48.04-.92.04-1.41-.02-.29-.04-.58-.06-.87-.02-.23-.04-.46-.06-.7-.08-.43-.14-.87-.17-1.31,0-.21,0-.42,0-.63.02-.21.05-.42.07-.63.05-.27.1-.53.14-.8.07-.52.13-1.03.17-1.55.08-.87,0-1.75-.06-2.61,0-.28-.02-.57-.02-.85.06-1.09.16-2.18.13-3.27-.02-.54-.06-1.08-.1-1.61-.04-.33-.09-.65-.14-.98-.04-.31-.08-.63-.12-.94,0-.31,0-.63,0-.94.04-.32.08-.65.12-.97.05-.3.1-.6.15-.9.07-.43.08-.88.12-1.31.03-.45,0-.91-.01-1.36,0-.39-.04-.79-.07-1.18-.01-.59-.02-1.17,0-1.75.02-.25.02-.5,0-.75-.03-.37-.05-.74-.08-1.12-.02-.4-.04-.79-.06-1.19.02-.31.04-.73.06-1.16.08-.43.17-.87.23-1.3.06-.45.12-.89.18-1.34.02-.31.01-.61-.03-.92-.02-.3-.03-.6-.05-.9-.08-.46-.16-.92-.23-1.39-.06-.46-.12-.93-.18-1.39-.03-.44-.07-.87-.1-1.31.03-.44.07-.88.1-1.32.07-.48.13-.97.2-1.45.07-.42.14-.85.21-1.27.07-.4.05-.77.05-1.18.02-.33.02-.66,0-.98-.01-.07-.02-.13-.04-.2-.07-.43-.15-.85-.22-1.28-.06-.48-.11-.96-.17-1.43.01-.48.02-.97.03-1.46.02-.22.03-.45.04-.67.02-.31.04-.61.06-.92-.02-.53-.04-1.05-.06-1.58,0-.56,0-1.12,0-1.67,0-.28.02-.56.03-.84.04-.57.04-1.13-.01-1.7-.01-.33-.03-.66-.05-.99-.06-.54-.13-1.07-.19-1.61.03-.53.05-1.05.08-1.58.08-.47.15-.94.23-1.41.09-.52.18-1.04.28-1.57.04-.22.05-.43.03-.65-.05-.57-.09-1.14-.14-1.71-.01-.06-.02-.12-.03-.19-.08-.48-.17-.96-.25-1.44-.05-.52-.1-1.05-.14-1.57.03-.52.05-1.03.08-1.55.04-.51.08-1.03.12-1.54.02-.33.01-.67-.03-1-.04-.85-.06-1.69-.08-2.54.04-.52.08-1.05.12-1.57.02-.33.02-.67.02-1,.02-.57,0-1.14-.04-1.71-.02-.29-.03-.57-.05-.86.02-.52.04-1.03.05-1.55.04-.58.09-1.16.13-1.74.02-.26.01-.53-.02-.79-.02-.41-.04-.82-.06-1.23-.03-.62-.04-1.24-.06-1.86-.01-.26-.03-.51-.06-.76-.03-.38-.07-.76-.1-1.15l.04-1.82c.08-.57.17-1.15.25-1.72.02-.28.03-.55.04-.83.02-.44.04-.87.06-1.31,0-.06,0-.13-.01-.19-.05-.43-.1-.86-.15-1.28-.09-.83-.19-2.44-.27-3.27,0-.61.01-.44,0-1.05.08-.63.17-1.27.25-1.9l.15-1.21c.05-.27.07-.54.08-.81,0-.07,0-.14-.01-.21-.04-.43-.08-.87-.12-1.3-.08-.82-.16-1.65-.24-2.47.01-.84.03-1.68.05-2.51.01-.42.02-.84.03-1.26,0-.21-.02-.42-.02-.63-.02-.42-.03-.84-.05-1.26,0-.4.01-.79.02-1.19,0-.63.01-1.26.02-1.88.02-.26.02-.53,0-.79-.05-.6-.1-1.19-.16-1.79.01-.59.03-1.18.04-1.77.09-.61.18-1.22.27-1.83.02-.44.05-.87.07-1.31.02-.28.03-.57.05-.85,0-.07,0-.13-.01-.2-.06-.44-.11-.88-.17-1.31-.11-.87-.21-1.73-.31-2.6.02-.63.05-1.27.07-1.9.1-.67.2-1.33.29-2,.02-.29.03-.59.04-.88.02-.47.04-.94.05-1.41,0-.06,0-.13-.01-.19-.06-.47-.13-.94-.19-1.42-.12-.91-.23-1.83-.35-2.75.06-.44.11-.89.17-1.33.03-.24.06-.47.09-.71.02-.29.03-.58.04-.87.02-.49.05-.98.07-1.46,0-.05,0-.1,0-.16-.03-.36-.05-.73-.08-1.09,0-.39-.01-.77-.02-1.16.06-.75.13-1.5.2-2.26.02-.32.01-.63-.04-.95-.03-.51-.06-1.03-.09-1.54-.04-.72-.08-1.43-.12-2.15-.02-.4-.03-.8-.05-1.2.01-.4.03-.8.04-1.2.03-.81.07-1.62.11-2.43-.02-.54-.03-1.08-.04-1.62-.03-.54-.03-1.09,0-1.63.01-.55.03-1.09.05-1.64-.01-.54-.02-1.07-.04-1.61-.03-.51-.03-1.03.02-1.54.02-.44.04-.88.06-1.32.04-.42.08-.84.12-1.26,0-.06,0-.12,0-.18-.02-.43-.04-.86-.06-1.29-.01-.27-.04-.54-.09-.81-.08-.62-.16-1.23-.24-1.84.02-.78.03-1.56.05-2.34.04-.39.08-.78.12-1.16,0-.05,0-.1,0-.14.01-.41.02-.82.04-1.24,0-.28,0-.55-.02-.83-.01-.55-.02-1.11-.03-1.66,0-.26.02-.52.03-.78.02-.51.04-1.02.06-1.53.03-.39.05-.78.07-1.18.02-.28.01-.55-.01-.83,0-.27-.02-.55-.03-.82-.04-.41-.07-.81-.11-1.22-.02-.41-.03-.81-.05-1.22,0-.28.02-.56.02-.84.02-.56.03-1.11.05-1.67-.01-.28-.03-.56-.04-.84-.03-.56-.06-1.12-.08-1.68,0-.27,0-.55,0-.82,0-.52,0-1.04,0-1.56h-.63s-.63,0-.63,0c0,.52,0,1.04,0,1.56,0,.27,0,.55,0,.82-.03.56-.05,1.12-.08,1.68-.01.28-.03.56-.04.84.02.56.03,1.11.05,1.67,0,.28.02.56.03.84-.01.4-.03.8-.04,1.19-.04.41-.07.83-.11,1.24-.02.27-.03.55-.03.82-.03.28-.03.56-.01.83.02.39.05.77.07,1.16.02.52.04,1.03.06,1.54,0,.26.02.52.03.78,0,.55-.02,1.11-.03,1.66,0,.28,0,.55-.01.83.01.41.03.82.04,1.24.01.43.09.87.13,1.3.02.78.03,1.56.05,2.33-.05.41-.1.81-.15,1.22-.06.48-.15.96-.17,1.44-.02.43-.04.86-.06,1.29,0,.06,0,.12.01.18.04.41.08.82.11,1.22.02.45.05.9.07,1.36.04.51.05,1.03.02,1.54-.01.54-.02,1.07-.04,1.61,0,.27.02.55.02.82.02.55.03,1.09.05,1.64-.01.54-.03,1.08-.04,1.62,0,.27-.01.54-.02.81.02.54.05,1.08.08,1.62.02.47.04.94.06,1.41,0,.2.01.4.02.6-.01.39-.03.78-.04,1.17-.06,1.19-.13,2.37-.2,3.56-.02.34-.07.76-.04,1.12.07.75.13,1.5.2,2.25,0,.38-.01.76-.02,1.14-.03.37-.05.74-.08,1.12,0,.05,0,.1,0,.16.02.49.05.97.07,1.46.01.29.03.58.04.87.08.68.17,1.36.26,2.03-.08.68-.17,1.36-.25,2.04-.06.47-.13.94-.19,1.42-.06.3-.09.6-.1.9.03.71.05,1.41.08,2.12.01.28.05.57.11.84l.2,1.32c.02.63.05,1.27.07,1.9-.08.65-.15,1.3-.23,1.94-.06.44-.11.88-.17,1.32-.05.28-.08.57-.09.86,0,.5.06,1.01.09,1.51,0,.43.05.85.13,1.27.06.4.12.8.18,1.2.01.59.03,1.19.04,1.78-.03.39-.07.78-.1,1.17-.03.26-.05.51-.06.77.01,1.04.02,2.08.04,3.12.02.41.01.82-.01,1.22,0,.21-.01.42-.02.63-.03.42-.03.84,0,1.26.03,1.04.05,2.09.07,3.13-.06.61-.12,1.22-.18,1.83-.04.43-.08.87-.12,1.3-.04.28-.06.57-.07.86,0,.07,0,.14.01.21.05.4.1.81.15,1.21.1.84.21,1.67.32,2.5,0,.61-.1.44-.11,1.05-.05.62-.03,2.02-.08,2.64-.05.43-.1.86-.15,1.28-.04.28-.07.56-.08.84.03.65.07,1.31.1,1.96,0,.26.04.51.1.76.06.38.11.76.17,1.13.01.61.02,1.21.04,1.82-.05.59-.1,1.18-.15,1.77-.01.26-.02.51-.03.77-.01.41-.03.83-.04,1.24-.02.62-.05,1.23-.08,1.85.01.26.03.52.06.77.03.37.06.74.08,1.11.02.53.04,1.05.06,1.58-.03.57-.06,1.15-.09,1.72,0,.57.01,1.13.02,1.7,0,.05,0,.1,0,.15.04.52.08,1.04.12,1.56-.02.85-.04,1.7-.08,2.55-.05.34-.06.67-.03,1.01.04.51.08,1.03.12,1.54.03.51.05,1.03.08,1.55-.05.52-.09,1.04-.14,1.57-.09.48-.17.97-.25,1.45l-.03.19c-.05.57-.09,1.14-.14,1.71-.02.15-.02.29,0,.44.01.07.02.14.04.21.09.51.18,1.01.27,1.52.08.48.16.96.24,1.44.03.53.05,1.05.08,1.58-.03.26-.06.52-.09.77-.06.32-.09.65-.11.97-.03.57-.05,1.14-.08,1.71.02.56.04,1.12.06,1.69,0,.28,0,.56,0,.84.01.54,0,1.08-.03,1.63-.04.31-.05.63-.02.94.03.47.06.95.09,1.42.01.49.02.98.03,1.46-.06.47-.11.95-.17,1.42-.03.19-.07.39-.1.58Z"/><path class="cls-1" d="m11.79,97.24c.31-.15.74-.22,1.1-.35-.01.17-.05.52-.05.52,0,0,0,.56.02.84,0,.22,0,.5.04.72,0,.1,0,.2.01.3-.02.39-.04,1.14-.04,1.14,0,0,.02.56.06.84-.03.27-.05.54-.06.82,0,.02,0,.05,0,.05l-.03.98.04,1.2-.06.56-.14.72-.09.96s.06,1.07.05,1.61c-.01.13-.04.39-.04.39l-.16,1.79s0,.08.01.11c0,.03-.02.08-.02.08,0,0,.02,1.8.11,2.7,0,.17,0,.34,0,.51-.03.21-.08.62-.08.62l-.11,1.03-.02,1.04.03.81.03.51v.07s.06.56.06.56l.02.24v.11s.01.06.01.1c-.04.1-.05.32-.05.32,0,0,0,.06.01.08,0,.04,0,.68.01.77,0,.09.89.09.89,0,.06-.28.09-.73.09-.83.2-.85-.21-1.72-.08-2.58.25-1.06.19-2.15.1-3.23,0-.55.08-1.09.04-1.63,0-.16-.03-.31-.06-.47.07-.36.17-1.1.17-1.1,0,0-.04-1.14-.1-1.71,0-.12,0-.25,0-.37.03-.4.06-.79.1-1.19.04-.42,0-.81-.03-1.23-.01-.31-.06-.61-.09-.92-.01-.19-.01-.37,0-.56.03-.46.13-1.38.13-1.38v-.98s0-.56-.04-.84c0-.09.02-.17.03-.26.2-.44.25-.96.28-1.44.02-.27.03-.55.03-.82,0-.22-.11-.5-.05-.7.02-.05.04-.1.05-.15.02-.2,0-.4.02-.62.03-.33,0-.67-.04-1s-.08-.63-.14-.94c-.05-.27-.18-.53-.2-.8-.03-.3.16-.47.17-.75.01-.26-.06-.51-.04-.77.03-.35.06-.7.1-1.06,0-.6-.01-1.2-.13-1.79.06-.47.06-.95-.02-1.42.01-.11.03-.28.05-.46.05-.05.09-.1.14-.15.03-.21.01-.65.01-.65,0,0,0-.34,0-.52,0-.16-.04-.31-.06-.47-.01-.2-.03-.4-.07-.56-.06-.42-.11-.83-.16-1.25.01-.36.02-.73.04-1.09.05-.38.16-1.15.16-1.15,0,0,.06-.39.09-.58.06-.24.09-.48.1-.72-.01-.24-.05-.71-.05-.71,0,0-.03-.38-.04-.57-.06-.4-.13-.8-.19-1.2,0-.42.01-.83.02-1.25.01-.19.03-.57.03-.57,0,0,.03-.51.04-.76,0-.23-.02-.45-.03-.68-.03-.48-.03-.96,0-1.45,0-.26.02-.51.03-.77-.01-.5-.03-1-.04-1.5,0-.03,0-.1,0-.1,0,0-.1-1.04-.14-1.56.07-.54.22-1.61.22-1.61l.24-1.47.02-.5s-.27-2.17-.41-3.25c.01-.51.02-1.03.03-1.55.03-.59.1-1.76.1-1.76,0,0,0-.49-.02-.74-.02-.41-.04-.82-.05-1.23.03-.38.08-1.14.08-1.14l.04-.61s.01-.5,0-.75c0-.42-.03-1.25-.03-1.25,0,0,0-1.24,0-1.86.03-.36.08-1.09.08-1.09,0,0,.04-.49.05-.73-.03-.78-.18-1.53-.32-2.3-.04-.2-.07-.39-.04-.59.02-.17.1-.34.12-.51.12-.8-.12-1.65,0-2.45.09-.6.17-1.21.26-1.81.01-.26.02-.79.02-.79,0,0,.02-.85.02-1.27,0-.05,0-.11-.01-.16-.04-.42-.13-1.25-.13-1.25,0,0-.15-1.57-.22-2.35.05-.6.09-1.2.14-1.8.06-.41.11-.82.17-1.22.05-.26.09-.52.09-.78,0-.06-.01-.17-.01-.17l-.09-1.27s-.14-1.65-.22-2.47c.01-.43.04-1.28.04-1.28v-1.28s-.02-1.54-.03-2.31c0-.35.02-.7.03-1.05,0-.43-.01-.87-.02-1.3.01-.38-.07-.79-.17-1.16-.03-.11-.06-.22-.06-.33,0-.08.02-.17.04-.25.11-.53.09-1.08.15-1.61.04-.36.08-.71.12-1.07,0,0,.07-.77.11-1.15.03-.25.05-.49.06-.74-.01-.22-.03-.44-.06-.66-.02-.33-.12-.98-.12-.98,0,0-.19-1.63-.27-2.44.01-.15.02-.3.03-.45.01-.36.05-.72.12-1.07.12-.8.27-2.42.27-2.42v-.33s-.14-1.27-.14-1.27c0,0-.3-1.47-.41-2.26,0-.31,0-.62,0-.93.05-.29.15-.87.15-.87,0,0,.01-.07.02-.1.02-.35-.18-1.34-.17-1.69.02-.37.04-.89.1-1.27.1-.65.12-.67.08-1.33.03-.38.21-1,.21-1l.05-.61s.01-.5,0-.76c0-.41-.03-1.22-.03-1.22v-.14s-.11-1.52-.11-1.52c0,0-.06-1.21-.09-1.81-.01-.24.06-.49.03-.73s-.14-.47-.17-.71c-.07-.54,0-1.09.09-1.63.17-.98.35-1.95.14-2.94.01-.32.02-.64.03-.96,0-.52-.02-1.57-.02-1.57,0,0-.01-1.13-.02-1.69.03-.38.11-1.15.11-1.15l.06-.61s0-.51-.03-.77c-.01-.21-.04-.62-.04-.62,0,0-.03-.5-.05-.75-.08-.57-.15-1.14-.22-1.71,0-.5,0-1.01,0-1.51.04-.38.11-1.15.11-1.15,0,0,.04-.4.06-.59.01-.25.01-.5,0-.74,0-.63-.01-1.25-.03-1.88.09-.92.08-1.85.03-2.78-.08-.73.14-1.62.05-2.37,0-.16-.04-.34-.1-.5,0-.16-.02-.48-.02-.48,0,0-.01-.38-.02-.57.01-.42.03-.83.04-1.25.03-.25.01-.75.01-.75,0,0-.08-1.2-.12-1.8,0-.61.01-1.22.02-1.83.04-.39.12-1.18.12-1.18,0,0,.04-.41.06-.62.01-.25.02-.75.02-.75,0,0,.02-.82.04-1.22,0-.05,0-.1,0-.15-.06-.5-.12-1-.18-1.49.02-.93.03-1.85.05-2.78.02-.23.02-.46,0-.69,0-.04-.02-.12-.02-.12,0,0-.18-.99-.27-1.48.01-.55.03-1.1.04-1.65.05-.33.16-.99.16-.99,0,0,.07-.44.11-.66.02-.3.01-.6-.02-.91-.02-.45-.03-1.35-.03-1.35,0,0-.02-.76-.02-1.14-.01-.65-.02-1.3,0-1.95.01-.49-.07-1-.04-1.48.03-.37.09-1.12.09-1.12l.05-.6s0-.38-.02-.56c0,0,0-.04,0-.04,0-.05,0-.09,0-.14l-.05-1.21-.08-2.14v-.91s-.01-1.69-.01-1.69l-.04-1.1s-.02-.32-.03-.48c0-.3,0-.6.01-.91,0-.81.01-1.53-.14-2.33s-.34-1.66-.26-2.5c.19,0,.32-.2.35-.38s0-.37-.01-.56c0-.28.07-.56.21-.8.08-.13.18-.25.18-.4,0-.08-.02-.17-.05-.25-.11-.34-.29-.64-.28-.98,0-.23.04-.46.05-.69,0,0,.01-.42,0-.63,0-.78.07-1.69-.1-2.45-.05-.22-.14-.44-.14-.67-.02-.44.24-.84.29-1.27.04-.4-.1-.79-.13-1.18s.05-.79.07-1.17c.03-.19.09-.56.09-.56,0,0-.16-.75-.1-1.13,0-.05,0-.11,0-.16-.01-.22-.03-.43-.05-.65,0-.21-.07-.63-.07-.63,0,0,.16-.57.1-.86-.03-.28-.07-.56-.1-.84h-.89c-.03.29-.06.56-.1.84-.06.29.03.65-.03.93,0,.05-.02.09-.02.14-.03.33.15.91.15.91,0,0-.01.21,0,.32.09.56-.19,1.12-.1,1.67.03.6.07,1.19.1,1.79-.02.34-.07,1.01-.07,1.01l-.02.65v2.22s-.02.72-.02,1.08c-.01.21,0,.63,0,.63,0,0,.06.68.08,1.03.04.32.08.63.12.95-.01.3-.03.6-.04.91-.09.52-.28,1.56-.28,1.56l-.04.92s0,.43-.01.65c-.02.27-.02.53,0,.8.06.35.12.7.18,1.05.03.33.06.67.08,1,0,.31.01.62.02.93-.02.47-.06,1.58-.06,1.58,0,0-.02.82-.02,1.23,0,.15,0,.46,0,.46v.91s-.02,1.3-.02,1.3c0,0-.06,1.37-.09,2.05-.03.25-.02.74-.02.74,0,0,.09,1.14.14,1.7-.02.57-.04,1.15-.06,1.72,0,.38.02,1.15.02,1.15v1.14s-.04,1.8-.06,2.7c.01.23.04.46.1.68.06.36.12.72.18,1.08.02.55.03,1.1.05,1.65-.09.5-.27,1.49-.27,1.49l-.02.81s.04,1.85.06,2.77c-.06.5-.12,1-.18,1.51,0,.05,0,.1,0,.15.01.41.04,1.23.04,1.23,0,0,.01.5.03.75.06.6.13,1.2.19,1.79,0,.61.02,1.22.02,1.83-.03.39-.07,1.18-.07,1.18l-.04.63s-.01.5.02.75c.01.42.03.83.04,1.25,0,.19-.02.57-.02.57l-.04,1.07s-.04.72-.07,1.08c-.1.83-.02,2.5-.02,2.5,0,0,.09.87.1,1.31,0,.68,0,1.37,0,2.05-.02.25,0,.74,0,.74,0,0,.11,1.15.17,1.73,0,.51,0,1.01.01,1.52-.05.38-.14,1.13-.14,1.13,0,0-.05.39-.07.59-.02.41-.07,1.22-.07,1.22l-.03.92s.11,1.17.17,1.75c0,.83-.02,2.49-.02,2.49l.02,1.63s.02.56.03.84c0,.38-.03,1.15-.03,1.15l.05,2.92s.04.8.06,1.21c0,.2-.03.61-.03.61l-.05,1.12-.1,1.61s-.02.91-.03,1.36c-.02.25,0,.76,0,.76,0,0,.1,1.15.16,1.73-.02.39-.06,1.15-.06,1.15l.03,1.32-.17.94s.03.45.04.67c.05.32.11.64.17.96,0,.31,0,.62,0,.93-.08.58-.04,1.73-.04,1.73,0,0-.09.85-.14,1.27-.04.26-.07.53-.08.8.01.26.08.79.08.79,0,0,.09.84.13,1.26.05.35.11.71.16,1.06.02.33.05.65.07.98-.06.65-.13,1.31-.19,1.97-.05.33-.09.65-.14.98-.03.33-.09.99-.09.99v.33s.11,1.15.11,1.15c0,0,.17,1.62.27,2.43-.02.39-.07,1.16-.07,1.16,0,0-.03.5-.05.75,0,.83,0,2.48,0,2.48v2.21s-.02.84-.03,1.26c0,.22.02.65.02.65,0,0,.03.85.04,1.27-.05.62-.16,1.85-.16,1.85l-.09,1.27s-.04.54-.05.8c0,.06,0,.11.01.17.06.41.17,1.22.17,1.22l.14,1.24s.06.77.09,1.16c-.05.58-.15,1.74-.15,1.74,0,0-.09.83-.13,1.25-.04.26-.06.52-.07.78.01.64.04,1.91.04,1.91,0,0,.05.52.1.77.06.4.12.79.17,1.18-.01.62-.04,1.87-.04,1.87l-.08,1.91s-.07,1.06-.09,1.59c-.02.22,0,.65,0,.65,0,0,.08,1.1.13,1.66,0,.41,0,1.24,0,1.24,0,0,0,1.25-.02,1.88-.02.25,0,.75,0,.75,0,0,.08,1.16.13,1.74-.02.41-.03.83-.05,1.24-.04.42-.03.83.01,1.25.02.41.05.83.07,1.24.01.52.02,1.03.04,1.55-.09.72-.27,2.16-.27,2.16,0,0-.04.37-.07.55-.04.24-.07.48-.07.72,0,.06,0,.11.01.17.09.54.27,1.62.27,1.62,0,0,.15,1.07.22,1.61-.02.25-.04.5-.07.74-.04.31-.08.92-.08.92l-.02.75s-.03,1.01,0,1.52c0,.26.02.51.03.77-.01.45-.03.91-.05,1.36.03.44.05.88.08,1.32,0,.42.02.83.02,1.25-.06.4-.13.81-.19,1.21-.01.19-.04.57-.04.57,0,0-.03.48-.04.71.01.24.04.48.1.72.09.57.17,1.14.26,1.72.01.36.03.73.04,1.09-.04.36-.08.73-.12,1.09-.03.18-.05.36-.08.54-.05.22-.08.44-.09.66,0,.17,0,.34,0,.52,0,.21,0,.42.01.64.02.15.05.3.08.46-.03.13-.09.39-.09.39,0,0-.03,1.25.02,1.87,0-.01-.03-.04-.03-.04l-.08-.02-.13.04-.23.21-.11.29.07.2h.21s.23-.22.23-.22c0,0,.07-.15.09-.23.04.5.08.99.04,1.49,0,.14.02.28.03.42-.12.16-.19.37-.22.54-.05.54.09,1.06.27,1.57,0,.45.01.89.06,1.36-.54.16-1.38.78-1.38.78l.03.37s.17.03.29-.07Zm8.54.82c-.03.06-.08.12-.12.17.05-.06.07-.14.06-.22.02,0,.04.03.06.05Zm-.16.23s.01-.01.02-.02c-.02.03-.04.07-.07.1.02-.03.04-.06.05-.08Zm1.05-159.84s.02.02.03.03c-.02,0-.03.01-.05.02,0-.03-.02-.06-.03-.09.01.01.03.02.04.03Z"/><path class="cls-1" d="m12.06,92.88c.09-.05.17-.13.22-.21.06-.08.1-.18.11-.29,0-.07,0-.15-.07-.2-.03-.02-.05-.02-.08-.02-.04,0-.09.02-.13.03-.09.05-.17.13-.22.21-.06.08-.1.18-.11.29,0,.07,0,.15.07.2.07.04.15.02.21-.01Z"/></svg>