<?xml version="1.0" encoding="UTF-8"?><svg id="LOGO" xmlns="http://www.w3.org/2000/svg" viewBox="0 0 450 216.28"><defs><style>.cls-1{fill:#010101;}</style></defs><path class="cls-1" d="m442.71,65.15c.05-.31.11-.61.16-.92,0-.07,0-.14.01-.21,0-.51,0-1.03-.01-1.54,0-.07,0-.14-.01-.21-.08-.49-.17-.98-.25-1.47-.07-.48-.14-.97-.2-1.45-.03-.44-.07-.88-.1-1.32.03-.44.07-.87.1-1.31.06-.46.12-.93.18-1.39.01-.07.05-.3.09-.52.05-.29.1-.58.14-.86.01-.23.03-.46.04-.7.02-.3.04-.61.05-.91,0-.07,0-.15-.01-.22-.06-.45-.12-.89-.18-1.34-.06-.43-.15-.85-.23-1.28-.02-.39-.04-.79-.07-1.18.02-.38.04-.77.06-1.15.01-.19.03-.38.04-.57.02-.24.04-.49.05-.73,0-.4-.02-.8-.03-1.19,0-.38.01-.76.02-1.14.03-.4.06-.8.07-1.19,0-.45.05-.91.01-1.36-.02-.19-.03-.39-.05-.58-.01-.37-.06-.74-.13-1.1-.08-.5-.15-.99-.21-1.49,0-.31,0-.62,0-.93.06-.48.12-.96.18-1.45.07-.54.14-1.08.15-1.62.01-.48.03-.96.02-1.44-.02-.51-.05-1.01-.09-1.52-.01-.26-.03-.52-.04-.79,0-.27.01-.55.02-.83.03-.31.05-.62.06-.93.03-.52.03-1.04,0-1.57-.02-.84-.17-1.67-.32-2.49-.02-.21-.05-.42-.07-.63,0-.21,0-.43,0-.64.03-.44.09-.88.17-1.31.02-.23.04-.46.06-.7.02-.29.04-.58.06-.87,0-.43,0-.86-.04-1.28-.02-.42-.06-.84-.09-1.26,0-.18,0-.35,0-.53.04-.34.07-.67.1-1.01.04-.37.02-.75,0-1.12-.02-.66-.16-1.32-.26-1.97,0-.13-.01-.26-.02-.39,0-.14.01-.28.02-.42.04-.42.11-.83.16-1.25.05-.42.07-.84.08-1.26,0-.22,0-.44-.03-.66.09-.45.2-.9.19-1.36-.02-.32.03-1.33-.22-1.78.01-.1.04-.19.04-.29,0-.13,0-.24,0-.35.05-.39.14-.77.15-1.16,0-.44-.06-.89-.1-1.33,0-.04,0-.09,0-.13-.03-.44-.04-.87.05-1.31,0-.1.03-.34.03-.56,0-.29,0-.44,0-.66,0-.1-1.27-.14-1.26,0-.04.1-.02.61-.03.72-.01.18,0,.36.02.54.04.14.06.29.07.43,0,.09,0,.19,0,.28-.07,1.06-.27,2.1-.11,3.17.03.34,0,.67,0,1.01-.02.17-.03.35-.02.52-.06.66-.03,1.42-.02,1.72.07.28.03.52.06.78,0,.11-.01.23-.02.34-.03.88.15,1.75.24,2.61,0,.13.01.27.02.4,0,.13-.02.27-.03.4-.11.61-.22,1.22-.3,1.84-.05.36-.03.76-.03,1.11,0,.38.06.77.09,1.15,0,.17,0,.34,0,.51-.02.38-.05.76-.09,1.14-.04.48-.04.92-.04,1.41.02.29.04.58.06.87.02.23.04.46.06.7.08.43.14.87.17,1.31,0,.21,0,.42,0,.63-.02.21-.05.42-.07.63-.05.27-.1.53-.14.8-.07.52-.13,1.03-.17,1.55-.08.87,0,1.75.06,2.61,0,.28.02.57.02.85-.06,1.09-.16,2.18-.13,3.27.02.54.06,1.08.1,1.61.04.33.09.65.14.98.04.31.08.63.12.94,0,.31,0,.63,0,.94-.04.32-.08.65-.12.97-.05.3-.1.6-.15.9-.07.43-.08.88-.12,1.31-.03.45,0,.91.01,1.36,0,.39.04.79.07,1.18.01.59.02,1.17,0,1.75-.02.25-.02.5,0,.75.03.37.05.74.08,1.12.02.4.04.79.06,1.19-.02.31-.04.73-.06,1.16-.08.43-.17.87-.23,1.3-.06.45-.12.89-.18,1.34-.02.31-.01.61.03.92.02.3.03.6.05.9.08.46.16.92.23,1.39.06.46.12.93.18,1.39.03.44.07.87.1,1.31-.03.44-.07.88-.1,1.32-.07.48-.13.97-.2,1.45-.07.42-.14.85-.21,1.27-.07.4-.05.77-.05,1.18-.02.33-.02.66,0,.98.01.07.02.13.04.2.07.43.15.85.22,1.28.06.48.11.96.17,1.43-.01.48-.02.97-.03,1.46-.02.22-.03.45-.04.67-.02.31-.04.61-.06.92.02.53.04,1.05.06,1.58,0,.56,0,1.12,0,1.67,0,.28-.02.56-.03.84-.04.57-.04,1.13.01,1.7.01.33.03.66.05.99.06.54.13,1.07.19,1.61-.03.53-.05,1.05-.08,1.58-.08.47-.15.94-.23,1.41-.09.52-.18,1.04-.28,1.57-.04.22-.05.43-.03.65.05.57.09,1.14.14,1.71.01.06.02.12.03.19.08.48.17.96.25,1.44.05.52.1,1.05.14,1.57-.03.52-.05,1.03-.08,1.55-.04.51-.08,1.03-.12,1.54-.02.33-.01.67.03,1,.04.85.06,1.69.08,2.54-.04.52-.08,1.05-.12,1.57-.02.33-.02.67-.02,1-.02.57,0,1.14.04,1.71.02.29.03.57.05.86-.02.52-.04,1.03-.05,1.55-.04.58-.09,1.16-.13,1.74-.02.26-.01.53.02.79.02.41.04.82.06,1.23.03.62.04,1.24.06,1.86.01.26.03.51.06.76.03.38.07.76.1,1.15l-.04,1.82c-.08.57-.17,1.15-.25,1.72-.02.28-.03.55-.04.83-.02.44-.04.87-.06,1.31,0,.06,0,.13.01.19.05.43.1.86.15,1.28.09.83.17,1.66.24,2.49,0,.61.02,1.23.03,1.84-.08.63-.17,1.27-.25,1.9l-.15,1.21c-.05.27-.07.54-.08.81,0,.07,0,.14.01.21.04.43.08.87.12,1.3.08.82.16,1.65.24,2.47-.01.84-.03,1.68-.05,2.51-.01.42-.02.84-.03,1.26,0,.21.02.42.02.63.02.42.03.84.05,1.26,0,.4-.01.79-.02,1.19,0,.63-.01,1.26-.02,1.88-.02.26-.02.53,0,.79.05.6.1,1.19.16,1.79-.01.59-.03,1.18-.04,1.77-.09.61-.18,1.22-.27,1.83-.02.44-.05.87-.07,1.31-.02.28-.03.57-.05.85,0,.07,0,.13.01.2.06.44.11.88.17,1.31.11.87.21,1.73.31,2.6-.02.63-.05,1.27-.07,1.9-.1.67-.2,1.33-.29,2-.02.29-.03.59-.04.88-.02.47-.04.94-.05,1.41,0,.06,0,.13.01.19.06.47.13.94.19,1.42.12.91.23,1.83.35,2.75-.06.44-.11.89-.17,1.33-.03.24-.06.47-.09.71-.02.29-.03.58-.04.87-.02.49-.05.98-.07,1.46,0,.05,0,.1,0,.16.03.36.05.73.08,1.09,0,.39.01.77.02,1.16-.06.75-.13,1.5-.2,2.26-.02.32-.01.63.04.95.03.51.06,1.03.09,1.54.04.72.08,1.43.12,2.15.02.4.03.8.05,1.2-.01.4-.03.8-.04,1.2-.03.81-.07,1.62-.11,2.43.02.54.03,1.08.04,1.62.03.54.03,1.09,0,1.63-.01.55-.03,1.09-.05,1.64.01.54.02,1.07.04,1.61.03.51.03,1.03-.02,1.54-.02.44-.04.88-.06,1.32-.04.42-.08.84-.12,1.26,0,.06,0,.12,0,.18.02.43.04.86.06,1.29.01.27.04.54.09.81.08.62.16,1.23.24,1.84-.02.78-.03,1.56-.05,2.34-.04.39-.08.78-.12,1.16,0,.05,0,.1,0,.14-.01.41-.02.82-.04,1.24,0,.28,0,.55.02.83.01.55.02,1.11.03,1.66,0,.26-.02.52-.03.78-.02.51-.04,1.02-.06,1.53-.03.39-.05.78-.07,1.18-.02.28-.01.55.01.83,0,.27.02.55.03.82.04.41.07.81.11,1.22.02.41.03.81.05,1.22,0,.28-.02.56-.02.84-.02.56-.03,1.11-.05,1.67.01.28.03.56.04.84.03.56.06,1.12.08,1.68,0,.27,0,.55,0,.82,0,.52,0,1.04,0,1.56h.63s.63,0,.63,0c0-.52,0-1.04,0-1.56,0-.27,0-.55,0-.82.03-.56.05-1.12.08-1.68.01-.28.03-.56.04-.84-.02-.56-.03-1.11-.05-1.67,0-.28-.02-.56-.03-.84.01-.4.03-.8.04-1.19.04-.41.07-.83.11-1.24.02-.27.03-.55.03-.82.03-.28.03-.56.01-.83-.02-.39-.05-.77-.07-1.16-.02-.52-.04-1.03-.06-1.54,0-.26-.02-.52-.03-.78,0-.55.02-1.11.03-1.66,0-.28,0-.55.01-.83-.01-.41-.03-.82-.04-1.24-.01-.43-.09-.87-.13-1.3-.02-.78-.03-1.56-.05-2.33.05-.41.1-.81.15-1.22.06-.48.15-.96.17-1.44.02-.43.04-.86.06-1.29,0-.06,0-.12-.01-.18-.04-.41-.08-.82-.11-1.22-.02-.45-.05-.9-.07-1.36-.04-.51-.05-1.03-.02-1.54.01-.54.02-1.07.04-1.61,0-.27-.02-.55-.02-.82-.02-.55-.03-1.09-.05-1.64.01-.54.03-1.08.04-1.62,0-.27.01-.54.02-.81-.02-.54-.05-1.08-.08-1.62-.02-.47-.04-.94-.06-1.41,0-.2-.01-.4-.02-.6.01-.39.03-.78.04-1.17.06-1.19.13-2.37.2-3.56.02-.34.07-.76.04-1.12-.07-.75-.13-1.5-.2-2.25,0-.38.01-.76.02-1.14.03-.37.05-.74.08-1.12,0-.05,0-.1,0-.16-.02-.49-.05-.97-.07-1.46-.01-.29-.03-.58-.04-.87-.08-.68-.17-1.36-.26-2.03.08-.68.17-1.36.25-2.04.06-.47.13-.94.19-1.42.06-.3.09-.6.1-.9-.03-.71-.05-1.41-.08-2.12-.01-.28-.05-.57-.11-.84l-.2-1.32c-.02-.63-.05-1.27-.07-1.9.08-.65.15-1.3.23-1.94.06-.44.11-.88.17-1.32.05-.28.08-.57.09-.86,0-.5-.06-1.01-.09-1.51,0-.43-.05-.85-.13-1.27-.06-.4-.12-.8-.18-1.2-.01-.59-.03-1.19-.04-1.78.03-.39.07-.78.1-1.17.03-.26.05-.51.06-.77-.01-1.04-.02-2.08-.04-3.12-.02-.41-.01-.82.01-1.22,0-.21.01-.42.02-.63.03-.42.03-.84,0-1.26-.03-1.04-.05-2.09-.07-3.13.06-.61.12-1.22.18-1.83.04-.43.08-.87.12-1.3.04-.28.06-.57.07-.86,0-.07,0-.14-.01-.21-.05-.4-.1-.81-.15-1.21-.1-.84-.21-1.67-.32-2.5,0-.61.02-1.22.03-1.83.05-.62.11-1.23.17-1.85.05-.43.1-.86.15-1.28.04-.28.07-.56.08-.84-.03-.65-.07-1.31-.1-1.96,0-.26-.04-.51-.1-.76-.06-.38-.11-.76-.17-1.13-.01-.61-.02-1.21-.04-1.82.05-.59.1-1.18.15-1.77.01-.26.02-.51.03-.77.01-.41.03-.83.04-1.24.02-.62.05-1.23.08-1.85-.01-.26-.03-.52-.06-.77-.03-.37-.06-.74-.08-1.11-.02-.53-.04-1.05-.06-1.58.03-.57.06-1.15.09-1.72,0-.57-.01-1.13-.02-1.7,0-.05,0-.1,0-.15-.04-.52-.08-1.04-.12-1.56.02-.85.04-1.7.08-2.55.05-.34.06-.67.03-1.01-.04-.51-.08-1.03-.12-1.54-.03-.51-.05-1.03-.08-1.55.05-.52.09-1.04.14-1.57.09-.48.17-.97.25-1.45l.03-.19c.05-.57.09-1.14.14-1.71.02-.15.02-.29,0-.44-.01-.07-.02-.14-.04-.21-.09-.51-.18-1.01-.27-1.52-.08-.48-.16-.96-.24-1.44-.03-.53-.05-1.05-.08-1.58.03-.26.06-.52.09-.77.06-.32.09-.65.11-.97.03-.57.05-1.14.08-1.71-.02-.56-.04-1.12-.06-1.69,0-.28,0-.56,0-.84-.01-.54,0-1.08.03-1.63.04-.31.05-.63.02-.94-.03-.47-.06-.95-.09-1.42-.01-.49-.02-.98-.03-1.46.06-.47.11-.95.17-1.42.03-.19.07-.39.1-.58Z"/><path class="cls-1" d="m427.45,202.56s0,.02,0,.03h0s0-.02,0-.03c0,0,0,0,0,0Z"/><path class="cls-1" d="m428.8,166.79c1.09,0,1.35-1.35,1.49-2.21.12-.81.65-2.18-.27-2.68-.24-.09-.5,0-.69.16-1,.21-.9,1.55-1.27,2.3-.44.81-.46,2.29.71,2.43.01,0,.02,0,.03,0Z"/><path class="cls-1" d="m431.05,159.42c-.4.46-.54,1.2-.18,1.72.15.22.35.32.54.31.31,0,.61-.25.73-.6.13-.33.19-.68.18-1.04-.08-.71-.82-1-1.27-.4Z"/><path class="cls-1" d="m426.37,98.84v.02s0,.02,0,.02v.02s0,.02,0,.02v.02s.01.02.01.02v.02s.01.02.01.02v.02s.01.02.01.02v.02s.02.02.02.02v.02s.02.02.02.02v.02s.02.02.02.02v.02s.02.01.02.01v.02s.02.01.02.01h0s0,.03,0,.03h0s0,.03,0,.03h0s0,.03,0,.03h0s0,.03,0,.03h.01s0,.03,0,.03h0s.01.03.01.03h0s0,.03,0,.03h.01s0,.03,0,.03h0s0,.03,0,.03h0s0-.09-.02-.13c-.04-.22-.15-.39-.3-.51h0s0,.03,0,.03v.02Z"/><path class="cls-1" d="m431.58,97.47c-.9.14-1.97,1.34-1,1.99.05.02.11.04.16.05.07.01.14.02.2.02.55,0,1.01-.47,1.42-.7.05-.02.09-.06.12-.1.16-.23,0-.66-.39-.56.18-.27-.07-.74-.51-.69Z"/><path class="cls-1" d="m429.66,94.35s.02.01.03.02c.03.02.06.03.1.04.02,0,.04,0,.06,0,.15,0,.28-.12.38-.2.3-.2.7-.29.97-.52.35-.4.69-.75.97-1.17.09-.13.17-.26.24-.41.25-.58.23-1.21.14-1.83,0-.2.02-.52-.33-.66-.46-.14-.77.22-1.07.42-.53.36-.94.82-1.2,1.34-.24.8-.77,1.56-.66,2.42.02.18.06.59.39.54Z"/><path class="cls-1" d="m429.05,110.04h.03s.07-.01.07-.01h.07s.07-.02.07-.02h.07s.07-.01.07-.01h.06s.06-.01.06-.01h.06s.05,0,.05,0c.46-.97.79-1.98.73-3.07-.02-.79-.06-1.51-.09-2.34-.05-.56,0-1.14.31-1.66.3-.58-.27-.77-.61-.25-.97,1.3-.45,2.96-.42,4.44,0,.86-.09,1.73-.36,2.55-.05.13-.11.26-.17.39Z"/><path class="cls-1" d="m431.96,107.11c-.05.06-.09.13-.11.2.03-.07.06-.13.11-.18v-.02Z"/><path class="cls-1" d="m433.68,134.55c.12.05.24.07.34.07.92,0,1.05-1.84.58-2.47-.13-.21-.36-.31-.58-.28-1.01-.08-1.09,2.29-.35,2.67Z"/><path class="cls-1" d="m432.71,137.42c0,.22.13.51.39.51s.39-.29.39-.52-.13-.51-.39-.51-.39.29-.39.52Z"/><path class="cls-1" d="m432.7,144.56c.07.05.16.06.24.06.14,0,.28-.05.38-.11.4-.07.65-.44.76-.81.18-.92.51-1.82.43-2.78,0-.27-.09-.6-.29-.81-.14-.31-.51-.51-.84-.4-1.35-.17-1.76,4.36-.68,4.85Z"/><path class="cls-1" d="m420.46,10.45c.82,2.03,2.2,3.94,4.33,4.69,1.63.68,3.32,1.43,5.12,1.34.1,0,.2.01.29.01.44,0,.88-.09,1.28-.28.22-.11.56-.26.76-.47.46.07.92.15,1.37.24.85.12,1.77.18,2.5.67.02.01.04.02.05.02.08,0,.14-.13.15-.2.03-.11.03-.3-.07-.38-.54-.42-1.16-.75-1.81-.98-.49-.19-.99-.27-1.5-.32-1.27-.44-2.25-1.41-3.33-2.19-1.61-1.01-2.7-2.52-3.97-3.91-.93-.79-1.92-1.55-2.99-2.14-.86-.49-1.83-.72-2.75-1.05-.2-.12-.26.03-.26.2-.04.24-.05.41-.02.67.18,1.37.36,2.77.83,4.08Zm2.71-.21c-.24-.46-.29-.99-.36-1.5-.05-.47-.05-.94-.08-1.42.38.24.74.49,1.1.76.03.52.23,1.04.34,1.54.21.95.52,1.91.96,2.79-.58-.48-1.14-1.02-1.63-1.61-.05-.2-.25-.39-.33-.57Zm.28,1.47c.35.29.69.59,1.04.89-.36-.11-.72-.22-1.07-.37-.99-.43-1.76-1.21-2.47-2.02-.13-.5-.23-1-.37-1.48-.01-.05-.03-.11-.04-.16.5.88,1.22,1.72,2.12,2.14.26.35.53.68.79,1Zm-1.95-.1c-.05-.09-.09-.19-.14-.28,1.06,1.18,2.54,2.03,4.11,2.24.05,0,.09.01.13.01.04,0,.07-.01.1-.02.41.3.84.58,1.29.81-.62.07-1.27,0-1.89-.11-.55-.09-1.02-.36-1.54-.53-.8-.58-1.59-1.24-2.06-2.12Zm6.63,4.01c-.7-.05-1.36-.23-2.01-.47.12.01.23.03.35.04.08,0,.21,0,.36,0,.47,0,1.16-.06,1.28-.35.89.32,1.81.51,2.74.67-.86.3-1.83.26-2.73.1Zm.27-3.34c.37.47.94.9,1.44,1.31.45.38.96.8,1.5,1.13-.17,0-.35-.01-.52-.02-.84-.15-1.63-.46-2.41-.78-.97-1.17-1.68-2.54-2.19-3.97.73.74,1.52,1.5,2.17,2.34Zm-2.73-2.86c.23,1.12.74,2.13,1.27,3.14.19.37.42.73.66,1.08-.54-.17-1.08-.33-1.6-.57-.31-.5-.58-1.03-.82-1.56-.31-.69-.42-1.35-.62-2.09-.11-.33-.19-.65-.26-.99.46.32.94.62,1.37.98Zm-3.47-2.41c.01.17.04.34.02.43.02.52.03,1.11.12,1.67-.22-.4-.41-.81-.56-1.23-.06-.19-.04-.39-.07-.58-.01-.07-.06-.21-.17-.21-.18.02-.23.26-.24.42-.02.69.2,1.34.53,1.96-.37-.32-.7-.68-.94-1.11-.3-.47-.48-1.05-.81-1.5-.06-.29-.1-.57-.08-.87.77.27,1.5.61,2.2,1.02Z"/><path class="cls-1" d="m438.23,22.75c-.31.15-.74.22-1.1.35.01-.17.05-.52.05-.52,0,0,0-.56-.02-.84,0-.22,0-.5-.04-.72,0-.1,0-.2-.01-.3.02-.39.04-1.14.04-1.14,0,0-.02-.56-.06-.84.03-.27.05-.54.06-.81h0s0-.06,0-.06l.03-.98-.04-1.2.06-.56.14-.72.09-.96s-.06-1.07-.05-1.61c.01-.13.04-.39.04-.39l.16-1.79s0-.08-.01-.11c0-.03.02-.08.02-.08,0,0-.02-1.8-.11-2.7,0-.17,0-.34,0-.51.03-.21.08-.62.08-.62l.11-1.03.02-1.04-.03-.81-.03-.51v-.07s-.06-.56-.06-.56l-.02-.24v-.11s-.01-.06-.01-.1c.04-.1.05-.32.05-.32,0,0,0-.06-.01-.08,0-.04,0-.68-.01-.77,0-.09-.89-.09-.89,0-.06.28-.09.73-.09.83-.2.85.21,1.72.08,2.58-.25,1.06-.19,2.15-.1,3.23,0,.55-.08,1.09-.04,1.63,0,.16.03.31.06.47-.07.36-.17,1.1-.17,1.1,0,0,.04,1.14.1,1.71,0,.12,0,.25,0,.37-.04.57-.14,1.71-.14,1.71,0,0,0,.07,0,.11-.03,0-.07,0-.1.03-.92-.24-1.69-.83-2.29-1.56.05-.11.03-.26,0-.37-.23-.55-.17-1.74-.17-1.74,0,0-1.41-3.46-3.24-3.05-.48.03-.27.67,0,.86.93,1.01,2.13,3.46,2.13,3.46,0,0,.85,1.01,1.29,1.51.62.78,1.48,1.4,2.45,1.66.03.24.07.47.09.71.01.19.01.37,0,.56-.03.46-.13,1.38-.13,1.38v.98s0,.56.04.84c0,.09-.02.17-.03.26-.28.63-.31,1.75-.32,2.64-.02,0-.05,0-.05,0l-.23.03s-.53.06-.79.15c-.15.05-.32.08-.49.09-.14-.17-.26-.35-.38-.55-.13-.38-.07-1.21-.07-1.21l-.51-1.82s-.7-.93-.98-.44c-.11.22-.03.47.14.63.26.35.54.7.72,1.1.1.55.19,1.11.39,1.64.05.22.14.48.27.7-.04,0-.13.02-.13.02,0,0-1,.49-1.53.69-.32-.37-.75-.69-1.04-1.1-.27-.42-.65-.8-1.03-1.11-.14-.06-.26.06-.36.15-.22.08-.51.43-.51.43,0,0-.24.48-.1.71.42.4,1,.63,1.57.73.22.01.47.1.67-.02.14.15.28.32.43.47-.39.33-.66.78-1.04,1.13-.03-.02-.04-.04-.07-.05-.08,0-.23,0-.23,0,0,0-.61.01-.98-.12-.44-.07-.96-.25-1.37.03-.47.3-.23,1.04.27,1.17.19.08.58.11.58.11,0,0,.63-.08.94-.16-.12.23-.23.46-.34.7-.28.35-.56.68-.79,1.06-.02,0-.03,0-.04.01-.29-.23-.82-.25-1.19-.22-.23-.09-.45-.21-.69-.3-.2-.03-.4,0-.58.05-.45.09-.39.75-.05.95.29.15.96.11.96.11,0,0,.5-.03.74.02.05,0,.14,0,.14,0,0,0,.11-.02.17-.02-.12.11-.23.23-.33.36-.27.25-.93.51-.93.51,0,0-.55.3-.86.41-.29.13-.53.37-.85.4-.22.04-.69.01-.62.36.03.1.16.14.16.14,0,0,.44-.24.6-.28.14-.06.29-.01.43-.06.44-.17,1.29-.59,1.29-.59,0,0,.44-.35.66-.53.22-.16.48-.24.68-.41.15-.15.3-.31.43-.47.08-.04.13-.11.15-.18.08-.1.16-.19.23-.29.17-.25.27-.54.41-.81.15-.23.54-.63.54-.63,0,0,.17-.22.26-.33-.04.08-.12.24-.12.24,0,0-.15.83-.27,1.24-.13.69-.53,2.08-.53,2.08,0,0,.17.19.3.22h.01s.94-1.38.94-1.38c0,0,.22-.87.11-1.29.24-.75.8-1.5.7-2.31.15-.08.3-.16.44-.25.4-.31.75-.67,1.28-.73.13-.03.25-.08.37-.13-.22.35-.57.6-.79.95-.29.52-.42,1.14-.51,1.72-.02.19.08.46.3.45.49-.1.23-.76.29-1.11.05-.36.45-.97.45-.97,0,0,.28-.64.55-.87.09-.12.24-.27.21-.42.02-.01.05-.02.07-.03,0,0,0,0,.01,0,0,0,.02,0,.02,0,0,0,.08-.03.1-.06.03-.01.07-.03.1-.04.42-.09.87-.07,1.3-.11,0,.2,0,.38-.01.51-.03.96.15,1.93.39,2.87,0,.06,0,.12-.01.18-.47-.08-.88,0-1.24.15-.01-.03-.06-.08-.06-.08l-.09-.02h-.32s-1.78.76-1.78.76l.16.28s.1-.02.16-.06c.22-.19.88-.15.88-.15,0,0,.06,0,.09,0-.38.44-.94,1.47-.94,1.47,0,0-.16.34-.24.52,0,0-.01,0-.03,0-.6.2-1.4.4-1.69.98-.04.09.03.36.03.36l.09.03s.22-.11.3-.16c.26-.19.64-.24.96-.37-.13.37-.24.74-.34,1.13-.05.09-.07.18-.07.28-.2.92-.29,1.87-.23,2.83-.62.4-1.07,1-1.44,1.64.22-.66.16-1.41.26-2.1.13-1.19-.52-2.34-1.44-3.14-.06-.04-.15-.01-.2.02-.01,0-.03.01-.04.02.02-.24-.35-.16-.35-.16l-.19,1.49s.4,2.11.79,3.11c.13.41.42.76.59,1.15.04.11.18.15.18.15,0,0,.09-.02.13-.05-.04.08-.09.17-.13.25-.07.2-.17.42-.22.65-.15.06-.29.13-.42.21-.3-.53-.33-1.18-.74-1.67-.99-.9-1.59,1.04-1.68,1.72-1.92-2.53-3.19-.29-2.56,1.79.02.06.05.12.07.18-2.16-.43-4.35.91-6.01,1.97-.16.12-.58.26-.39.51,1.16.67,3.87.81,3.87.81l1.04.04s.47-.04.7-.1c-.44.75-1.17,2.42-.11,2.78.09.01.26.02.26.02,0,0,.24-.02.35-.05.03.31.1.61.31.86.13.13.4.19.4.19,0,0,.28-.1.37-.26-.14.83,0,1.69.94.65.05.05.1.1.15.16-.44.7-.09,2.33.63,2.73.13.06.37.09.37.09,0,0,.92-.53,1.4-.68.42-.08.86,0,1.26-.19.95-.48,1.73-1.42,1.81-2.5.01-.08-.07-.18-.07-.18,0,0-.09-.02-.14,0,.15-.16.27-.31.36-.47.25-.09.57-.17.85-.29,0,0,.02.01.02.01,0,0,.06,0,.09-.03.25-.11.52-.51.52-.51l.05-.06s0-.03,0-.04c.17-.41.17-.92.12-1.36-.07-.82-.84-1.34-1.2-2.03-.1-.63-.27-2.07-.27-2.07,0,0-.13-.07-.2-.1-.15-.01-.3,0-.45.02.38-.65-.14-2.08-.14-2.08l-.25-.13s-.44-.1-.66-.08c.19-.82.71-1.62,1.31-2.17,1.18,0,.52-1.74.6-2.47,0-.08.02-.16.03-.24.1.18.21.35.38.46.01,0,.04,0,.04,0,0,0,.4-.27.46-.47.04-.12-.03-.22-.09-.32-.21-.29-.36-.63-.45-.96,0-.04-.03-.07-.05-.09.03-.1.05-.19.08-.29.33-.81.8-1.55,1.22-2.31.23-.35.38-.74.73-.99.24-.14.53-.23.81-.24-.42.66-.69,1.41-.92,2.15-.04.11-.13.35.05.42.02,0,.05,0,.05,0,0,0,.42-.36.51-.57.23-.61.41-1.24.77-1.8.02-.03.04-.05.06-.08.03.02.06.03.08.04-.05.46-.09.92-.13,1.38,0,.6.01,1.2.13,1.79-.06.47-.06.95.02,1.42-.01.11-.03.28-.05.46-.05.05-.09.1-.14.15-.03.21-.01.65-.01.65,0,0,0,.34,0,.52,0,.16.04.31.06.47.01.2.03.4.07.56.06.42.11.83.16,1.25-.01.36-.02.73-.04,1.09-.05.38-.16,1.15-.16,1.15,0,0-.06.39-.09.58-.06.24-.09.48-.1.72.01.24.05.71.05.71,0,0,.03.38.04.57.06.4.13.8.19,1.2,0,.42-.01.83-.02,1.25-.01.19-.03.57-.03.57,0,0-.03.51-.04.76,0,.23.02.45.03.68.03.48.03.96,0,1.45,0,.26-.02.51-.03.77.01.5.03,1,.04,1.5,0,.03,0,.1,0,.1,0,0,.1,1.04.14,1.56-.07.54-.22,1.61-.22,1.61l-.24,1.47-.02.5s.27,2.17.41,3.25c-.01.51-.02,1.03-.03,1.55-.03.59-.1,1.76-.1,1.76,0,0,0,.49.02.74.02.41.04.82.05,1.23-.03.38-.08,1.14-.08,1.14l-.04.61s-.01.5,0,.75c0,.42.03,1.25.03,1.25,0,0,0,1.24,0,1.86-.03.36-.08,1.09-.08,1.09,0,0-.04.49-.05.73.01.28.02.56.03.84-.51-1.08-1.86-3.06-1.86-3.06,0,0-1.05-.8-1.52-1.27-1.13-1.29-2.25-2.68-3.86-3.38-.41-1.1-1.73-3-1.73-3,0,0-.96-1.65-1.93-1.52-.83.07-1.14.95-1.54,1.55-.63,1.02-.15,3.53-.15,3.53,0,0,1.58,2.3,3.03,2.64.62.17,1.26.19,1.89.06.56-.06,1.14-.37,1.7-.23.13.06.38.03.5-.08.26.19.55.34.84.49-.2-.03-.4,0-.59.04-.08,0-.25-.02-.25-.02,0,0-.25-.03-.37,0-.49.07-1.29.67-1.29.67l-2.19,1.23s-.55.8-.86,1.19c-.3.31-.66.57-.92.92-.26.32-.43.69-.61,1.06-.23.37-.49.74-.65,1.14-.26.59-.26,1.24-.34,1.87,0,.46.36,1.31.36,1.31,0,0,.29.79.61,1.05.16.11.35.18.52.28.16.16.36.26.58.31.09.01.28.01.28.01,0,0,1.04-.18,1.47-.48.41-.22.87-.44,1.13-.85.59-.82.6-2.58-.4-3.08-.34-.1-.7-.14-1.05-.21-.18-.02-.3.14-.32.31-.03.48.35.41.67.52.31.17.75.55,1.02.81.21.23.15.48-.03.71-.48.46-.76,1.15-1.35,1.49-.62.3-1.25.21-1.92.16-.28-.15-.37-.42-.55-.68-.42-.57-.47-1.27-.65-1.93-.16-.45.25-.86.41-1.26.26-.51.88-1.47.88-1.47,0,0,.73-1.37,1.3-1.91,1.14-.68,1.94-2.08,3.36-2.17.42.01.8-.17,1.18-.31.22.01.44.07.67.04.08,0,.23-.06.23-.06,0,0,.17-.06.25-.05.1.06.22.07.32,0,.02-.02.02-.05.03-.07.24.18.46.38.63.65.42.55.83,1.11,1.29,1.63.2.25.42.48.64.71-.23.12-.38.36-.59.51-.43.27-.91.47-1.27.84-.49.44-.81,1.04-1.23,1.54-.81.71-1.43,1.62-1.73,2.67-.28,1.18-.44,2.4-.51,3.6.05,1.04.36,2.46,1.52,2.75.1.02.3.02.3.02,0,0,1.81-.97,2.38-1.76.54-.63.84-1.54.69-2.39-.05-.56-.48-1.62-1.14-.97-.36.41-.16.93.05,1.35.15.55.14,1.17-.17,1.66-.55.61-2.26.19-2.26.19l-.33-.61s-.37-1.34-.17-2.01c.28-.8.87-1.43,1.28-2.16.29-.48.49-1,.75-1.5.33-.49.81-.86,1.18-1.32.51-.58.75-1.4,1.52-1.68.07-.05.15-.08.22-.13.11.15.2.3.28.47.14.65.22,1.3.46,1.93.01.3.04.88.04.88,0,0,.03,1.24.05,1.86-.09.6-.17,1.21-.26,1.81-.01.26-.02.79-.02.79,0,0-.02.85-.02,1.27,0,.05,0,.11.01.16.04.42.13,1.25.13,1.25,0,0,.15,1.57.22,2.35-.05.6-.09,1.2-.14,1.8-.06.41-.11.82-.17,1.22-.05.26-.09.52-.09.78,0,.06.01.17.01.17l.09,1.27s.14,1.65.22,2.47c-.01.43-.04,1.28-.04,1.28v1.28s.02,1.54.03,2.31c0,.35-.02.7-.03,1.05,0,.43.01.87.02,1.3,0,.06,0,.12,0,.18-.29-.22-.6-.31-.81.02-.26.5.45.7.85,1.02.01.16.02.32.03.47-.22.08-.79.04-.79.04,0,0-.88-.27-1.05.09-.11.2-.06.45-.19.65-.13.1-.54.06-.54.06,0,0-.52-.05-.62.18-.08.25-.26.75-.26.75,0,0-.83.38-1.11.04-.09-.13-.08-.27-.1-.4.03,0,.08,0,.08,0h0c.59,0,.76-1.01.87-1.38.6.93,1.54.52,1.53-.33.26-.03.55-.32.55-.32l-.06-.89-1.18-.29s.54.48.83.73c-.03.08-.15.13-.23.17-.06.01-.19,0-.19,0,0,0-.13,0-.19.01-.29.1-.15.38.1.48.03.23-.2.41-.42.51-.2.02-.39-.12-.53-.24-.05-.06-.1-.12-.14-.2.02-.12-.11-.29-.28-.24-.43.21-.17.75-.33,1.1-.5.86-.79.38-.82-.33.09-.11-.04-.27-.04-.27,0,0-.2-.03-.27.09-.05-.14-.2-.25-.37-.1-.3.21-.49.57-.89.66-.52-.09-.37-.68-.13-.9.3-.19.51-.64.1-.88-.14-.04-.43-.08-.43-.08,0,0-.42-.05-.62-.14-.18-.16.25-.38.39-.46.21-.1.47-.18.73-.1.33.16.62.07.65-.24.03-.2-.18-.37-.4-.44-.5-.17-1,.06-1.38.28-.07.05-.13.11-.18.16.07-.15-.15-.41-.15-.41,0,0-.62-.16-.78-.39.2-.13.73-.08.73-.08,0,0,.37.03.53,0,.33-.04.7-.22.62-.54-.04-.19-.26-.28-.45-.37-.32-.16-.63-.38-.81-.65.27-.17,1.07.12,1.07.12,0,0,.27.3.42.41-.28.37-.34.88-.05,1.26.08.08.24.14.24.14,0,0,.54-.34.12-.52-.14-.27-.09-.62.15-.82.17-.09.38.11.53.18.37.23.54.59.72.92.05.27.42.31.6.13.22-.13.54-.94.87-.7.14.15.16.35.16.53-.04.21-.16.56.21.65.02,0,.06,0,.06,0l.28-.14s.08-.18.08-.28c.02,0,.03.02.05.02.41-.11.73-.4,1.2-.42.2,0,.2.15.17.28-.02.16-.25.45-.25.45,0,0-.39.5-.09.78.04.03.14.07.14.07h.08s.25-.06.31-.15c0,0,0,0,0,0,.18-.32.45-.62.49-.99.04-1-1.36-.96-2.04-.52-.05,0-.08.04-.12.07-.1-.37-.45-.7-.91-.81-.42-.04-.75.22-1.02.43-.17-.24-.35-.56-.6-.78.09-.17-.02-.45.04-.63.04-.28.28-.68.7-.59.26.15.38.39.56.6-.12.21-.17.67.26.68.2-.03.27-.21.32-.35.11-.24.26-.46.43-.68.41-.69.91.52.8.83-.06.22-.17.44-.2.67.03.12.16.16.16.16l.19-.11s.04-.08.04-.12c.18-.49.46-2.23-.55-2.27-.52.07-.98.34-1.2.72-.13-.29-.32-.66-.69-.8-.82-.22-1.21,1.07-1.24,1.67-.06-.02-.12-.05-.19-.05-.12.02-.23.05-.33.1-.08-.2-.29-.39-.48-.51-1.14-.82-2.85.41-1.48,1.28-1.05.31-1.35,1.07-.38,1.55-.31.04-.65.2-.81.36-.48.34-.71,1.17.13,1.4-.4.44.53,1.44.53,1.44h.04s.26.03.26.03l.54-.23.07-.3-.47-.41s-.29.04-.43.03c.26-.23.65-.41.66-.76.03-.36-.42-.47-.71-.26-.14,0-.3-.04-.38-.15.09-.26.85-.35.85-.35,0,0,.08,0,.12-.02.06.35.33.67.85.81-.39.46.03,1.66.03,1.66l.19.07s.01,0,.02,0c-.08.11-.12.28-.15.38-.06.19-.08.5.14.68.15.1.44.19.44.19l.22.02s.7-.2.92-.47c.07.23.2.46.34.62.23.21.75.38.75.38l.31.03s1.47-.59,1.51-1.3c.72.42,1.5-.07,1.53-.69.29.07.57.06.82,0l.03-.03.05-.05.05-.05.05-.05.05-.05.05-.05.04-.05h0c0,.06,0,.13.01.2-.07.62-.21,1.87-.21,1.87,0,0-.07.77-.11,1.15-.03.25-.05.49-.06.74.01.22.03.44.06.66.02.33.12.98.12.98,0,0,.19,1.63.27,2.44-.01.15-.02.3-.03.45-.01.36-.05.72-.12,1.07-.12.8-.27,2.42-.27,2.42v.33s.14,1.27.14,1.27c0,0,.2,1.57.31,2.36,0,.31,0,.62,0,.93-.05.29-.15.87-.15.87,0,0-.01.07-.02.1-.03.45-.08,1.34-.08,1.34,0,0-.03.44-.04.66-.25-.3-.52-.57-.81-.83-.06-.1-.12-.2-.18-.29.23-.34.29-.85.15-1.21-.18-.75-.29-1.51-.43-2.26-.22-.93-.03-2.81-.03-2.81,0,0-.16-1.17-.19-1.76.01-.36.13-.71.15-1.07.03-.14.08-.28.06-.43-.02-.16-.22-.27-.33-.12-.24.41-.2.92-.27,1.38-.28,1.05-.59,2.11-.51,3.21-.04.95-.26,1.87-.3,2.81-.12-.18-.24-.36-.38-.52-.16-.16-.32-.31-.49-.47.09-.23.11-.5.03-.72-.03-.19-.06-.39-.16-.57-.09-.44-.17-1.33-.17-1.33l.52-3.16s.13-2.21.55-3.25c.09-.47.04-.93.29-1.36.07-.15.07-.53.07-.53,0,0-.16-.1-.23-.02-.11.25-.2.52-.26.79-.11.33-.38.57-.48.91-.19.78-.58,1.47-.9,2.2-.4,1.09-.33,2.28-.37,3.43.04.78-.12,1.55-.11,2.32-.24-.3-.45-.61-.61-.98-.65-1.25-1.55-2.33-2.38-3.43,0-.06-.01-.11-.02-.17h.03s.02-.01.02-.01c0-.05.02-.11.03-.16.17-1.21.54-2.44.23-3.69-.21-.64-.37-1.31-.59-1.96.06-.01.13-.02.18-.07.09-.06.22-.23.22-.23l.13-.45s-.12-1.16-.08-1.74c.14-.41-.22-.6-.55-.26-.41.51-.36,1.15-.29,1.79-.11-.23-.23-.46-.38-.68-.93-.89-1.95,1.48-2.07,2.01-.1.36-.14.74-.14,1.13-.05-.09-.1-.17-.15-.26-.52-.72-1.11-1.51-2.02-1.95h0s0,0,0,0h0s0,0,0,0h0s0,0,0,0h0s0,0,0,0h0s0,0,0,0h0s0,0,0,0h0s0,0,0,0h0s0,0,0,0h0s0,0,0,0h0s0,0,0,0h0s0,0,0,0h0s0,0,0,0h0s0,0,0,0h0s0,0,0,0h0s0,0,0,0h0s0,0,0,0h0s0,0,0,0h0s0,0,0,0h0s0,0,0,0h0s0,0,0,0h0s0,0,0,0h0s0,0,0,0h0c-.02.09-.01.19.02.27.08.27.33.47.6.64.41.31.74.67,1.04,1.05.41.47.54,1.02.77,1.54-.31-.21-.63-.4-.97-.57-.38-.56-1.93-1.26-1.93-1.26,0,0-.92-.55-1.4-.79-.49-.19-.19.62-.19.62,0,0,.77.61,1.22.86-.47-.03-.93,0-1.32.21-.81.36-1.1,1.26-.49,1.94.35.33.74.62,1.15.9-.59.22-1.19.29-1.91.29.07-.85-2.9-1.6-2.9-1.6,0,0-.41.22-.49.4-.34.7,1.13,1.8,1.13,1.8l.66.2,1.04.09s1.25-.1,1.83-.18c.34-.03.57-.21.84-.35.18-.03.4-.24.4-.24,0,0,0-.01,0-.02.99.61,2.07,1.13,3.13,1.68.03.02.05.05.09.06.18.08.54.33.54.33,0,0,1.84,1.25,2.82,1.78.81.28,1.27,1.05,1.87,1.61.38.39.8.73,1.2,1.08.22.37.48.72.79,1.03.4.45.9.79,1.3,1.23.06.08.12.16.17.24.09.38.66,1.01.66,1.01,0,0,.11.02.16.03.38.39.82.7,1.2,1.09.1.13.19.26.28.39l.26-.15c.03.49.05.99.08,1.48-.03.38-.1,1.14-.1,1.14l-.05.61s-.01.5,0,.76c0,.41.03,1.22.03,1.22v.14s.11,1.52.11,1.52c0,0,.06,1.21.09,1.81-.01.27-.02.55-.04.82-.07-.42-.27-1.28-.27-1.28l-1.33-3.44s-.37-1.68-.69-2.48c-.93-2.82-2.25-3.9-4.47-5.67-.75-.8-1.47-1.67-2.49-2.14-.43-.22-.91-.35-1.33-.6-.3-.22-.58-.45-.9-.64-.53-.28-1.15-.37-1.52-.89-.12-.33-.42-.12-.36.16.11.37.52.49.78.73.51.71,1.28,1.1,1.93,1.65.67.8,2.42,1.88,2.42,1.88,0,0,2.18,1.89,2.89,3.2-.14-.11-.29-.21-.45-.29-.39-.18-.78-.47-1.22-.45-1.15.21-1.2,1.68-1.2,2.61-.07,1.1-.28,2.24.08,3.3.49,1,.92,2.03,1.43,3.03.33.57.79,1.05,1.24,1.53.58.67,1.83-.14,1.83-.14,0,0,.29-1.21.25-1.81-.01-1.12-.58-3.29-.58-3.29,0,0-1.47-.12-1.12.7.3.9.97,1.67,1.11,2.62-.05.44-.27.98-.65,1.22,0,0,0,0,0,0-.59-.3-.9-.98-1.28-1.5-.35-.51-.75-1-.96-1.58-.18-.56-.25-1.74-.25-1.74,0,0-1.26-2.82.28-3.83.94-.85,2.18,1.37,2.61,2.03.35.44.68.9.78,1.47.14.54.4,1.03.66,1.52.19.58.48,1.1.77,1.63.03.27.07.53.12.8.14,1.1.68,2.07,1.07,3.09.18.67.53,2.02.53,2.02,0,0,.05.12.09.17.07.28.12.56.08.86-.01.25.03.5.08.74-.01.32-.02.64-.03.96,0,.52.02,1.57.02,1.57,0,0,.01,1.13.02,1.69-.03.38-.11,1.15-.11,1.15l-.06.61s0,.51.03.77c.01.21.04.62.04.62,0,0,.03.5.05.75.08.57.15,1.14.22,1.71,0,.5,0,1.01,0,1.51-.04.38-.11,1.15-.11,1.15,0,0-.04.4-.06.59-.01.25-.01.5,0,.74,0,.63.01,1.25.01,1.88,0,0,.01,0,.02,0-.09.92-.08,1.85-.03,2.78.08.73-.14,1.62-.05,2.37,0,.16.04.34.1.5,0,.16.02.48.02.48,0,0,.01.38.02.57-.01.42-.03.83-.04,1.25-.03.25-.01.75-.01.75,0,0,.08,1.2.12,1.8,0,.61-.01,1.22-.02,1.83-.04.39-.12,1.18-.12,1.18,0,0-.04.41-.06.62-.01.25-.02.75-.02.75,0,0-.02.82-.04,1.22,0,.05,0,.1,0,.15.06.5.12,1,.18,1.49-.02.93-.03,1.85-.05,2.78-.02.23-.02.46,0,.69,0,.04.02.12.02.12,0,0,.18.99.27,1.48-.01.55-.03,1.1-.04,1.65-.05.33-.16.99-.16.99,0,0-.07.44-.11.66-.02.3-.01.6.02.91.02.45.03,1.35.03,1.35,0,0,.02.76.03,1.14v1.15s0,.22-.01.32c-.38-.5-.86-.88-1.32-1.3-.4-.63-.74-1.37-1.21-1.99-.35-.68-.37-1.48-.6-2.21-.15-.68-.48-1.29-.68-1.96.2-.13.19-.37.27-.56.32-.36.59-.77.9-1.14.3-.3.69-1.02.69-1.02l1.03-2.08s.36-1.74.38-2.62c-.03-.79-.21-1.57-.27-2.36-.16-1.24-.36-2.55-1.03-3.62-.18-.32-.44-.58-.72-.81-.14-.15-.25-.32-.39-.46-.43-.4-.73.19-.78.57-.29,1.27-.95,2.42-1.16,3.71-.17.71-.92,1.94-.92,1.94,0,0-.5,1.83-.46,2.76.07.56.29,1.05.41,1.61.07.4.1.82.24,1.23.3.72.94,2.14.94,2.14,0,0,.58.79.66,1.28.08.66.11,1.34.34,1.97.09.29.21.56.33.84-.2-.31-.44-.59-.6-.93-.27-1.12-.85-1.99-1.25-3.04-.26-1.27-.48-2.58-1.25-3.67-.38-.67-1.02-1.04-1.51-1.63-1-1.32-3.44-.71-3.44-.71,0,0-.72,2.5-.08,3.55.55.72,1.47,1.27,2.4,1.22.36-.09.77-.75.77-.75,0,0,.05-.48-.14-.59-.04-.02-.13.01-.13.01,0,0-1.24.47-1.7,0-.45-.53-.64-1.96-.64-1.96,0,0,.04-.84.56-.81,1.8.27,3.31,2.51,3.31,2.51,0,0,.43,1.1.69,1.62.25.54.63,1.02.81,1.59.23.9.86,2.61.86,2.61l1.09,1.64s.59.7.87,1.06c.06.21.23.6.23.6,0,0,.6.72.89,1.08.27.41,1.07.97,1.07.97,0,0,.38.14.53.29,0,.08,0,.24,0,.24,0,0,.03.75.04,1.13-.03.37-.09,1.12-.09,1.12l-.05.6s0,.38.02.56v.04s0,0,0,0c0,0,0,0,0,0,0,.05,0,.09,0,.14l.05,1.21.08,2.14v.91s.01,1.69.01,1.69l.04,1.1s.02.32.03.48c0,.3,0,.6-.01.91-.01.18-.03.35-.04.53-.17-.32-.51-.97-.51-.97,0,0-.01-.02-.02-.03,0,0,0,0,0,0,0,0,0,0,0,0l-.46-.77s-.34-.55-.48-.84c.02.12.03.25.05.37-.39-1.09-1.62-3.07-1.62-3.07,0,0-.78-.87-1.22-1.26,0-.06-.04-.16-.04-.16,0,0-.11-.27-.17-.41-.19-.48-.33-.97-.35-1.5-.07-.24.18-2.85-.35-2.25-.11.58-.14,1.2-.15,1.8h0c-.03.27-.08.55-.11.82-.06-.14-.12-.29-.19-.43-.12-.34-.22-.69-.4-1-.06-.1-.12-.2-.19-.29,0,0,0,0,0,0,0,0,0,0,0,0,0-.01-.02-.05-.02-.05,0,0-.71-1.85-1-2.8-.08-.38-.15-.77-.21-1.15.04-.38-.07-1.16-.07-1.16,0,0-.65-1.23-.9-.69-.14.72.71,2.01.71,2.01,0,0,.08.05.12.05.1.49.33,1.45.33,1.45,0,0,.33,1.13.55,1.67-.45-.58-1.36-1.74-1.36-1.74l-.28-.22s-.33.26-.24.43c.12.23.37.36.54.55.19.19.47.65.47.65l.59.87s.25,1.13.48,1.66c-.24-.17-.75-.46-.75-.46,0,0-.91-.33-1.39-.42,0,0-.02-.03-.02-.03,0,0-.56-1.09-.79-1.65-.12-.43-.48-.7-.7-1.07-.09-.33-.28-.59-.45-.87-.03-.13-.07-.25-.1-.38.1,0,.23-.09.28-.16,1.22-1.38,0-3.17-.86-4.4-.16-.19-.21.03-.22.17-.26,1.4-1.18,3.37.33,4.36.06.04.16.08.23.07.04.09.08.19.12.28.05.15.1.3.15.45,0,0,0,0,0,0,.03.15.09.3.16.44t0,0c.03.08.08.25.08.25,0,0,.06.22.09.33,0,0,0,0,0,0,.03.21.05.42.12.62.09.38.29.7.51,1.02.03.05.06.09.08.13.07.09.13.18.18.28-.25-.06-.49-.14-.72-.25-.79-.18-1.56-.14-2.27-.65-.06-.18-.27-.21-.36-.03-.07.17.11.5.11.5,0,0,.62.27.95.36.44.14,1.22.66,1.22.66,0,0,1.18.24,1.66.61.85.8,2.06.87,3.04,1.41.23.15.39.34.54.55.07.18.15.37.29.48.02.04.07.13.07.13l1.65,3.06,1.79,3.5s.32.82.44,1.24c.07.57.13,1.12.16,1.69h0c-.13,1.05.35,3.08.35,3.08,0,0,.23.6.53.6.02,0,.04-.01.06-.02-.02.31-.07.94-.07.94,0,0-.01.42,0,.63,0,.36.02,1.08.02,1.08,0,0,0,.06,0,.08-.14-.48-.3-.96-.48-1.42-.36-1.31-1.14-3.95-1.14-3.95,0,0-1.02-1.69-1.54-2.53-.43-.77-.69-1.63-1.21-2.36-.54-.86-1.24-1.57-2.06-2.15h0c-.19-.19-.43-.33-.68-.44-.5-.3-1.04-.56-1.58-.78-.44-.35-.83-.75-1.19-1.18-.59-.76-1.37-1.35-1.87-2.18-.33-.49-.88-.73-1.33-1.1-.16-.2-.61-.42-.61-.42,0,0-.48-.64-.71-.97.24-.69.28-1.43.01-2.12-.21-.68-.64-1.25-.87-1.92-.03-.09-.11-.09-.14,0-.14.55-.62,1.57-.62,1.57,0,0-.12,2.61,1.17,2.83.04.07.08.13.13.2.04.11.12.32.12.32,0,0,.47.63.73.94.05.08.1.15.15.23.13.26.4.78.4.78,0,0,.4.45.62.66.06.08.12.16.18.24.12.13.24.25.36.37-.15-.04-.3-.06-.46-.08-.68-.17-1.23-.68-1.96-.65-.03-.21-.29-.18-.44-.14-.18.07-.16.44.04.46.06.02.12.02.19.03.31.11.5.4.79.55.67.27,1.24.67,1.81,1.1.2.14.41.25.64.34-.13-.01-.26-.01-.39,0-.69-.09-1.33.12-1.98.32-.6.09-1.21.1-1.82.08-.18.01-.53,0-.53,0,0,0-.44,0-.66.02-.33-.39-.87-.71-1.33-.52-.45.35-.91,1.44-.91,1.44,0,0-.07,1.01-.06,1.5.03.15.19.17.31.17,1.3.14,2.15-.7,2.12-1.97.2,0,.58.04.58.04,0,0,.41.05.61.03.37-.04.76-.15,1.13-.03.75.35,1.56.41,2.36.58.53.04,1.59.11,1.59.11l2.51,1.02s.61.11.91.14c.11.12.23.24.34.36,1.08,1.2,2.47,2.19,3.17,3.67.52,1.27.53,2.47,1.03,3.82.21.65.54,1.24.75,1.89.33,1.2.54,2.43.75,3.65.15.54.49,1.02.56,1.59.05.25.52.5.52.5,0,0,.01,0,.02,0-.02.32-.03.64-.05.96-.03.19-.09.56-.09.56,0,0-.12.75-.18,1.13,0,.05,0,.11,0,.16.01.22.03.43.05.65,0,.21.07.63.07.63,0,0,.12.57.17.86.03.28.07.56.1.84h.89c.03-.29.06-.56.1-.84.06-.29.12-.57.17-.86,0-.05.02-.09.02-.14.03-.33.08-.98.08-.98,0,0,.01-.21,0-.32-.09-.56-.18-1.12-.27-1.67-.03-.6-.07-1.19-.1-1.79.02-.34.07-1.01.07-1.01l.02-.65v-2.22s.02-.72.02-1.08c.01-.21,0-.63,0-.63,0,0-.06-.68-.08-1.03-.04-.32-.08-.63-.12-.95.01-.3.03-.6.04-.91.09-.52.28-1.56.28-1.56l.04-.92s0-.43.01-.65c.02-.27.02-.53,0-.8-.06-.35-.12-.7-.18-1.05-.03-.33-.06-.67-.08-1,0-.31-.01-.62-.02-.93.02-.47.06-1.58.06-1.58,0,0,.02-.82.02-1.23,0-.15,0-.46,0-.46v-.91s.02-1.3.02-1.3c0,0,.06-1.37.09-2.05.03-.25.02-.74.02-.74,0,0-.09-1.14-.14-1.7.02-.57.04-1.15.06-1.72,0-.38-.02-1.15-.02-1.15v-1.14s.04-1.8.06-2.7c-.01-.23-.04-.46-.1-.68-.06-.36-.12-.72-.18-1.08-.02-.55-.03-1.1-.05-1.65.09-.5.27-1.49.27-1.49l.02-.81s-.04-1.85-.06-2.77c.06-.5.12-1,.18-1.51,0-.05,0-.1,0-.15-.01-.41-.04-1.23-.04-1.23,0,0-.01-.5-.03-.75-.06-.6-.13-1.2-.19-1.79,0-.61-.02-1.22-.02-1.83.03-.39.07-1.18.07-1.18l.04-.63s.01-.5-.02-.75c-.01-.42-.03-.83-.04-1.25,0-.19.02-.57.02-.57l.04-1.07s.04-.72.07-1.08c.1-.83.02-2.5.02-2.5,0,0-.09-.87-.1-1.31,0,0,0,0,0,0,0-.68,0-1.37,0-2.05.02-.25,0-.74,0-.74,0,0-.11-1.15-.17-1.73,0-.51,0-1.01-.01-1.52.05-.38.14-1.13.14-1.13,0,0,.05-.39.07-.59.02-.41.07-1.22.07-1.22l.03-.92s-.11-1.17-.17-1.75c0-.83.02-2.49.02-2.49l-.02-1.63s-.02-.56-.03-.84c0-.38.03-1.15.03-1.15l-.05-2.92s-.04-.8-.06-1.21c0-.2.03-.61.03-.61l.05-1.12.1-1.61s.02-.91.03-1.36c.02-.25,0-.76,0-.76,0,0-.1-1.15-.16-1.73.02-.39.06-1.15.06-1.15l.03-.91-.09-1.34s-.03-.45-.04-.67c-.05-.32-.11-.64-.17-.96,0-.31,0-.62,0-.93.08-.58.23-1.74.23-1.74,0,0,.09-.85.14-1.27.04-.26.07-.53.08-.8-.01-.26-.08-.79-.08-.79,0,0-.09-.84-.13-1.26-.05-.35-.11-.71-.16-1.06-.02-.33-.05-.65-.07-.98.06-.65.13-1.31.19-1.97.05-.33.09-.65.14-.98.03-.33.09-.99.09-.99v-.33s-.11-1.15-.11-1.15c0,0-.17-1.62-.27-2.43.02-.39.07-1.16.07-1.16,0,0,.03-.5.05-.75,0-.83,0-2.48,0-2.48v-2.21s.02-.84.03-1.26c0-.22-.02-.65-.02-.65,0,0-.03-.85-.04-1.27.05-.62.16-1.85.16-1.85l.09-1.27s.04-.54.05-.8c0-.06,0-.11-.01-.17-.06-.41-.17-1.22-.17-1.22l-.14-1.24s-.06-.77-.09-1.16c.05-.58.15-1.74.15-1.74,0,0,.09-.83.13-1.25.04-.26.06-.52.07-.78-.01-.64-.04-1.91-.04-1.91,0,0-.05-.52-.1-.77-.06-.4-.12-.79-.17-1.18.01-.62.04-1.87.04-1.87l.08-1.91s.07-1.06.09-1.59c.02-.22,0-.65,0-.65,0,0-.08-1.1-.13-1.66,0-.41,0-1.24,0-1.24,0,0,0-1.25.02-1.88.02-.25,0-.75,0-.75,0,0-.08-1.16-.13-1.74.02-.41.03-.83.05-1.24.04-.42.03-.83-.01-1.25-.02-.41-.05-.83-.07-1.24-.01-.52-.02-1.03-.04-1.55.09-.72.27-2.16.27-2.16,0,0,.04-.37.07-.55.04-.24.07-.48.07-.72,0-.06,0-.11-.01-.17-.09-.54-.27-1.62-.27-1.62,0,0-.15-1.07-.22-1.61.02-.25.04-.5.07-.74.04-.31.08-.92.08-.92l.02-.75s.03-1.01,0-1.52c0-.26-.02-.51-.03-.77.01-.45.03-.91.05-1.36-.03-.44-.05-.88-.08-1.32,0-.42-.02-.83-.02-1.25.06-.4.13-.81.19-1.21.01-.19.04-.57.04-.57,0,0,.03-.48.04-.71-.01-.24-.04-.48-.1-.72-.09-.57-.17-1.14-.26-1.72-.01-.36-.03-.73-.04-1.09.04-.36.08-.73.12-1.09.03-.18.05-.36.08-.54.05-.22.08-.44.09-.66,0-.17,0-.34,0-.52,0-.21,0-.42-.01-.64-.02-.15-.05-.3-.08-.46.03-.13.09-.39.09-.39,0,0,.03-1.25-.02-1.87,0,.01.03.04.03.04l.08.02.13-.04.23-.21.11-.29-.07-.2h-.21s-.23.22-.23.22c0,0-.07.15-.09.23-.04-.5-.08-.99-.04-1.49,0-.14-.02-.28-.03-.42.12-.16.19-.37.22-.54.05-.54-.09-1.06-.27-1.57,0-.45-.01-.89-.06-1.36.54-.16,1.38-.78,1.38-.78l-.03-.37s-.17-.03-.29.07Zm-8.54-.82c.03-.06.08-.12.12-.17-.05.06-.07.14-.06.22-.02,0-.04-.03-.06-.05Zm.16-.23s-.01.01-.02.02c.02-.03.04-.07.07-.1-.02.03-.04.06-.05.08Zm-10.89,19.84s.07-.04.11-.06c-.01.03-.01.07,0,.11-.04-.01-.07-.03-.11-.04Zm11.81-.7c.08,1.4,2.33,3.81.59,5.03-.37.28-.76.54-1.13.76-.17.11-.37.16-.57.13-.3-.05-.47-.3-.57-.56.4-.31.91-.41,1.39-.58.34-.17.69-.51.65-.92-.02-.17-.23-.3-.36-.34-.44-.19-.9-.5-.95-1-.06-.67.19-1.33.46-1.91.09-.09.18-.23.2-.38.11-.07.2-.14.29-.23Zm-3.55,4.37c.3-.35.83-.49,1.06-.86.05.05.09.11.13.17,0,.02.02.03.03.05-.34.29-.77.53-1.22.64Zm1.02.18c-.04.5-.12.99-.41,1.4-.3-.21-.48-.55-.7-.84.18-.05.35-.15.51-.22.2-.1.4-.2.58-.32,0,0,.01,0,.02-.01Zm-.97-3.87c.07-.06.15-.17.2-.29.35.01.7,0,1.06.09.4.15.82.16,1.2.07-.16.32-.28.68-.35.87,0,0,0,0,0,0-.04.02-.07.03-.11.07-.35.32-.96,1.24-1.53.93-.42-.48-.61-1.16-.47-1.75Zm1.91,1.64c-.07.8.18,1.57,1.15,1.92-.32.11-.97.37-1.36.7,0-.05-.03-.09-.07-.12.04-.18.08-.35.09-.54.01-.1-.02-.24-.14-.27.37-.44.26-.92-.17-1.21,0,0,0,0-.01,0,.19-.15.36-.31.51-.48Zm-.41-2.57c-.35,0-.7,0-1.03.06-.69-.01-1.41-.17-2.03.17.61-.84,1.72-1.58,2.84-1.58.53,0,1.06.16,1.53.55.16.15.31.31.35.52-.49.3-1.07.3-1.66.29Zm-4.8,3.63c-.2-1.03.81-2.31,1.65-2.79.38-.25.84-.28,1.29-.26-.19.25-.31.55-.34.86-1.33-.16-2.25,1.22-2.17,2.41,0,.01,0,.02,0,.04-.19,0-.37-.05-.43-.26Zm1.63,1.44s-.04-.09-.09-.12c-.09-.02-.17-.06-.24-.12-.36-.5-.23-1.17-.22-1.72.04-.59.74-1.08,1.33-.82.09.02.17-.02.24-.08.07.34.21.67.42.96-.67.43-1.17,1.22-1.43,1.9Zm.8.19c-.08.06-.15.12-.22.19-.07-.76.5-1.82,1.31-1.98.05.01.09.04.15.04.04,0,.08-.02.13-.02-.52.35-1.61,1.11-1.36,1.77Zm3.14,2.33c-.56-.04-.96.34-1.37.61-.13.07-.29.09-.44.03-.5-.33-.6-.96-.65-1.51.16.14.31.24.47.24h0c.2,0,.41-.14.68-.5.07-.11.14-.22.21-.34.16.52.55.85,1.03.85.22,0,.46-.07.7-.23.61-.37,1.07-.69,1.42-1-.1.22-.09.51-.14.75-.34.75-1,1.28-1.91,1.09Zm2.5-6.84c-.09.62.41,1.12.85,1.55.42.41.61,1.03.52,1.57-.14.05-.28.13-.43.17-.15.07-.33.11-.49.16.07-.74-.21-1.64-.64-3-.13-.5-.39-.99-.35-1.51.01-.11-.02-.2-.09-.24-.02-.01-.04-.01-.07-.02.23-.09.52-.15.67.09.2.4.05.84.03,1.24Zm-.85-3.24c.25.3,0,.79-.22,1.23-.09-.12-.21-.23-.37-.34-.13-.09-.29-.17-.47-.25-1.62-.66-3.17-.32-4.21.93-.22-.18-.34-.45-.44-.7-.35-.66-.44-1.37-.27-2.05.7-.07,1.29.47,1.69,1,.23.39.48.29.64-.05.15-.54.22-1.12.53-1.6.48.38.53,1.05.83,1.54.22.5.59.2.87,0,.44-.28,1.11-.18,1.42.3Zm-2.32,26.55c-.1,0-.19.02-.29.03-1.1.1-2.01-.3-3.08-.58-.38-.13-.88-.17-1.09-.57-.35-.75-.24-1.6-.16-2.42.09-.47.24-1,.61-1.32.26-.16.58-.26.89-.27.17,0,.33.03.49.09.53.75.71,1.7,1.06,2.54.21.54.54.99.84,1.48.11.45.45.75.82,1-.03,0-.07.01-.1.02Zm-.51,33.14s-.01.02-.02.03c0,0-.01-.01-.02-.02.01,0,.03,0,.04-.02Zm2.84,3.13s0,0-.01,0c0,0,0-.02,0-.02,0,0,0,.01.01.02Zm-.8.24c-.09.14-.17.28-.26.34-.16.2-.68.63-.64.06,0-.18.27-.4.12-.57.16-.05.32-.13.43-.23.27-.17.56-.39.82-.58.03-.02.05-.04.07-.06-.01.2.03.42.13.63-.01-.01-.02-.03-.03-.04-.29-.13-.48.18-.65.46Zm1.18,71.21c-.14-.62-.46-1.15-.72-1.72-.13-.45-.09-.91-.09-1.37-.01-.75-.01-1.5.33-2.19.32-.73.4-1.53.75-2.24.73-.91.93-2.03,1.33-3.11.14.79.53,1.51.98,2.16.4.92.87,1.88.72,2.91-.15,1.02-.75,1.87-1.03,2.84-.21.56-.32,1.16-.54,1.71-.28.56-.5,1.14-.77,1.7-.02-.39-.05-.78-.09-1.17-.03-.64.33-1.19.4-1.82.01-.61.12-1.19.29-1.77.06-.31.04-.59.13-.91.07-.21.16-.41.22-.62.05-.11.08-.3-.02-.4-.07-.08-.2-.08-.26.01-.16.26-.14.59-.21.88-.08.31-.27.59-.35.9-.11.4-.08.83-.23,1.23-.19.53-.21,1.1-.22,1.66-.01.42-.15.81-.21,1.23-.04.29-.03.59,0,.88-.16-.26-.34-.48-.42-.8Zm-2.78,9.16s-.02-.02-.03-.03c.02,0,.03-.01.05-.02,0,.03.02.06.03.09-.01-.01-.03-.02-.04-.03Zm-2.02-70.39l.03-.03.03-.03h0c-1.27-.73-2.64-1.32-3.92-2.03-.93-.5-2.18-.83-2.69-1.7.32-.31.83-.3,1.32-.2.18.04.36.09.53.13,1.18.27,2.2.86,3.21,1.44.41.21.81.78,1.34.63.85-.65-.21-1.84-.38-2.65-.26-.8-.18-1.61.11-2.35.09-.25.18-.43.27-.57.87-1.3,1.55,2.32,1.6,3.1.04.72-.12,1.41-.28,2.1-.02.03-.03.06-.03.1,0,.01,0,.02,0,.03-.07.29-.12.57-.16.86-.43.2.05,1.43.13,1.77.03.07.06.15.09.22-.06-.04-.13-.08-.19-.13-.22-.15-.6-.43-1.01-.68Z"/><path class="cls-1" d="m437.95,27.11c-.09.05-.17.13-.22.21-.06.08-.1.18-.11.29,0,.07,0,.15.07.2.03.02.05.02.08.02.04,0,.09-.02.13-.03.09-.05.17-.13.22-.21.06-.08.1-.18.11-.29,0-.07,0-.15-.07-.2-.07-.04-.15-.02-.21.01Z"/><path class="cls-1" d="m15.31,31.69c-.09.05-.15.11-.21.18-.59.22-.81,1.41-.36,1.87.37.37.71.3.96.04.13.05.3-.04.34-.31.05-.18.04-.36.04-.54.24-.4.09-.88-.15-1.24-.08-.1-.19-.15-.3-.15-.12,0-.24.05-.32.15Z"/><path class="cls-1" d="m18.2,34.49c-.2-.16-.38-.23-.54-.23-.99,0-1.31,2.61-1.17,3.35.1.55.64,1.12,1.22.8.16-.08.29-.18.39-.32.27-.37.3-.85.32-1.29.07-.45.18-.95-.05-1.37.03-.09.05-.18.05-.28,0-.24-.08-.48-.23-.67Z"/><path class="cls-1" d="m17.53,126.03c-.23,0-.48.08-.68.17-.17.07-.7.26-1.06.49-.29.18-.47.39-.27.59-.11.7.79.64,1.22.46.61-.15,1.76-.66,1.41-1.36-.03-.06-.07-.13-.13-.19-.14-.12-.31-.16-.48-.16Z"/><path class="cls-1" d="m15.57,132.36s0-.02,0-.03c0,0,0-.01,0-.02l.02.05Z"/><path class="cls-1" d="m11.71,148.99c.48-.08.91-.32,1.28-.63.26-.16.52-.31.78-.47-.21.22-.39.47-.6.69-.05.05-.11.1-.16.15-.23.16-.47.29-.71.44-.18.11-.35.22-.52.35-.03.02-.07.05-.1.07-.02.01-.04.03-.06.04,0,0-.02.01-.03.02-.06.04-.12.1-.18.15,0,0-.02.02-.04.04,0,0-.02.01-.03.02,0,0,0,0,0,0,0,0,0,0-.01,0-.04.02-.07.06-.1.09,0,0,0,.01-.01.02,0,0,0,0-.01.01-.02.01-.04.03-.06.04,0,0-.03.01-.07.04h0s0,0,0,0c0,0-.01,0-.02.01,0,0,0,0,0,0,0,0-.02,0-.03.01-.02,0-.03,0-.05.01-.18,0-.27.21-.27.36,0,.16.1.33.26.35.02,0,.05,0,.08,0h.05s.04,0,.05,0c0,0,0,0,.01,0,0,0,.02,0,.03,0,.07,0,.16,0,.23-.01,0,0,0,0,.01,0,.03,0,.07.01.1,0,.01,0,.03,0,.04,0,.01,0,.02,0,.03,0h0s.01,0,.02,0c.02,0,.03,0,.04,0,.02,0,.05,0,.07-.02,0,0,.02,0,.03,0,.09-.03.18-.06.27-.1.01,0,.06-.03.1-.05.27-.14.51-.34.73-.56.02-.02.04-.04.07-.07.18-.18.32-.38.49-.56.22-.21.47-.39.69-.6.28-.26.51-.55.69-.89.04-.07.07-.14.11-.22.02-.04.05-.09.07-.13.1-.17.2-.34.31-.5,0,0,0,0,0,0-.12.56-.16,1.12-.38,1.65-.17.49-.17,1-.22,1.51-.07.24-.05.58.21.69.22.08.4-.12.44-.31.41-.81.27-1.72.44-2.58.27-.64.23-1.32.27-1.99.19-.33.33-.69.57-.99.42-.35.78-.82.97-1.32.12-.31.25-.69.31-.99,0-.04.02-.09.03-.13.03.09.06.19.12.28.07.31.14.63.22.93.09.68.08,1.33.24,1.98,0,0,0,0,0,0-.23.65-.38,1.34-.66,1.98-.07.28-.4,1.86.11,1.75.28-.15.14-.56.2-.83.06-.39.09-.8.22-1.18.13-.26.28-.51.43-.76.45,1.3,1.27,2.44,2.14,3.49.25.37.47.76.68,1.14.08.4.56.82.95.52.23-.18.4-.41.5-.69.5-.82.88-1.71,1.31-2.57,1.07-1.92,2.14-3.68,1.07-5.89-.33-.81-.68-1.59-1.02-2.36.2.15.41.29.63.4.66.28,1.06.96,1.73,1.25.75.33,1.5.62,2.29.82.72.08.33-.63-.04-.82-.55-.38-1.14-.69-1.77-.9-.6-.53-1.37-.81-1.99-1.3-.61-.6-1.28-1.13-2.03-1.54-.62-.74-1.38-1.38-2.12-1.96-1.26-1.09-2.51-2.17-3.7-3.33-.24-.27-.47-.54-.73-.79-.18-.2-.25-.33-.42-.44-.12-.09-.24-.13-.35-.13-.08,0-.15.02-.21.06-.16.1-.23.32-.15.58.09.23.2.46.32.68-.07.16-.11.34-.08.53.04.32.14.63.27.93.08.4.09.81.14,1.22.07.71-.15,1.4-.29,2.09-.13.64-.07,1.35-.58,1.84-.1.14-.15.26-.31.36-.26.2-.05.83.29.59.48-.54.69-1.25,1.15-1.81.48-.81.46-1.79.61-2.7.06-.36.11-.73.14-1.1.1.11.19.23.3.33.34.34.74.61,1.13.89,0,.05,0,.11,0,.15-.08.8-.45,1.54-.59,2.33-.23.72-.24,1.5-.57,2.19-.16.27-.41.48-.53.78-.24.48-.43,1.11-.64,1.62-.15.29-.36.55-.48.86-.21.43-.19.94-.49,1.33-.07.07-.1.16-.16.24-.05.05-.07.11-.06.17-.82.44-1.51,1.09-2.33,1.51-.63.07-1.24.22-1.86.34-.62.03-.89.7-.52,1.17.34.32.87.13,1.29.13Zm7.39-11.95s0,.02,0,.04c0,0,0,.01,0,.02,0-.02,0-.04,0-.06Zm2.79,2.29c.41.34.81.7,1.21,1.06.28.38.55.75.84,1.12.1.15.16.3.22.45-.26-.33-.48-.68-.8-.95-.39-.36-.91-.52-1.36-.78-.22-.15-.43-.32-.67-.44-.2-.13-.45-.13-.67-.23-.1-.5-.28-1-.23-1.52,0-.04,0-.07.02-.11.43.51.95.95,1.44,1.4Zm1.65,7.51c-.44-.73-.95-1.4-1.41-2.11-.05-.56-.2-1.09-.41-1.6.15.18.29.38.46.53.42.41.91.74,1.22,1.25.13.15.32.47.53.77-.13.39-.26.78-.38,1.15Zm-4.68-3.55c0-.47.12-.89.12-1.35.01-.37-.04-.7-.07-1.03.05-.07.09-.14.15-.19.23-.2.44-.41.64-.63.1.66.25,1.31.39,1.97-.06-.06-.13-.11-.21-.11-.04,0-.07.01-.11.03-.02.01-.04.03-.05.05-.35.42-.62.92-.85,1.41,0-.05,0-.09,0-.14Zm5.02,1.05c-.55-.46-.93-1.1-1.55-1.47-.31-.2-.6-.3-.87-.53-.05-.05-.12-.12-.21-.19-.1-.18-.19-.37-.29-.55-.19-.49-.16-1.02-.22-1.53.01,0,.02,0,.03,0,.29.31.68.49,1.05.68.59.45,1.1,1,1.76,1.37.21.15.4.31.57.49.06.06.14.08.22.06.1.65.02,1.33-.16,2-.13-.14-.26-.26-.33-.34Zm-4.83.19s-.02-.09-.05-.14c.01-.22.19-.37.28-.57.17-.54.48-.94.86-1.33.02-.02.01-.04.02-.06.03.16.07.32.1.48.13.49.36.95.58,1.42-.03,0-.06,0-.09.03-.03.02-.05.04-.08.08-.21.39-.38.79-.45,1.23-.11.29-.23.59-.25.9-.22-.39-.43-.78-.59-1.2-.13-.27-.25-.55-.35-.83Zm1.18,2.45s0-.02,0-.04c.22-.32.27-.69.37-1.05.18-.33.35-.66.52-1,.34.75.6,1.52.35,2.38-.16.53-.18,1.08-.27,1.62,0,.05,0,.1,0,.16-.31-.7-.61-1.4-.98-2.07Zm1.51,3.22s.02,0,.02.02c0,0,0,.02,0,.02,0-.01-.01-.03-.02-.04Zm.72-1.48s0-.02,0-.03c0-1.19-.21-2.36-.27-3.55.22.33.33.68.61,1.04.17.36.4.69.62,1.01-.23.56-.62,1.03-.96,1.52Zm-3.34-12.22s0,0,0,0c0,0,0,0,0-.01,0,0,0,0,0,0Zm-1,4s0,.05-.01.08c0,0-.02,0-.02,0,.01-.03.02-.06.03-.09Z"/><path class="cls-1" d="m25.58,182.76c-.45-.25-.23-.67-.43-1.07-.13-.3-.29-.58-.42-.88-.26-.65-.26-1.37-.49-2.03-.2-.65-.57-1.24-.69-1.91-.14-1.9.22-3.86-.42-5.71-.27-1.13-.93-2.07-1.53-3.04-.69-1.23-1.03-2.69-1.93-3.81-1-1.34-2.43-2.23-3.8-3.13-.42-.27-.83-.66-1.21-.99-.3-.26-.63-.49-.85-.83,0,0,0,0-.01-.01,0-.07,0-.13.01-.2.02-.25.01-.49-.01-.74-.01-.41-.03-.83-.04-1.24,0-.2,0-.4,0-.61,0-.4,0-.8,0-1.19.04-.56.08-1.12.11-1.68,0-.04,0-.09,0-.13-.02-.4-.04-.81-.06-1.21-.01-.2-.02-.4-.03-.61.01-.38.03-.75.04-1.13,0-.07,0-.14.01-.21-.23.06-.46.11-.7.14-.17.03-.34.03-.51.04-.01,0-.02,0-.03,0,0,.01,0,.02,0,.03.01.37.02.75.04,1.12-.02.37-.04.73-.06,1.1-.01.24-.03.49-.04.73.01.24.03.48.05.72.02.36.05.71.07,1.07,0,.81.02,1.63,0,2.44-.01.41-.03.83-.04,1.24,0,.17.02.33.03.5-.18.32-.25.75-.1,1.09.04.12.1.21.17.3-.02.4-.04.81-.06,1.21-.03.41-.04.81-.01,1.22.01.4.02.81.03,1.22.02.6,0,1.2,0,1.8-.04.39-.07.79-.11,1.18-.02.21-.04.41-.06.62-.02.26-.01.51,0,.76.02,1.06.05,2.12.09,3.18-.02.32-.04.63-.06.95-.01.22-.01.44,0,.66,0,.22,0,.44.01.66.05.62.11,1.24.16,1.85,0,.32,0,.63-.01.95-.02.3-.04.61-.06.91-.02.37-.01.75-.01,1.12-.03.48-.06.96-.1,1.44-.01.17-.02.34-.04.51-.02.22-.01.44.02.66,0,.17.02.35.02.52,0,.21.04.42.08.63.03.17.05.33.08.5.02.31.04.62.06.93-.02.3-.03.61-.05.91-.02.36-.08.74-.08,1.1.01.2.02.41.04.61.03.48.08.96.12,1.43,0,.31,0,.61-.01.92-.04.31-.08.63-.12.94-.03.44-.06.88-.09,1.33-.02.26-.04.53-.05.8.03.56.06,1.12.09,1.68.03.36.03.72,0,1.08-.02.35-.02.69-.03,1.04-.01.84.03,1.68.05,2.53-.03.5-.06,1-.08,1.51-.02.21-.02.42,0,.62.05.64.1,1.27.15,1.91,0,.36,0,.71-.01,1.07,0,.15-.02.31-.03.46-.01.22-.03.44-.04.65,0,.33.02.66.02.99-.01.32-.03.64-.04.95-.02.3-.04.61-.06.91-.02.37,0,.75.02,1.12,0,.2.03.39.07.59.02.16.04.31.06.47.02.28.04.57.05.85l-.07,1.2c-.02.25-.03.5-.04.74,0,.36.02.72.03,1.08,0,.37.03.41.06.77,0,.31-.05.53-.05.85,0,.03.04.41.05.53h.89s.03-.34.03-.37c0-.31-.04-.36-.04-.67.03-.34.06-.68.09-1.01.01-.21-.1-.7-.09-.91.03-.4.12-.76.08-1.15-.03-.43-.04-.62-.06-1.05.02-.29.04-.57.06-.86.04-.31.08-.62.12-.93.01-.21.02-.41.02-.62.02-.33.02-.66-.02-1-.02-.33-.04-.66-.05-.99-.02-.33-.02-.66,0-.99.02-.35.02-.7-.02-1.05-.01-.18-.02-.37-.03-.55,0-.36,0-.72-.01-1.07.03-.42.07-.84.1-1.26.03-.26.05-.53.06-.79,0-.33-.02-.66-.03-1,0-.34-.04-.67-.06-1.01.02-.84.06-1.68.05-2.53,0-.35,0-.69-.03-1.04,0-.17-.01-.35-.02-.52.01-.35.03-.7.05-1.05.02-.35.04-.71.06-1.06,0-.09,0-.18,0-.26-.03-.44-.06-.88-.09-1.33-.01-.22-.03-.44-.04-.66-.04-.31-.08-.62-.11-.93,0-.3,0-.61-.01-.92.03-.31.06-.63.1-.94.02-.33.04-.66.06-1,0-.07,0-.15,0-.22-.02-.33-.05-.66-.07-.99-.02-.3-.03-.6-.05-.9,0-.14.02-.29.03-.43,0-.34.04-.67.11-1,.03-.17.05-.33.08-.5.01-.22.02-.43.03-.65,0-.17.02-.35.02-.52-.01-.22-.03-.43-.04-.65-.03-.47-.06-.94-.09-1.42,0-.34,0-.69,0-1.03,0-.34-.04-.68-.06-1.02,0-.31,0-.63-.01-.94.04-.41.07-.81.11-1.22.03-.26.05-.51.06-.77,0-.35,0-.71,0-1.06,0-.04,0-.09,0-.13-.02-.31-.04-.62-.06-.93.03-1.07.07-2.13.09-3.19.02-.26.03-.51,0-.76-.05-.6-.11-1.19-.16-1.78,0-.81,0-1.62.02-2.42.01-.41.02-.81.03-1.22,0-.2-.02-.41-.03-.61v-.09c.06.11.13.21.18.32.54,1.74,1.2,3.56,1.64,5.4.13.94.12,1.9.2,2.84.03,1.48.53,2.87,1.03,4.24.2.6.27,1.24.49,1.84.53,1.33,1.4,2.56,2.54,3.42,1.35.84,2.64,1.78,3.95,2.69.44.2,1.11,1.11,1.55.54.14.09.3.21.42-.08.08-.18.05-.47-.18-.52Zm-4.28-13.05c.63,2.25.9,4.57,1.51,6.82.16.85.01,1.73.21,2.58-.35-.35-.73-.69-.97-1.13-1.11-2.28-1.57-4.81-2.56-7.14-.54-1.18-.63-2.48-.97-3.72-.11-.51-.31-.98-.55-1.44.13.12.26.25.39.37,1.12,1.09,2.5,2.08,2.94,3.66Zm-2.59,6.41c-.33-.47-.81-.83-1.03-1.38-.42-1.16-.18-2.42-.31-3.63-.05-1.11-.22-2.2-.42-3.29.15.2.29.41.44.61.7.94,1.11,2.07,1.12,3.25.3,2.88,1.08,4.72,3.1,6.8.4.51.65,1.15,1.02,1.69-.57-.41-1.13-.81-1.64-1.29-.86-.83-1.57-1.79-2.27-2.75Z"/><path class="cls-1" d="m26.76,100.61c-.4-.1-.75-.35-1.15-.45-.03,0-.06,0-.08,0-.84,0-.96,1.48-.21,1.78.4.17.88.29,1.3.14.41-.14.7-.51.66-.96-.03-.28-.22-.53-.51-.5Z"/><path class="cls-1" d="m24.13,103.05c-.45,0-.75.86-.34,1.28.18.27.65.52.87.17.19-.36.11-.86-.1-1.2-.15-.18-.29-.25-.43-.25Z"/><path class="cls-1" d="m22.16,104.78s-.06,0-.09.01c-.59.15-.64,1.09-.19,1.42.07.12.02.24.06.37.11.33.41.11.41-.15.11-.31.41-.52.38-.89,0-.33-.22-.76-.57-.76Z"/><path class="cls-1" d="m7.52,153.03c.06.44.13.87.2,1.31,0,.42.02.85.03,1.27-.05.69-.1,1.37-.12,2.06-.03.45-.03.9-.01,1.35.02.45.02.9,0,1.35,0,.46-.02.91-.02,1.37-.02.46-.02.92,0,1.38,0,.28.01.55.03.83.06.45.13.9.19,1.34,0,.43.02.85.03,1.28-.13.81-.25,1.61-.38,2.42-.03.23-.06.45-.09.68-.06.29-.1.59-.11.89.01.23.02.46.04.7.01.3.03.59.05.89.07.45.15.9.22,1.34.04.43.08.86.11,1.29,0,.21.01.42.02.63.03.46.03.92-.01,1.38-.02.46-.04.93-.07,1.39-.04.47-.05.93-.03,1.4,0,.7.02,1.41.03,2.11.01.89-.02,1.78-.07,2.68-.04.45-.08.9-.11,1.35,0,.06,0,.12,0,.18,0,.46,0,.91,0,1.37.02.28.04.57.07.85.06.68.1,1.36.14,2.04-.04.79-.08,1.72-.11,2.65.02.47.05.94.07,1.4,0,.46.01.93.02,1.39-.03.43-.06.85-.09,1.28-.04.51-.02,1.04-.03,1.56,0,.06,0,.11,0,.17.07.45.15.9.22,1.35.03.27.06.55.09.82.05.52.11,1.03.16,1.55-.15.88-.3,1.75-.43,2.63,0,.05,0,.11,0,.16,0,.45,0,.91,0,1.36,0,.05,0,.11,0,.16.03.4.05.81.08,1.21,0,.42,0,.83.01,1.25-.08.64-.16,1.27-.22,1.91-.02.22.03.37,0,.59-.02.29-.02.38.02.67.01.23.07.47.08.7.01.28.05.58.11.86.09.64.01,1.56.07,2.21,0,0,.62.37.62.38l.64-.39s.04-.25.04-.26c.06-.65.01-1.16.1-1.81.03-.22.06-.55.09-.77.02-.29.12-.37.13-.65.01-.23.02-.45.03-.68-.01-.29-.04-.57-.07-.86-.06-.64-.14-1.27-.22-1.9,0-.42,0-.83,0-1.25.03-.41.05-.81.08-1.22.03-.5.01-1.02.01-1.52,0-.05,0-.11,0-.16-.07-.45-.14-.9-.21-1.34-.07-.43-.15-.86-.22-1.28.05-.52.11-1.04.16-1.55.03-.27.06-.55.09-.82.07-.45.14-.9.22-1.35,0-.06,0-.11,0-.17,0-.46-.01-.93-.02-1.39,0-.05,0-.11,0-.16-.03-.42-.06-.85-.09-1.27,0-.47.01-.93.02-1.4.02-.47.05-.94.07-1.4-.02-.47-.04-.94-.05-1.4-.02-.46-.03-.92-.05-1.39.02-.41.05-.82.07-1.23.03-.51.13-1.02.13-1.53,0-.46,0-.91,0-1.37,0-.06,0-.12-.01-.18-.04-.44-.07-.88-.11-1.31-.03-.67-.06-1.34-.07-2.01,0-.94.02-1.87.02-2.81,0-.23,0-.46,0-.7-.02-.46-.05-.93-.07-1.4-.02-.46-.04-.92-.06-1.38.01-.44.02-.87.04-1.31.02-.21.04-.41.05-.62.02-.46.08-.91.17-1.35.04-.22.07-.45.11-.67.02-.3.03-.59.05-.89.01-.23.02-.46.04-.7-.01-.3-.05-.59-.11-.89-.15-1.03-.31-2.06-.48-3.09,0-.43.02-.86.03-1.28.06-.45.13-.9.19-1.35.02-.28.03-.56.03-.83.02-.46.03-.92,0-1.38,0-.46-.02-.91-.02-1.37-.02-.45-.02-.9,0-1.35.02-.45.02-.9-.01-1.35-.02-.69-.07-1.37-.12-2.05,0-.43.02-.85.03-1.28.06-.44.13-.87.2-1.31.03-.28.05-.55.08-.83.05-.55.1-1.11.16-1.66.02-.14.01-.28,0-.42-.01-.07-.02-.13-.03-.2-.07-.41-.15-.83-.23-1.24-.07-.43-.13-.87-.2-1.3-.02-.44-.04-.88-.06-1.32.07-.91.13-1.82.18-2.72.01-.09,0-.19,0-.28-.03-.45-.07-.89-.1-1.33-.02-.43-.03-.87-.05-1.3.03-.42.07-.85.1-1.27.02-.23.05-.46.07-.68.04-.28.07-.56.08-.84,0-.47-.02-.93-.03-1.4,0-.47-.06-.96-.09-1.43,0-.23,0-.46.01-.69.03-.47.02-.94-.02-1.42-.04-.7-.06-1.41-.09-2.11.06-.88.13-1.76.19-2.64.02-.29.01-.57-.02-.86-.01-.47-.03-.93-.06-1.4-.05-.47-.05-.94-.01-1.4.03-.47.04-.94.03-1.41.01-.47,0-.94-.02-1.41,0-.24-.02-.47-.03-.71,0-.46,0-.93.01-1.39.03-.39.05-.79.08-1.19.03-.48,0-.98,0-1.46-.01-.29-.04-.57-.09-.86-.07-.68-.15-1.37-.23-2.05.01-.43.03-.86.04-1.29.04-.45.09-.9.14-1.34.02-.27.01-.54-.02-.81-.03-.69-.08-1.37-.12-2.05.03-.41.05-.81.08-1.22.03-.49.19-.96.19-1.45,0-.44.01-.87.02-1.31,0-.05,0-.1,0-.16-.03-.4-.07-.81-.1-1.21-.02-.78-.04-1.55-.07-2.32-.02-.44-.05-.88-.07-1.32.02-.41.04-.81.07-1.22.04-.41.08-.83.12-1.24.02-.26.02-.52.01-.79.02-.26.01-.53,0-.79-.02-.36-.04-.73-.06-1.09,0-.39-.01-.79-.02-1.18.03-.36.06-.73.09-1.09.04-.45.04-.9.06-1.34-.01-.25-.03-.5-.04-.75-.03-.56-.09-1.12-.15-1.69-.02-.73-.03-1.45-.05-2.18.02-.37.04-.73.06-1.1.02-.25.02-.49,0-.74,0-.93-.05-1.87-.09-2.8.03-.44.05-.88.08-1.32.01-.24.03-.48.04-.71.02-.29.01-.59-.03-.88-.01-.25-.02-.5-.03-.75-.04-.49-.04-.98,0-1.48.03-.72.06-1.44.08-2.17.01-.47.03-.94.04-1.42,0-.23-.02-.46-.03-.69-.02-.46-.04-.92-.06-1.38,0-.22.01-.45.02-.67.01-.45.03-.89.04-1.34,0-.22-.02-.43-.03-.65-.02-.42-.04-.85-.06-1.27.04-.57.08-1.15.13-1.72.03-.19.05-.39.08-.58.05-.39.11-.77.16-1.16,0-.07,0-.13.01-.2-.02-.33-.04-.66-.07-1l-.05-.8c-.07-.49-.15-.97-.22-1.46.02-.46.03-.93.05-1.39.03-.46.06-.91.09-1.37.02-.28.01-.56-.02-.84,0-.28-.02-.55-.04-.83-.04-.4-.08-.8-.12-1.2.01-.36.02-.71.03-1.07.03-.37.06-.75.09-1.12.03-.42.02-.85.03-1.26,0-.05,0-.1,0-.16-.05-.34-.09-.69-.14-1.03-.04-.34-.14-.69-.21-1.03-.03-.29-.06-.59-.09-.88.02-.29.04-.57.06-.86.09-.43.18-.86.26-1.29.05-.25.11-.49.12-.75.01-.37.05-.74.02-1.1-.04-.6-.08-1.21-.13-1.81,0-.28-.02-.56-.03-.84.02-.26.05-.52.07-.78.12-.53.24-1.07.35-1.6.04-.21.06-.43.06-.65.02-.22.03-.44.04-.67-.02-.34-.04-.69-.08-1.03-.05-.34-.13-.67-.22-1-.12-.52-.21-1.05-.31-1.58-.04-.25-.08-.51-.12-.76-.01-.24-.03-.48-.04-.72.01-.21.02-.44.04-.67.06-.36.12-.73.19-1.09.02-.14.05-.27.07-.41.06-.32.09-.65.11-.97.13-1.19.06-2.39-.02-3.58-.01-.28-.02-.56-.03-.83,0-.56.01-1.12,0-1.68,0-1.24-.03-2.48,0-3.72,0-.33.05-.81.13-1.28.07-.53.16-1.08.15-1.61,0-.24,0-.48,0-.72-.01-.3-.04-.59-.08-.88-.04-.4-.13-.85-.2-1.26-.02-.19-.04-.38-.06-.57-.01-.36,0-.72.02-1.09.07-.85.17-1.83.15-2.83,0-.31-.05-.62-.09-.92-.04-.23-.08-.46-.11-.7-.03-.21-.05-.42-.06-.63-.01-.36-.01-.72,0-1.08.06-.92.18-1.84.18-2.77,0-.47-.07-.94-.13-1.4-.04-.39.06-.56.03-.95,0-.13-.06-.51-.06-.64-.13-.17-.49-.14-.69-.13-.18,0-.51,0-.58.13,0,.11-.1.55-.1.66-.05.81.13,1.3.07,2.11-.03.41-.14.88-.11,1.29.03.57.11,1.13.15,1.7.01.35.01.7,0,1.05-.03.33-.06.67-.11,1-.04.24-.08.49-.11.73-.04.31-.04.64-.05.95,0,.34.01.69.04,1.02.04.52.08,1.03.12,1.55.02.22.02.58,0,.94-.02.19-.04.37-.06.56-.13.71-.27,1.44-.28,2.16,0,.24,0,.48,0,.72.02.31.04.62.06.92.03.23.06.46.09.69.08.48.13.95.14,1.43.01.84.01,1.83,0,2.82,0,.53-.01,1.06-.01,1.59,0,.28,0,.57,0,.85-.01.26-.02.52-.03.78-.06.93-.14,1.86-.08,2.79.02.56.07,1.12.14,1.68.03.3.1.6.16.89.04.25.09.5.13.75,0,.16.02.42.04.67,0,.47-.06,1.01-.17,1.55-.08.43-.19.98-.31,1.52-.09.33-.16.66-.22,1-.03.34-.06.69-.08,1.03.01.22.03.44.04.67,0,.22.02.43.07.65.11.53.23,1.07.35,1.6.02.26.04.51.07.77,0,.28-.02.56-.02.84-.04.45-.07.9-.1,1.35-.01.16-.02.32-.03.47-.02.21-.01.42,0,.63,0,.26,0,.52.05.77.11.58.22,1.16.34,1.73.02.29.04.57.06.86-.03.3-.06.59-.09.89-.06.3-.13.6-.19.91-.08.38-.11.78-.16,1.16,0,.05,0,.1,0,.16,0,.37.01.74.02,1.11,0,.42.07.84.1,1.26.01.35.02.71.03,1.06-.04.4-.08.8-.12,1.2-.02.28-.03.55-.04.83-.03.28-.04.56-.02.84.03.45.06.9.09,1.36.01.46.03.93.05,1.39-.04.23-.07.47-.11.7-.1.51-.16,1.03-.17,1.56-.02.27-.04.53-.05.8-.01.13-.01.27,0,.4l.25,1.74c.01.2.03.4.04.61.03.37.05.74.08,1.11-.03.64-.05,1.28-.08,1.92.01.45.03.89.04,1.34.03.45.03.91,0,1.36-.02.46-.04.92-.06,1.38.01.47.03.94.04,1.42.03.97.07,1.93.12,2.9-.02.5-.04.99-.06,1.49-.05.49-.04.98.01,1.47.03.48.06.96.08,1.44-.02.49-.04.97-.05,1.46-.02.45-.03.9-.03,1.34-.02.41,0,.82.03,1.23.04.45.05.91.02,1.36,0,.47-.02.95-.03,1.42-.04.37-.08.74-.11,1.12-.01.2-.02.39-.03.59-.02.25-.03.5-.04.75.02.4.03.79.05,1.19.02.41.06.82.1,1.23,0,.39-.01.79-.02,1.18-.02.37-.04.73-.07,1.1-.02.26-.02.53,0,.79,0,.26,0,.53.01.79.04.42.08.83.13,1.25.02.4.04.81.06,1.21-.02.44-.05.88-.07,1.32-.04.77-.05,1.55-.07,2.32-.03.41-.07.81-.1,1.22,0,.05,0,.1,0,.16,0,.43.01.87.02,1.31.01.27.04.54.1.8.03.22.06.43.09.65.03.41.05.81.08,1.22-.04.69-.09,1.37-.12,2.06-.04.27-.04.54-.02.81.05.45.09.89.14,1.34.01.43.03.86.04,1.3-.05.45-.1.9-.16,1.35-.02.23-.05.47-.08.7-.04.28-.07.57-.08.86,0,.43,0,.87,0,1.3,0,.05,0,.1,0,.15.03.39.05.79.08,1.18,0,.47,0,.93.01,1.4-.02.47-.03.95-.05,1.42,0,.47,0,.94.01,1.41.02.47.04.94.06,1.41-.05.93-.1,1.86-.13,2.8.02.28.04.56.06.84.05.65.1,1.3.14,1.95-.02.71-.05,1.41-.09,2.12-.01.24-.02.47-.03.71,0,.46.02.93.03,1.39-.03.43-.06.85-.08,1.28-.03.51-.02,1.04-.03,1.55.01.28.04.56.08.84.07.65.12,1.31.17,1.96-.02.43-.04.86-.05,1.29-.03.45-.07.9-.1,1.35-.01.09,0,.19,0,.28.05.91.11,1.81.18,2.72-.02.44-.04.88-.06,1.32-.07.43-.13.86-.2,1.29-.08.42-.15.84-.23,1.26-.04.21-.05.4-.03.61.05.55.11,1.11.16,1.66.03.28.05.55.08.83Z"/><path class="cls-1" d="m12.6,142.73c-.05.36-.11.72-.16,1.08-.05.31-.11.59-.08.9.05.48.09.95.14,1.43.03-.02.06-.05.09-.07.15-.12.31-.22.47-.32.21-.13.41-.27.62-.4.12-.08.23-.16.35-.25.03-.23.07-.51.03-.73-.08-.54-.16-1.09-.24-1.63,0-.37,0-.73,0-1.1,0-.47,0-.93.04-1.4.04-.32.05-.63.03-.95-.05-.55-.1-1.09-.15-1.64.02-.34.04-.68.06-1.03.02-.23.03-.46.04-.69-.02-.56-.04-1.12-.05-1.68,0-.04,0-.07,0-.11-.09-.51-.18-1.02-.26-1.53.05-.5.11-1.01.16-1.51.05-.35.1-.7.15-1.04.23,0,.46-.09.68-.18.25-.11.51-.21.78-.17.52.1.89.53,1.25.88.8.63,1.31,1.41,2.01,2.12.46.42,1.05.68,1.54,1.05.81.69,1.5,1.5,2.31,2.18.56.49,1.28.72,1.87,1.16.65.5,1.21,1.12,1.95,1.49.72.43,1.33,1.02,2.13,1.29.58.22,1.18.46,1.73.68.45.34,1.11.24,1.46-.19.28-.3.27-.92-.21-.99-.38-.29-.8-.47-1.19-.72-.59-.36-.9-1-1.33-1.52.77.17,1.35.72,2.07.98,1,.38,2.08.11,3.08.46.85.24,1.61.74,2.45,1,.63.17,1.43-.55,1.12-1.16-.03-.05-.06-.1-.1-.14-.52-.69-1.16-1.25-1.78-1.83-.45-.49-.92-.96-1.37-1.45-.62-.5-1.28-.96-1.94-1.39-.49-.3-1.06-.32-1.6-.48-.87-.24-1.5-.93-2.35-1.22.64-.24,1.92-.89,1.81-1.69-.02-.13-.15-.26-.25-.33-.49-.34-1.04-.61-1.61-.8-.41-.13-.83-.21-1.25-.29-.85-.2-1.69-.55-2.58-.42,1.42-1.26.69-1.83-.6-1.82-.19,0-.4.01-.61.04-.52.04-1.02.18-1.53.31-.35.07-.7.07-1.05.07-.26,0-.52,0-.79.03-.55.05-1.05.3-1.56.5-.37.11-.76.18-1.1.35-.55.35-1.05.75-1.59,1.11-.57-.16-1.27-.27-1.83-.02-.02-.38-.05-.75-.07-1.13.02-.51.03-1.03.05-1.55.1-.47.2-.93.29-1.4.04-.18.04-.36.03-.54-.03-.52-.07-1.04-.1-1.56,0-.05-.02-.1-.03-.16-.1-.47-.2-.94-.3-1.4-.05-.44-.11-.88-.16-1.32.1-.76.2-1.51.28-2.27.04-.29.07-.58.09-.88,0-.52,0-1.05,0-1.57-.02-.52-.05-1.04-.08-1.56,0-.47,0-.94,0-1.41,0-.45,0-.89-.01-1.34.75.4,1.37.94,2.08,1.41.54.47,1.21.75,1.82,1.11.42.26.93.34,1.31.65.12.13.27.33.48.3.21-.04.22-.33.13-.47-.09-.14-.23-.23-.37-.31-.38-.33-.53-.84-.81-1.25-.49-.71-.97-1.48-1.73-1.94-.81-.63-1.7-1.25-2.63-1.74-.06-.03-.12-.05-.17-.07.02-.2.04-.4.06-.6.02-.3.03-.61.04-.91.04-.31.04-.62.02-.92-.06-.46-.13-.92-.19-1.38-.02-.43-.03-.87-.05-1.3.04-.45.07-.89.11-1.34.02-.28.01-.56-.02-.85,0-.28-.01-.56-.03-.84-.02-.16-.04-.31-.05-.47.05.14.1.29.16.43.43.96.82,1.99,1.43,2.85.44.44.95.86,1.54,1.09.99.32,2.08.19,3.05-.16.93-.39,1.4-1.45,1.39-2.42-.06-.75-.24-1.48-.37-2.21.23.06.46.11.7.13,1,.18,1.87-.15,2.45-1,.74-.93.71-2.22-.01-3.18-.81-1.02-2.15-1.47-3.41-1.63-.56-.08-1.12-.11-1.68-.1-.07,0-.15,0-.22,0,.27-.26.53-.54.78-.83.55-.56,1.21-.97,1.83-1.43.94-.87,1.9-1.76,2.47-2.92.55-1.03.82-2.17,1.05-3.32.16-.72.32-1.41.21-2.16-.14-1.53-1.3-3-2.91-3-.03,0-.06,0-.09,0-1.13,0-2.38.23-3.16,1.12-1.15,1.4-1.28,3.44-.7,5.1.29.58.62,1.26,1.26,1.5.46.18,1.01.34,1.45.03,1.5-.92,2.25-2.98,1.54-4.62-.37-.83-1.53-.97-1.66.09-.04.35.09.77.41.95-.06.47-.39.89-.65,1.28-.14.22-.37.51-.62.65-.2.12-.47-.04-.67-.12-.21-.17-.34-.41-.43-.66-.23-1.09.63-2.04,1.29-2.81.55-.56,1.37-.91,2.1-.5.6.41,1.21.89,1.58,1.52.85,1.29-.36,2.53-1.04,3.65-1.08,1.42-1.93,3.02-3.12,4.36-.81.78-2.05.8-2.91,1.53-.32.22-.55.44-.88.67-.1.07-.22.11-.34.15-.41.06-.82.15-1.22.29-.28.05-.54.19-.69.42-.02-.37-.04-.74-.06-1.11.08-.9.16-1.8.23-2.71.02-.28,0-.55-.03-.83-.04-.67-.05-1.33-.07-2,.04-.42.08-.84.13-1.26.02-.27.02-.54,0-.82.01-.27,0-.54,0-.82-.03-.45-.06-.9-.08-1.34.02-.3.04-.71.06-1.13.05-.43.1-.86.15-1.29.02-.28.02-.56,0-.84,0-.28,0-.56-.02-.83-.05-.44-.1-.88-.15-1.33l-.06-1.23c0-.45,0-.89.01-1.34.02-.45.03-.91.05-1.36,0-.46.01-.92.02-1.38.02-.42.05-.84.07-1.26,0-.07,0-.14,0-.21.99.26,1.93.73,2.91,1.02.34.14.67.29,1.04.28.13.03.27-.02.33-.14.16-.4-.31-.67-.6-.89-.5-.2-.97-.44-1.43-.72-.73-.41-1.37-.97-2.12-1.34-.05-.01-.11-.02-.16-.02,0,0-.01,0-.02,0-.03-.33-.06-.65-.09-.98-.02-.43-.05-.86-.07-1.29.02-.43.03-.86.05-1.29.02-.4.05-.81.07-1.21.02-.26.01-.52-.02-.78-.02-.44-.03-.87-.05-1.31,0-.22-.02-.43-.02-.65.01-.39.02-.77.04-1.16.03-.42.07-.83.1-1.25.02-.26.02-.52,0-.79,0-.41,0-.83-.02-1.24-.02-.39-.03-.77-.03-1.16-.01-.36,0-.71,0-1.07.02-.21.02-.42,0-.64-.05-.65-.1-1.29-.14-1.94,0-.3.02-.59.02-.89.04-.28.08-.56.11-.84.02-.12.04-.24.07-.36.04-.2.08-.4.11-.6.03-.34.07-.69.07-1.03.02.13.12.24.25.24.06,0,.1-.01.15-.05,0,0,0,0,0,0,.36-.28.68-.62.93-1,.36-.36.7-.75.9-1.24.14-.23.38-.41.48-.67.14-.35.13-.73.24-1.09.16-.39.39-.75.59-1.12.01.17.01.33.04.5.05.4-.11.78-.14,1.17-.03.34,0,.68.08,1.02.14.8-.21,1.6-.09,2.4.02.15.04.3.06.46-.22.18-.43.39-.66.57-.33.22-.48.58-.64.93-.16.4-.43.76-.5,1.2-.13.75.35,1.26,1.1.89.05-.03.1-.05.14-.08.65-.45.48-1.47.69-2.16.02-.06.05-.13.07-.19,0,0,0,.02,0,.03.1.4.04.81.05,1.21.03.45.17.87.33,1.29.19.64.31,1.31.61,1.91.23.46.59.88.88,1.3.24.38.34.78.63,1.17.29.52.9.96,1.37,1.34.6.53,1.21,1.15,1.87,1.66-.09.17-.07.38,0,.56.19.58.32,1.17.4,1.78.1,1.3,1.35,3.34,2.85,2.96.07-.03.13-.07.19-.11.86-.59.76-1.99.15-2.76-.58-.74-1.38-1.26-1.95-2.02-.74-1.1-1.76-1.96-2.91-2.61-.34-.28-.66-.58-.98-.9.37.27.75.58,1.21.48.04-.02.07-.04.1-.06.72-.5-.6-2.33-1.25-2.46-.56-.31-1.24-.18-1.82-.45-.04-.02-.09-.06-.14-.09-.08-.24-.16-.48-.26-.71-.34-.65-.46-1.28-.59-2.01-.13-.57-.45-1.1-.39-1.71,0-.05,0-.09,0-.14.01.02.02.04.03.06.14.26.18.58.28.86.12.34.4.57.66.79.19.21.32.46.5.67.69.57,1.15,1.23,1.78,1.85.09.08.18.08.24.04.07-.05.1-.14.05-.25-.4-.61-1.1-1-1.5-1.62-.32-.62-.95-.97-1.27-1.59-.45-.47-.62-1.07-.75-1.69,0-.23,0-.45-.03-.68-.04-.59-.18-1.19-.12-1.78.12.34.24.67.36,1.01.16.55.46,1.06.97,1.35.12.07.28.1.4.03h0s.05-.02.07-.04c.3-.21.39-.65.3-.99-.13-.62-.68-1.01-1.03-1.51-.25-.33-.46-.72-.72-1.04-.04-.05-.09-.09-.14-.13,0-.18,0-.37-.02-.55-.03-.66.16-1.34-.06-1.99-.07-.38-.1-.77-.07-1.15,0-.06-.03-.13-.04-.19.2.1.41.2.57.35.46.46,1.08.7,1.5,1.19.4.46.54,1.07.82,1.61.29.55.35,1.16.41,1.77.19,1.02-.04,2.03-.05,3.04.08,1.05.71,1.97,1.14,2.91.36.8.54,1.67.96,2.44.39.66,1.05,1.07,1.44,1.73.22.38.48.74.82,1.03.45.45.85.96,1.41,1.29.32.18.68.34.86.68.07.18.27.38.47.26.13-.09.12-.24.12-.38.07-.57.18-1.13.22-1.71.14-.79.39-1.54.31-2.37,0-.33-.1-.77-.11-1.13,0-.34.05-.67.09-1,.04-.08.04-.17.02-.27,0-.1,0-.21,0-.31,0-.72-.28-1.41-.28-2.13.06-1.07-.66-1.88-1.16-2.74-.45-.95-.91-1.94-1.76-2.61-.41-.45-.96-.73-1.34-1.19-.48-.6-1.01-1.25-1.76-1.52-.66-.14-1.16-.61-1.76-.89-.52-.25-1.12-.19-1.65-.42-.5-.2-.99-.43-1.48-.65-.41-.54-.92-1.01-1.33-1.55-.2-.24-.21-.58-.42-.83-.19-.3-.33-.48-.55-.8-.31-.37-.67-.71-.77-1.2-.25-.74-.51-1.46-.84-2.17-.03-.06-.07-.08-.1-.12,0-.38,0-.76.01-1.14.01-.46,0-.91-.03-1.37-.03-.43-.05-.86-.06-1.29,0-.33,0-.67,0-1,.08-.22.14-.45.2-.69.11-1.47-.34-2.93-.2-4.41,0-.82-.08-1.64-.1-2.47.07-.52.15-1.03.17-1.55-.02-.94-.1-1.89.08-2.82.04-.28.03-.56,0-.83.03-.02.07-.04.1-.05,0-.54-.03-1.08-.06-1.62-.01-.24-.02-.47-.06-.7-.03-.21-.04-.42-.07-.63-.03-.2-.07-.41-.09-.61,0-.04,0-.07-.01-.11.1-.77.06-1.54-.07-2.31.18.36.36.72.53,1.08.74,2.12,1.03,4.55,2.71,6.2.93.96,2.88,1.65,4.17,1.21,1.92-.76,2.18-2.98,2.63-4.73.77-2.15,1.02-4.55.16-6.71-1.62-4.05-5.59-4.53-6.25.31-.12,1.45.17,4.08,1.57,4.88.2.1.41.03.61,0,.47-.02.85-.31,1.11-.69.73-.66.34-2.49-.83-2.15-.48.2-.58.77-.92,1.1-.72-1.22.6-5.42,2.37-3.76.88,1.18.75,2.84,1.07,4.23.11.75.22,1.66.13,2.45-.18,1.09-.95,1.95-1.82,2.58-.37.27-.78.57-1.26.54-.15-.02-.27-.05-.39-.14-.73-.59-1.29-1.35-1.88-2.07-.7-.94-1.35-1.93-2.01-2.91-.89-1.67-1.14-3.59-1.71-5.38.02-.15.03-.3.03-.45,0-.36-.08-.7-.11-1.06,0-.6-.01-1.18-.03-1.78,0-.25-.06-.55-.13-.81,0-.17-.01-.35-.04-.53,0-.13,0-.26,0-.39,0-.13.01-.25.02-.38,0-.03,0-.05,0-.08.02-.25.04-.51.06-.76.02-.21.06-.75-.03-.94-.01-.07-.88-.06-.89,0-.02.16.02.27,0,.51-.02.15,0,.3-.01.45-.13.79-.18,1.58-.14,2.37,0,.04-.01.07-.02.1-.02.34.02.67.06,1.01-.03.74-.19,1.44-.31,2.24-.07.99.35,1.93.42,2.91.21.97-.01,1.96.07,2.94.04.29.07.57.07.86-.02.17-.03.33-.06.5-.03.17-.06.34-.08.51,0,.1-.02.21-.03.31-.01.11-.03.22-.05.33-.02.12-.02.24-.02.36-.02.46-.04.91-.06,1.37-.02.5,0,1,.03,1.49,0,0,0,0,0,0,.03-.03.06-.06.09-.08,0,.25-.02.49-.06.74-.54,1.85-.1,3.81.08,5.69.17,1.62-.54,3.31.03,4.88,0,.09.01.17.02.26,0,.2.01.4.02.6,0,.42,0,.84-.03,1.26-.01.16-.03.4-.04.65,0,.22-.02.44-.03.66,0,.49,0,.97,0,1.46.01,1.1,0,2.2-.01,3.3-.02.4-.05.79-.08,1.19-.05.52-.07,1.04-.09,1.56,0,.17.02.33.02.5,0,.22.02.43.03.65.09.67.17,1.34.25,2,.01.3.03.6.04.9-.02.3-.03.6-.05.9l-.11.97c-.03.32-.05.64-.08.96-.05.32-.09.64-.14.96-.02.33-.04.66-.06.99-.01.12-.01.24,0,.36.03.32.05.65.08.97,0,.05.02.1.03.16.05.27.1.53.15.8.04.28.08.56.11.84,0,.3.01.59.02.89-.05.65-.1,1.3-.15,1.95-.01.21-.01.42,0,.64.01.36.01.71,0,1.07,0,.39-.01.77-.03,1.16-.02.41-.03.83-.02,1.24-.01.26,0,.52,0,.79.03.41.06.81.09,1.22.01.39.02.79.03,1.18,0,.22-.02.44-.03.65-.02.44-.03.87-.05,1.31-.04.44-.03.87.01,1.31.04.65.06,1.31.08,1.96-.02.42-.05.84-.07,1.26-.04.46-.08.92-.12,1.37-.02.28-.02.56-.02.84-.02.47-.01.93.03,1.39.03.46.05.93.04,1.4,0,.46.01.92.03,1.37.02.45.03.9.03,1.35,0,.22,0,.45,0,.67-.02.45-.05.9-.07,1.35-.04.32-.09.76-.14,1.21-.02.28-.02.56-.02.84-.02.28-.02.56,0,.84.05.42.09.84.14,1.26.02.42.03.84.05,1.26-.03.41-.05.83-.08,1.24-.02.27-.02.54,0,.82-.01.27-.01.54,0,.82.04.42.08.83.12,1.25-.01.43-.02.86-.03,1.29-.02.43-.05.85-.07,1.28,0,.09,0,.18,0,.27.07.9.14,1.8.22,2.69-.02.43-.05.86-.07,1.28-.04.46-.08.92-.11,1.39,0,.08,0,.17,0,.25.03.43.07.87.1,1.3.02.44.03.88.05,1.32-.05.43-.1.87-.15,1.3-.02.28-.03.56-.03.84-.03.28-.04.56-.02.85.03.44.07.88.1,1.32-.02.44-.03.87-.05,1.31-.06.46-.13.92-.19,1.39-.02.31-.01.62.02.92,0,.3.02.61.04.91.05.44.09.89.14,1.33,0,.73.02,1.47,0,2.2,0,.47-.01.95,0,1.42.01.5,0,.99-.04,1.49-.04.52-.05,1.04-.04,1.57-.02.31-.02.62,0,.92.05.49.1.99.15,1.48.07.51.13,1.01.2,1.52-.05.44-.1.88-.16,1.32-.1.47-.2.95-.3,1.42,0,.05-.02.1-.03.16-.04.52-.07,1.04-.11,1.57-.01.12-.01.24,0,.37,0,.06.02.12.03.18.1.46.19.92.29,1.38.01.52.03,1.03.04,1.55-.04.52-.07,1.05-.11,1.57,0,.09,0,.18,0,.26.07.49.14.97.21,1.46.05.5.1,1,.16,1.5-.08.48-.17.96-.25,1.43-.02.07-.02.14-.02.22-.02.56-.04,1.12-.06,1.68l.03.58c.02.38.04.76.06,1.13-.03.36-.07.72-.1,1.07-.03.24-.05.47-.06.71.02.54.05,1.09.07,1.63,0,.19,0,.39,0,.58,0,.36,0,.72,0,1.09Zm10.78-13.81c.02.07.08.12.14.15.03.01.06.02.08.03-.1.02-.2.04-.31.03-.4-.03-.79.06-1.17.18-.29.06-.59.02-.88.1-.38.14-.74.14-1.12.26-.05.02-.1.03-.14.05-.5-.19-1.01-.33-1.57-.27-.18-.02-.35-.06-.52-.09.35-.09.7-.17,1.06-.33.97-.07,1.9-.34,2.85-.55.56-.02,1.11.07,1.67.07.02,0,.04,0,.06,0-.09.11-.19.23-.15.38Zm-4.12,2.3c-.55-.49-1.23-.83-1.85-1.22-.1-.06-.18-.12-.27-.18.26.06.53.11.82.1.25.02.49.11.73.2.13.11.26.24.41.33.5.29.75.86,1.22,1.19.16.13.23.33.3.52.05.14.1.27.18.39.25.45.55.85.8,1.29.03.04.04.09.06.13-.1-.07-.2-.14-.3-.21-.91-.65-1.3-1.78-2.1-2.55Zm2.93,3.15c-.04-.06-.08-.11-.1-.16-.17-.39-.13-.84-.32-1.22-.03-.06-.07-.12-.12-.18-.37-.45-.79-.85-1.09-1.35-.03-.05-.05-.1-.08-.15-.08-.16-.16-.33-.29-.45-.24-.19-.48-.39-.74-.56.58.06,1.21.02,1.69.4.27.18.54.37.81.55.15.28.37.51.51.79.1.45.36.85.51,1.28.08.39.03.8.25,1.15.07.16.17.3.27.44.13.19.27.38.34.6,0,.02.01.04.02.05-.39-.29-.81-.53-1.2-.82-.15-.13-.31-.25-.46-.37Zm3.77,2.83c-.37-.29-.76-.53-1.12-.8-.09-.17-.18-.34-.3-.47-.23-.31-.56-.58-.65-.97-.16-.59-.51-1.11-.68-1.69-.07-.34-.02-.71-.18-1.02-.02-.04-.05-.08-.08-.12-.1-.12-.17-.25-.24-.38.48.27,1,.46,1.47.75.01.03.02.05.03.08.44.52.62,1.08.89,1.69.11.35.08.71.18,1.06.11.31.3.59.48.87.16.21.23.46.3.7.07.23.13.45.27.66-.13-.12-.25-.23-.38-.34Zm.91-.6c.55.78,1.29,1.4,2.1,1.91.49.37.77.84,1.16,1.28-.93.02-1.49-.75-2.27-1.11-.08-.03-.14-.08-.21-.12-.11-.14-.23-.28-.34-.42-.13-.18-.22-.38-.31-.58-.11-.24-.22-.48-.4-.69-.15-.21-.35-.4-.47-.63-.1-.23-.13-.48-.24-.7-.2-.48-.43-.92-.54-1.42-.03-.25.02-.52-.09-.76.06.04.11.1.17.13.34.23.74.34,1.14.47.21.12.4.27.56.46.17.16.38.28.55.43.17.18.27.41.45.59.28.23.52.49.76.76-.28-.12-.56-.23-.84-.35-.36-.2-.82-.33-1.15,0-.23.19-.19.51,0,.72Zm5.85.43c-.9-.35-1.89-.22-2.81-.43-.24-.15-.49-.3-.72-.47-.25-.24-.36-.59-.56-.86-.14-.22-.36-.38-.57-.53-.08-.06-.15-.13-.23-.21,0,0,.01,0,.02,0,.73.27,1.58.22,2.31.5.4.18.77.46,1.15.67.51.3,1.1.4,1.64.65.72.32,1.17.97,1.75,1.46.16.12.32.31.49.44-.45-.14-.83-.42-1.22-.67-.42-.19-.83-.39-1.25-.56Zm-3.99-3.94c.6.15,1.21.27,1.76.57.78.64,1.74,1.02,2.54,1.62.08.09.16.16.25.23-.26-.12-.52-.24-.78-.36-1-.48-2.15-.4-3.13-.92-.71-.37-1.5-.53-2.24-.81-.75-.5-1.59-.81-2.41-1.16-.33-.21-.61-.48-.89-.75-.01,0-.02-.02-.03-.03-.01-.01-.03-.02-.04-.03-.01-.01-.03-.02-.04-.03.23-.03.46-.06.68-.09.56.01,1.11.03,1.66-.05.41.08.84.07,1.26.06.03,0,.06,0,.09,0-.18.07-.37.15-.54.24-.25.09-.48.42-.37.64.03.06.08.11.17.15.67.29,1.37.52,2.07.73Zm-.63-2.02c-.44-.08-.88-.23-1.33-.23-.04,0-.08,0-.12,0-.34.03-.67.11-1.01.06-.49-.05-.96.14-1.45.18-.27.01-.55.02-.82.04-.13-.1-.27-.2-.42-.28-.22-.13-.47-.22-.7-.32.07-.01.14-.03.2-.03.61.04,1.18-.07,1.76-.22.51.03,1-.09,1.49-.17.51.08,1.03.08,1.55.13.15.01.3,0,.44,0,.24-.02.47-.03.69.05.24.08.6.31.84.2.11.04.22.08.32.12-.48.17-.97.32-1.46.48Zm-.85-1.25c-.25-.02-.49-.02-.74-.01-.17,0-.33.01-.5,0-.3.12-.6.02-.91,0-.07-.01-.14-.02-.21-.02-.38,0-.74.16-1.11.19-.34.02-.68.05-1,.16-.38.15-.81.13-1.21.15-.23-.07-.45-.15-.68-.2-.15-.06-.31-.13-.46-.19.13-.02.26-.05.39-.1.43-.09.79-.07,1.19-.3.48-.11.99-.06,1.47-.21.23-.05.46,0,.68,0,.25.06.51.11.76.16.65.09,1.33,0,1.96.24.12.05.25.09.37.14Zm-9.66-1.41c.35-.11.68-.3,1.05-.37.46-.06.93-.06,1.37-.18.52-.12,1-.34,1.52-.45.87-.05,1.76-.02,2.61.18-.06.14-.13.28-.21.41-.04-.03-.09-.06-.14-.06-.15-.02-.3-.03-.46-.03-.58,0-1.15.16-1.7.31-.45.06-.91.06-1.35.16-.66.15-1.27.5-1.96.5-.41.08-.7.3-1.1.38-.02,0-.03.02-.05.03-.17.01-.33.04-.49.06-.09.01-.17,0-.26,0-.11-.07-.21-.14-.34-.2.42-.42.97-.56,1.52-.72Zm5.86-31.68s.06.02.09.04c-.03.02-.06.04-.09.05,0,0,0,0,0,0,0-.03,0-.06,0-.09Zm-6.39-44.6c-.16.28-.26.59-.45.85-.02.01-.04.03-.06.04-.02.02-.04.03-.07.04.04-.46.05-.94.29-1.36.16-.3.45-.47.68-.71-.02.41-.19.78-.4,1.13Zm8.89,11.4c.26.39.39.94.1,1.35-.4-.03-.58-.64-.83-.91-.37-.64-.44-1.39-.45-2.12.54.45.9,1.05,1.18,1.68Zm-4.75-6.94c.35.27,1,.4.97.94-.98-.08-1.83-.85-2.35-1.64.49.16.94.43,1.38.7Zm-1.86-8.49c.12.34.32.7.32,1.07-.33-.31-.62-.69-.86-1.07-.15-.34-.15-.71-.26-1.06.36.28.67.61.8,1.06Zm3.1,1.45c-.06-.2-.13-.4-.19-.61-.1-.61.01-1.22-.07-1.83-.07-.75-.35-1.46-.62-2.16.6.55,1.11,1.19,1.67,1.78.17.22.3.46.41.7-.05.09-.1.18-.16.23-.23.31-.45.63-.59,1-.12.31-.31.59-.47.87Zm.5,3.01c-.04-.18-.08-.36-.1-.54.01-.03.02-.06.02-.09.07-.78.08-1.38.13-2.09.17-.67.59-1.21.96-1.78.03.07.06.14.09.2.44.71.96,1.37,1.35,2.11-.56.54-.83,1.29-1.21,1.94-.33.44-.45.99-.42,1.53,0,.06.02.13.03.19-.33-.46-.66-.93-.84-1.48Zm5.72,2.43c0,.14-.01.29-.03.43-.11-.16-.21-.33-.34-.49-.28-.52-.56-1.04-1.01-1.44-.07-.06-.14-.12-.22-.17-.11-.58-.29-1.14-.53-1.68-.08-.2-.16-.4-.23-.61.16.07.32.15.46.25.34.29.71.55.95.93.23.47.49.92.76,1.37.07.47.14.93.2,1.4Zm-4.11.25c-.14-.89,0-1.75.13-2.65.13-.61.53-1.1.9-1.58.02-.03.05-.05.07-.07.25.93.14,1.88.34,2.79-.07.15-.14.3-.22.44-.28.43-.35.89-.35,1.39-.07.43-.09.87,0,1.29-.12-.16-.25-.32-.35-.49-.18-.37-.33-.76-.52-1.13Zm1.16,2.02s.06.02.09.02c.55-.1-.02-1.13.02-1.51.04-.44.19-.85.39-1.24.21.7.41,1.4.53,2.12.19.91.63,1.74.95,2.61-.56-.7-1.34-1.28-1.97-2Zm2.43,1.49c-.35-1.18-.71-2.38-.94-3.59.01-.33,0-.67-.03-1,.3.3.57.62.8.99.14.4.29.8.47,1.19-.02.1-.04.2-.04.31-.07.71-.06,1.41-.25,2.11Zm.16-6.58c-.15-.15-.3-.3-.44-.46-.45-.59-1.01-1.33-1.82-1.35-.1-.28-.21-.55-.3-.83-.23-.72-.53-1.44-1.02-2.03.29-.02.59.03.85.14.25.17.42.44.65.64.37.3.72.61,1.02.98.14.12.35.4.55.47.17.61.33,1.22.47,1.84,0,.2.02.4.04.6Zm-6.15-8.47c.8.61,1.7,1.07,2.55,1.63.52.58.97,1.21,1.46,1.81.39.49.85.93,1.2,1.46-.13-.1-.26-.19-.34-.28-.34-.38-.68-.81-1.19-.95-.33-.12-.63-.33-.98-.33-.03,0-.07,0-.1,0-.1,0-.24,0-.34.07,0,0,0,0-.01.01-.98-1-1.63-2.29-2.69-3.24-.57-.53-1.27-.87-1.87-1.37.74.47,1.51.85,2.31,1.18Zm-2.49,55.23c.08.05.17.09.26.14.15.57.3,1.13.25,1.74-.5,2.04-.91,3.56-3,1.51-.38-.36-.45-.9-.72-1.34-.51-1.09-1.09-2.15-1.47-3.29-.16-.39-.18-.85-.28-1.27.25.15.49.31.74.47.27.27.55.55.89.75.39.23.79.42,1.22.57.71.24,1.43.42,2.11.73Zm-5.24-60.94c.3.62.6,1.1,1.07,1.65.24.39.6.46.94.71.27.18.51.4.73.63-.01.08,0,.16.03.23.13.24.33.44.41.71.11.4.25.79.21,1.21,0,0,0,0,0,0-.03,0-.06,0-.09.03-.02.01-.03.03-.05.04-.08.13-.13.27-.2.4-.36.55-.44,1.19-.59,1.81-.25.5-.55.97-.73,1.5-.19.28-.41.53-.56.83-.1.17-.14.37-.29.52-.32.3-.67.56-1.03.8-.04.03-.06.07-.07.11,0-.06,0-.11,0-.17-.02-.33-.04-.66-.06-.99-.04-.32-.09-.64-.13-.96-.03-.32-.05-.64-.08-.96-.03-.32-.07-.64-.1-.96-.02-.3-.03-.6-.05-.91.01-.3.03-.59.04-.89.06-.5.13-.99.19-1.49.02-.18.05-.35.07-.53.01-.22.02-.43.03-.65,0-.17.02-.33.02-.5-.01-.31-.02-.62-.03-.93-.01-.35-.06-.7-.09-1.05-.02-.3-.03-.6-.04-.89.14.23.31.47.43.69Z"/><path class="cls-1" d="m14.07,18.73s0-.05,0-.08c-.02.03-.03.06-.05.08.01,0,.03,0,.04,0Z"/></svg>