<?xml version="1.0" encoding="UTF-8"?><svg id="LOGO" xmlns="http://www.w3.org/2000/svg" viewBox="0 0 450 216.28"><defs><style>.cls-1{fill:#010101;}</style></defs><path class="cls-1" d="m440.77,90.92c0,.07,0,.14-.01.21.01.27.04.54.09.81l.15,1.21c.08.63.17,1.27.25,1.9,0,.61-.02,1.22-.02,1.84-.07.83-.14,1.66-.24,2.49-.05.43-.1.86-.14,1.28,0,.06,0,.13-.01.2.02.43.04.87.07,1.31.01.28.03.55.04.83.09.57.17,1.15.26,1.72l.04,1.82c-.03.38-.06.76-.09,1.15-.03.25-.05.51-.06.76-.02.62-.03,1.24-.06,1.86-.02.41-.04.82-.05,1.23-.03.26-.04.53-.02.79.04.58.09,1.16.14,1.74.02.52.04,1.03.06,1.55-.02.29-.03.57-.04.86-.05.57-.06,1.14-.03,1.71,0,.33,0,.67.02,1,.04.52.08,1.05.13,1.57-.02.85-.04,1.69-.07,2.54-.04.34-.05.67-.03,1.01.04.51.08,1.03.12,1.54.03.52.06,1.03.09,1.55-.05.52-.09,1.05-.14,1.57-.08.48-.17.96-.25,1.44-.01.06-.02.12-.03.19-.04.57-.09,1.14-.13,1.71-.02.22,0,.43.04.65.09.52.19,1.04.28,1.56.08.47.15.94.23,1.41.03.53.06,1.05.08,1.58-.06.54-.13,1.07-.19,1.61-.02.33-.03.66-.05.99-.05.57-.05,1.13,0,1.7,0,.28.02.56.03.84,0,.56,0,1.12,0,1.67-.02.53-.04,1.05-.06,1.58.02.31.04.61.06.92.02.22.03.45.05.67.01.49.02.97.03,1.46-.06.48-.11.96-.17,1.43-.07.43-.15.85-.22,1.28-.01.07-.02.14-.03.2-.02.33-.02.66,0,.98,0,.41-.01.78.05,1.18.07.42.14.85.22,1.27.07.48.14.96.2,1.45.03.44.07.88.1,1.32-.03.44-.07.87-.1,1.31-.06.46-.12.93-.18,1.39-.08.46-.15.92-.23,1.39-.02.3-.03.6-.05.9-.04.31-.05.61-.03.92.06.45.12.89.18,1.34.06.43.15.87.23,1.3.02.43.05.86.07,1.16-.02.4-.04.79-.06,1.19-.03.37-.05.74-.08,1.12-.02.25-.02.5,0,.75.02.59,0,1.17,0,1.75-.03.39-.06.79-.07,1.18,0,.45-.05.91-.01,1.36.04.43.04.88.12,1.31.05.3.1.6.15.9.04.32.08.65.12.97,0,.31,0,.62,0,.94-.04.31-.08.63-.12.94-.04.33-.09.65-.13.98-.04.54-.08,1.07-.1,1.61-.03,1.09.07,2.18.13,3.27,0,.29-.02.57-.02.85-.06.87-.13,1.75-.05,2.61.04.52.1,1.04.17,1.55.04.27.09.53.15.8.02.21.05.42.07.63,0,.21,0,.42,0,.63-.03.44-.09.88-.16,1.31-.02.23-.04.46-.06.7-.02.29-.04.58-.06.87,0,.49,0,.92.05,1.41.03.38.06.76.09,1.14,0,.17,0,.34,0,.51-.03.38-.08.77-.09,1.15,0,.36-.02.76.03,1.11.08.62.19,1.23.3,1.84.01.13.02.27.03.4,0,.14,0,.27,0,.41-.07.87-.22,1.74-.17,2.62,0,.11.02.23.02.34-.02.26.02.5-.04.78-.01.3-.31,1.11-.23,1.76,0,.17.01.35.04.52,0,.34.04.67.02,1.01-.13,1.07.09,2.11.19,3.16,0,.09,0,.19,0,.28-.01.15-.03.29-.06.44,0,.28-.18.89-.07,1.15.07.11,1.27.24,1.26,0-.09-.44-.12-2.03-.08-2.47,0-.04,0-.08.01-.13.05-.44.12-.89.12-1.33,0-.39-.08-.78-.13-1.17,0-.11,0-.22,0-.35,0-.1-.02-.19-.03-.29.26-.45.22-1.46.25-1.77.01-.47-.08-.92-.16-1.37.02-.22.04-.44.04-.66,0-.42-.01-.84-.05-1.26-.04-.42-.1-.84-.13-1.26,0-.14,0-.28,0-.42.01-.13.02-.26.03-.39.12-.65.03-1.31.06-1.97.02-.37.04-.74.02-1.12-.03-.34-.05-.68-.08-1.01,0-.18,0-.35,0-.53.03-.42.07-.84.09-1.26.03-.43.05-.85.04-1.28-.02-.29-.04-.58-.06-.87-.02-.23-.04-.46-.06-.7-.08-.43-.14-.87-.17-1.31,0-.21,0-.43,0-.64.02-.21.05-.42.07-.63.15-.82.3-1.65.32-2.49.03-.52.03-1.04,0-1.57-.02-.31-.04-.62-.06-.93,0-.28-.02-.55-.02-.82.01-.26.03-.53.04-.79.04-.51.07-1.01.08-1.52.01-.48,0-.96-.02-1.44-.02-.54-.08-1.09-.16-1.62-.07-.48-.13-.96-.19-1.44,0-.31,0-.62,0-.93.06-.5.13-1,.21-1.49.08-.36.12-.73.13-1.1l.05-.59c.03-.45,0-.91-.02-1.36,0-.4-.05-.8-.07-1.19,0-.38-.02-.76-.02-1.14,0-.4.02-.8.03-1.19-.01-.24-.03-.49-.05-.73-.01-.19-.03-.38-.04-.57-.02-.38-.04-.77-.06-1.15.02-.39.04-.79.06-1.18.08-.42.17-.85.22-1.28.06-.45.12-.89.18-1.34,0-.07,0-.15.01-.22-.02-.3-.03-.61-.05-.91-.01-.23-.03-.46-.04-.7-.05-.29-.1-.58-.15-.86-.04-.22-.08-.45-.09-.52-.06-.46-.12-.93-.18-1.39-.03-.44-.07-.87-.1-1.31.03-.44.06-.88.1-1.32.07-.48.13-.97.2-1.45.08-.49.16-.98.25-1.47,0-.07,0-.14.01-.21,0-.51,0-1.03.01-1.54,0-.07,0-.14-.01-.21-.05-.31-.1-.61-.16-.92-.03-.19-.07-.39-.1-.58-.06-.47-.11-.95-.17-1.42.01-.49.02-.98.03-1.46.03-.48.06-.95.09-1.42.02-.31.01-.63-.02-.94-.03-.54-.04-1.08-.03-1.63,0-.28,0-.56,0-.84.02-.56.04-1.12.05-1.69-.03-.57-.06-1.14-.08-1.71-.01-.33-.05-.65-.11-.97-.03-.26-.06-.52-.09-.77.03-.53.05-1.05.08-1.58.08-.48.16-.96.23-1.44.09-.51.18-1.02.27-1.52.01-.07.02-.14.04-.21.02-.15.02-.29,0-.44-.05-.57-.09-1.14-.14-1.71-.01-.06-.02-.12-.03-.19-.09-.48-.17-.97-.26-1.45-.05-.52-.1-1.04-.15-1.57.03-.52.05-1.03.08-1.55.04-.51.08-1.03.12-1.54.02-.33.01-.67-.03-1.01-.04-.85-.06-1.7-.08-2.55.04-.52.08-1.04.12-1.56,0-.05,0-.1,0-.15,0-.57,0-1.13.01-1.7-.03-.57-.06-1.15-.09-1.72.02-.53.04-1.06.05-1.58.03-.37.05-.74.08-1.11.02-.26.04-.52.05-.77-.03-.62-.07-1.23-.09-1.85-.01-.41-.03-.83-.04-1.24,0-.26-.01-.51-.03-.77-.05-.59-.1-1.18-.15-1.77.01-.61.02-1.21.03-1.82.06-.38.11-.76.17-1.13.05-.25.09-.5.1-.76.03-.65.06-1.31.09-1.96-.01-.28-.04-.56-.09-.84-.05-.43-.1-.86-.15-1.28-.06-.62-.11-1.23-.17-1.85,0-.61-.02-1.22-.03-1.83.11-.83.22-1.67.32-2.5.05-.4.1-.81.14-1.21,0-.07,0-.14.01-.21-.01-.29-.04-.57-.08-.86-.04-.43-.08-.87-.13-1.3-.06-.61-.12-1.22-.18-1.83.02-1.05.03-2.09.06-3.13.02-.42.02-.84,0-1.26,0-.21-.01-.42-.02-.63-.03-.41-.03-.82-.02-1.22.01-1.04.02-2.08.03-3.12-.01-.26-.03-.51-.06-.77-.03-.39-.07-.78-.1-1.17.01-.59.02-1.19.04-1.78.06-.4.12-.8.17-1.2.08-.42.12-.85.13-1.27.03-.5.09-1.01.09-1.51-.01-.29-.04-.57-.1-.86-.06-.44-.11-.88-.17-1.32-.08-.65-.16-1.29-.23-1.94.02-.63.04-1.27.07-1.9l.19-1.32c.06-.28.1-.56.11-.84.03-.71.05-1.41.08-2.12-.01-.3-.05-.6-.11-.9-.06-.47-.13-.94-.19-1.42-.08-.68-.17-1.36-.25-2.04.08-.68.17-1.36.25-2.03.02-.29.03-.58.04-.87.02-.49.05-.97.07-1.46,0-.05,0-.1,0-.16-.03-.37-.05-.74-.08-1.12,0-.38-.01-.76-.02-1.14.06-.75.13-1.5.19-2.25.03-.36-.03-.77-.04-1.12-.07-1.19-.14-2.37-.2-3.56-.01-.39-.03-.78-.05-1.17,0-.2.01-.4.02-.6.02-.47.03-.94.06-1.41.02-.54.05-1.08.07-1.62,0-.27-.02-.54-.02-.81-.02-.54-.03-1.08-.05-1.62.01-.55.03-1.09.04-1.64,0-.27.02-.55.02-.82-.01-.54-.03-1.07-.04-1.61-.03-.51-.03-1.03.02-1.54.02-.45.04-.9.07-1.36.04-.41.07-.82.11-1.22,0-.06,0-.12.01-.18-.02-.43-.04-.86-.06-1.29-.02-.48-.11-.97-.17-1.44-.05-.41-.11-.81-.16-1.22.01-.78.03-1.56.04-2.33.05-.43.12-.87.13-1.3.01-.41.02-.82.04-1.24,0-.28-.01-.55-.02-.83-.01-.55.37-1.17.36-1.72,0-.26.02-.52.03-.78.02-.51.04-1.03.05-1.54.02-.39.05-.77.07-1.16.02-.28.02-.55-.02-.83,0-.27-.02-.55-.03-.82-.04-.42-.08-.83-.11-1.24-.01-.4-.03-.8-.05-1.19,0-.28.02-.56.02-.84.02-.56.03-1.11.05-1.67-.01-.28-.03-.56-.04-.84-.03-.56-.06-1.12-.09-1.68,0-.27,0-.55,0-.82,0-.52,0-1.04,0-1.56h-1.26c0,.52,0,1.04,0,1.56,0,.27,0,.55,0,.82-.03.56-.05,1.12-.08,1.68-.01.28-.03.56-.04.84.02.56.03,1.11.05,1.67,0,.28.02.56.03.84-.02.41-.03.81-.05,1.22-.04.41-.07.81-.11,1.22-.02.27-.03.55-.03.82-.03.28-.03.55-.01.83.02.39.05.78.08,1.18.02.51.04,1.02.06,1.53.01.26.02.52.03.78,0,.55-.41,1.17-.42,1.72,0,.28,0,.55-.01.83.01.41.03.82.04,1.24,0,.05,0,.1,0,.14.04.39.08.78.13,1.16.02.78.03,1.56.05,2.34-.08.61-.16,1.23-.23,1.85-.05.27-.08.54-.09.81-.02.43-.04.86-.06,1.29,0,.06,0,.12.01.18.04.42.08.84.12,1.26.02.44.04.88.07,1.32.04.51.05,1.03.02,1.54-.01.54-.02,1.07-.03,1.61.02.55.03,1.09.05,1.64.03.54.03,1.09,0,1.63-.01.54-.03,1.08-.04,1.62.04.81.09,1.62.12,2.43.02.4.03.8.05,1.2-.01.4-.03.8-.04,1.2-.04.72-.07,1.43-.11,2.15-.03.51-.06,1.03-.09,1.54-.05.32-.06.63-.03.95.07.75.13,1.5.2,2.26,0,.39-.01.77-.02,1.16-.03.36-.05.73-.08,1.09,0,.05,0,.1,0,.16.03.49.05.97.08,1.46.01.29.03.58.04.87.03.23.06.47.09.71.06.44.11.89.17,1.33-.11.92-.22,1.83-.34,2.75-.06.47-.13.94-.19,1.42,0,.06,0,.13-.01.19.02.47.04.94.06,1.41,0,.29.02.59.04.88.1.66.2,1.33.3,1.99.03.63.05,1.27.07,1.9-.1.87-.2,1.73-.31,2.6-.06.44-.11.88-.16,1.32,0,.07,0,.13-.01.2.02.28.03.57.05.85.03.44.05.87.08,1.31.09.61.18,1.22.27,1.83.01.59.03,1.18.04,1.77-.05.6-.1,1.2-.15,1.79-.02.26-.02.53,0,.79,0,.63.01,1.26.02,1.88,0,.39.01.79.02,1.19-.02.42-.03.84-.04,1.26,0,.21-.01.42-.02.63.01.42.03.84.04,1.26.02.84.04,1.67.05,2.51-.08.83-.16,1.65-.24,2.47-.04.43-.08.87-.12,1.3Z"/><path class="cls-1" d="m424.81,89.67c.14-.07.27-.14.41-.22.08-.06.16-.11.24-.17.04-.04.08-.07.13-.11.07-.07.14-.15.22-.22-.03-.01-.06-.02-.09-.03-.11,0-.21-.01-.32-.02-.12.02-.24.03-.35.05-.12.02-.24.01-.36.01-.12,0-.24,0-.37-.01-.15-.02-.3-.04-.44-.06-.12,0-.24,0-.36,0-.13,0-.27,0-.4.01-.13,0-.26.02-.39,0-.13-.01-.26-.02-.38-.03-.12-.01-.23-.05-.35-.08-.05-.01-.1-.03-.15-.04-.18.53-.34,1.1-.54,1.77-.12.39-.2.71-.23.97.21-.06.41-.12.62-.2.15-.07.29-.13.44-.21.27-.15.53-.31.79-.48.14-.08.27-.17.41-.25.2-.12.4-.22.61-.31,0,0,0,0,0,0,.02,0,.03-.02.05-.02,0,0-.01,0-.02,0,.28-.12.57-.23.85-.35Z"/><path class="cls-1" d="m428.86,85.33c-.23-.17-.43-.38-.64-.57-.11-.08-.21-.16-.32-.24-.06-.03-.11-.06-.17-.09-.06-.02-.11-.04-.17-.06-.06-.01-.12-.03-.18-.04-.47-.05-.95-.06-1.41-.2-.15-.05-.3-.11-.45-.18-.07.04-.14.07-.2.11-.12.06-.24.09-.37.13-.14.04-.27.08-.41.1-.13.02-.26.02-.4.02-.15,0-.3.02-.44.04-.16.03-.32.05-.48.09-.16.04-.31.09-.47.12-.15.04-.31.08-.46.1-.16.02-.33.04-.49.06-.06,0-.13,0-.19,0,0,0-.02,0-.03,0,.57.55,1.33.88,2.09,1.1-.78.76-1.23,1.43-1.56,2.17.05,0,.1,0,.14,0,.04,0,.09,0,.13,0,.06,0,.13,0,.19,0,.17.03.33.05.5.07.08.01.16.04.23.06.09.03.19.05.28.08.16.02.32.04.48.05.13,0,.25,0,.38-.01.06,0,.12-.01.18,0,.08,0,.16.02.25.03.11.01.22.01.33.05.12.04.23.09.35.13.1.02.21.04.31.06h.18s.09,0,.14.01c.11-.12.22-.23.33-.35.15-.16.31-.31.48-.46.17-.15.35-.29.51-.44.2-.2.38-.42.56-.64.17-.22.33-.45.49-.68.14-.19.3-.36.46-.52-.05-.04-.1-.08-.15-.12Z"/><path class="cls-1" d="m421.28,83.6c.19-.02.37-.03.56-.03.09,0,.18-.01.27,0,.09,0,.19.02.28.02.36.03.71.1,1.06.16.12,0,.23,0,.35,0,.06,0,.13-.02.19-.03.05,0,.09-.01.14-.02.16-.05.32-.1.48-.15,0,0-.02,0-.03,0-.27-.05-.54-.09-.81-.17-.23-.06-.44-.17-.66-.26-.12-.05-.24-.1-.36-.15-.15-.06-.3-.14-.44-.22-.16-.08-.31-.2-.43-.33-.11-.13-.19-.27-.28-.41-.14-.25-.28-.5-.39-.76-.13-.3-.23-.62-.34-.92-.15-.37-.31-.74-.43-1.12-.73,1.38-.54,3.14.29,4.45.18-.02.37-.04.56-.06Z"/><polygon class="cls-1" points="428.56 88.14 428.56 88.14 428.56 88.15 428.56 88.15 428.56 88.14"/><path class="cls-1" d="m427.83,88.76c.02-.22.04-.45.07-.67,0-.03,0-.06.02-.09-.03.07-.07.14-.11.2-.13.23-.29.42-.46.62-.15.18-.33.34-.51.5-.2.18-.41.34-.62.51,0,0,0,0,0,0-.13.1-.25.21-.38.32-.26.26-.52.55-.82.76-.18.12-.36.23-.56.32-.2.09-.4.16-.62.22-.61.17-1.25.23-1.87.37-.07.02-.14.05-.21.07-.08.03-.15.07-.23.1-.13.07-.26.15-.4.22.16.34.5.64,1.09,1.04,1.02.57,2.18.66,3.3.47.02-.02.03-.05.04-.08.15-.27.3-.53.45-.8.06-.12.12-.24.18-.35.12-.23.25-.47.4-.68.12-.18.25-.35.37-.53.04-.08.07-.16.11-.24.08-.26.15-.53.24-.79.08-.24.18-.48.28-.72.05-.13.1-.27.14-.4.03-.12.05-.25.07-.37Z"/><path class="cls-1" d="m427.63,89.5s0,.02-.01.03c0,0,0,.01,0,.02,0-.02.01-.03.02-.05Z"/><polygon class="cls-1" points="429.98 85.5 429.99 85.5 429.99 85.49 429.98 85.5"/><path class="cls-1" d="m430.05,85.47s.03-.01.05-.02c0,0,0,0,0,0-.02,0-.04.01-.06.02Z"/><path class="cls-1" d="m429.97,85.51s.01,0,.02,0c0,0,0,0,0,0,0,0,0,0,0,0Z"/><path class="cls-1" d="m429.94,85.52s.02,0,.03-.01c0,0,0,0,0,0,0,0-.02,0-.03.01Z"/><path class="cls-1" d="m428.55,88.19s0-.02.01-.03c0,0,0,0,0,0,0,.01-.01.03-.02.04Z"/><path class="cls-1" d="m416.13,106.38c.2.5.61.9,1.06,1.2.94.47,1.93.96,2.99,1.05.48.03.94-.09,1.4-.21.63-.16,1.98-.36,2.1-1.13.49.16,1.04.19,1.68.1.94-.02,1.9-.11,2.67-.71.77-.5,1.29-1.26,1.93-1.91.39-.4.89-.65,1.3-1.02.55-.49,1-1.09,1.34-1.74.38-.86.98-1.6,1.29-2.49.29-.77.27-1.61.47-2.4.13-.42.37-.79.52-1.19.44-.96.64-2,.96-3,.14-.29.32-.56.43-.86.04-.12.06-.25.09-.37,0,.05,0,.1,0,.14.02.2.04.41.05.61.03.38.07.76.1,1.14-.04.64-.07,1.28-.1,1.91.01.27.03.53.05.8.03.45.06.89.08,1.34,0,.03.01.07.02.1.05.29.1.58.15.87,0,.31,0,.62,0,.93-.11.79-.22,1.57-.31,2.36-.05.42-.09.85-.14,1.27-.01.11-.01.22,0,.33.05.52.1,1.03.16,1.55-.33.32-.4,1.02-.51,1.48-.03.09-.06.18-.1.26-.16.27-.42.47-.62.71-.31.35-.48.76-.74,1.16-.22.32-.59.51-.86.79-.4.32-.73.71-1.04,1.11-.68.56-1.4,1.07-2.06,1.66-1.05.9-1.54.1-1.71-.96.2-1.08.82-2.12,1.74-2.73.3-.15.48-.15.58.21-.02.47-.39,1.19.2,1.48.66.17.67-.78.78-1.21.12-.45.07-.95-.25-1.31-.24-.27-.63-.25-.91-.08-.29.1-.55.2-.87.29-1.8.44-2.33,2.49-2.02,4.13.23,1.71,1.89,1.24,2.99.69.66-.38,1.24-.89,1.75-1.46.33-.29.7-.53.95-.9.46-.61.73-1.35,1.35-1.83.17-.14.29-.32.4-.5-.09.3-.19.6-.26.91-.4,1.4-1.4,2.48-2.17,3.68-.76,1.24-1.18,2.64-1.68,3.99-.41.83-1.03,1.55-1.46,2.38-.48.82-.69,1.74-1.03,2.62-.12.44-1.15,1.29-.61,1.67.12.06.21-.04.31-.09.23-.13.38-.37.53-.57.39-.49.9-.84,1.33-1.3.95-.99,1.48-2.27,2.1-3.47.53-.75,1.09-1.48,1.5-2.31.81-1.59,1.04-3.36,1.56-5.06.11-.33.26-.66.43-.98-.11.48-.32.94-.39,1.43-.09.43-.02.88-.1,1.31-.03.39-.27.73-.38,1.1-.17.55-.23,1.04-.33,1.63-.14.48-.31.88-.46,1.41-.19.85-.28,1.73-.6,2.55-.59.99-1.03,2.08-1.4,3.17-.33.77-.87,1.41-1.29,2.12-.33.58-.58,1.11-.91,1.71-.24.5-.52,1.05-1.06,1.28-.34.16-.68.29-1.05.34-.24.05-.34.34-.32.56.02.19.15.43.37.42,1-.01,1.64-.85,2.29-1.49.56-.58,1.13-1.26,1.57-1.95.62-1.08,1.08-2.24,1.66-3.34.38-.86.52-1.78.67-2.69.35-1.11,1.04-2.1,1.11-3.29.16-1.06.53-2.1.37-3.19.02-.21.05-.41.09-.62.35-.77.2-1.61.41-2.41.09-.21.17-.42.24-.62-.03.31-.07.63-.11.94-.06.33-.1.65-.12.98-.03.22-.05.44-.06.66,0,.25.03.5.06.74.03.39.07.77.11,1.15.07.62.14,1.25.21,1.87-.04.6-.08,1.19-.12,1.78-.02.25-.02.51-.01.76,0,.43-.01.87-.02,1.3,0,.35.02.7.03,1.05-.01.77-.02,1.54-.04,2.31-.02.43-.02.86,0,1.28.01.43.03.85.04,1.28-.08.82-.15,1.65-.22,2.47-.03.42-.06.85-.09,1.27,0,.06,0,.11-.01.17,0,.26.04.52.09.78.06.41.11.82.17,1.22.05.6.09,1.2.14,1.8-.07.78-.14,1.57-.22,2.35-.04.42-.09.83-.13,1.25,0,.05,0,.11-.01.16,0,.24,0,.48.01.72-.07.35-.14.7-.12,1.08.02,1.21-.67,2.21-.7,3.41,0,.06,0,.12-.01.19-.03.15-.07.3-.13.43-.22.29-.34.66-.55.95v.03s-.03.05-.03.05l-.02.05-.02.05-.02.05-.02.05-.02.05-.02.05-.02.05-.02.05-.02.04-.02.04-.02.04-.02.04-.02.04-.02.05-.02.05-.02.05-.02.05-.02.05v.02c.24-.11.45-.41.63-.74.17-.2.28-.45.36-.72-.01.32-.03.63-.08.94-.14.63-.37,1.21-.5,1.84-.04.19-.07.38-.1.57,0,0,0,.02-.01.03-.18.35-.48.54-.76.76-.39.26-.86.91-1.35.58-.49-.78-.81-1.75-1.46-2.39-.69-.71-1.32-1.51-2.02-2.21-.08-.06-.15-.08-.22-.07-.29.04-.38.7-.12.95.39.37.71.82.9,1.37.57,1.58,2.33,4.47,3.95,3.36.42-.3.69-.76.92-1.26,0,0,0,0,0,0-.07.3-.17.58-.28.86-.05,0-.09.03-.14.09-.21.45-.48.86-.74,1.27-.12.15-.26.28-.41.39-.57.3-1.11.75-1.75.81,0,0,0,0,0,0-.47-.19-.79-.78-1.23-1.06-.83-.66-1.71-1.21-2.65-1.57-.05-.01-.09-.02-.13-.01-.31.04-.39.63-.22.93.11.26.37.26.57.35.8.47,1.4,1.37,2.17,1.91,1.01.77,2.48.62,3.23-.44.1-.17.22-.32.33-.47-.18.43-.35.87-.53,1.3-.31.78-.92,1.22-1.51,1.68-.75.56-1.46,1.23-2.34,1.51-.9.24-1.81-.2-2.54-.86-.57-.52-1.15-1.09-1.37-1.93-.17-.75-.3-1.52-.47-2.27-.06-.33-.11-.66-.07-1,.07-.67-.01-1.5.38-2.05.3-.32.7-.46,1.02-.74.38-.27.79-.57,1.25-.59.41.08.83.24,1.24.35.15.05.24-.13.25-.28,0-.14-.05-.35-.18-.4-.27-.12-.56-.23-.84-.31-.28-.02-.54.09-.81.13-.3.05-.6.04-.91.06-.99-.16-1.36.75-1.64,1.67-.23.66-.44,1.34-.44,2.07-.05.9-.06,1.84.22,2.71.21.7.61,1.27.94,1.88.23.44.41.9.64,1.34.09.17.19.32.29.47-.32-.1-.63-.2-.94-.34-.29-.12-.66-.26-.86-.59-.29-.52-.59-1.04-.91-1.53-.32-.75-.63-1.52-1.16-2.1-.26-.31-.49-.71-.82-.91-.09-.03-.17-.03-.25-.02-.58.08-.63,1.2-.51,1.79.18,1.47,1.09,2.1,1.93,3.03-.53-.23-1.15-.63-1.67-.29-.64.5-.58,1.64-.19,2.37.27.52.71.9,1.17,1.16.94.38,1.94.77,2.93.73.45-.03.85-.24,1.26-.43.56-.26,1.74-.68,1.74-1.54.48.11,1,.07,1.58-.13.86-.16,1.73-.39,2.34-1.15.63-.66.98-1.56,1.46-2.36.29-.49.71-.84,1.03-1.3.43-.62.74-1.33.95-2.1.21-.99.64-1.89.77-2.91.14-.88-.01-1.8.04-2.69.05-.47.21-.91.28-1.38.23-1.02.26-2.1.36-3.15.06.38.11.77.17,1.15-.02.62-.02,1.24-.05,1.86-.03.64-.06,1.29-.09,1.93-.03.35-.06.71-.07,1.06-.01.34-.02.67-.04,1.01.01.24.03.49.05.73.03.36.05.73.08,1.09,0,.62.01,1.24,0,1.86,0,.42-.02.83-.03,1.25-.02.25-.02.5,0,.75.01.2.03.41.04.61.03.38.05.76.08,1.14-.02.41-.04.82-.05,1.23-.03.25-.04.49-.02.74.03.59.07,1.17.1,1.76.01.51.02,1.03.03,1.55-.14,1.08-.28,2.17-.41,3.25-.02.17,0,.33.02.5.08.49.16.98.24,1.47.07.54.14,1.08.22,1.61-.03.3-.05.59-.08.89-.04,0-.07,0-.11.02-.43.15-.87.28-1.32.37-.79.09-1.38-.48-1.82-1.05-.28-.66-.58-1.3-.82-1.98.53-.27.99-.78,1.59-.86,0,0,0,0,.02,0,.03.01.06.02.08.04h0s.03.03.05.05c0,0,0,0,0,0,.27.32.12.85-.11,1.16-.36.35.03,1.26.52.8.49-.62.51-1.5.09-2.17-.25-.46-.58-.96-1.15-1.03-.83-.03-1.73.53-1.99,1.34-.21.7.12,1.4.35,2.05.16.44.33.87.51,1.3.02.52.46.92.94,1.04.17.04.35.06.53.08-.1.03-.19.07-.29.09-.46.1-.94.08-1.4.23-.47.19-.97.14-1.47.13-.35-.02-.69.18-1.04.1-.15-.04-.37-.06-.54-.04-.14.04-.28.19-.2.34.06.12.22.11.34.11.15.02.3-.02.44-.03.56.16,1.13.16,1.7.06.38-.02.76.06,1.14-.04.61-.15,1.14-.5,1.73-.7.02-.01.06-.03.09-.04-.17.12-.34.23-.51.35-.77.5-1.55,1.01-2.51.85-.45.06-.9.12-1.35.03-.23-.05-.46.05-.69.02-.1-.06-.22-.07-.32-.1-.34-.18-.7.37-.2.4.3.03.52,0,.79.18.26.06.53.06.8.04.25.05.51.07.76.06.34,0,.66-.14.98-.26-.78.55-1.22,1.45-.83,2.52.38,1.14,1.26,1.11,2.17.57.96-.38,1.66-1.27,1.76-2.3.1-.53.52-.96.57-1.51.13-.25.36-.36.6-.43,0,.16,0,.32-.01.48,0,.26.02.51.03.77.04.48.04.96,0,1.45,0,.23-.02.45-.03.68.01.25.03.51.04.76.01.19.02.38.03.57,0,.41.01.83.02,1.25-.06.4-.13.8-.19,1.2-.01.19-.03.38-.04.57-.02.24-.03.48-.05.71,0,.24.04.48.1.72.03.19.06.39.09.58.05.38.11.76.16,1.15.01.36.03.73.04,1.09,0,.04-.01.08-.02.13-.11.04-.18.16-.18.28,0,.27.06.55,0,.82-.11.4-.18.81-.42,1.15,0,0,0,0,0,0-.04-.02-.09-.03-.15,0-.13.07-.25.17-.38.25-.58.29-.98.81-1.42,1.28-.47.31-.96.56-1.38.93-.3.15-.62.26-.9.45-.17.1-.31.25-.51.31-.42.1-.86.15-1.29.18-.24.03-.28.39-.08.5.05.03.09.04.15.03,0,0,0,0,0,0,.45-.06.89-.2,1.3-.4.49-.13.98-.31,1.4-.63.24-.13.53-.17.75-.34.29-.23.47-.57.75-.82.33-.26.71-.46,1.07-.68-.07.15-.16.3-.21.46-.15.37-.48.62-.7.95-.2.28-.33.6-.44.92-.28.76-.98,1.28-1.28,2.04-.06.14-.12.28-.18.42-.28.05-.57.12-.85.16-.4.03-.71.26-1.02.49-.34.27-.75.45-1.03.79-.48.59-.32,1.27.51,1.32.06,0,.11,0,.17,0,.79-.07,1.14-1.04,1.68-1.53.05-.04.1-.09.15-.14,0,0,0,.02,0,.03-.11.39-.37.72-.56,1.07-.2.4-.28.84-.36,1.28-.15.65-.38,1.29-.42,1.96-.03.51.07,1.06.12,1.57.02.45-.1.85-.04,1.33,0,.6.3,1.28.52,1.85.26.76.48,1.6.8,2.37-.17.1-.25.3-.27.49-.12.6-.31,1.18-.54,1.74-.55,1.18-.49,3.57,1,3.99.07,0,.15,0,.22,0,1.04-.09,1.65-1.35,1.5-2.32-.14-.93-.57-1.78-.69-2.72-.09-1.32-.55-2.58-1.22-3.71-.15-.4-.28-.83-.4-1.25.18.41.36.86.81,1.01.04,0,.08,0,.12,0,.88-.07.64-2.32.14-2.76-.33-.55-.99-.77-1.35-1.3-.02-.04-.05-.09-.07-.15.05-.25.1-.5.13-.75.03-.73.24-1.34.49-2.04.18-.56.16-1.18.51-1.68.03-.04.05-.08.08-.11,0,.02,0,.05,0,.07,0,.3-.13.59-.18.89-.06.35.06.69.17,1.02.06.27.05.56.1.83.32.84.39,1.64.62,2.49.03.11.12.16.19.15.08,0,.16-.07.17-.19-.04-.73-.46-1.41-.49-2.15.03-.7-.34-1.32-.31-2.01-.16-.63,0-1.24.2-1.84.11-.2.22-.39.31-.6.26-.54.44-1.12.78-1.6-.07.35-.13.7-.19,1.06-.14.56-.13,1.15.17,1.65.07.12.19.23.33.22h0s.06,0,.08,0c.36-.03.66-.37.75-.71.19-.61-.09-1.22-.15-1.82-.06-.41-.05-.85-.11-1.27,0-.06-.03-.12-.06-.18.09-.16.19-.32.25-.48.31-.59.81-1.08.94-1.76.03-.09.07-.17.1-.25,0,.03,0,.07,0,.1,0,.2-.01.43.01.65.05.05.1.1.14.15.02.18.04.35.05.46-.07.47-.08.95-.02,1.42-.12.59-.14,1.19-.13,1.79.1,1.09.21,2.18.28,3.28,0,0-.01,0-.02,0,.02.18.03.36.05.54-.04.43-.08.87-.15,1.3-.01.23-.03.46-.04.69,0,.49.02.79.05,1.2.03.39.03.77-.01,1.16-.02.22-.03.43-.01.65,0,.16.03.33.05.49-.03.28-.04.56-.04.84,0,.33,0,.66,0,.98.01.46.1.92.13,1.38,0,.19,0,.37,0,.56-.03.25-.06.5-.1.75-.04.29-.06.58-.06.87,0,.58.1,1.14.14,1.71,0,.12,0,.25,0,.37-.05.57-.14,1.14-.1,1.71.03.37.1.73.17,1.1-.03.15-.06.31-.06.47-.05.55.05,1.09.04,1.63-.08,1.08-.15,2.17.1,3.23.13.86-.23,1.67-.04,2.52,0,.16.03.87.03.88.09.17.75.15.89,0,.03-.04-.02-.42,0-.47,0,0,0,0,0,0,.01-.04.05-.35.05-.37,0-.1,0-.22-.05-.32,0-.04.01-.17.01-.21,0-.1.02-.2.02-.24.02-.2.05-.4.06-.56,0-.03,0-.05,0-.07.01-.2.02-.4.03-.51.02-.27.03-.54.03-.81.01-.35,0-.69-.02-1.04-.03-.34-.08-.68-.11-1.03-.02-.21-.04-.41-.08-.62,0-.17-.01-.34,0-.51.09-.9.3-1.8.11-2.7,0-.03-.01-.06-.02-.08,0-.04.01-.08.01-.11.04-.61-.06-1.2-.16-1.79-.02-.13-.03-.26-.04-.39,0-.54.06-1.07.05-1.61,0-.32-.04-.65-.09-.96-.04-.24-.1-.48-.14-.72-.03-.21-.05-.41-.06-.56-.01-.4.02-.8.04-1.2.02-.34-.01-.67-.03-.98,0-.02,0-.03,0-.05h0c-.01-.28-.03-.55-.06-.82.04-.28.07-.56.06-.84,0-.4-.02-.75-.04-1.14,0-.1,0-.2.01-.3.05-.22.05-.51.04-.72.02-.28.03-.56.02-.84,0-.24-.04-.48-.07-.73.01-.1.03-.19.05-.29.08-.67.09-1.26.07-1.91-.02-.34-.07-.68-.09-1.02.11-.39.16-.78.17-1.18-.11-1.2.24-2.39.08-3.58-.02-.13-.06-.26-.09-.39.03-.15.06-.3.08-.46.01-.21.02-.42.01-.64,0-.17,0-.34,0-.52,0-.22-.04-.44-.09-.66-.03-.18-.05-.36-.08-.54-.04-.36-.08-.73-.12-1.09.01-.36.03-.73.04-1.09.08-.57.17-1.14.26-1.72.06-.24.09-.48.1-.72-.01-.24-.03-.48-.04-.71-.01-.19-.02-.38-.04-.57-.06-.4-.13-.81-.19-1.21,0-.42.02-.83.02-1.25.03-.44.05-.88.08-1.32-.02-.45-.03-.9-.05-1.36l.03-.77c.04-.51.04-1.01,0-1.52,0-.25-.01-.5-.02-.75-.01-.31-.04-.62-.08-.92-.02-.25-.04-.5-.07-.74.07-.53.13-1.07.22-1.61.09-.54.18-1.08.27-1.62,0-.06,0-.11.01-.17,0-.24-.03-.48-.07-.72-.02-.18-.04-.37-.07-.55-.08-.72-.18-1.44-.27-2.16.01-.52.03-1.03.04-1.55.02-.41.05-.83.07-1.24.05-.42.05-.83.01-1.25-.02-.41-.03-.83-.05-1.24.04-.58.08-1.16.13-1.74.02-.25.02-.5,0-.75-.01-.63-.02-1.25-.02-1.88,0-.41,0-.83,0-1.24.04-.55.09-1.1.13-1.66.02-.22.02-.43,0-.65-.02-.53-.05-1.06-.09-1.59-.03-.64-.07-1.28-.08-1.91-.01-.62-.03-1.24-.04-1.87.06-.4.12-.79.17-1.18.06-.25.09-.51.1-.77.01-.64.03-1.27.04-1.91-.01-.26-.03-.52-.07-.78-.04-.42-.09-.83-.13-1.25-.05-.58-.1-1.16-.15-1.74.03-.39.06-.77.09-1.16.02-.42.07-.83.14-1.24.06-.41.12-.81.17-1.22,0-.06,0-.11.01-.17-.01-.27-.03-.54-.05-.8-.03-.42-.06-.85-.09-1.27-.05-.62-.11-1.23-.16-1.85.01-.42.03-.85.04-1.27,0-.22.02-.44.02-.65,0-.42-.01-.84-.02-1.26-.01-.74-.03-1.47,0-2.21.02-.83,0-1.65,0-2.48-.01-.25-.03-.5-.05-.75-.02-.39-.05-.77-.07-1.16.09-.81.19-1.62.27-2.43.04-.38.07-.77.11-1.15.01-.11.01-.22,0-.33-.03-.33-.06-.66-.09-.99-.05-.33-.09-.65-.14-.98-.06-.65-.13-1.31-.19-1.97.02-.33.05-.65.07-.98.05-.35.11-.71.16-1.06.04-.42.09-.84.13-1.26.04-.26.06-.53.07-.79-.01-.27-.04-.53-.08-.8-.05-.42-.09-.85-.14-1.27-.08-.58-.15-1.16-.23-1.74,0-.31,0-.62,0-.93.06-.32.11-.64.17-.96.01-.22.03-.45.04-.67.03-.45.06-.89.09-1.34.02-.3-.02-.61-.03-.91-.02-.38-.04-.77-.06-1.15.05-.58.1-1.15.16-1.73.02-.25.02-.5,0-.76,0-.45,0-.91-.03-1.36-.03-.54-.06-1.07-.1-1.61-.02-.37-.03-.75-.05-1.12,0-.2-.02-.41-.03-.61.02-.4.04-.81.06-1.21.05-.97.08-1.95.05-2.92-.01-.38-.02-.77-.03-1.15,0-.28.02-.56.03-.84.03-.54.04-1.09.02-1.63,0-.83-.02-1.66-.02-2.49.06-.58.11-1.17.17-1.75.03-.3-.02-.63-.03-.92-.02-.41-.05-.81-.07-1.22-.02-.2-.05-.39-.07-.59-.05-.38-.1-.76-.14-1.13,0-.51,0-1.01.01-1.52.06-.58.11-1.15.17-1.73.02-.25.02-.49,0-.74,0-.69,0-1.37,0-2.05,0,0,0,0,0,0,0-.44,0-.88.1-1.31.18-.85.08-1.67-.03-2.5-.02-.36-.04-.72-.07-1.08-.01-.36-.02-.71-.04-1.07,0-.19-.01-.38-.02-.57.01-.42.03-.83.04-1.25.03-.25.03-.5.02-.75-.01-.21-.03-.42-.04-.63-.02-.39-.05-.78-.07-1.18,0-.61.02-1.22.02-1.83.07-.6.13-1.2.19-1.79.02-.25.03-.5.03-.75.01-.41.03-.82.04-1.23,0-.05,0-.1,0-.15-.06-.5-.12-1-.18-1.51.02-.92.04-1.85.05-2.77,0-.27.03-.54-.02-.81-.09-.5-.18-.99-.27-1.49.02-.55.03-1.1.05-1.65.06-.36.12-.72.18-1.08.06-.22.09-.45.1-.68-.02-.9-.05-1.8-.06-2.7-.01-.38-.01-.76,0-1.14,0-.38.01-.77.02-1.15-.02-.57-.04-1.15-.06-1.72.05-.57.1-1.13.14-1.7.02-.25.01-.49-.02-.74-.03-.68-.06-1.37-.09-2.05-.03-.43-.04-.86-.04-1.3,0-.3,0-.61.01-.91,0-.15,0-.3,0-.46,0-.41-.02-.82-.03-1.23,0-.44-.03-.87-.05-1.27.04-.22.07-.45.08-.68.06-.34.04-.7-.04-1.04.01-.18.03-.35.04-.53.06-.35.12-.7.18-1.05.02-.26.02-.53,0-.8,0-.22,0-.43-.01-.65,0-.3.01-.62-.04-.92-.09-.52-.18-1.04-.28-1.56-.01-.3-.03-.6-.04-.91.04-.32.08-.63.12-.95.03-.34.06-.68.08-1.03.02-.21.02-.42,0-.63,0-.19,0-.39,0-.58.06-.44.11-.89.04-1.33-.01-.06-.03-.11-.05-.17,0-.4,0-.81,0-1.21,0-.22,0-.44-.02-.65-.02-.34-.05-.67-.07-1.01.03-.6.07-1.19.1-1.79.09-.56.18-1.12.27-1.67.01-.11.01-.22,0-.32-.03-.33-.05-.65-.08-.98,0-.05-.02-.09-.02-.14-.06-.29-.12-.58-.17-.86-.03-.28-.07-.56-.1-.84h-.89c-.03.27-.07.55-.1.83-.06.29-.12.57-.17.86-.04.21-.06.42-.07.63-.02.22-.04.43-.05.65,0,.05,0,.11,0,.16.06.38.12.75.18,1.13.03.19.06.37.09.56.03.6.06,1.2.1,1.8-.02.33-.05.67-.07,1-.01.22-.02.43-.02.65,0,.16,0,.32,0,.48-.06.11-.11.24-.13.36-.34.48-.33,1.15-.47,1.73-.23,1.17-.71,2.19-1.05,3.36-.45,1.68-.79,3.34-1.4,4.98-.52,1.28-1.69,2.12-2.45,3.24-.3.49-.53,1.03-.95,1.43-.33.3-.69.57-.9.97-.1.17-.14.37-.31.48-.16.07-.24.23-.39.32-.28.27.08.77.34.35.13-.09.22-.21.31-.34.23-.19.55-.21.76-.44.33-.29.59-.65.94-.92.33-.21.68-.4.99-.65.72-.66,1.19-1.55,1.65-2.4.58-1.25,1.48-2.31,2.15-3.51.31-.63.62-1.25.89-1.9-.05.27-.1.53-.14.8-.06.31-.04.61-.05.92,0,.43-.02.86-.03,1.3,0,.05,0,.1,0,.15.04.35.12.71.18,1.06,0,.09.02.18.02.27-.41.84-.67,1.75-1.04,2.62-.59,1.29-1.27,2.54-1.86,3.83-.48.9-.87,1.85-1.49,2.68-.65.95-1.61,1.56-2.42,2.36-.46.51-.67,1.19-.99,1.79-.28.44-.6.77-.73,1.32-.09.34-.17.69-.29,1.02-.14.28-.6.95-.19,1.16.35.08.31-.42.43-.64.13-.86.88-1.44,1.24-2.21.47-.56,1.19-.88,1.56-1.53.47-.7.96-1.39,1.58-1.97.75-.71,1.64-1.27,2.3-2.08.86-.87,1.44-1.92,1.88-3.04,0,.17,0,.34,0,.51,0,.71-.05,1.43-.08,2.14-.02.4-.04.81-.05,1.21-.03.25-.04.5-.02.74,0,.12.02.24.03.36-.23.38-.23.94-.34,1.36-.09.76-.29,1.5-.69,2.17-.74,1.17-1.59,2.32-2.25,3.56-.49.76-.95,1.57-1.05,2.46,0,0-.01.01-.02.02-.42.64-.31,1.54.11,2.16.25.49.73.05.85-.3.14-.32.05-1.22-.26-1.57.01-.29-.03-.58,0-.87.1-.6.49-1.13.78-1.68.42-.73.8-1.39,1.23-2.13.6-.97,1.29-2.03,1.7-3.16,0,.15-.01.3-.02.45-.02.38-.03.77-.01,1.15v1.15c0,.38,0,.76-.01,1.14,0,.45-.02.9-.03,1.35-.03.3-.04.61-.02.91.04.22.07.44.11.66.05.33.11.66.16.99.01.55.03,1.1.04,1.65-.09.49-.18.99-.27,1.48,0,.04-.01.08-.02.12-.02.23-.02.46,0,.69.01.93.03,1.85.05,2.78-.06.5-.12,1-.18,1.49,0,.05,0,.1,0,.15.01.41.02.82.04,1.22,0,.25.01.5.02.75.02.21.04.41.06.62.04.39.08.79.12,1.18,0,.61.01,1.22.02,1.83-.04.6-.08,1.2-.12,1.8-.02.25-.02.5.01.75.01.42.03.83.04,1.25,0,.19-.01.38-.02.57,0,.16-.01.32-.02.48-.06.16-.09.34-.1.5-.09.75.13,1.64.05,2.37-.05.93-.06,1.86.03,2.78,0,0-.01,0-.02,0,0,.63,0,1.25-.01,1.88-.01.25-.01.5,0,.74.02.2.04.4.06.59.04.38.07.77.11,1.15,0,.5,0,1.01.01,1.51-.07.57-.15,1.14-.22,1.71-.02.25-.03.5-.05.75-.01.21-.03.41-.04.62-.04.26-.05.51-.03.77.02.2.04.41.06.61.04.39.07.77.11,1.15,0,.56,0,1.13-.02,1.69,0,.52-.02,1.05-.02,1.57.02.56.04,1.13.05,1.69-.01.38-.02.77-.03,1.15-.04,1.38.04,2.76.11,4.13-.03.61-.06,1.21-.09,1.81-.03.51-.07,1.02-.1,1.52,0,.05,0,.09,0,.14,0,.1,0,.19,0,.29-.04.09-.07.18-.1.28-.11.66-.56,1.2-.63,1.88-.18,1.08-1.07,1.88-1.29,2.95-.02.07-.04.14-.06.21-.05.11-.11.23-.19.33-.29.23-.49.56-.77.8-.35.13-1.06.69-1.26.13-.22-.6-.29-1.25-.38-1.88,0-.52.15-1.02.17-1.54.02-.35,0-.7,0-1.05.02-.5.14-.99.16-1.49.01-.68-.09-1.37-.22-2.04-.09-.32-.12-.89-.26-1.36.1,0,.19,0,.29-.01.62.06,1.2-.17,1.62-.63.54-.53.99-1.15,1.35-1.82,0,0,0,0,0,0-.26.12-.53.22-.81.28-.14.03-.29.04-.44.03-.13,0-.25-.03-.38-.06-.06-.01-.14-.05-.2-.08-.06-.03-.11-.06-.17-.09-.11-.07-.22-.13-.33-.18-.08-.03-.16-.05-.25-.07-.11-.02-.23-.04-.34-.05-.06,0-.12,0-.19,0,0,0-.01,0-.02,0-.07,0-.14,0-.21.01-.2.03-.4.06-.6.07-.09.01-.17.03-.26.04-.04.01-.07.02-.11.04-.01,0-.02.01-.04.02.02.07.01.14,0,.2-.04.16-.17.3-.32.36-.02,0-.04.01-.06.02-.04.01-.07.03-.11.04-.02.01-.03.02-.05.03-.04.03-.08.05-.12.08-.04.05-.09.09-.14.12-.03.03-.07.06-.1.09-.12.13-.23.27-.35.41.03.03.04.07.06.11.04.16-.03.32-.1.46-.09.17-.19.33-.28.5-.05.1-.1.21-.14.31-.06.18-.13.36-.2.54h0s0,.01,0,.02c-.07.18-.13.36-.18.55-.03.13-.05.27-.08.4-.03.34-.02.68-.1,1.01-.02.08-.04.16-.07.24-.03.08-.05.17-.09.25-.04.09-.09.17-.13.26-.05.11-.12.21-.18.31-.05.09-.09.18-.14.27-.09.24-.18.48-.27.72-.03.07-.07.13-.11.2-.04.07-.07.13-.11.2-.03.06-.08.12-.12.17-.05.08-.11.16-.17.23-.16.19-.32.38-.48.58.61-.18,1.2-.42,1.74-.71,1.06-.59,1.71-1.73,2.07-2.86.3-1.02-.03-2.05-.15-3.06.04,0,.07-.02.11-.02.15.09.31.17.47.24-.03.23.06.48.26.58.64.86.63,1.47.49,2.49-.03.65-.02,1.29.02,1.94-.01.38-.1.76-.07,1.14.03.47.15.91.19,1.38-.04.85-.21,1.97.63,2.49.61.52,1.1.15,1.56-.34.2-.15.36-.33.49-.53-.06.26-.12.52-.22.77-.24.54-.59,1.03-.82,1.58-.07.17-.14.34-.2.51,0,0,0,0-.01.01-.24.29-.6.42-.93.58-.46.18-1.05.69-1.53.33-.4-.76-.58-1.67-1.16-2.34-.62-.73-1.16-1.53-1.79-2.25-.08-.07-.15-.09-.22-.09-.31,0-.52.57-.28.83.35.39.62.83.73,1.35.35,1.48,1.76,4.31,3.66,3.54.49-.21.85-.58,1.17-.99-.12.26-.26.49-.42.72-.05,0-.11.01-.17.06-.3.37-.65.7-.99,1.03-.16.12-.32.21-.5.29-.65.19-1.3.52-1.99.49h0c-.47-.23-.71-.79-1.14-1.1-.77-.71-1.62-1.32-2.56-1.77-.05-.02-.1-.03-.14-.03-.33,0-.52.51-.38.8.08.25.35.28.55.39.78.53,1.26,1.41,2,2,.95.83,2.54.89,3.5.05.14-.14.29-.27.44-.39-.26.37-.52.74-.78,1.1-.45.66-1.18.96-1.87,1.29-.89.4-1.75.9-2.73,1.03-.99.09-1.89-.43-2.56-1.12-.52-.54-1.05-1.14-1.15-1.91-.06-.7-.08-1.4-.14-2.09-.01-.3,0-.61.08-.9.18-.59.23-1.34.74-1.78.37-.24.82-.31,1.2-.52.44-.19.93-.4,1.42-.36.42.13.84.32,1.26.48.15.06.28-.08.31-.21.03-.13,0-.32-.13-.39-.27-.15-.56-.28-.85-.39-.29-.06-.59,0-.89,0-.33,0-.65-.05-.97-.07-1.02-.28-1.56.48-2.01,1.27-.35.55-.68,1.13-.8,1.78-.2.8-.36,1.63-.2,2.45.11.65.44,1.22.7,1.81.17.42.3.86.46,1.28.07.16.14.31.22.45-.32-.13-.63-.26-.93-.43-.29-.15-.66-.33-.82-.64-.22-.51-.46-1.01-.72-1.49-.22-.71-.42-1.44-.9-2.04-.23-.31-.4-.7-.73-.92-.09-.03-.18-.05-.26-.05-.63,0-.86.99-.83,1.53-.05,1.34.82,2.02,1.57,2.97-.52-.28-1.12-.72-1.73-.49-.76.36-.88,1.38-.58,2.09Zm6.1,47.21c-.21-.31-.4-.63-.59-.95-.28-.53-.81-1.05-.74-1.7.04-.22.1-.57.31-.64.04-.01.09,0,.13.03.48.33.64,1.01.89,1.55.15.36.37.66.55,1,.15.3.25.62.43.89.28.47.71.71,1.09,1.04-.33-.14-.62-.26-.96-.44-.4-.19-.84-.34-1.1-.79Zm2.33,3.52c-.53.03-1.06.05-1.6-.05-.39-.07-.75-.25-1.11-.43-.27-.13-.57-.2-.81-.4-.44-.37.07-.86.4-.96.96-.21,1.73.2,2.46.62.69.39,1.35.79,2.11.68.23-.03.46-.11.71-.25-.46.84-1.38.84-2.17.8Zm6.34,33.15c-.28.16-.51.38-.81.52-.05,0-.1.01-.15.01.26-.38.52-.79.93-1.04.28-.18.63-.18.94-.27-.22.35-.56.59-.91.79Zm2.03,14.31c.03.47-.13,1.01-.58,1.22-.33-.22-.19-.84-.27-1.21,0-.74.31-1.43.66-2.06.24.66.25,1.36.19,2.05Zm-.66-8.39c.17.41.66.84.37,1.3-.81-.56-1.16-1.64-1.22-2.59.34.38.6.84.85,1.29Zm2.62-8.29c-.06.36-.07.76-.25,1.09-.13-.43-.19-.91-.21-1.36.04-.37.22-.69.3-1.05.18.42.27.87.16,1.32Zm-16.89-84.79c-.21-.51-.69-1.04-.51-1.62.07-.19.19-.5.44-.53.05,0,.09.02.13.05.46.36.52.99.69,1.51.11.34.28.64.42.97.11.29.17.59.32.86.22.46.64.73.99,1.08-.33-.17-.62-.32-.95-.53-.39-.23-.84-.42-1.04-.85-.17-.3-.32-.62-.48-.93Zm-.63,2.32c1.05-.05,1.8.42,2.52.89.67.44,1.31.89,2.14.89.24,0,.51-.04.79-.12-.63.69-1.6.56-2.43.41-.57-.05-1.14-.1-1.69-.26-.4-.12-.76-.33-1.11-.54-.27-.15-.57-.26-.8-.47-.4-.39.22-.76.58-.81Z"/><path class="cls-1" d="m434.04,84.22c.1,0,.2,0,.31-.01.06,0,.11-.02.17-.03.04-.01.09-.03.13-.04.04-.02.08-.04.13-.06.16-.1.31-.2.47-.3,0,0,.01,0,.02-.01.09-.41.12-.83.14-1.25,0-.03,0-.07,0-.1,0-.47-.14-.91-.31-1.33,0,0,0,.01,0,.02-.08.15-.2.28-.31.41-.12.14-.27.27-.43.38-.24.16-.48.3-.73.44-.22.13-.44.27-.66.42-.05.03-.09.07-.14.09-.06.04-.11.08-.17.11-.11.05-.23.09-.35.12-.21.06-.43.07-.65.06,0,0,0,0,0,0-.02.05-.05.09-.08.13-.05.09-.11.17-.16.26-.04.09-.09.19-.13.28-.05.11-.12.21-.19.31-.01.01-.02.03-.03.04.03,0,.06,0,.09-.01.06,0,.12,0,.18,0,.25,0,.5.04.75.05h-.03c.27,0,.54.02.8.02.12,0,.25,0,.37-.01.15,0,.3,0,.44,0,.09,0,.18,0,.27.01-.02,0-.04,0-.06,0,.06,0,.12,0,.19,0Z"/><path class="cls-1" d="m434.01,77.53c-.05.07-.11.14-.17.21-.2.24-.45.43-.69.63-.02.02-.05.05-.07.07-.05.06-.09.12-.13.18-.02.04-.04.07-.06.11-.04.08-.07.16-.1.24-.06.18-.12.35-.16.53-.05.19-.09.38-.15.57-.05.19-.12.38-.19.58-.03.1-.06.2-.1.3-.04.11-.09.23-.13.34-.01.04-.03.09-.04.13-.07.33-.1.66-.15.99,0,.01,0,.02,0,.03.07,0,.15-.01.22-.02.07,0,.14-.02.21-.04.03-.01.06-.02.09-.03.12-.05.24-.1.37-.15.07-.03.14-.06.2-.08.08-.03.15-.08.22-.12.07-.05.15-.11.22-.16.06-.06.12-.12.18-.17.1-.13.2-.26.3-.4.11-.16.2-.32.29-.49.1-.18.19-.36.29-.54-.01.03-.03.05-.04.08.06-.11.11-.21.17-.32-.04-.08-.08-.16-.11-.24-.37-.61-.55-1.3-.43-2.01.01-.09,0-.16-.04-.22Z"/><path class="cls-1" d="m421.72,79.67c.01.18.04.35.07.52.02.08.05.16.08.24.03.06.06.13.09.19.08.12.16.23.25.33.08.08.17.15.26.22.2.13.41.24.62.34.11.04.22.08.33.12.16.06.32.13.47.21.14.07.27.17.39.27.16.11.32.23.48.33.14.08.28.15.43.22.17.06.35.11.53.16,0-.02,0-.04,0-.07,0,.01,0,.03,0,.04-.01-.14-.01-.27-.02-.41-.01-.1-.03-.19-.05-.29-.01-.04-.02-.08-.03-.12-.05-.09-.1-.17-.15-.25,0,0,0,0,0,0-.02-.03-.05-.07-.07-.1-.15-.15-.31-.28-.46-.42-.08-.07-.16-.14-.23-.21-.1-.09-.18-.19-.26-.29-.16-.19-.3-.38-.45-.58-.13-.18-.29-.34-.44-.51-.13-.13-.27-.25-.38-.4-.21-.08-.42-.16-.63-.25-.35-.11-.66-.3-.91-.56,0,.02,0,.04,0,.05.05.4.05.81.06,1.21Z"/><path class="cls-1" d="m425.18,79.94s.08.08.12.11c.04.03.07.07.1.1.12.17.24.34.34.52.05.08.08.17.11.26.04.09.07.18.1.27.07.14.13.29.18.44.1.19.18.39.25.59.07.21.07.42.07.64,0,.06,0,.12,0,.18.35.11.7.25,1.02.45.18.11.34.23.51.36.18.13.37.25.56.38.15.09.3.19.44.29.14.09.26.21.38.32-.01,0-.02-.02-.03-.03.06.05.13.1.19.15.04-.03.08-.07.13-.1,0,0,0,0-.01-.01-.07-.07-.06-.19-.02-.27.02-.03.03-.06.05-.08,0-.01,0-.02.02-.03,0-.01,0-.02.01-.03,0-.02,0-.03.01-.05,0-.01,0-.02,0-.04,0-.05,0-.09,0-.14,0-.03,0-.06,0-.09,0-.07-.02-.14-.03-.21-.03-.07-.07-.15-.11-.22-.06-.06-.11-.13-.16-.19-.06-.07-.11-.14-.16-.22-.05-.07-.1-.14-.14-.21-.04-.08-.09-.17-.13-.25-.04-.07-.06-.16-.09-.24-.03-.09-.06-.17-.08-.26-.04-.16-.09-.32-.14-.48-.08-.19-.15-.37-.22-.56,0,0,0,0,0-.01-1.07-.55-2.21-.93-3.33-1.36.01.01.03.03.04.04Z"/><path class="cls-1" d="m429.74,84.19s0,.01,0,.02c0,0,0,.01,0,.02,0-.01,0-.02,0-.03Z"/><path class="cls-1" d="m430.67,83.26c0-.08,0-.15,0-.23,0-.1.02-.2.03-.31.03-.21.07-.42.11-.63,0-.11-.02-.23-.04-.34,0,.01,0,.03,0,.04-.01-.09-.03-.18-.04-.26,0,0,0,0,0,0,0,0,0,0,0-.01,0,0,0,0,0,0,0,0,0,0,0,0,0,0,0,0,0,0,0,0,0,0,0,0,0,0,0,0,0,0,0,0,0,0,0,0,0,0,0,0,0,0,0,0,0,0,0,0,0-.02,0-.05-.01-.07,0-.05-.03-.1-.03-.15,0-.09,0-.18-.01-.27-.01-.2-.02-.4-.03-.6-.02-.13-.04-.25-.06-.38-.05-.11-.09-.23-.14-.34-.04-.06-.07-.12-.11-.18-.03-.06-.07-.11-.1-.17-.03-.06-.06-.12-.09-.18-.36.34-.68.72-.92,1.15,0,.01,0,.03,0,.04.02.09.02.18.03.28,0,.1.01.2.01.3,0,.1,0,.19,0,.29,0,.09,0,.19.01.28.02.09.05.18.07.26.12.26.25.51.36.76.03.06.06.11.07.17.03.09.06.19.09.28.04.14.06.29.09.43.03.09.05.19.08.28.04.1.08.21.11.32.01.05.02.1.02.15,0,.07-.02.14-.03.21,0,.03-.01.05-.02.08.06-.06.13-.11.22-.14-.02,0-.03-.02-.04-.03-.07-.07-.04-.2.02-.27.02-.03.04-.05.07-.08,0,0,0-.01.01-.02.08-.13.14-.26.22-.4.02-.08.03-.16.05-.24Z"/><path class="cls-1" d="m430.68,78.72c.03.17.07.33.09.5.02.1.03.2.05.29.03.11.06.22.09.33.07.17.14.34.21.51.03.08.08.16.1.25.03.1.05.2.08.3l.02.1s0,.1,0,.15c0,.09,0,.19,0,.28,0,.19-.04.39-.08.58,0,.12,0,.24,0,.36,0,.15-.04.29-.06.44,0,.07-.03.12-.05.18-.03.06-.06.13-.09.19-.05.12-.1.24-.15.37,0,.02,0,.04-.01.06.03-.03.05-.07.08-.1.02-.04.05-.07.07-.11.02-.04.03-.09.05-.14.03-.12.06-.24.09-.36.04-.15.1-.3.16-.44.11-.26.21-.52.31-.78.03-.08.05-.16.07-.24,0-.04.01-.08.02-.12,0-.13,0-.26.02-.39.01-.13.04-.26.05-.4.04-.25.07-.51.14-.75.07-.25.2-.49.33-.72.07-.11.14-.22.22-.33.08-.11.16-.23.24-.35.07-.11.13-.23.19-.34.07-.14.13-.28.21-.41.04-.07.08-.15.13-.21,0,0,0,0,0-.01-.23.04-.46.13-.68.22-.68.3-1.32.68-1.92,1.11Z"/><path class="cls-1" d="m430.01,51.83s-.02-.02-.03-.02c-.06-.03-.13-.02-.19,0-.14-.43-.58.14-.65.34-.11.2-.17.42-.18.64-.06.21-.23.56-.01.73-.04.75.4.63.71.12.28-.46.39-1,.38-1.53.03-.1.04-.22-.03-.29Z"/><path class="cls-1" d="m431.51,49.8s-.06-.08-.09-.1c-.31-.19-.82.53-.58.8-.01.56,0,1.15.18,1.69.08.2.14.49.38.55.63-.09.79-.97.7-1.5-.06-.4-.15-1.3-.59-1.44Z"/><path class="cls-1" d="m428.8,51.62c.62-.6,1.12-1.4,1.29-2.24.22-.27.63-.77.24-1.04,0,0,0,0,0,0-.08-.05-.21-.03-.29,0-.56-.23-.97.47-1.25.88-.53.58-.92,1.28-1.04,2.05-.13.9.54.8,1.06.36Z"/><path class="cls-1" d="m432.05,46.76c-.05-.23-.17-.49-.36-.61-.1-.06-.22-.08-.37-.03-.46-.12-.76.46-.84.83-.08.41.16,1.35.62,1.44.31.68.62.8,1,.08.21-.55.1-1.16-.05-1.71Z"/><path class="cls-1" d="m428.7,46.77c-.16.15-.36.82.01.8.41-.15.83-.55.86-1.01,0-.14-.04-.21-.1-.25-.2-.12-.65.28-.78.46Z"/><path class="cls-1" d="m432.51,42.87c-.14-.09-.3-.15-.48-.18-.4-.6-.97.06-1.09.52-.07.31-.07.66-.03.97.11.5.38.93.7,1.32.17.2.32.46.56.57.55.25.99.01,1.22-.53.32-.75-.11-1.91-.63-2.49-.08-.07-.16-.14-.24-.19Z"/><path class="cls-1" d="m430.17,43.79s-.05-.05-.07-.07c-.43-.26-1.3,1.2-1.01,1.52.2.15.42-.14.6-.22.27-.19.53-.44.61-.78.03-.11.05-.3-.09-.34,0-.04-.01-.08-.03-.12Z"/><path class="cls-1" d="m430.25,41.88c-.03.22.16.31.33.18.34-.06.6-.6.61-.91-.02-.08-.05-.14-.09-.16-.26-.16-.88.64-.84.89Z"/><path class="cls-1" d="m429.79,167.12c.38.08.73.35,1.13.06.79-.58.64-2.07-.26-2.47-.2-.16-.5-.12-.7.02-.16.03-.32.11-.43.23-.62.56-.57,1.85.27,2.16Z"/><path class="cls-1" d="m9.4,177.57c-.11-.54-.23-1.07-.34-1.6-.02-.26-.04-.52-.07-.78,0-.28.02-.56.03-.84.05-.6.1-1.21.14-1.81.02-.37,0-.74-.02-1.1,0-.25-.07-.5-.11-.75-.08-.43-.17-.86-.26-1.3-.02-.29-.04-.57-.06-.86.03-.29.06-.59.09-.88.07-.34.17-.68.21-1.03.05-.34.1-.69.14-1.03,0-.05,0-.1.01-.16,0-.42,0-.85-.03-1.26-.03-.37-.06-.75-.09-1.12-.01-.35-.02-.71-.03-1.07.04-.4.08-.8.12-1.19.02-.28.03-.55.04-.83.03-.28.04-.56.02-.84-.03-.46-.06-.91-.09-1.37-.01-.46-.03-.93-.04-1.39.07-.49.15-.97.22-1.46l.06-.8c.03-.33.05-.66.07-1,0-.07,0-.13-.01-.2-.06-.39-.11-.77-.16-1.16-.03-.19-.06-.39-.08-.58-.04-.57-.09-1.15-.13-1.72.02-.42.04-.85.05-1.27,0-.22.02-.43.03-.65-.01-.45-.03-.89-.04-1.34,0-.22-.01-.45-.02-.67.02-.46.04-.92.06-1.38,0-.23.02-.46.03-.69-.01-.47-.03-.94-.04-1.42-.02-.72-.06-1.45-.09-2.17-.04-.49-.04-.98,0-1.48.01-.25.02-.5.03-.75.04-.29.04-.59.02-.88-.01-.24-.03-.48-.04-.71-.03-.44-.05-.88-.08-1.32.03-.93.08-1.87.08-2.8.01-.25.01-.49,0-.74-.02-.37-.04-.73-.06-1.1.01-.73.03-1.46.04-2.18.06-.56.11-1.12.14-1.69.01-.25.03-.5.04-.75-.02-.45-.02-.9-.06-1.34-.03-.36-.06-.73-.1-1.09,0-.39,0-.79.02-1.18.02-.36.04-.73.06-1.09.02-.26.02-.53,0-.79,0-.26,0-.53-.02-.79-.04-.41-.08-.83-.13-1.24-.02-.41-.04-.81-.07-1.22.02-.44.04-.88.07-1.32.03-.77.05-1.55.07-2.32.03-.4.07-.81.1-1.21,0-.05,0-.11,0-.16,0-.43-.02-.87-.02-1.31,0-.49-.16-.96-.2-1.45-.03-.41-.05-.81-.08-1.22.04-.69.09-1.37.12-2.05.03-.27.04-.54.02-.81-.05-.45-.09-.9-.14-1.34-.01-.43-.03-.86-.04-1.29.08-.68.15-1.37.23-2.05.04-.28.07-.57.08-.86,0-.48.02-.98-.01-1.46-.03-.39-.06-.79-.08-1.19,0-.46,0-.93-.01-1.39,0-.24.02-.47.02-.71.03-.47.03-.94.02-1.41,0-.47,0-.94-.04-1.41-.04-.47-.04-.94,0-1.4.03-.47.05-.93.06-1.4.03-.29.04-.57.02-.86-.07-.88-.13-1.76-.2-2.64.02-.7.05-1.41.08-2.11.04-.47.04-.94.02-1.42,0-.23-.01-.46-.01-.69.03-.47.08-.96.09-1.43,0-.47.02-.93.02-1.4-.01-.28-.04-.56-.08-.84-.02-.23-.05-.46-.07-.68-.03-.42-.07-.85-.1-1.27.02-.43.03-.87.05-1.3.03-.44.07-.89.1-1.33.01-.09.01-.19,0-.28-.05-.91-.12-1.82-.18-2.72.02-.44.04-.88.06-1.32.07-.43.13-.87.2-1.3.08-.41.15-.83.23-1.24.01-.07.02-.13.03-.2.02-.14.02-.28,0-.42-.05-.55-.11-1.11-.16-1.66-.03-.28-.05-.55-.08-.83-.07-.43-.13-.87-.2-1.31-.01-.43-.02-.85-.03-1.28.05-.68.09-1.37.12-2.05.03-.45.03-.9.01-1.35-.02-.45-.02-.9,0-1.35,0-.46.02-.91.02-1.37.02-.46.01-.92-.01-1.38,0-.28-.01-.55-.03-.83-.06-.45-.13-.9-.19-1.35-.01-.43-.02-.85-.03-1.28.16-1.03.33-2.06.47-3.09.06-.29.09-.59.1-.89-.01-.23-.02-.46-.04-.7-.02-.3-.03-.6-.05-.89-.04-.22-.07-.45-.11-.67-.09-.45-.15-.9-.17-1.35-.02-.21-.04-.41-.05-.62-.01-.44-.03-.87-.04-1.31.02-.46.04-.92.06-1.38.02-.47.04-.93.07-1.4,0-.23,0-.47,0-.7,0-.94-.03-1.88-.03-2.81,0-.67.03-1.34.06-2.01.04-.44.07-.88.11-1.31,0-.06,0-.12.01-.18,0-.46,0-.92,0-1.37,0-.51-.1-1.02-.13-1.53-.02-.41-.05-.82-.07-1.23.02-.46.03-.92.05-1.39.02-.47.03-.94.05-1.4-.02-.47-.05-.94-.07-1.4,0-.47-.01-.93-.02-1.4.03-.42.06-.85.09-1.27,0-.05,0-.11,0-.16,0-.46,0-.93.01-1.39,0-.06,0-.11,0-.17-.07-.45-.15-.9-.22-1.35-.03-.27-.06-.55-.09-.82-.06-.52-.11-1.04-.17-1.55.08-.43.16-.85.22-1.28.07-.45.14-.9.21-1.34,0-.05,0-.11,0-.16,0-.5.02-1.02-.02-1.52-.03-.41-.05-.81-.08-1.22,0-.42,0-.83-.01-1.25.08-.63-.16-.77-.1-1.41.03-.29.14-1.06.15-1.35-.01-.23-.02-.45-.03-.68-.01-.29-.03-.57-.04-.86-.03-.22-.06-.44-.09-.67-.09-.64.18-1.08.12-1.73,0-.01-.03-.23-.03-.24h-1.25v.03c-.06.65.15,1.29.06,1.94-.05.28-.15.57-.16.85-.01.23-.02.45-.03.68-.04.29-.05.58-.02.87.02.22.04.44.06.67.06.64-.15,1.27-.07,1.91,0,.42,0,.83,0,1.25-.03.4-.05.81-.08,1.21,0,.05,0,.11,0,.16,0,.45,0,.91,0,1.36,0,.05,0,.11,0,.16.14.88.28,1.75.44,2.63-.05.52-.11,1.04-.16,1.55-.03.27-.06.55-.09.82-.07.45-.14.9-.22,1.35,0,.06,0,.11,0,.17,0,.52,0,1.04.03,1.56.03.43.06.85.09,1.28,0,.46-.01.93-.02,1.39-.02.47-.04.94-.07,1.4.04.93.07,1.86.12,2.65-.04.68-.08,1.36-.14,2.04-.03.28-.05.57-.07.85,0,.46,0,.92,0,1.37,0,.06,0,.12,0,.18.04.45.08.9.11,1.35.04.89.08,1.78.07,2.68-.01.7-.02,1.41-.03,2.11-.02.47,0,.93.03,1.4.02.46.05.93.07,1.39.04.46.04.92.02,1.38,0,.21-.01.42-.02.63-.04.43-.07.86-.11,1.29-.07.45-.15.9-.22,1.34-.02.3-.03.6-.05.89-.01.23-.02.46-.03.7.01.3.05.59.11.89.03.23.06.45.1.68.13.81.26,1.61.39,2.42,0,.43-.02.86-.03,1.28-.06.45-.12.9-.19,1.34-.02.28-.03.55-.03.83-.02.46-.03.92,0,1.38,0,.46.02.91.03,1.37.02.45.02.9,0,1.35-.02.45-.02.9.02,1.35.03.69.07,1.37.13,2.06,0,.42-.02.85-.03,1.27-.06.44-.13.87-.19,1.31-.03.28-.05.55-.08.83-.05.55-.1,1.11-.15,1.66-.02.21,0,.41.03.61.08.42.15.84.23,1.26.07.43.13.86.2,1.29.02.44.04.88.06,1.32-.06.91-.12,1.81-.17,2.72-.01.09-.01.19,0,.28.04.45.07.9.1,1.35.02.43.04.86.05,1.29-.05.66-.1,1.31-.17,1.96-.04.28-.07.56-.08.84.01.51,0,1.04.04,1.55.03.43.06.85.09,1.28,0,.46-.02.93-.03,1.39.01.24.02.47.04.71.04.71.06,1.41.09,2.12-.05.65-.09,1.3-.14,1.95-.02.28-.04.56-.06.84.04.93.08,1.86.13,2.8-.02.47-.04.94-.05,1.41,0,.47,0,.94,0,1.41.02.47.04.95.05,1.42,0,.47,0,.93,0,1.4-.03.39-.05.79-.08,1.18,0,.05,0,.1,0,.15,0,.43,0,.87,0,1.3.01.29.04.57.09.86.03.23.05.47.08.7.05.45.11.9.16,1.35-.01.43-.03.86-.04,1.3-.04.45-.09.89-.13,1.34-.02.27-.01.54.03.81.03.69.08,1.37.12,2.06-.03.41-.05.81-.08,1.22-.03.22-.06.43-.09.65-.06.27-.09.53-.1.8,0,.43-.01.87-.02,1.31,0,.05,0,.1,0,.16.04.41.07.81.11,1.22.02.77.03,1.55.07,2.32.02.44.05.88.07,1.32-.02.4-.04.81-.06,1.21-.04.42-.08.83-.12,1.25-.02.26-.02.53-.01.79-.02.26-.01.53,0,.79.02.37.05.73.07,1.1,0,.39.01.79.02,1.18-.04.41-.08.82-.1,1.23-.02.4-.03.8-.05,1.19.01.25.03.5.04.75.01.2.02.39.04.59.04.37.08.74.11,1.12.01.47.02.95.03,1.42.03.45.02.91-.02,1.36-.04.41-.04.82-.03,1.23,0,.45,0,.9.03,1.34.02.49.04.97.06,1.46-.03.48-.05.96-.08,1.44-.05.49-.05.98,0,1.47.02.5.04.99.07,1.49-.04.97-.08,1.93-.11,2.9-.01.47-.03.94-.04,1.42.02.46.04.92.06,1.38.04.45.04.91.01,1.36-.01.45-.03.89-.04,1.34.03.64.06,1.28.09,1.92-.03.37-.05.74-.08,1.11-.01.2-.03.41-.04.61l-.24,1.74c-.01.13-.01.27,0,.4.02.27.04.53.06.8.02.52.07,1.04.17,1.56.04.24.07.47.11.7-.02.47-.03.93-.04,1.39-.03.45-.06.91-.09,1.36-.02.28-.01.56.02.84.01.28.02.55.04.83.04.4.08.8.12,1.2-.01.36-.02.71-.03,1.06-.04.42-.09.84-.1,1.26,0,.37-.01.74-.02,1.11,0,.05,0,.1,0,.16.05.38.08.78.16,1.16.06.3.13.61.19.91.03.3.06.59.09.89-.02.29-.04.57-.06.86-.12.58-.23,1.16-.34,1.74-.05.26-.04.51-.05.77-.02.21-.02.42,0,.63.01.16.02.32.03.47.03.45.07.9.1,1.35,0,.28.02.56.03.84-.02.26-.04.51-.07.77-.12.53-.23,1.06-.35,1.6-.04.21-.06.43-.06.65-.02.22-.03.44-.04.67.02.34.04.69.08,1.03.05.34.13.67.22,1,.11.54.22,1.08.31,1.52.11.54.17,1.08.17,1.55-.01.25-.03.51-.04.67-.04.25-.08.5-.13.75-.05.29-.12.59-.15.89-.07.56-.12,1.12-.14,1.68-.06.93.02,1.86.08,2.79.01.26.02.52.03.78,0,.28,0,.57,0,.85,0,.53,0,1.06.02,1.59.01.99.02,1.98,0,2.82-.01.48-.06.96-.14,1.43-.03.23-.06.46-.08.69-.03.31-.05.62-.06.92,0,.24,0,.48.01.72.01.72.16,1.45.28,2.16.02.19.04.37.06.56.01.36,0,.72,0,.94-.04.52-.08,1.04-.12,1.55-.03.34-.05.69-.04,1.02,0,.31,0,.64.05.95.03.25.07.49.11.73.05.33.08.66.11,1,.01.35.01.7,0,1.05-.04.57-.11,1.13-.14,1.7-.02.41-.23.96-.15,1.37.18,1.01-.09,1.03-.04,1.84,0,.11.04.74.04.85,0,.09.45.09.63.09.2,0,.66,0,.66-.1,0-.12-.14-.79-.14-.92.03-.39.14-.53.18-.91.05-.46-.04-.71-.04-1.18,0-.93.01-1.83-.05-2.76-.01-.36-.01-.72,0-1.08.02-.21.04-.42.06-.63.03-.23.07-.47.11-.7.04-.31.08-.61.09-.92.02-.99-.07-1.98-.14-2.83-.02-.36-.03-.72-.01-1.09.02-.19.04-.38.06-.57.08-.41.17-.86.21-1.26.04-.29.06-.59.08-.88,0-.24,0-.48.01-.72,0-.53-.07-1.08-.14-1.61-.08-.47-.12-.95-.13-1.28-.02-1.24,0-2.48.01-3.72,0-.56,0-1.12,0-1.68.01-.28.02-.56.04-.83.09-1.19.16-2.39.03-3.58-.02-.33-.05-.65-.11-.97-.02-.14-.05-.27-.07-.41-.06-.37-.13-.74-.19-1.09-.01-.23-.02-.46-.04-.67.01-.24.03-.48.04-.72.04-.25.08-.51.12-.76.1-.53.2-1.06.32-1.58.09-.33.17-.66.22-1,.03-.34.06-.69.08-1.03-.01-.22-.02-.45-.04-.67,0-.22-.02-.43-.06-.65Z"/><path class="cls-1" d="m14.11,197.37s0-.05,0-.08c-.01,0-.03,0-.04,0,.01.03.03.06.05.08Z"/><path class="cls-1" d="m22.32,181.22s.02-.02.02-.03c.02-.03.04-.06.05-.09.2-.53-.65-1.12-1.05-.85-.2.09-.3.39-.18.57-.08.22.17.33.28.43.19.15.77.41.88-.03Z"/><path class="cls-1" d="m24.24,194.13c-.21.21-.06.52.13.61.22.06.46.2.71.07.08-.04.15-.12.18-.21.01-.04.02-.07.02-.11.19-.25-.11-.45-.29-.49-.24-.02-.53-.08-.75.13Z"/><path class="cls-1" d="m23.3,197.22c-.33.44.27.81.59.53.16.04.36-.03.44-.23,0,0,0-.01,0-.02.13-.62-.73-.59-1.04-.28Z"/><path class="cls-1" d="m22.35,194.35c-.15.33.4.76.64.54.03-.03.05-.06.06-.09.08-.2-.2-.36-.35-.37-.02-.17-.24-.25-.35-.09Z"/><path class="cls-1" d="m26.44,187.59c-.04-.12-.22-.15-.29-.01-.67.13-.02.96.34.5.07,0,.14,0,.2-.03.04-.02.06-.04.08-.09.07-.23-.19-.33-.34-.36Z"/><path class="cls-1" d="m26.32,186.38s.04,0,.05,0c.11,0,.2-.04.29-.12.04-.04.06-.08.08-.12.06-.17-.03-.37-.15-.46-.25-.23-.91-.33-1.17.04-.25.58.51.91.89.66Z"/><path class="cls-1" d="m24.53,186.83s.05,0,.08-.02c.08-.02.15-.08.17-.16.03-.08.02-.16-.05-.23-.16-.17-.4-.15-.62-.16-.09-.1-.3-.09-.32.09,0,.04,0,.09,0,.12-.17.46.48.73.72.35Z"/><path class="cls-1" d="m21.75,182.43s0,0,0,0c.03-.08.01-.15-.02-.21,0-.3-.39-.4-.57-.17-.07,0-.14.03-.16.12-.02.12.07.18.15.21.11.07.26.14.4.16h0s.07,0,.11-.01c.04-.02.07-.05.09-.09Z"/><path class="cls-1" d="m20.25,181.29c.07-.03.1-.07.12-.11.05-.14-.15-.33-.15-.5-.03-.19-.38-.21-.38.04,0,.09.03.17.06.25-.16.25.18.37.34.31Z"/><path class="cls-1" d="m21.3,140.75s0,0,0-.01c0,0,0,0,0,0,0,0,0,0,0,.01Z"/><path class="cls-1" d="m22.89,132.32c.02-.08.04-.16.06-.24.02-.09.04-.17.06-.26,0-.04,0-.09.02-.13-.14.24-.24.53-.3.75-.17.43-.33.87-.5,1.3-.24.61-.65,1.13-.92,1.73-.14.3-.26.61-.37.92.01.13.03.26.05.39.03.14.07.27.1.41.05.16.11.33.15.49.02.07.04.15.06.22.02.09.03.19.04.28.01.07,0,.15,0,.22,0,.08,0,.17,0,.25,0,.15-.03.29-.05.44,0,.06,0,.12,0,.18,0,.06,0,.12,0,.18,0,0,0,0,0,0,.01.21.03.41.02.62.02-.07.05-.14.08-.21.1-.24.2-.47.3-.71.1-.27.17-.55.27-.82.05-.13.1-.25.15-.37.06-.13.13-.26.19-.4.01-.04.02-.07.04-.11,0-.04.02-.07.02-.11.01-.08.02-.15.03-.23.02-.25.03-.49.06-.74.04-.29.11-.58.15-.87,0-.1.02-.21.03-.31.02-.1.04-.19.06-.29.02-.09.04-.17.06-.26,0,0,0,.02,0,.02.02-.09.04-.19.06-.28,0-.04,0-.09.01-.13,0-.08,0-.17,0-.25,0-.05,0-.09,0-.14,0-.04,0-.08,0-.12,0-.04,0-.08-.01-.11,0-.05,0-.11,0-.16-.01-.09-.02-.18-.03-.28,0-.15.03-.29.06-.44.03-.14.07-.29.1-.43Z"/><path class="cls-1" d="m22.8,134.25s0,0,0,0c0,0,0,.01,0,.02v-.03Z"/><path class="cls-1" d="m20.82,139.22c0-.07,0-.14-.01-.21,0,.02,0,.03,0,.05,0-.06-.02-.13-.03-.19-.02-.12-.04-.24-.07-.35-.03-.16-.04-.32-.05-.48,0-.16,0-.32,0-.47,0-.14,0-.29,0-.43-.11.33-.23.67-.35,1-.29.73-.97,1.18-1.41,1.81-.25.32-.46.66-.68,1,0,.01,0,.02,0,.03,0,.04,0,.07.01.11.02.09.04.17.06.26.1.36.22.73.28,1.1.03.19.06.38.07.57,0,.19.02.38.04.57.08.4.16.8.15,1.22,0,.02,0,.04,0,.06.09-.25.2-.5.35-.73.06-.1.12-.2.17-.31.02-.05.04-.1.05-.15.03-.12.06-.24.09-.35.03-.13.08-.25.12-.38.05-.12.12-.24.18-.35.07-.11.13-.23.19-.35.06-.12.11-.24.17-.36.08-.15.16-.29.26-.42.05-.07.1-.14.16-.2.03-.05.07-.1.1-.16.02-.04.03-.08.04-.11,0-.05.02-.09.03-.14,0-.12,0-.24,0-.37,0-.12,0-.24,0-.37,0-.24.04-.49.06-.73,0-.05,0-.11,0-.16Z"/><path class="cls-1" d="m18.17,145.88s.01-.1.02-.15c0-.06,0-.11,0-.17-.03-.28-.05-.56-.06-.84,0-.25,0-.5,0-.76,0-.11-.01-.21-.02-.32-.01-.05-.02-.1-.03-.14-.06-.17-.12-.35-.18-.52-.03-.1-.06-.21-.09-.31-.03-.11-.04-.21-.06-.32-.03-.22-.03-.45-.02-.67,0-.02,0-.05,0-.07-.21.22-.44.42-.63.66-.84,1.06-1,2.44-1.46,3.68-.25,1.13-.04,2.29.38,3.36.08.2.13.43.14.65.03-.06.07-.11.1-.17,0,0,0,0,0,0,.04-.06.07-.12.11-.19,0,0,0-.02,0-.02.03-.11.07-.21.11-.32.05-.13.13-.24.21-.36.12-.19.25-.38.39-.55,0-.01.02-.02.03-.04,0-.01.01-.02.02-.04,0-.03.02-.06.03-.09,0,0,0,0,0,0,.05-.15.1-.3.17-.45.08-.16.16-.32.26-.47.02-.03.04-.06.07-.09.02-.04.04-.09.07-.13.04-.08.07-.17.1-.25.07-.16.14-.33.21-.49.04-.1.07-.21.11-.31,0,0,0,.02,0,.03.01-.06.03-.11.04-.16Z"/><path class="cls-1" d="m18.19,145.69s0,.03,0,.04h0s0-.03,0-.04Z"/><path class="cls-1" d="m23.18,134.29s0-.01,0-.02c0,0,0,0,0-.01,0,.01,0,.02,0,.03Z"/><polygon class="cls-1" points="16.61 149.92 16.62 149.92 16.62 149.91 16.61 149.92"/><path class="cls-1" d="m21.7,62.02s-.03.06-.04.09h0s.03-.06.04-.09Z"/><path class="cls-1" d="m26.38,108.3c.81-.47,1.39-1.23,1.88-2.02.31-.47.68-.94.8-1.5.28-2.09-1.48-1.88-2.9-1.41.7-1.21.79-2.65,1.35-3.92.33-.63.67-1.25.81-1.96.22-1.09.49-2.21.44-3.33-.11-.83-.58-2.15-1.62-1.44-.8.43-1.62.81-2.33,1.38-.92.81-1.6,1.87-2.41,2.79-.6.75-1.3,1.44-1.78,2.28-.2-.81.14-1.68-.23-2.46-.13-.32-.54-.61-.87-.41-.83,0-1.22,1.38-1.65,1.96-.79,1.15-1.58,2.4-1.67,3.83-.07.89-.17,1.77-.39,2.63-.14.95-.19,1.91-.32,2.86-.07.68.07,1.41-.24,2.05-.23.39-.62.65-.93.96-.22.23-.51.37-.81.48.05-.38.1-.76.16-1.15.02-.31.02-.61-.02-.92,0-.3-.02-.61-.04-.91-.05-.44-.1-.89-.14-1.33,0-.49-.01-.99-.02-1.48,0-.48.01-.95.02-1.43,0-.47,0-.94,0-1.41.03-.52.05-1.04.08-1.56,0-.52,0-1.05,0-1.57-.01-.29-.04-.59-.09-.88-.08-.76-.18-1.51-.28-2.27.05-.44.11-.88.16-1.32.04-.17.07-.35.11-.52,0,0,.02,0,.03-.01,0,0,0,0,0,0,.95-.92,2.17-1.59,2.9-2.74.02-.03.04-.04.05-.07.34-.19.66-.42.93-.71.28-.31.74-.5.89-.91.05-.13,0-.35-.17-.44-.11-.08-.32,0-.47,0-.39.03-.76.09-1.15.14-.98.11-1.92.36-2.83.76-.02,0-.03.01-.05.02-.04-.2-.09-.41-.13-.61-.02-.51-.03-1.03-.05-1.55.03-.52.07-1.04.1-1.56.01-.09.01-.18,0-.26-.07-.49-.14-.97-.21-1.46-.05-.5-.11-1-.16-1.51.05-.27.09-.54.14-.81-.06.07-.11.15-.17.22-.03.07-.06.13-.09.2-.15.36-.29.72-.43,1.08-.05.14-.11.27-.17.41-.01.13-.03.26-.04.4l-.21,1.46c0,.09-.01.18,0,.26.04.52.07,1.05.11,1.57-.02.52-.03,1.03-.04,1.55-.1.46-.19.92-.29,1.38,0,.06-.02.12-.03.18-.01.12-.02.25,0,.37.04.52.07,1.04.11,1.57,0,.05.02.1.03.16.1.47.2.95.3,1.42.05.44.11.88.16,1.32-.07.51-.13,1.01-.2,1.52-.05.49-.1.99-.15,1.48-.02.31-.02.62,0,.92-.01.52,0,1.05.04,1.57.04.5.05.99.04,1.49,0,.47,0,.95,0,1.42,0,.73,0,1.47,0,2.2-.05.44-.09.89-.14,1.33-.02.3-.03.61-.04.91-.03.31-.04.62-.02.92.06.46.13.92.19,1.39.02.44.03.87.05,1.31-.03.44-.07.88-.1,1.32-.02.28-.02.56.02.85,0,.28.02.56.03.84.05.43.1.87.15,1.3-.02.44-.03.88-.05,1.32-.03.43-.07.87-.1,1.3,0,.08-.01.17,0,.25.04.46.08.92.11,1.39.02.43.05.86.07,1.28-.08.9-.16,1.79-.22,2.69,0,.09-.01.18,0,.27.02.43.05.85.07,1.28.01.43.02.86.03,1.29-.04.42-.08.83-.12,1.25-.02.27-.02.54,0,.82,0,.27,0,.54,0,.82.03.41.05.83.08,1.24-.02.42-.03.84-.05,1.26-.05.42-.09.84-.14,1.26-.02.28-.02.56,0,.84,0,.28,0,.56.02.84.05.45.1.89.14,1.21.02.45.04.9.07,1.35,0,.22,0,.45,0,.67,0,.45,0,.9-.03,1.35-.02.46-.03.92-.03,1.37,0,.47-.01.93-.04,1.4-.04.46-.05.93-.03,1.39,0,.28,0,.56.01.84.04.46.08.92.12,1.37.02.42.05.84.07,1.26-.02.66-.05,1.31-.08,1.96-.05.44-.05.87-.01,1.31.02.44.03.87.05,1.31,0,.22.02.44.03.65-.01.39-.02.79-.03,1.18-.03.41-.06.81-.09,1.22-.02.26-.02.52,0,.79,0,.41,0,.83.02,1.24.02.39.03.77.03,1.16.01.36.01.71,0,1.07-.02.21-.02.42,0,.64.05.65.1,1.3.15,1.95,0,.3-.01.59-.02.89-.04.28-.07.56-.11.84-.05.27-.1.53-.15.8,0,.05-.02.1-.03.16-.03.32-.05.65-.08.97-.01.12-.01.24,0,.36.02.33.04.66.06.99.05.32.09.64.14.96.03.32.05.64.08.96l.11.97c.02.3.03.6.05.9-.01.3-.03.6-.04.9-.08.67-.17,1.34-.25,2-.01.22-.02.43-.03.65,0,.17-.02.33-.02.5.02.52.04,1.04.09,1.56.04.4.06.79.08,1.19.02,1.1.03,2.2.01,3.3,0,.49-.01.97,0,1.46,0,.22.02.44.03.66.01.24.03.49.04.65.02.42.04.84.03,1.26,0,.2-.01.4-.02.6,0,.09-.01.18-.02.26-.57,1.57.14,3.26-.03,4.88-.19,1.88-.62,3.83-.09,5.69.03.24.05.49.06.74-.03-.03-.06-.06-.09-.08,0,0,0,0,0,0-.03.5-.05.99-.03,1.49.02.46.03.92.06,1.37,0,.12,0,.24.02.36.01.11.03.22.05.33.01.1.02.21.03.31.02.17.04.34.08.51.02.17.04.33.06.5,0,.29-.03.57-.08.86-.08.98.13,1.97-.07,2.94-.07.99-.49,1.92-.42,2.91.15,1.03.92,1.89.84,2.89-.1.95-.21,1.69-.06,2.63,0,.15-.05.92-.05,1.18.08.05.3.1.45.1.2,0,.38-.05.44-.09-.05-.58,0-.92-.03-1.24-.02-.41.21-.53.21-.94,0-.28,0-.58.03-.84.08-.28.14-.61.15-.88.02-.6-.5-1.19-.5-1.78.03-.36.11-.7.11-1.06,0-.16,0-.32-.03-.48.32-.4.45-.92.63-1.39.07-.24.33-.84.42-1.35.3-.39.56-.84.77-1.11.3-.39.6-.76.89-1.15.32-.1.67-.1.98-.3.37-.22.73-.09,1.1-.09.55.03,1.1.04,1.65.02.14-.01.23-.08.26-.18.06-.17-.03-.39-.23-.42-.68-.06-1.4.01-2.09.16-.37.16-.74.07-1.12.12-.07.01-.14.04-.2.07.21-.39.39-.79.55-1.21.14-.18.27-.38.37-.59.31-.33.53-.75.75-1.16.41-.56.91-1.02,1.37-1.52.45-.48.82-1.09,1.34-1.46.71-.26,1.45-.36,2.15-.73.55-.21,1.12-.12,1.67-.17.14,0,.3-.1.35-.25.02-.05.03-.1.02-.16-.15-.77-1.61-.16-2.15-.13-.92.03-1.75.64-2.53,1.26-.82.55-1.67,1.23-2.1,2.24-.15.35-.33.67-.57.95.19-.82.39-1.64.67-2.45.17-.44.4-.96.43-1.43.05-.57-.04-1.1-.07-1.65,0-.05,0-.09,0-.14.06-.74.22-1.46.33-2.19.09-.72.01-1.46.21-2.17.12-.32.25-.64.38-.96.26-.12.53-.21.79-.33.28-.13.55-.32.83-.41.42-.09.81-.09,1.24-.22.64-.26,1.25-.43,1.89-.21.1.03.24-.02.28-.14,0-.02.01-.04.01-.07,0-.15-.12-.24-.23-.26-.54-.05-1.08-.14-1.62-.21-.84-.13-1.63.53-2.46.73-.15.05-.3.12-.44.2.1-.44.15-.91.3-1.33.67-1.07,1.73-1.68,2.59-2.53.34-.33.61-.75.92-1.12.55-.65,1.29-.96,2.01-1.14.75-.19,1.49-.43,2.23-.63.1-.03.17-.11.21-.2.03-.07.03-.16,0-.24-.11-.27-.39-.25-.63-.2-.3.04-.6.09-.9.13-.72.05-1.31.37-2.01.72-.63.24-1.26.43-1.86.79-.99.41-1.6.93-2.07,1.68-.01-.05-.02-.1-.03-.16-.08-.28-.09-.61-.2-.89-.17-.55-.51-.9-.93-1.19-.51-.23-.9-.64-1.34-.97-.43-.2-.89-.33-1.34-.5-.15-.03-.31-.06-.47-.04-.24-.03-.47-.14-.73-.12-.17-.03-.32.16-.15.27.09.04.2,0,.29.01.38-.03.67.16,1,.3.39.09.74.25,1.07.48.41.18.84.28,1.16.64.4.49.84.96,1.08,1.61.1.14.16.32.21.49.02.12-.02.24-.02.36,0,.08,0,.17-.01.25,0,.05,0,.1.02.14-.13.27-.25.56-.37.89-.46.99-1.22,1.81-1.56,2.87-.36,1.12-.35,2.28-.53,3.41-.06.57,0,1.13.01,1.69-.02.13-.04.26-.07.39-.07.2-.12.4-.18.6-.16-.39-.41-.71-.73-.95-.45-.27-1.58-2.06-2.11-1.49-.13.16-.05.38.07.47.43.32.9.53,1.33.85.25.23.4.58.58.89.17.34.43.57.58.93.02.07.03.14.04.21-.23.97-.4,1.95-.48,2.95-.19,1.19-.64,2.3-1.39,3.26-.22.09-.36.29-.55.43-.28.19-.54.42-.79.67-.27.25-.5.53-.71.83.02-.44,0-.89-.05-1.33,0-.04,0-.07.01-.11.03-.2.06-.41.09-.61.03-.21.04-.42.07-.63.04-.23.05-.46.06-.7.02-.54.06-1.08.06-1.62-.04-.02-.07-.04-.1-.05.03-.28.05-.55,0-.83-.18-.94-.1-1.88-.08-2.82-.01-.49-.09-.98-.16-1.47.05.09.11.16.17.2.15.24.74.49.95.15,0,0,0,0,0,0,.21-.56-.71-1.16-1.07-.7-.03.02-.03.04-.05.06.01-.47.03-.93.06-1.39.17.03.32.02.4-.08.04-.04.07-.09.09-.15.06-.16.05-.37-.02-.49-.06-.11-.24-.23-.44-.29-.09-1.43.31-2.84.2-4.26-.06-.23-.12-.46-.2-.69-.01-.33-.02-.67,0-1,.01-.43.03-.86.06-1.29.03-.46.04-.91.03-1.37,0-.5-.01-.99-.02-1.48,0-.71,0-1.42,0-2.13,0-.4.03-.81.05-1.21.03-.35.08-.7.09-1.05.01-.31.02-.62.03-.93,0-.17-.02-.33-.02-.5-.01-.22-.02-.43-.03-.65-.02-.18-.05-.35-.07-.53-.06-.5-.13-.99-.19-1.49,0-.09,0-.19-.01-.28.03-.02.06-.05.09-.07.43-.15.81-.4,1.11-.74.4-.47.71-1.02,1.13-1.51.25-.19.43-.41.64-.66.13.22.39.32.64.21.42-.1.86-.01,1.28-.08,1.45-.07,2.65-1.21,2.9-2.64.12-.67-.06-1.36-.1-2.04-.09-.69-.09-1.45.02-2.15.1-.91.56-2.57-.56-2.97-.44-.06-.59.31-.88.59-.81.84-1.35,1.91-2.25,2.66-1.8,1.4-1.95,2.37-1.5,4.55.03.22,0,.44-.07.65-.2.52-.35,1.06-.68,1.51-.57.73-1.26,1.35-1.79,2.12,0-.02,0-.03,0-.05.02-.3.03-.6.05-.91.03-.32.07-.64.1-.96.03-.32.05-.64.08-.96.04-.32.09-.64.13-.96.02-.33.04-.66.06-.99.03-.44-.04-.89-.08-1.33-.03-.2-.07-.4-.11-.6-.02-.12-.04-.24-.07-.36-.04-.28-.08-.56-.11-.84,0-.3-.02-.59-.02-.89.05-.65.09-1.29.14-1.94.02-.21.02-.42,0-.64-.01-.36-.01-.71,0-1.07,0-.07,0-.14,0-.2.16-.1.29-.31.44-.44.69-.64,1.58-1.1,2.42-1.53,1.2-.58,2.31-1.38,3.55-1.88.69-.18,1.44-.21,2.02-.67.33-.09.61-.07.89-.32,0,0,.01,0,.02,0,.05.04.24.08.3.09.23-.02.29-.44.05-.5-.11.01-.22,0-.33.05-.14,0-.26-.13-.41-.12-.21,0-.39.11-.59.14-.32-.04-.64.04-.93.18-.45.22-.87.51-1.34.7-.44.15-.9.17-1.35.27-1.28.27-2.56.66-3.58,1.51-.27.19-.73.54-1.1.93,0-.2.01-.41,0-.61,0-.26,0-.52,0-.79-.03-.42-.07-.83-.1-1.25,0-.22-.01-.44-.02-.66.55-.21,1-.73,1.44-1.11.48-.52,1.13-.92,1.45-1.56.35-.07.44-.51.65-.76.76-.79,1.79-1.27,2.7-1.87.47-.43.79-.96,1.17-1.48.51-.65,1.04-1.31,1.44-2.04.77-1.45.54-3.06.99-4.63.3-1.13.7-2.25.71-3.43.09-1.29.41-2.61.02-3.88-.09-.41-.27-.8-.29-1.22.05-.28.04-.62-.2-.82-.15-.11-.29-.15-.41-.12-.03.1-.05.19-.07.29,0,.06-.01.12-.02.17,0,.09,0,.19,0,.28,0,.07.02.14.02.21.02.2.06.39.06.59,0,.1,0,.19-.03.28-.02.09-.04.18-.06.27,0-.02,0-.03,0-.05-.02.14-.06.27-.08.41-.01.08-.04.16-.06.24-.02.08-.03.16-.05.24-.02.2-.03.39-.05.59h0c-.02.17-.04.35-.08.52-.05.23-.08.47-.1.7-.02.22-.06.44-.14.65s-.17.42-.24.63c0,0,0,0,0,0-.02.08-.04.15-.06.23-.02.12-.03.24-.05.37-.03.12-.06.25-.09.37-.09.28-.22.54-.33.81,0,.03-.02.05-.03.08-.03.13-.06.25-.1.38-.04.15-.11.29-.18.43-.06.13-.13.25-.21.37-.07.12-.16.23-.23.34,0,0,0,0,0,0,0,0,0,0,0,0,0,0,0,0,0,0-.14.24-.24.5-.37.75-.15.28-.34.52-.52.78-.04.07-.08.13-.12.2-.05.11-.1.22-.14.34-.04.12-.09.25-.15.37-.11.22-.26.42-.4.62-.02.04-.05.09-.07.13-.03.08-.06.15-.09.23,0,.03-.02.06-.02.09-.04.21-.07.41-.1.62-.03.22-.07.45-.15.66-.06.17-.14.34-.22.51-.09.19-.22.35-.33.53-.1.17-.18.36-.28.53-.05.12-.09.24-.14.36-.03.07-.06.14-.1.2-.03.06-.08.11-.13.16-.07.1-.14.2-.21.31-.07.13-.16.24-.25.36,0,0,0,0,0,0,0,0-.01.01-.02.02,0,0,0-.01.01-.01-.03.04-.06.07-.08.11-.12.22-.23.44-.34.66-.06.12-.13.25-.21.35-.03.04-.06.09-.1.12-.04.04-.08.07-.13.1-.01,0-.02.02-.03.03,0,.01-.02.02-.03.03-.2.26-.38.53-.55.8,0,0,0,0,0-.01,0,0,0,.02-.01.02,0,0,0,0,0,0h0c-.04.07-.08.14-.13.21-.03.04-.05.08-.09.12-.02.03-.05.05-.08.08-.14.29-.29.57-.5.81-.45.44-.99.79-1.43,1.23,0-.02,0-.05,0-.07.02-.44.03-.87.05-1.31.03-.26.03-.52.02-.78-.03-.4-.05-.81-.07-1.21-.02-.43-.03-.86-.05-1.29.02-.43.05-.86.07-1.29.04-.44.08-.88.12-1.33.02-.28.03-.56.02-.84.02-.28.02-.56,0-.84-.02-.42-.04-.84-.07-1.26,0-.46-.01-.92-.02-1.38-.02-.45-.03-.91-.05-1.36,0-.45,0-.89,0-1.34l.06-1.23c.05-.44.1-.88.15-1.33.02-.28.03-.56.02-.83.02-.28.02-.56,0-.84-.05-.43-.1-.86-.15-1.29-.02-.42-.03-.84-.06-1.13.03-.45.06-.9.08-1.34.02-.27.02-.54,0-.82.01-.27.01-.54,0-.82-.04-.42-.09-.84-.13-1.26.02-.67.03-1.33.07-2,.04-.28.05-.55.03-.83-.07-.9-.15-1.81-.23-2.71.02-.43.04-.86.07-1.29.04-.45.07-.91.11-1.36,0-.04,0-.09,0-.13-.01-.27-.03-.55-.06-.82-.02-.21-.03-.43-.05-.64-.02-.44-.03-.87-.05-1.3.05-.43.1-.86.15-1.29.02-.28.03-.56.03-.84,0,0,0,0,0-.01.27.69.8,1.28,1.27,1.86.84,1.28,1.88,2.96,3.55,3.19,1.4.12,1.82-1.26,2.27-2.3.8-1.55.29-3.89-1.45-4.52-1.7-.46-2.22,1.45-1.68,2.73.25.64.9.16.75-.37-.18-.44.03-.86.3-1.21.96.37,1.23,1.47,1.44,2.37.28,1.24-.69,1.94-1.84,1.52-.97-.29-1.79-.91-2.59-1.52-.63-.51-.79-1.35-1.11-2.05-.14-.38-.45-.64-.63-.99-.09-.27-.15-.57-.36-.78,0-.03,0-.07,0-.1,0-.03,0-.06,0-.09,1.55-.01,3.08-.3,4.59-.68,1.01-.25,1.84-.81,2.79-1.26.92-.47,1.92-.69,2.9-.98.92-.34,1.79-.85,2.67-1.3Zm-9.91,58.64c-.08-1.36.59-2.62,1.49-3.6.22-.24.49-.4.78-.54.49-.4,1.04-.73,1.45-1.23.06,1.08.24,2.15.19,3.25-.02.91-.01,1.61-.83,2.19-.48.34-1.08.45-1.55.8-.47.24-1.03.26-1.48.56-.15-.49-.12-.93-.05-1.43Zm11.28-62.51c.17.11.06.32-.02.46-.07.14-.17.26-.28.36.03-.29-.13-.61-.44-.57-.31.03-.6.11-.88.22.5-.29,1.03-.52,1.61-.47Zm-.48-7.09c-.24.75-.21,1.49-.56,2.22-.4,1.04-1.35,1.7-1.99,2.6-.41.52-.79,1.07-1.05,1.68-.24.33-.49.68-.58,1.08-.1.35-.08.96.28,1.11-.06,0-.12.01-.19.01-1.19.16-2.15.98-2.93,1.85-.29.34-.61.65-1.01.85-.01,0-.03.02-.04.02.43-.56.81-1.18,1.19-1.76.38-.46.79-.88,1.11-1.38.46-.84.8-1.89,1.19-2.8.17-.55.35-1.11.64-1.61.2-.36.49-.67.73-1,.45-.63.73-1.36,1.01-2.08.27-.54.51-1.09.89-1.56.38-.47.9-.79,1.31-1.23.3-.19.31-.58.18-.85.09-.06.18-.12.27-.17.08,1.04-.15,2.04-.47,3.02Zm-6.96,6.3c.13-.52.26-1.05.52-1.52.33-.48.69-.94.92-1.48.43-1.02.63-2.12,1.21-3.08.49-.95,1.43-1.53,2.41-1.85.22-.09.43-.2.63-.31-.33.47-.65.95-1.07,1.36-.71.83-1.54,1.6-1.89,2.67-.3,1.07-.68,2.11-1.21,3.09-.29.79-.64,1.55-1.01,2.31-.26.59-.45,1.2-.76,1.77-.53.7-1.28,1.22-1.87,1.88.26-.99.67-1.94.79-2.96.08-.82-.25-1.63-.04-2.45.28-1.22.16-2.48.37-3.7.16-.41.31-.8.35-1.23.28.65.05,1.48-.14,2.15-.19.93-.32,1.87-.43,2.81-.02.29-.03.6.11.86.34.64,1,.28,1.11-.3Zm-4.19,6.25c.03-.32.23-.52.31-.85.14-.52.04-1.06.03-1.58.03-.47.27-.9.31-1.37.02-.86.17-1.7.36-2.54.13-.62.09-1.26.24-1.88.2-.63.54-1.19.81-1.79.33-.78.62-1.58,1.11-2.27.02.02.03.04.05.06,0,.02,0,.05-.01.07-.24.4-.29.85-.3,1.31-.08.84-.5,1.61-.57,2.47-.11.75,0,1.5,0,2.26-.2.88-.42,1.76-.48,2.67-.17.86-.6,1.64-1.07,2.37-.2.4-.56.72-.7,1.14-.03.01-.07.02-.1.04,0-.03.01-.07.02-.1Zm3.51-.7c.69-.85,1.86-1.07,2.74-1.67.72-.41,1.34-.97,2.17-1.18.36-.13.75-.1,1.12-.14.27-.02.52-.08.76-.16-.71.51-1.41,1.05-2.19,1.45-.99.47-1.91,1.11-2.99,1.39-.53.15-1.07.24-1.61.31Z"/><path class="cls-1" d="m12.74,82.16c.69-1.71,2.16-2.89,3.44-4.15.84-.93,1.43-2.09,1.75-3.3.37-1.68.31-3.4.37-5.15-.1-2.68-.83-5.39-2.32-7.64-1.19-1.64-1.16-3.81-2.33-5.45-.09-.16-.14-.33-.17-.5-.02-.32-.04-.64-.05-.89.02-.41.03-.81.05-1.22,0-.2.02-.41.03-.61-.01-.41-.02-.81-.04-1.22-.03-.81-.02-1.62-.02-2.42.05-.59.1-1.19.16-1.78.02-.25.02-.51,0-.76,0-.14,0-.28-.01-.41.07.13.13.27.17.42.25.92.62,1.82,1.37,2.45.72.78,1.28,1.7,2.12,2.37.69.63,1.5,1.18,2.08,1.91.1.37.15.76.28,1.11.22.9.66,1.83.76,2.76-.05.44-.12.97-.04,1.43.05.18.08.35.11.53-.05,1.03-.12,2.05-.24,3.08-.04,1.18.3,2.32.49,3.47.04.33.09.68.16,1.02.04-.17.07-.34.1-.52.03-.24.05-.48.06-.72,0-.33,0-.66,0-.99,0-.35,0-.71.06-1.06.06-.36.16-.71.27-1.06.09-.27.21-.52.33-.78.04-.1.08-.2.12-.31.02-.08.04-.16.06-.24.02-.13.04-.26.05-.39.03-.32.02-.64.03-.96.01-.42.06-.84.07-1.27,0-.12,0-.24-.02-.35-.02-.11-.04-.22-.06-.33,0,0,0,0,0,0-.07-.27-.15-.54-.21-.81-.01-.04-.02-.08-.04-.11-.05-.12-.13-.23-.17-.35-.04-.12,0-.27.08-.36.07-.08.2-.13.29-.05.14.11.2.29.25.45.06.15.1.31.14.46.04.14.05.29.07.44,0-.01,0-.03,0-.04.03.23.06.45.12.68.09.3.2.58.28.88.07.24.1.5.12.75.05.53-.09,1.06-.16,1.58-.02.3-.01.6-.02.9-.01.38-.06.76-.12,1.13-.07.4-.16.79-.29,1.18-.13.38-.25.76-.37,1.15-.05.22-.1.44-.15.66-.03.22-.04.44-.06.67,0,.12,0,.23,0,.35.02.27.05.53.09.8.03.26.05.51.07.77,0,.06.01.12.02.17.3.31.63.62.93.94.1-.2.21-.39.31-.59.09-.17.17-.35.25-.53.07-.18.13-.36.19-.54.04-.18.07-.35.1-.53.06-.59.07-1.18.13-1.77.03-.28.06-.55.12-.83.06-.29.15-.58.23-.87.01-.07.03-.14.05-.21.02-.14.03-.28.04-.42,0-.3,0-.6,0-.9,0-.33.07-.65.14-.97,0-.07.01-.14.02-.22,0-.06-.01-.13-.02-.19-.02-.16-.03-.3-.03-.46,0-.08,0-.16.03-.24.05-.13.22-.16.28-.02.04.09.02.2.03.29,0,0,0-.01,0-.02,0,0,0,.01,0,.02h0c0,.12,0,.23,0,.35,0,.07,0,.14,0,.2.01.07.02.14.03.21.08.3.17.61.17.92,0,.38,0,.75.01,1.13.02.15.05.3.07.45.07.35.12.69.12,1.04,0,.35-.04.7-.11,1.04-.07.37-.17.74-.28,1.11-.12.38-.26.75-.37,1.13-.1.4-.19.79-.25,1.2-.06.49-.09.97-.13,1.46,0,.49,0,.98,0,1.47,0,.54,0,1.08.02,1.61.06.45.12.9.2,1.35.02.02.05.04.07.05.12.07.24.1.35.1.6,0,.92-.93.78-1.49.14-.45.27-.91.43-1.35.38-.79.4-1.66.65-2.48.45-1.62.53-3.29.25-4.94-.1-.9-.07-1.8-.3-2.68-.54-1.73-1.17-3.44-2.25-4.91-.84-1.12-1.39-2.44-2.26-3.53-.61-.84-1.49-1.39-2.25-2.08-.61-.66-1.13-1.41-1.73-2.07-.55-.66-1.25-1.16-1.89-1.72-.4-.41-.67-.93-1.05-1.35-.31-.37-.66-.7-.93-1.11-.04-.06-.06-.12-.09-.18.01.01.02.02.04.03,1.3,1.18,3.15,1.45,4.86,1.56,1.01.16,2.09.3,2.96.89,1.27,1.1,2.28,2.48,3.35,3.77.64,1.08.62,2.44.67,3.67-.07.22,0,.51.18.61.59.2.76-.71.84-1.13.17-1.33-.32-2.65-.49-3.96-.2-1.18-.69-2.43-1.59-3.42-.67-.75-1.52-1.3-2.44-1.7-.98-.5-1.84-1.25-2.92-1.53-1.25-.51-2.8-.04-4.13-.3-.45-.16-.98-.22-1.29-.62-.11-.13-.14-.3-.23-.44-.07-.1-.14-.16-.22-.2.01-.24.03-.47.04-.71,0-.04,0-.09,0-.13,0-.35,0-.71,0-1.06-.01-.26-.03-.51-.07-.77-.04-.41-.08-.81-.11-1.22,0-.31,0-.63,0-.94.02-.34.06-.68.06-1.02,0-.34,0-.68,0-1.03.03-.47.06-.94.09-1.42.02-.22.03-.43.04-.65,0-.17-.02-.35-.03-.52,0-.22-.02-.43-.03-.65-.03-.17-.05-.33-.08-.5-.07-.33-.11-.67-.11-1,0-.14-.02-.29-.03-.43.02-.3.03-.6.05-.9.02-.33.05-.66.07-.99,0-.07,0-.15,0-.22-.02-.33-.04-.66-.07-1-.03-.31-.07-.63-.1-.94,0-.31,0-.61,0-.92.04-.31.07-.62.11-.93.01-.22.03-.44.04-.66.03-.44.06-.88.08-1.33,0-.09,0-.18,0-.26,0-.14-.02-.28-.03-.42.06.23.12.46.16.7.29,2.55.87,5.14,2.56,7.15.76.96,1.44,2.24,2.72,2.53,2.05.53,3.14-1.81,3.67-3.4.49-1.53.38-3.38-.71-4.63-.79-.85-2.25-1.59-3.38-1.04-.45.3-.63.85-.88,1.31-.28.54.32,1.3.73.63.05-.11.1-.22.16-.32.84.16,1.76.43,2.17,1.26.36.63.52,1.4.38,2.12-.16.4-.47.71-.75,1.03-1.18,1.19-2.56.99-3.39-.46-.61-1.1-.63-2.41-.95-3.61-.26-1.24-.76-2.41-1.04-3.65-.13-.87-.16-1.76-.36-2.62-.23-.88-.61-1.71-.85-2.59-.26-1.07-.07-2.14-.24-3.24-.03-.21-.08-.43-.14-.64,0-.12-.02-.24-.03-.36,0-.2,0-.4,0-.59,0,.02.01.03.02.05.22.7.19,1.44.26,2.16.2,1.86.73,3.76,2,5.19.98,1.04,2.03,2.2,3.45,2.6,1.96.47,3.06-1.4,3.6-2.98.96-1.95,1.21-4.58-.08-6.47-1-1.63-3.71-2.44-4.94-.64-.74.93-1.09,2.19-.98,3.37.11,1.18.68,2.78,2.04,2.92,1.2.02,1.81-1.31,1.8-2.36.03-1.21-1.34-1.78-1.78-.46-.2-.78.55-2.96,1.47-3.03.45.05.67.55.9.88.59,1.25.53,2.78.36,4.13-.09,1.21-1.16,1.98-2.13,2.55-1.83.84-2.65-1.06-3.26-2.43-.6-1.71-1.48-3.32-1.96-5.06-.14-1.2.05-2.44-.52-3.55-.03-.31-.04-.63-.12-.93.03-.33.04-.66.01-.99,0-.21,0-.41-.02-.62-.04-.31.08-.62.04-.93-.02-.29-.04-.57-.06-.86.02-.43.05-.86.07-1.29.04-.39.05-.79.02-1.19,0-.21,0-.43-.02-.64-.03-.34.11-.67.08-1.01,0-.31-.1-.47-.09-.79,0-.03,0-.16,0-.24h-.88s0,.09,0,.12c0,.31.07.31.08.62-.03.37-.22,1-.17,1.4.04.36-.02.72-.03,1.08.01.25.03.5.05.74l.07,1.2c-.02.28-.03.57-.05.85-.02.16-.04.31-.06.47-.04.19-.06.39-.07.59,0,.37-.04.75-.01,1.12.02.3-.18.61-.16.91.01.32.03.64.04.95,0,.33-.01.66-.02.99.01.22.03.44.04.65,0,.15.02.31.03.46,0,.35.01.71.01,1.07-.05.64-.1,1.27-.14,1.91-.02.21-.01.42,0,.62.02.5.05,1,.08,1.51-.02.84-.06,1.68-.04,2.53,0,.35.01.69.03,1.04.03.36.03.72,0,1.08-.02.56-.05,1.12-.09,1.68.01.27.03.53.05.8.03.44.06.89.09,1.33.04.32.08.63.12.94,0,.31,0,.61.01.92-.05.48-.09.95-.12,1.43-.01.2-.02.41-.04.61,0,.37.06.74.09,1.1.02.3.03.61.05.91-.02.31-.04.62-.06.93-.03.17-.05.33-.08.5-.05.21-.07.42-.08.63,0,.17-.01.35-.02.52-.03.22-.03.44-.01.66.01.17.02.34.04.51.03.48.07.96.1,1.44,0,.37,0,.75.02,1.12.02.3.04.61.06.91,0,.31,0,.63.02.95-.05.62-.11,1.24-.16,1.85-.02.22-.02.44,0,.66-.01.22,0,.44,0,.66.02.32.04.63.06.95-.03,1.06-.06,2.12-.08,3.18-.02.25-.02.51,0,.76.02.21.04.41.06.62.04.39.07.79.11,1.18,0,.6.02,1.2,0,1.8-.01.41-.02.81-.03,1.22-.03.41-.02.81.02,1.22.02.41.04.81.06,1.22-.02.42-.04.84-.06,1.26-.01.21-.02.42-.03.63.02.41.03.83.05,1.24.03.81.02,1.63.01,2.44-.02.36-.05.71-.07,1.07-.02.24-.03.48-.04.72,0,.04,0,.08,0,.12-.2.5-.04,1.38.03,1.79-.23.98-.27,1.99-.05,2.98.12.62.08,1.26.19,1.88,0,.25-.06.49-.11.73-.03-.02-.05-.04-.08-.06-.05.48-.09.95-.14,1.43-.03.31.04.59.08.9.05.36.11.72.16,1.08,0,.36,0,.72,0,1.09,0,.2,0,.39,0,.58-.02.54-.05,1.09-.07,1.63.01.24.03.47.06.71.01.14.03.27.04.41.24-.28.5-.54.77-.79-.04.03-.07.06-.11.09.04-.03.07-.06.11-.1.06-.12.12-.23.19-.35.09-.16.2-.31.32-.45,0-.12-.02-.23-.04-.35-.04-.47-.05-.93-.04-1.4,0-.37,0-.73,0-1.1.08-.54.15-1.09.23-1.63.03-.22,0-.5-.03-.73-.03-.02-.06-.04-.09-.06.13-.61.3-1.21.25-1.85-.06-.79-.11-1.57-.07-2.36.01-.93-.18-1.84-.34-2.76,0-.08,0-.16.01-.25.02-.4.04-.81.06-1.21,0-.04,0-.09,0-.13-.04-.56-.08-1.12-.12-1.68,0-.4,0-.8-.01-1.19,0-.14,0-.28,0-.42.06.12.12.25.19.37.53.94,1.02,1.91,1.31,2.95.36,1.44.51,2.97.9,4.42.38,1.58,1.13,3.08,1.31,4.7.09.91-.17,1.83-.84,2.47-.6.89-1.42,1.6-2.04,2.48-.68.97-1.35,1.95-2.1,2.86-.68.88-1.15,1.91-1.4,3-.39,1.24-.41,2.48-.3,3.78-.06.75-.34,1.47-.32,2.23.02.57.13,1.12.15,1.69.02.27.24.58.53.52.52-.15.38-.78.4-1.2.18-1.05-.03-2.1-.08-3.14.06-.64.36-1.08.57-1.73.31-.76.59-1.54.97-2.27Z"/></svg>