<?xml version="1.0" encoding="UTF-8"?><svg id="ILUSTRACIONES" xmlns="http://www.w3.org/2000/svg" viewBox="0 0 240 32"><path d="m119.81,27.37c-.14-.02-.27-.08-.4-.13-.14-.05-.26-.16-.38-.25-.07-.05-.13-.09-.2-.14-.08-.04-.15-.08-.23-.12-.09-.03-.17-.07-.26-.1-.16-.04-.31-.09-.46-.14-.19-.07-.35-.16-.53-.26-.05-.04-.11-.08-.16-.12-.11-.09-.22-.17-.32-.26-.17-.16-.35-.31-.54-.45-.22-.12-.43-.25-.64-.37-.13-.08-.21-.14-.33-.24-.11-.09-.23-.17-.32-.28-.39-.43-.75-.88-1.13-1.31-.14-.12-.28-.24-.42-.36-.19-.12-.39-.24-.58-.36-.21-.12-.41-.24-.61-.38-.09-.06-.17-.12-.26-.18-.39.1-.79.17-1.19.21-.5.05-1-.03-1.5-.09-.3-.03-.61-.05-.91-.04-.28,0-.55.03-.83.05-.46.06-.93.13-1.39.2-.22.03-.44.06-.65.08-.13.01-.26.02-.39.02-.04,0-.09,0-.13-.01-.09,0-.18-.01-.26-.02-.21-.04-.42-.1-.63-.16-.12-.04-.25-.11-.36-.17-.12-.07-.24-.13-.35-.21-.45-.32-.83-.73-1.15-1.04-.25-.24-.5-.48-.75-.72-.25-.24-.51-.45-.78-.66-.44-.28-.89-.53-1.35-.78-.24-.13-.45-.29-.67-.45-.28-.21-.55-.43-.83-.64-.16-.11-.31-.23-.48-.33-.21-.13-.43-.25-.64-.36-.14-.06-.27-.12-.41-.18-.14-.06-.3-.1-.44-.15-.15-.05-.3-.1-.46-.15-.21-.07-.41-.17-.61-.26-.31-.15-.62-.31-.94-.45-.13-.06-.26-.12-.39-.18-.16-.07-.34-.12-.51-.18-.13-.03-.26-.06-.39-.09-.19-.04-.39-.06-.58-.09-.34-.05-.68-.11-1.02-.18-.34-.07-.67-.16-1-.24-.24-.06-.48-.11-.72-.16.1.14.19.29.28.44.22.36.41.75.62,1.12.22.41.45.82.67,1.24.19.38.32.78.42,1.13.08.28.14.57.19.86.05.31.04.63,0,.94-.08.65-.33,1.27-.69,1.82-.31.47-.71.86-1.13,1.23-.21.19-.45.34-.68.5-.23.16-.49.29-.75.4-.54.23-1.12.22-1.69.08-.6-.15-1.18-.36-1.75-.59-.35-.14-.71-.29-1.06-.44-.16-.07-.32-.16-.49-.24-.15-.07-.29-.18-.43-.27-.27-.17-.52-.37-.76-.58-.25-.21-.5-.43-.73-.66-.14-.13-.28-.26-.41-.4-.12-.12-.24-.23-.35-.36-.14-.16-.28-.35-.38-.54-.08-.17-.16-.35-.23-.53-.08-.22-.11-.47-.14-.7-.03-.19-.01-.4,0-.59,0-.22.05-.45.09-.67.08-.44.19-.87.33-1.29.03-.13.07-.25.11-.38.15-.55.36-1.1.77-1.51.24-.24.5-.44.77-.63.3-.21.63-.4.97-.53.13-.05.26-.12.4-.15.19-.04.39-.11.59-.12.17-.01.33-.03.5-.04.12,0,.23,0,.35.01.01,0,.03,0,.04,0-.07-.04-.14-.09-.21-.13-.18-.08-.36-.16-.54-.23-.19-.04-.39-.09-.58-.13-.14,0-.28-.02-.43-.03-.21-.01-.42-.01-.63-.01-.14,0-.26-.01-.4-.03-.21-.02-.42-.04-.63-.09-.36-.08-.72-.17-1.07-.27-.21-.06-.42-.11-.63-.16-.11-.01-.22-.03-.33-.04-.09-.01-.18-.02-.26-.03-.34.02-.68.04-1.02.06-.36.03-.71.03-1.07.03-.3,0-.6-.03-.9-.04-.18,0-.35,0-.52,0-.11,0-.23.02-.34.03-.1,0-.2.02-.31.03-.31.04-.62.07-.93.13-.15.03-.3.05-.45.1-.12.03-.24.07-.36.1-.13.05-.25.1-.38.15-.2.08-.39.17-.58.26-.15.08-.31.15-.46.23.04.03.07.06.1.09.13.12.26.24.4.36.11.1.19.22.27.33.11.14.22.29.33.43.05.09.1.18.15.27.09.16.17.32.26.47.17.31.31.64.45.96.22.52.43,1.04.64,1.56.1.24.2.47.3.71.13.32.23.65.29.98.06.32.05.65.04.97-.02.32-.09.64-.18.95-.18.59-.44,1.14-.77,1.66-.18.28-.38.55-.62.77-.1.1-.2.2-.32.28-.16.11-.32.23-.5.3-.13.05-.26.08-.39.12-.13.04-.26.04-.39.05-.33.03-.66-.06-.98-.12-.31-.06-.62-.17-.91-.28-.32-.12-.63-.28-.91-.46-.25-.16-.49-.35-.7-.57-.2-.2-.39-.43-.53-.67-.16-.28-.28-.57-.4-.86-.05-.14-.09-.28-.14-.42-.06-.15-.09-.3-.13-.46-.19-.62-.26-1.26-.26-1.91,0-.18.04-.37.06-.55.02-.19.07-.37.12-.55.04-.16.08-.33.15-.48.08-.18.16-.36.23-.54.29-.67.57-1.34.95-1.96.19-.3.41-.59.66-.84.15-.15.31-.3.47-.44-.05-.04-.09-.07-.14-.11-.32-.21-.64-.41-.97-.61-.17-.1-.33-.21-.49-.32-.15-.1-.31-.2-.44-.31-.15-.13-.3-.26-.45-.4-.14-.12-.26-.26-.38-.4-.26-.3-.53-.59-.8-.88-.19-.14-.38-.28-.57-.41-.21-.09-.43-.17-.64-.25-.25-.06-.51-.11-.75-.19-.15-.05-.29-.1-.44-.15-.1-.03-.19-.07-.29-.1-.1-.05-.19-.09-.29-.14-.64-.31-1.26-.66-1.89-.99-.25-.09-.49-.18-.74-.28-.19-.05-.38-.1-.57-.15-.2-.05-.38-.12-.57-.19-.44-.17-.89-.34-1.33-.51-.28-.08-.55-.16-.83-.24-.05,0-.11-.01-.16-.02-.11-.01-.21-.02-.32-.04-.15-.02-.31-.04-.46-.05-.31-.03-.62-.06-.94-.09-.18-.02-.36-.06-.54-.09-.24-.04-.47-.09-.71-.14-.41-.1-.81-.18-1.22-.26-.33-.07-.67-.09-1.01-.12-.36-.02-.71-.04-1.07-.04-.41,0-.83,0-1.24-.01-.37,0-.74-.02-1.11-.04-.41-.02-.83-.03-1.24-.03-.3.04-.59.07-.89.11-.16.02-.32.07-.48.11-.14.03-.29.07-.44.1-.39.14-.78.27-1.18.39-.19.06-.38.12-.58.17-.09.04-.18.05-.28.06-.11,0-.21.01-.32.02-.22.01-.43.02-.65.03-.2,0-.42-.01-.62-.02-.39-.01-.78,0-1.17.01-.27.06-.54.12-.81.18-.25.12-.51.24-.76.36-.2.11-.41.22-.61.34-.18.1-.37.18-.56.27-.44.2-.88.39-1.32.59-.21.1-.41.21-.61.31-.27.14-.53.31-.79.47-.53.33-1.09.61-1.61.95-.2.16-.4.33-.58.5-.16.21-.31.43-.45.66-.06.13-.13.26-.18.4-.05.13-.1.26-.15.39-.07.18-.18.34-.28.51-.04.07-.07.13-.11.2-.07.13-.13.28-.22.41-.14.2-.27.41-.4.62-.11.2-.2.4-.27.56,0,.02-.01.04-.02.05h0c-.03.07-.06.15-.09.22-.05.19-.1.37-.15.56-.07.26-.11.53-.14.73-.02.2-.05.4-.06.6,0,.17-.01.34,0,.52,0,.09.02.17.03.26,0,.01,0,.02,0,.04.04.23-.01.54-.26.64-.24.09-.44-.13-.49-.34-.07-.36-.1-.72-.07-1.09.02-.25.07-.51.11-.76.04-.28.09-.56.14-.84.09-.53.16-1.07.26-1.6.06-.35.12-.7.2-1.04.05-.19.14-.38.22-.56.09-.21.2-.42.31-.62.08-.15.19-.27.32-.39.14-.14.29-.27.44-.39.27-.22.53-.43.81-.63.21-.2.43-.38.66-.57.14-.11.26-.24.4-.36.16-.14.31-.26.48-.38.15-.11.3-.21.44-.32.13-.1.27-.17.41-.25.31-.17.62-.34.93-.52.27-.15.54-.29.81-.44.14-.07.27-.14.41-.21.18-.09.38-.16.57-.24.13-.05.27-.13.41-.16.17-.04.34-.07.5-.11.39-.08.79-.15,1.18-.22.32-.1.65-.19.95-.33.29-.13.57-.26.86-.39.29-.14.58-.29.89-.4.16-.05.31-.1.47-.15.14-.05.28-.11.43-.14.14-.03.3-.02.44-.03.16,0,.32-.02.48-.02.32-.01.63.02.95.03.32.02.64,0,.96,0,.37,0,.73-.04,1.09-.06.37-.04.74-.09,1.11-.13.21-.02.42-.04.64-.06.21-.02.42-.01.63-.01.88,0,1.75.08,2.63.11.44.02.88.02,1.31.03.45,0,.9,0,1.34.06.24.04.48.07.71.11.1.03.2.06.3.09.1.03.2.06.3.09.43.13.85.27,1.28.42.29.07.57.14.86.21.37.09.75.17,1.12.28.16.05.33.11.49.16.22.07.42.17.62.27.35.17.7.32,1.06.47.14.06.31.1.45.15.15.05.3.1.45.15s.3.11.45.16c.2.07.39.17.58.27.12.06.26.12.38.19.17.1.32.23.47.35.11.08.22.16.32.26.18.18.35.35.52.53.19.18.38.35.58.53.2.13.4.25.6.38.38.16.76.31,1.14.45.16.06.31.14.46.23.08.05.17.09.25.14.12.06.22.14.33.22.16.12.32.23.48.35.2.15.39.33.58.49.19.16.38.33.58.5.17.15.36.29.54.43.04.03.08.05.13.08.04-.03.09-.06.14-.09.16-.1.31-.19.48-.27.09-.04.19-.09.28-.13.1-.04.2-.07.3-.11.36-.12.73-.22,1.09-.32.38-.1.76-.21,1.14-.32.21-.06.43-.12.64-.18.22-.06.45-.11.67-.16.23-.05.46-.1.69-.15.2-.04.4-.07.6-.11.19-.03.37-.05.56-.05h.36c.09,0,.18,0,.27,0,.23.04.46.07.69.11.22.04.45.09.67.14.41.04.81.06,1.22.08.21.01.41.04.62.06.24.02.47.08.71.13.08.02.16.05.24.08.1.03.2.07.31.1.21.07.4.17.6.27.2.1.4.19.6.28.23.11.48.18.73.26.2.04.4.07.6.11.25.04.5.05.75.1.41.08.82.16,1.22.29.18.06.36.11.53.19.19.1.4.18.58.31.04.03.09.07.13.1.13,0,.26-.02.39-.02.16,0,.3,0,.46.01.57.04,1.14.03,1.71.1.14.02.29.03.43.05.14.02.29.07.43.1.28.06.54.16.81.25.14.05.28.12.42.18.14.06.28.11.41.17.26.1.53.19.79.27.34.09.68.19,1.01.29.19.06.38.13.56.2.1.05.2.09.3.14.08.03.16.07.23.11.32.2.64.41.97.6.36.22.74.42,1.11.62.31.17.63.32.94.5.32.19.63.39.91.63.29.24.56.51.84.77.24.22.49.42.75.61.26.17.53.33.81.47.14.06.27.13.41.19.13.06.26.1.39.14.34.08.68.16,1.01.25.34.1.66.23.98.37.34.15.67.31,1.01.46.36.15.74.26,1.11.39.22.06.44.11.66.14.24.01.47.01.71,0,.36-.04.71-.11,1.06-.21.28-.07.56-.15.85-.21-.07-.08-.13-.17-.19-.25-.08-.1-.15-.2-.23-.31-.14-.21-.29-.42-.42-.64-.16-.25-.33-.49-.51-.73-.13-.14-.25-.27-.38-.4-.26-.23-.51-.46-.75-.7-.14-.13-.26-.27-.38-.42-.13-.16-.25-.3-.36-.48-.11-.17-.24-.35-.32-.53-.1-.22-.2-.43-.3-.65-.1-.21-.2-.42-.29-.63-.09-.19-.21-.38-.32-.57-.19-.33-.37-.67-.54-1-.05-.11-.09-.21-.14-.32-.04-.08-.07-.17-.11-.26-.07-.19-.14-.39-.19-.59-.1-.41-.2-.82-.25-1.25-.05-.41-.1-.83-.16-1.24-.1-.49-.23-.97-.36-1.45-.13-.48-.21-.97-.18-1.47.03-.53.16-1.04.43-1.51.23-.4.55-.73.9-1.03.37-.32.72-.66,1.11-.96.38-.29.79-.52,1.23-.72.22-.1.46-.15.69-.21.12-.03.26-.05.39-.06.16-.01.31-.03.47-.02.29.01.57.04.86.07.24.02.48,0,.72,0,.28-.04.56-.08.84-.14.3-.06.59-.1.9-.13.05,0,.11,0,.16,0,.08,0,.17,0,.25.01.17.03.33.05.5.09.37.1.72.23,1.07.38.47.21.95.42,1.42.62.49.21.9.57,1.29.93.36.34.71.69,1.07,1.02.37.35.78.66,1.11,1.05.2.23.37.48.52.74.15-.26.32-.51.52-.74.33-.39.74-.7,1.11-1.05.36-.34.71-.68,1.07-1.02.38-.36.8-.72,1.29-.93.47-.21.95-.42,1.42-.62.35-.15.7-.29,1.07-.38.16-.04.33-.07.5-.09.08,0,.17-.01.25-.01.05,0,.11,0,.16,0,.3.03.6.07.9.13.28.06.56.11.84.14.24.01.48.03.72,0,.29-.02.57-.05.86-.07.16,0,.31,0,.47.02.13.01.26.03.39.06.23.06.47.11.69.21.43.2.85.43,1.23.72.39.3.74.64,1.11.96.35.3.67.63.9,1.03.27.46.39.97.43,1.51.03.5-.06.99-.18,1.47-.13.48-.25.96-.36,1.45-.06.41-.11.82-.16,1.24-.05.42-.15.83-.25,1.25-.05.2-.13.39-.19.59-.04.09-.07.17-.11.26-.05.11-.09.21-.14.32-.17.34-.36.67-.54,1-.11.19-.23.37-.32.57-.1.21-.19.42-.29.63-.1.22-.2.43-.3.65-.09.18-.22.36-.32.53-.11.17-.23.32-.36.48-.12.15-.24.28-.38.42-.25.24-.5.47-.75.7-.13.14-.25.27-.38.4-.18.24-.35.48-.51.73-.13.22-.28.43-.42.64-.07.11-.15.2-.23.31-.06.08-.13.17-.19.25.29.06.57.14.85.21.35.09.7.16,1.06.21.24.01.47.02.71,0,.23-.03.44-.08.66-.14.37-.12.75-.23,1.11-.39.34-.14.67-.31,1.01-.46.32-.14.64-.27.98-.37.33-.1.68-.17,1.02-.25.13-.04.26-.09.39-.14.14-.06.27-.12.41-.19.28-.14.55-.3.81-.47.26-.19.5-.39.74-.61.28-.25.54-.53.84-.77.29-.24.59-.44.91-.63.31-.18.63-.33.94-.5.37-.2.75-.4,1.11-.62.33-.19.64-.4.97-.6.08-.04.15-.08.23-.11.1-.05.2-.09.3-.14.19-.07.37-.14.56-.2.34-.1.67-.19,1.01-.29.27-.08.53-.17.79-.27.14-.05.28-.11.41-.17.14-.06.28-.14.42-.18.27-.09.53-.19.81-.25.14-.03.29-.08.43-.1.14-.02.29-.03.43-.05.57-.07,1.14-.06,1.71-.1.15-.01.3-.02.46-.01.13,0,.26.02.39.02.04-.03.09-.07.13-.1.17-.13.38-.21.58-.31.17-.08.35-.13.53-.19.4-.13.81-.21,1.22-.29.25-.05.5-.05.75-.1.2-.04.4-.07.6-.11.25-.08.49-.15.73-.26.2-.09.4-.18.6-.28.2-.1.39-.2.6-.27.1-.03.2-.07.31-.1.08-.03.16-.05.24-.08.23-.05.47-.11.71-.13.21-.02.41-.05.62-.06.41-.02.81-.05,1.22-.08.22-.05.44-.1.67-.14.23-.04.46-.08.69-.11.09-.01.18-.01.27,0h.36c.19,0,.37.02.56.05.2.03.4.06.6.11.23.05.46.1.69.15.23.05.45.1.67.16.21.06.43.12.64.18.38.11.76.22,1.14.32.37.1.74.19,1.09.32.1.04.2.07.3.11.09.04.19.09.28.13.17.08.32.17.48.27.05.03.09.06.14.09.04-.03.08-.05.13-.08.18-.14.37-.28.54-.43.19-.17.38-.33.58-.5.19-.16.37-.34.58-.49.16-.12.32-.23.48-.35.11-.08.21-.15.33-.22.08-.05.17-.09.25-.14.15-.09.3-.17.46-.23.39-.14.77-.29,1.14-.45.2-.13.4-.25.6-.38.19-.18.39-.35.58-.53.17-.18.35-.35.52-.53.1-.1.21-.18.32-.26.15-.12.31-.25.47-.35.12-.07.25-.13.38-.19.19-.1.38-.2.58-.27.15-.05.3-.11.45-.16.15-.05.3-.1.45-.15.15-.05.31-.09.45-.15.36-.15.71-.3,1.06-.47.21-.1.41-.2.62-.27.16-.05.33-.11.49-.16.37-.12.75-.19,1.12-.28.29-.07.57-.14.86-.21.42-.15.84-.29,1.27-.42.1-.03.2-.06.3-.09.1-.03.2-.06.3-.09.24-.04.48-.07.71-.11.44-.07.9-.06,1.34-.06.44,0,.88,0,1.31-.03.88-.03,1.75-.1,2.63-.11.21,0,.42,0,.63.01.21.02.42.04.64.06.37.04.74.08,1.11.13.36.02.73.05,1.09.06.32,0,.64.02.96,0,.31-.02.63-.05.95-.03.16,0,.32.01.48.02.14,0,.3,0,.44.03.14.03.29.09.43.14.16.05.31.1.47.15.31.1.6.26.89.4.28.13.57.26.86.39.3.13.63.23.95.33.39.07.79.14,1.18.22.17.04.34.07.5.11.14.03.28.11.41.16.19.08.39.15.57.24.14.07.27.14.41.21.27.14.54.29.81.44.31.17.62.34.93.52.14.08.28.16.41.25.15.11.3.21.44.32.17.12.32.25.48.38.13.12.26.25.4.36.23.18.44.37.66.57.28.2.55.41.81.63.15.13.3.25.44.39.13.12.24.24.32.39.11.2.22.41.31.62.08.18.17.36.22.56.08.34.14.69.2,1.04.1.53.17,1.07.26,1.6.05.28.1.56.14.84.04.25.09.51.11.76.03.37,0,.73-.07,1.09-.04.22-.25.44-.49.34-.25-.1-.3-.41-.26-.64,0-.01,0-.02,0-.04.01-.09.02-.17.03-.26,0-.17,0-.34,0-.52-.01-.2-.04-.4-.05-.53-.05-.27-.08-.54-.15-.8-.05-.19-.1-.37-.15-.56-.03-.07-.06-.15-.08-.2,0,0,0-.01,0-.02h0c-.09-.21-.18-.42-.29-.62-.13-.21-.26-.42-.4-.62-.09-.12-.14-.27-.22-.41-.04-.07-.07-.14-.11-.2-.1-.17-.22-.32-.29-.51-.05-.13-.1-.26-.15-.39-.06-.13-.12-.27-.19-.4-.14-.23-.29-.45-.45-.66-.19-.18-.38-.34-.58-.5-.53-.34-1.08-.62-1.61-.95-.26-.16-.51-.33-.79-.47-.2-.1-.41-.21-.61-.31-.44-.2-.88-.39-1.32-.59-.19-.08-.38-.17-.56-.27-.2-.11-.41-.22-.61-.34-.25-.12-.51-.24-.76-.36-.27-.06-.54-.12-.81-.18-.39-.01-.78-.03-1.17-.01-.21,0-.42.03-.62.02-.22-.01-.43-.02-.65-.03-.11,0-.22-.01-.32-.02-.1,0-.19-.02-.28-.06-.19-.05-.39-.11-.58-.17-.4-.12-.79-.26-1.18-.39-.15-.03-.29-.07-.44-.1-.16-.04-.32-.09-.48-.11-.3-.04-.59-.07-.89-.11-.41,0-.83,0-1.24.03-.37.02-.74.04-1.11.04-.41,0-.83,0-1.24.01-.36,0-.72.03-1.07.04-.34.03-.68.06-1.01.12-.41.08-.82.17-1.22.26-.23.05-.47.1-.71.14-.18.03-.36.07-.54.09-.31.03-.62.06-.93.09-.15.02-.31.04-.46.05-.11.01-.21.02-.32.04-.05,0-.11.01-.16.02-.28.08-.55.16-.83.24-.44.17-.88.35-1.33.51-.19.07-.38.14-.57.19-.19.05-.38.1-.57.15-.25.09-.49.18-.74.28-.63.33-1.25.68-1.89.99-.1.05-.19.09-.29.14-.1.04-.19.07-.29.1-.14.05-.29.1-.44.15-.24.08-.5.13-.75.19-.21.08-.43.17-.64.25-.19.13-.38.27-.57.41-.27.29-.54.58-.8.88-.12.14-.24.28-.38.4-.15.13-.3.27-.45.4-.13.12-.3.21-.44.31-.16.11-.32.22-.49.32-.32.2-.65.41-.97.61-.05.04-.09.07-.14.11.16.14.32.29.47.44.25.25.47.54.66.84.38.62.66,1.3.95,1.96.08.18.16.36.23.54.07.15.1.32.15.48.05.19.09.36.12.55.02.18.06.37.06.55,0,.65-.07,1.29-.26,1.91-.04.15-.08.31-.13.46-.05.14-.09.29-.14.42-.11.3-.24.59-.4.86-.14.24-.33.47-.53.67-.21.21-.44.41-.7.57-.29.18-.59.35-.91.46-.3.11-.6.22-.91.28-.32.06-.65.14-.98.12-.14-.01-.26-.02-.39-.05-.13-.04-.26-.08-.39-.12-.18-.06-.35-.19-.5-.3-.12-.08-.22-.18-.32-.28-.24-.23-.45-.5-.62-.77-.33-.52-.59-1.07-.77-1.66-.09-.31-.17-.63-.18-.95-.02-.32-.03-.65.04-.97.07-.34.16-.66.29-.98.1-.24.2-.47.3-.71.22-.52.42-1.04.64-1.56.14-.32.28-.65.45-.96.09-.16.17-.32.26-.47.05-.09.1-.18.15-.27.11-.14.22-.29.33-.43.09-.11.17-.23.27-.33.13-.12.26-.24.4-.36.03-.03.07-.06.1-.09-.15-.08-.31-.15-.46-.23-.19-.09-.38-.19-.58-.26-.13-.05-.25-.1-.38-.15-.12-.03-.24-.07-.36-.1-.15-.04-.29-.07-.45-.1-.31-.06-.62-.09-.93-.13-.1,0-.21-.02-.31-.03-.11,0-.23-.02-.34-.03-.17,0-.35,0-.52,0-.3,0-.6.04-.9.04-.36,0-.71,0-1.07-.03-.34-.02-.68-.04-1.02-.06-.09.01-.18.02-.26.03-.11.01-.22.03-.33.04-.21.05-.42.1-.63.16-.36.1-.71.19-1.07.27-.21.05-.42.06-.63.09-.14.02-.26.03-.4.03-.21,0-.42,0-.63.01-.14,0-.28.02-.43.03-.19.04-.39.09-.58.13-.18.08-.36.16-.54.23-.07.04-.14.09-.21.13.01,0,.03,0,.04,0,.12,0,.23,0,.35-.01.17.01.34.03.5.04.2.02.39.08.59.12.14.03.27.1.4.15.34.13.67.32.97.53.27.2.54.4.77.63.41.41.62.96.78,1.51.04.13.08.25.11.38.13.42.25.86.33,1.29.04.22.08.44.09.67,0,.19.02.4,0,.59-.03.23-.06.48-.14.7-.07.18-.14.35-.23.53-.09.19-.24.38-.38.54-.11.13-.23.24-.35.36-.13.14-.26.27-.41.4-.23.23-.48.46-.73.66-.25.2-.49.4-.76.58-.14.09-.28.19-.43.27-.16.08-.32.17-.49.24-.35.15-.7.3-1.06.44-.57.23-1.15.44-1.75.59-.57.14-1.15.16-1.69-.08-.26-.11-.52-.24-.75-.4-.23-.16-.47-.32-.68-.5-.42-.37-.82-.76-1.13-1.23-.36-.55-.61-1.16-.69-1.82-.04-.31-.05-.64,0-.94.04-.29.11-.57.17-.81.11-.41.24-.81.43-1.18.21-.42.44-.83.67-1.24.2-.37.4-.76.62-1.12.09-.15.18-.29.28-.44-.24.05-.48.1-.72.16-.33.08-.67.17-1,.24-.34.07-.68.14-1.02.18-.19.03-.39.05-.58.09-.13.03-.26.06-.39.09-.17.06-.35.11-.51.18-.13.06-.26.12-.39.18-.32.14-.62.3-.94.45-.2.09-.4.2-.61.26-.15.05-.3.1-.46.15-.14.05-.3.09-.44.15-.14.06-.27.12-.41.18-.22.12-.43.23-.65.36-.16.1-.32.21-.48.33-.28.21-.55.44-.83.64-.22.16-.43.32-.67.45-.45.25-.91.5-1.35.78-.27.21-.53.42-.78.66-.25.24-.5.48-.68.65-.39.39-.76.79-1.22,1.11-.11.08-.23.14-.35.21-.11.06-.24.13-.36.17-.21.06-.42.12-.63.16-.09,0-.18.02-.26.02-.04,0-.09,0-.13.01-.13,0-.26,0-.39-.02-.22-.02-.44-.05-.65-.08-.46-.07-.93-.14-1.39-.2-.28-.03-.55-.05-.83-.05-.31,0-.61.02-.91.04-.5.06-1,.14-1.5.09-.4-.04-.8-.11-1.19-.21-.09.06-.17.12-.26.18-.2.14-.4.26-.61.38-.2.11-.39.24-.58.36-.14.12-.28.24-.42.36-.38.44-.74.88-1.13,1.31-.09.11-.22.19-.32.28-.11.1-.2.16-.33.24-.21.13-.43.25-.64.37-.18.15-.36.29-.54.45-.1.09-.21.18-.32.26-.05.04-.1.08-.16.12-.17.1-.34.19-.53.26-.15.06-.3.1-.46.14-.09.03-.17.07-.26.1-.07.04-.15.08-.23.12-.06.05-.13.09-.2.14-.11.09-.24.2-.38.25-.13.04-.27.11-.4.13-.03,0-.06,0-.08,0-.04,0-.07,0-.11-.02-.03.01-.07.02-.11.02-.03,0-.05,0-.08,0Zm.11-11.61c-.06.13-.11.26-.17.39-.05.08-.1.17-.14.25-.04.08-.09.16-.13.23-.06.11-.15.21-.23.31-.08.11-.16.2-.25.3-.16.18-.34.35-.51.52-.42.42-.82.87-1.22,1.31-.29.32-.6.63-.92.92-.4.37-.84.72-1.35.93-.39.16-.81.29-1.21.44-.2.07-.39.14-.59.21.04.04.07.09.11.13.16.19.33.37.49.55.14.12.28.23.42.35.19.11.38.23.57.34.24.13.46.27.69.41.5.32.86.81,1.25,1.25.1.08.2.16.3.23.12.07.23.14.35.21.13.08.27.15.39.25.15.11.29.23.43.36.13.12.25.25.37.37.07.06.15.13.22.19.07.05.14.09.22.14.23.1.46.18.68.29.03,0,.05.02.08.03.04,0,.07.02.11.02.04,0,.09,0,.13.02.04-.01.08-.02.13-.02.04,0,.07-.01.11-.02.03,0,.05-.02.08-.03.22-.11.45-.19.68-.29.07-.05.14-.09.22-.14.07-.06.15-.13.22-.19.12-.13.25-.25.37-.37.14-.13.28-.24.43-.36.12-.09.26-.17.39-.25.12-.07.23-.14.35-.21.1-.08.2-.15.3-.23.39-.44.75-.93,1.25-1.25.22-.15.45-.28.69-.41.19-.11.38-.22.57-.34.14-.12.28-.23.42-.35.17-.18.33-.36.49-.55.04-.04.07-.09.11-.13-.2-.07-.39-.14-.59-.21-.4-.15-.81-.27-1.21-.44-.51-.21-.95-.56-1.35-.93-.32-.29-.62-.6-.92-.92-.4-.44-.79-.89-1.22-1.31-.17-.17-.35-.34-.51-.52-.09-.1-.17-.19-.25-.3-.07-.1-.17-.21-.23-.31-.04-.08-.09-.15-.13-.23-.05-.08-.09-.17-.14-.25-.06-.13-.11-.26-.17-.39-.03-.07-.06-.13-.08-.2-.03.07-.05.14-.08.2Zm32.77-.96c-.26.16-.53.31-.79.46-.13.07-.26.15-.38.24-.06.04-.13.09-.19.13-.1.08-.22.15-.31.24-.08.08-.17.16-.25.24-.08.1-.15.19-.23.29-.07.11-.13.22-.2.33-.05.12-.11.25-.16.37-.05.16-.09.32-.12.39-.03.14-.05.27-.07.41-.02.19-.04.38-.06.57,0,.1,0,.2,0,.3.02.29.06.58.09.79.02.14.04.27.07.41.04.25.08.5.12.75.04.22.09.43.14.64.04.11.07.21.11.32.04.1.09.2.14.3.05.09.11.18.17.27.07.08.14.16.21.24.06.05.11.09.13.11.06.04.11.08.18.11.1.05.2.09.3.13.11.03.22.05.33.07.36.03.72,0,1.08-.02.42-.05.83-.13,1.24-.23.22-.07.44-.14.65-.22.19-.07.37-.16.56-.24.38-.2.76-.41,1.14-.62.33-.18.66-.36.97-.57.13-.1.25-.2.37-.31.08-.08.15-.15.21-.24.07-.09.13-.18.19-.27.05-.09.09-.19.09-.2.04-.1.08-.2.11-.31.05-.17.1-.34.14-.52.03-.15.08-.3.11-.45.07-.32.16-.63.22-.95.02-.12.03-.24.04-.36,0-.14,0-.27,0-.4,0-.11-.02-.21-.03-.32-.02-.1-.05-.19-.07-.29-.03-.08-.07-.15-.11-.23l-.03-.06c-.05-.07-.1-.13-.15-.19-.13-.12-.26-.22-.4-.33-.07-.05-.15-.09-.16-.1-.15-.07-.3-.12-.45-.18-.53-.15-1.06-.27-1.58-.43-.33-.1-.66-.22-.98-.35-.21-.08-.43-.15-.64-.22-.09-.02-.17-.04-.26-.06l-.29-.07c-.11-.01-.21-.02-.32-.04-.29.22-.58.44-.88.63Zm-66.58-.6l-.29.07c-.09.02-.17.04-.26.06-.22.07-.43.14-.65.22-.32.12-.65.25-.98.35-.52.16-1.06.28-1.58.43-.15.05-.3.11-.38.14-.08.04-.16.08-.23.13-.14.1-.27.21-.4.33-.06.06-.11.12-.11.13-.02.04-.05.07-.07.11-.04.07-.07.15-.11.23-.03.1-.05.19-.07.29-.01.11-.02.21-.03.32,0,.13,0,.27,0,.4.01.12.02.24.04.36.06.32.15.63.22.95.03.15.08.3.11.45.04.17.09.35.14.52.03.1.07.21.07.22.04.1.08.19.13.29.06.09.12.18.19.27.07.08.14.16.21.24.12.11.24.21.37.31.31.22.64.39.97.57.38.2.76.42,1.14.62.19.08.37.17.56.24.22.08.43.16.65.22.41.1.82.18,1.24.23.36.03.72.05,1.08.02.11-.02.22-.04.33-.07.1-.04.2-.08.3-.13.06-.03.12-.07.14-.09.06-.04.12-.09.17-.14.07-.08.14-.16.21-.24.06-.09.11-.18.17-.27.05-.1.1-.2.14-.3.04-.11.08-.21.11-.32.06-.21.1-.43.14-.64.04-.25.08-.5.12-.75.02-.14.04-.27.05-.34.04-.29.08-.58.11-.87,0-.1,0-.2,0-.3-.02-.19-.04-.38-.06-.57-.03-.14-.05-.27-.05-.33-.05-.16-.09-.32-.14-.48-.05-.12-.11-.25-.16-.37-.07-.11-.13-.22-.2-.33-.08-.1-.15-.19-.23-.29-.08-.08-.17-.16-.25-.24-.09-.09-.21-.16-.31-.24-.06-.04-.13-.09-.19-.13-.12-.09-.25-.16-.38-.24-.27-.15-.54-.3-.79-.46-.31-.19-.6-.41-.88-.63-.11.01-.21.02-.32.04Zm80.43,7.33c.07.09.15.18.22.27.13.12.26.23.4.33.17.11.34.22.51.32.08.04.15.07.23.11.18.08.36.15.55.21.09.02.18.04.2.04.1.01.2.02.3.02.16-.02.32-.04.48-.09.21-.07.42-.15.62-.25.23-.12.44-.25.65-.39.25-.19.48-.38.71-.6.17-.17.34-.35.49-.53.07-.1.14-.2.2-.31.02-.03.04-.06.05-.1.02-.06.04-.13.06-.19,0,0,0,0,0,0h0c.02-.09.04-.16.05-.24,0-.03,0-.06,0-.09,0-.12,0-.25,0-.37-.01-.12-.03-.24-.05-.37-.08-.41-.2-.82-.27-1.23-.07-.41-.14-.81-.22-1.22-.05-.16-.1-.33-.15-.49-.09-.2-.18-.4-.29-.6-.21-.35-.44-.68-.69-1.01-.16-.21-.33-.41-.5-.61-.12-.12-.25-.23-.38-.34-.06.07-.12.13-.17.2-.21.25-.41.5-.63.75-.39.44-.81.85-1.23,1.25-.14.16-.27.32-.41.48-.11.15-.24.3-.34.47-.1.16-.2.33-.3.49-.07.17-.15.33-.22.5-.01.04-.02.08-.03.09-.06.22-.12.44-.17.67-.05.33-.09.66-.11,1,0,.17,0,.33,0,.5.01.12.02.25.04.37.02.11.05.22.08.33.03.09.06.18.07.19.03.09.07.17.09.2.01.02.03.05.04.07,0,0,0,0,0,0,.03.06.07.12.11.17Zm-96.64-7.39c-.17.2-.34.4-.5.61-.24.33-.48.66-.69,1.01-.11.19-.2.4-.29.6-.05.16-.1.33-.15.49-.07.41-.14.81-.22,1.22-.07.42-.2.83-.28,1.25-.02.12-.03.24-.04.36,0,.12,0,.24,0,.36,0,.03,0,.06,0,.09.02.07.03.15.04.19,0,.02,0,.03.01.05h0c.02.07.04.13.06.2.02.03.03.06.05.1.06.11.13.21.2.31.15.19.32.36.49.53.23.21.46.41.71.6.21.14.43.28.65.39.2.1.41.18.62.25.16.04.32.07.48.09.1,0,.2,0,.22,0,.09,0,.18-.03.27-.05.18-.06.36-.12.54-.2.08-.04.15-.08.23-.11.17-.1.35-.2.51-.32.14-.11.27-.21.4-.33.08-.09.15-.17.22-.27.04-.06.07-.11.11-.17h0s0-.02,0-.02c.05-.08.09-.16.09-.17.04-.09.07-.17.1-.26.03-.11.06-.23.08-.34.02-.12.03-.25.04-.37,0-.17,0-.33,0-.5-.03-.33-.06-.67-.11-1-.04-.23-.1-.45-.16-.64-.01-.04-.02-.08-.03-.12-.07-.17-.14-.33-.22-.5-.1-.16-.2-.33-.3-.49-.1-.16-.22-.31-.34-.47-.14-.16-.27-.32-.41-.48-.42-.41-.84-.81-1.23-1.25-.22-.24-.42-.5-.63-.75-.06-.07-.11-.14-.17-.2-.13.11-.26.22-.38.34Zm59.21-11.15c-.11,0-.23.01-.34.02-.16.02-.32.05-.49.08-.15.03-.31.07-.46.11-.44.14-.88.29-1.33.41-.43.12-.86.22-1.29.35-.11.04-.23.07-.34.12-.11.06-.23.11-.27.14-.29.18-.58.35-.88.52-.24.14-.47.29-.7.45-.09.07-.19.14-.27.22-.07.07-.15.14-.22.21-.07.08-.14.16-.21.24-.06.08-.12.17-.18.25-.05.09-.1.18-.15.27-.11.26-.2.52-.3.78-.09.25-.18.51-.28.75-.22.53-.48,1.04-.73,1.55.02.24.04.48.03.72,0,.29-.03.58-.05.87-.04.55-.08,1.1-.11,1.64.1.2.19.4.3.61.32.51.66,1,.92,1.54.26.51.47,1.04.68,1.58.12.28.26.56.41.83.09.15.19.3.29.44.12.16.25.31.39.45.15.13.3.26.46.38.22.15.44.29.67.41.23.11.47.22.69.35.19.11.38.22.57.33.16.08.33.15.5.22.18.07.37.13.56.19.34.09.69.16,1.04.22.03-.03.07-.07.1-.1.62-.61,1.31-1.16,1.97-1.72.12-.14.25-.28.37-.42.1-.16.2-.33.3-.49.17-.35.33-.69.5-1.03.07-.15.15-.3.24-.45.07-.13.13-.27.21-.39.19-.28.38-.57.58-.84.19-.26.36-.52.54-.79.09-.18.17-.36.26-.54.22-.56.43-1.12.64-1.68.22-.58.47-1.16.7-1.66.06-.14.13-.29.18-.44.05-.13.09-.27.14-.4.03-.13.06-.26.09-.39.01-.12.03-.24.04-.36,0-.24,0-.47,0-.7-.02-.26-.04-.51-.08-.76-.03-.17-.07-.34-.12-.5-.06-.17-.12-.33-.18-.49-.06-.13-.13-.26-.2-.39-.07-.12-.15-.24-.23-.35-.07-.08-.13-.16-.21-.24-.06-.06-.12-.12-.13-.12-.08-.06-.17-.13-.26-.19-.53-.33-1.08-.61-1.64-.9-.57-.28-1.16-.51-1.76-.72-.14-.04-.27-.08-.42-.1-.07-.01-.14-.02-.22-.04-.1,0-.2-.02-.29-.02-.02,0-.03,0-.05,0Zm-18.56.02c-.07.01-.14.02-.22.04-.14.02-.28.06-.42.1-.6.21-1.19.44-1.76.72-.55.28-1.11.57-1.64.9-.09.06-.17.13-.2.13-.06.06-.12.12-.18.18-.08.08-.14.16-.21.24-.08.11-.16.23-.23.35-.07.13-.13.26-.2.39-.07.16-.13.33-.18.49-.04.17-.08.33-.12.5-.04.25-.06.51-.08.76,0,.23,0,.47,0,.7.01.12.03.24.04.36.03.13.06.26.09.39.05.13.09.27.14.4.05.15.12.29.15.37.26.57.5,1.14.73,1.73.22.56.42,1.12.64,1.68.09.18.17.36.26.54.17.27.35.54.54.79.2.27.39.56.58.84.08.12.14.26.21.39.08.15.16.3.24.45.17.35.33.69.5,1.03.1.16.2.33.3.49.12.14.25.28.37.42.66.56,1.34,1.11,1.97,1.72.04.03.07.07.11.1.35-.06.69-.13,1.04-.22.19-.06.38-.12.56-.19.17-.07.33-.14.5-.22.19-.11.38-.22.57-.33.22-.13.46-.24.69-.35.23-.12.46-.26.67-.41.16-.12.31-.25.46-.38.14-.14.27-.29.39-.45.1-.15.2-.29.29-.44.15-.27.28-.54.41-.83.21-.54.43-1.06.68-1.58.27-.53.61-1.03.93-1.54.1-.2.2-.4.3-.61-.04-.55-.08-1.1-.11-1.64-.02-.29-.04-.58-.05-.87,0-.24.01-.48.03-.72-.25-.51-.51-1.02-.73-1.55-.1-.25-.19-.5-.28-.75-.09-.26-.19-.52-.29-.78-.05-.09-.1-.18-.15-.27-.06-.09-.12-.17-.18-.25-.07-.08-.14-.16-.21-.24-.07-.07-.15-.14-.22-.21-.08-.08-.18-.14-.27-.22-.23-.16-.46-.31-.7-.45-.3-.17-.59-.34-.81-.48-.11-.06-.23-.11-.34-.17-.11-.05-.23-.08-.34-.12-.43-.12-.86-.23-1.29-.35-.45-.12-.89-.27-1.33-.41-.15-.04-.31-.08-.46-.11-.16-.03-.32-.06-.49-.08-.11,0-.23-.01-.34-.02-.02,0-.03,0-.05,0-.1,0-.2.01-.29.02Z"/><path d="m190.48,17.17c-.21-.05-.41-.1-.62-.15-.09-.02-.18-.06-.27-.07l-.28-.04c-.19-.03-.37-.05-.56-.07-.18-.02-.36-.06-.54-.09-.08-.02-.17-.05-.25-.08-.06-.02-.12-.04-.18-.06-.27-.07-.54-.14-.81-.2-.13-.03-.27-.05-.4-.09-.14-.04-.27-.08-.41-.11-.12-.03-.24-.1-.35-.16-.11-.05-.2-.1-.3-.17-.11-.07-.22-.14-.33-.19-.11-.06-.22-.11-.33-.17-.15-.05-.31-.11-.46-.16-.17-.05-.34-.1-.51-.15-.17-.04-.35-.08-.51-.14-.09-.03-.17-.06-.26-.09-.09-.03-.17-.07-.26-.12-.09-.05-.2-.09-.29-.15-.06-.04-.11-.07-.17-.11-.31-.21-.6-.45-.87-.71-.27-.26-.55-.5-.84-.74-.14-.1-.28-.2-.43-.29-.16-.1-.32-.19-.48-.28-.29-.17-.57-.34-.84-.55-.3-.23-.58-.48-.86-.73-.26-.22-.52-.43-.79-.63-.28-.19-.57-.38-.85-.57-.29-.2-.56-.45-.82-.7-.26-.25-.51-.5-.77-.73-.23-.2-.46-.4-.7-.58-.32-.2-.65-.37-.97-.57-.28-.17-.55-.35-.81-.54-.48-.33-.95-.68-1.47-.96-.27-.12-.54-.25-.8-.38-.26-.13-.51-.25-.78-.36-.21-.09-.43-.16-.65-.23-.32-.09-.64-.16-.96-.2-.13,0-.27,0-.4,0-.18.02-.36.06-.54.08-.2.03-.4.06-.6.1-.36.06-.71.14-1.06.24-.3.09-.6.2-.89.34-.2.1-.39.22-.57.35-.09.07-.17.13-.26.2-.09.07-.2.14-.29.22-.21.18-.4.36-.6.55-.06.07-.12.13-.17.2-.1.14-.19.28-.27.42-.16.29-.31.58-.44.89-.04.09-.07.17-.11.26-.02.06-.05.11-.07.16-.06.15-.11.29-.16.45-.04.15-.09.3-.15.45-.04.11-.09.22-.14.32-.02.06-.05.13-.07.19,0,.05-.01.09-.02.14-.04.2-.15.37-.24.55-.13.26-.28.51-.47.73-.16.18-.4.3-.65.25-.21-.04-.37-.18-.49-.35-.3-.45-.25-1.08.08-1.49,0,0,0,0,0,0,.15-.21.28-.44.41-.66.07-.11.17-.21.29-.28.03-.04.07-.08.1-.11.08-.12.15-.25.24-.37.09-.13.19-.25.29-.37.01-.02.02-.03.04-.05.12-.17.24-.35.37-.52.18-.25.33-.51.48-.78.3-.52.58-1.05.95-1.52.13-.16.25-.33.4-.48.13-.14.27-.26.4-.4.36-.36.71-.75,1.14-1.02.21-.13.42-.25.66-.33.26-.08.51-.13.79-.14.56-.03,1.1.15,1.61.35.53.21,1.07.39,1.61.56.41.12.82.21,1.24.31.23.05.46.1.68.18.16.06.31.14.42.19.59.28,1.2.53,1.75.89.31.2.6.42.87.67.28.25.53.53.79.8.47.43.97.82,1.47,1.21.13.1.26.21.38.32.13.11.25.23.37.35.21.21.4.44.6.66.13.12.25.24.38.36.14.12.28.23.42.34.36.25.73.49,1.07.76.11.09.22.17.32.27.07.06.14.13.2.19.15.14.29.28.43.42.07.06.14.13.21.19.05.04.1.09.14.14.11.09.23.17.34.26.11.06.22.12.33.18.16.07.32.14.49.2.13.05.27.09.4.14.14.05.28.11.41.16.09.03.17.09.25.13.06.03.12.06.17.09.09.06.18.13.27.19.05.04.11.07.16.11.12.11.26.21.37.32.12.12.24.26.38.37.13.12.26.24.36.33.14.1.28.2.42.31.14.06.28.12.42.18.33.07.67.13.99.24.36.13.72.26,1.09.39.16.05.32.1.49.13.15.03.3.06.45.11.26.08.52.17.77.26.14.03.29.05.44.08.14,0,.28-.02.42-.03.19-.03.38-.08.58-.07.16,0,.32,0,.47.04.2.05.39.09.59.13.15.03.3.04.45.06.12-.01.24-.02.35-.03.34-.07.68-.16,1.01-.23.12-.03.24-.03.37-.03h.06c.16,0,.33,0,.49,0,.13-.03.26-.06.39-.09.25-.1.5-.2.75-.29.11-.06.23-.11.34-.17.06-.03.13-.05.2-.07.17-.06.33-.12.5-.18.17-.13.33-.27.49-.4.12-.1.25-.18.38-.27.1-.08.19-.15.29-.23.11-.11.21-.22.33-.32.11-.09.23-.18.34-.27.04-.05.07-.09.11-.14.13-.22.27-.42.44-.61.05-.07.1-.14.15-.21.03-.05.06-.1.1-.15.06-.08.11-.14.18-.2.04-.04.07-.07.11-.11.02-.04.05-.09.07-.13.02-.05.04-.09.06-.14.03-.05.05-.1.08-.15.07-.1.16-.19.23-.28.01-.03.03-.06.04-.09.02-.1.04-.19.11-.26,0-.01,0-.02.01-.04,0-.05.02-.11.06-.15,0,0,0-.01,0-.02-.01-.05,0-.13.07-.13s.08.08.07.13c0,.02,0,.04-.02.05.03.07,0,.14-.04.21l-.02.04c-.01.08-.02.1-.07.18-.02.03-.05.06-.08.08-.02.02-.04.05-.06.07-.05.13-.1.26-.17.37-.08.13-.19.23-.29.35-.05.11-.09.23-.15.33-.03.05-.07.12-.11.16-.04.04-.07.08-.11.13-.1.15-.2.3-.31.45-.07.1-.18.18-.27.27-.04.04-.08.08-.12.12-.07.1-.14.2-.21.3-.04.06-.08.13-.14.18-.16.14-.32.29-.48.43-.09.08-.19.16-.29.24-.08.07-.16.11-.25.16-.16.09-.32.16-.48.24-.13.1-.25.2-.38.29-.08.05-.16.11-.24.16-.06.04-.14.06-.21.08-.19.07-.37.15-.56.23-.07.03-.15.04-.22.06-.06.02-.12.03-.19.05-.06.02-.13.04-.19.06-.07.02-.13.04-.2.06-.06.03-.13.06-.19.09-.06.03-.13.06-.19.09-.13.04-.25.08-.38.12-.06.02-.11.02-.18.02-.13,0-.25,0-.38,0-.13,0-.25-.01-.37-.03-.12-.01-.25-.02-.37-.02-.09,0-.18,0-.27,0-.19.04-.37.07-.56.11-.2.05-.39.1-.59.16-.06.02-.12.01-.18.01-.03,0-.06,0-.08,0-.06,0-.12.01-.19.01-.03,0-.05,0-.08,0Z"/><path d="m49.25,17.16c-.48-.01-.93-.24-1.41-.29-.34-.01-.68.03-1.02.05-.69.1-1.25-.36-1.9-.48-.27-.05-.52-.2-.78-.29-.17-.04-.31-.15-.45-.25-.33-.3-.75-.43-1.11-.69-.26-.21-.51-.45-.77-.67-.25-.35-.42-.58-.74-.87-.23-.36-.54-.66-.68-1.06-.2-.21-.37-.44-.45-.72-.08-.1-.2-.2-.21-.33-.04-.08-.09-.16-.06-.25-.1-.2.17-.26.12-.03.04.04.05.09.06.15.05.1.11.18.12.3.08.19.28.32.36.52.08.24.27.39.42.58.25.38.54.73.8,1.11.6.51,1.21,1,1.83,1.48.61.21,1.18.49,1.79.71.25.09.5.08.76.08.18,0,.37,0,.55.03.6.12,1.2.36,1.82.21.35-.06.7-.18,1.06-.17.34,0,.67.1,1,.1.73-.14,1.42-.42,2.15-.58.68-.24,1.36-.51,2.08-.63.81-.28,1.3-.99,1.94-1.51.62-.53,1.42-.71,2.15-1.02.79-.38,1.29-1.14,1.98-1.66.48-.39,1.03-.69,1.5-1.1.61-.53,1.07-1.21,1.73-1.68.82-.6,1.55-1.29,2.26-2.01.72-.68,1.7-1.15,2.57-1.53.74-.4,1.6-.46,2.39-.7,1.08-.27,2.08-.92,3.22-.91,1.07,0,1.9.75,2.58,1.49,1.28,1.14,1.82,2.83,2.93,4.12.12.16.2.34.34.49.12.07.22.16.29.28.13.22.26.45.41.66.33.41.38,1.04.08,1.49-.24.42-.83.49-1.13.11-.5-.55-.67-1.27-.95-1.93-.41-1.25-.89-2.56-1.98-3.37-.86-.76-1.93-1.17-3.06-1.34-.51-.07-1.02-.22-1.54-.18-1.15.12-2.16.7-3.19,1.19-1.11.65-2.11,1.46-3.25,2.07-.83.59-1.47,1.41-2.29,2.01-.9.55-1.68,1.26-2.5,1.93-.55.43-1.19.7-1.75,1.12-.72.57-1.32,1.32-2.16,1.71-.63.31-1.35.4-2,.66-.45.21-.85.52-1.32.68-.53.16-1.08.25-1.62.4-.49.19-1.02.24-1.54.3-.45.02-.87.26-1.32.26-.04,0-.08,0-.12,0Z"/><path d="m132.39,16.48c-.16-.05-.26-.24-.3-.39-.04-.16-.02-.34.05-.49.06-.14.17-.22.27-.3.04-.03.08-.06.12-.09.02-.02.05-.04.07-.06.02-.02.03-.03.05-.04.03-.03.07-.05.1-.07.07-.06.16-.11.24-.16.14-.11.31-.19.47-.27.05-.03.1-.06.15-.08.37-.21.75-.38,1.14-.52.42-.14.86-.25,1.29-.35.08-.03.16-.05.24-.07.49-.17.99-.31,1.46-.52.21-.11.42-.23.64-.34.26-.13.53-.26.8-.39.26-.13.54-.26.82-.35.29-.1.58-.18.88-.25.26-.08.53-.14.77-.21.12-.04.23-.09.34-.14.12-.07.23-.14.34-.21.15-.12.29-.25.43-.38.25-.25.49-.5.75-.74.29-.27.58-.54.89-.8.27-.23.56-.44.84-.67.24-.19.49-.35.73-.52.05-.04.1-.09.15-.13.09-.1.18-.2.27-.31.04-.06.08-.13.12-.19.14-.25.27-.52.44-.75.16-.22.36-.4.56-.58.04-.04.08-.08.12-.12.12-.17.23-.34.34-.52.11-.16.26-.3.41-.42.03-.03.06-.06.08-.09.02-.03.04-.06.06-.09.04-.09.07-.18.11-.27,0,0,0,0,0-.01.01-.05.03-.1.06-.14.08-.08.2-.06.25.04.05.11.03.21-.02.28-.03.05-.05.11-.08.15-.04.05-.08.1-.12.15-.02.03-.04.07-.06.1-.02.04-.04.09-.06.13-.07.21-.16.43-.3.61-.13.16-.26.3-.39.46-.03.06-.07.11-.09.16-.08.15-.15.31-.24.46-.05.08-.1.16-.15.23-.04.06-.08.12-.13.17-.11.11-.22.23-.34.33-.11.1-.22.19-.34.29-.15.15-.29.3-.42.47-.12.17-.24.35-.36.52-.11.16-.23.31-.35.46-.2.28-.41.56-.65.8-.13.13-.26.26-.41.37-.13.1-.27.2-.4.29-.28.19-.56.37-.86.55-.25.15-.49.29-.73.46-.19.14-.37.28-.54.45-.16.16-.33.32-.51.47-.19.17-.4.32-.61.46-.18.12-.36.24-.55.36-.2.12-.41.24-.63.33-.18.07-.37.14-.56.21-.33.11-.67.21-1.01.3-.24.08-.47.18-.69.29-.18.1-.36.2-.55.29-.25.11-.51.21-.76.33-.42.2-.88.34-1.33.47-.04.01-.08.02-.12.04-.14.04-.27.1-.41.14-.12.04-.23.08-.35.12-.16.06-.33.14-.5.17-.08.03-.17.05-.26.06-.03,0-.05.01-.06.01-.02,0-.04.01-.07.01-.02,0-.04,0-.06.01l-.09.03c-.06.02-.12.05-.19.06-.03,0-.05.01-.08.01-.05,0-.1-.01-.16-.03Z"/><path d="m107.37,16.5c-.06-.02-.13-.04-.12-.04-.2-.07-.4-.09-.6-.15-.29-.06-.56-.21-.84-.29-1.09-.34-2.17-.71-3.17-1.27-.72-.37-1.53-.47-2.27-.79-.85-.4-1.64-.95-2.31-1.62-.61-.61-1.43-.95-2.12-1.45-.59-.38-1.07-.89-1.46-1.46-.26-.31-.49-.65-.71-.99-.31-.42-.74-.72-1.09-1.09-.26-.3-.42-.68-.62-1.02-.28-.32-.57-.64-.69-1.07-.08-.28-.46-.49-.34-.81.05-.11.17-.13.25-.04.08.13.12.28.18.42.14.24.41.36.55.6.25.49.69.8,1.03,1.22.17.24.3.5.44.75.28.53.82.81,1.28,1.16.6.46,1.18.95,1.72,1.47.93.91,1.29,1.43,2.64,1.69,1.64.35,2.98,1.44,4.59,1.86.97.26,1.96.49,2.83,1.02.33.16.65.36.93.6.15.12.3.2.39.38.18.33.02.91-.39.91-.03,0-.06,0-.09,0Z"/><path d="m146.75,30.1c-.07,0-.15-.02-.22-.03-.1-.02-.2-.05-.29-.07-.07-.02-.14-.03-.22-.04-.16-.03-.32-.04-.47-.06-.27-.03-.55-.09-.79-.24-.12-.07-.23-.15-.35-.23-.06-.04-.12-.09-.19-.12-.06-.03-.13-.07-.19-.1h0c-.17-.06-.34-.12-.52-.17-.13-.04-.26-.09-.39-.15-.27-.11-.55-.2-.8-.35-.24-.14-.48-.31-.7-.48-.22-.17-.42-.36-.64-.53-.22-.16-.45-.3-.66-.41-.08-.04-.17-.09-.25-.12-.06-.02-.13-.04-.19-.06-.13-.04-.25-.09-.38-.15-.24-.12-.49-.23-.71-.39-.24-.16-.46-.33-.67-.52-.18-.15-.35-.31-.53-.45-.41-.29-.86-.5-1.29-.74-.23-.13-.45-.27-.66-.42-.19-.14-.36-.31-.53-.49-.12-.11-.24-.21-.36-.31-.06-.04-.13-.09-.19-.13-.07-.03-.15-.06-.22-.09-.12-.02-.25-.04-.37-.06-.16-.02-.33-.02-.49-.06-.3-.06-.6-.12-.9-.19-.27-.06-.54-.12-.81-.19-.25-.07-.49-.14-.73-.21-.43-.07-.86-.13-1.29-.18-.16-.02-.28-.16-.35-.29-.07-.14-.09-.3-.08-.46.02-.17.09-.35.22-.46.1-.09.22-.11.35-.1.42.05.84.1,1.25.16.31.02.63.04.94.11.15.04.3.07.44.13.15.06.29.12.44.19.32.14.62.32.91.51.25.17.49.34.76.48.25.12.52.22.78.3.12.03.25.07.37.12.11.04.21.1.31.16.2.12.41.24.6.37.42.28.78.63,1.18.93.39.27.81.49,1.19.77.23.16.45.33.65.52.22.19.41.4.6.62.14.14.28.26.44.38.18.13.37.24.57.34.32.14.64.28.96.44.19.1.37.2.55.32.13.09.26.19.39.28.12.08.25.16.36.25.12.09.24.19.36.28.06.04.13.08.19.12.07.03.13.06.2.08.09.02.17.04.26.05.09.01.17.02.26.04.14.02.27.06.41.1.16.06.32.14.47.21.1.05.2.1.31.13.06.02.12.04.18.05.19.01.38.03.57.04.08,0,.16.04.24.06.09.02.18.04.27.06.05-.01.1-.02.14-.03.07-.03.13-.04.21-.06.06-.02.12-.04.18-.02.16.06.14.32.02.4-.05.03-.11.03-.17.03-.04,0-.08.02-.12.01-.04,0-.07,0-.11-.01-.05,0-.1,0-.15,0-.14.04-.28.09-.42.11-.04,0-.07.01-.1.01,0,0-.02,0-.03,0Z"/><path d="m93.12,30.09c-.23-.04-.45-.16-.69-.1-.09-.01-.2,0-.28-.04-.12-.08-.14-.35.02-.4.13-.03.27.04.39.07.22.07.44-.06.66-.08.19,0,.38-.03.57-.04.34-.08.64-.27.97-.39.3-.11.62-.11.93-.19.56-.24,1-.69,1.51-1.02.46-.33.99-.53,1.5-.76.92-.41,1.42-1.34,2.26-1.87.38-.28.8-.5,1.19-.77.76-.6,1.5-1.32,2.46-1.58.92-.23,1.6-.92,2.45-1.3.95-.49,2.04-.42,3.07-.59.7-.07.78,1.17.15,1.31-.97.08-1.89.37-2.84.59-.3.07-.6.13-.9.19-.36.07-.75.03-1.09.2-.62.4-1.06,1.03-1.74,1.34-.65.34-1.3.67-1.83,1.2-.41.37-.88.68-1.38.91-.53.19-1.04.4-1.48.74-.44.35-.85.74-1.34,1.01-.54.29-1.13.47-1.71.67-.5.25-.92.68-1.52.69-.42,0-.83.2-1.24.2-.03,0-.06,0-.1,0Z"/><path d="m186.3,15.55s-.1,0-.15,0c-.09,0-.19,0-.28,0-.23,0-.46.01-.66-.02-.03,0-.07,0-.1-.01-.09,0-.18-.01-.26-.03-.06-.02-.12-.02-.18-.04-.01,0-.03,0-.04-.01-.01,0-.03,0-.04,0-.03,0-.06,0-.08-.01-.12-.02-.27-.04-.36-.13,0,0,0,0-.01,0-.14-.05-.28-.11-.34-.19-.03-.03-.05-.06-.06-.09-.11-.17,0-.41.12-.54.12-.12.32-.2.49-.14.02,0,.04.01.04.01.04.01.07.03.1.04.02,0,.04.01.06.02.02,0,.04,0,.06,0,0,0,.01,0,.02,0,.06,0,.11,0,.17,0,.04,0,.08,0,.12,0,.02,0,.04,0,.07,0,.03,0,.06,0,.1,0,.02,0,.04,0,.06,0,.03,0,.06,0,.09,0,.03,0,.07,0,.1,0,.47-.01.93-.06,1.39-.11.23-.03.47-.07.7-.1.25-.04.5-.07.75-.11.09-.02.17-.03.26-.05.09-.02.18-.03.27-.04.15-.03.3-.06.45-.09.18-.05.36-.1.54-.14.04-.01.08-.02.13-.03.1-.03.21-.06.31-.1.07-.03.15-.06.22-.1.06-.04.12-.07.18-.11.1-.07.2-.15.29-.23.04-.04.09-.08.13-.11.06-.05.12-.11.18-.16.16-.18.35-.33.55-.47.16-.11.32-.21.49-.3.05-.03.1-.06.16-.08.07-.04.15-.08.23-.12.02-.01.04-.02.05-.03.09-.07.19-.14.27-.21.15-.14.29-.28.46-.4.15-.11.31-.19.43-.27.1-.07.2-.14.3-.21.16-.12.31-.25.46-.38.1-.13.21-.25.32-.37.07-.07.12-.12.22-.13.09,0,.15.06.15.15-.01.11-.08.17-.16.24-.12.1-.24.2-.37.29-.15.14-.29.28-.44.43-.11.12-.21.23-.32.35-.11.13-.21.26-.34.37-.07.07-.15.13-.23.19-.06.05-.13.09-.2.14-.07.06-.14.12-.21.18-.04.03-.07.07-.11.11-.06.07-.11.14-.18.2-.08.1-.17.19-.26.28-.09.09-.18.17-.28.25-.22.17-.46.32-.67.4-.22.11-.44.2-.66.31-.2.11-.39.23-.58.36-.05.04-.1.07-.15.1-.17.12-.34.25-.53.36-.14.08-.28.15-.42.22-.14.07-.29.14-.43.21-.17.08-.34.14-.5.2-.3.12-.61.22-.94.26-.19.03-.37.05-.56.06-.09,0-.17,0-.26,0-.04,0-.07,0-.11,0Z"/><path d="m53.78,15.54c-.15,0-.3,0-.45,0-1.55-.06-2.85-.96-4.11-1.78-.81-.35-1.53-.72-2.05-1.44-.22-.24-.51-.39-.75-.61-.37-.37-.7-.79-1.1-1.15-.19-.16-.47-.28-.53-.53,0-.09.06-.16.15-.15.25.05.38.33.54.5.22.19.5.41.74.57.45.24.8.6,1.19.9.31.18.63.32.92.53.53.37.93.95,1.55,1.19,1.1.37,2.26.51,3.41.68.55.07,1.1.11,1.65.12.21.02.46.06.66-.04.38-.21.91.34.64.7-.1.12-.24.19-.39.24-.14.12-.32.11-.48.15-.38.11-.78.13-1.17.13-.14,0-.28,0-.42,0Z"/><path d="m192.6,22.21c-.18-.03-.36-.08-.55-.11-.11-.02-.22-.04-.34-.07-.05-.01-.1-.05-.15-.08-.14-.05-.29-.09-.43-.14-.03,0-.07,0-.08,0-.03,0-.06,0-.09,0-.08,0-.16,0-.22-.01-.1-.02-.19-.05-.29-.07-.21-.05-.41-.12-.62-.19-.18-.06-.38-.12-.54-.22-.07-.04-.13-.07-.19-.11-.06-.05-.12-.09-.18-.14-.13-.07-.25-.13-.39-.18-.16-.05-.32-.09-.47-.15-.08-.03-.15-.05-.23-.07-.07-.02-.14-.04-.21-.07-.17-.07-.34-.14-.51-.23-.11-.05-.2-.11-.29-.18-.05-.03-.1-.07-.14-.11-.08-.06-.17-.12-.25-.18-.06-.04-.1-.1-.14-.15-.04-.04-.08-.08-.12-.12-.06-.04-.13-.09-.18-.14-.06-.06-.12-.13-.18-.19-.06-.06-.12-.11-.18-.17-.02-.03-.04-.05-.07-.08-.08-.1-.18-.18-.22-.24-.1-.11-.21-.21-.33-.31-.05-.04-.1-.08-.15-.13-.17-.13-.35-.26-.53-.37-.13-.07-.25-.16-.38-.24-.09-.06-.17-.11-.25-.17-.06-.05-.11-.1-.17-.14-.16-.13-.31-.27-.46-.42-.11-.11-.23-.22-.34-.33-.05-.05-.11-.09-.15-.15-.04-.04-.07-.08-.11-.12-.09-.09-.16-.19-.24-.29l-.13-.16c-.14-.17-.28-.33-.41-.51-.04-.04-.07-.09-.11-.13-.2-.24-.38-.5-.53-.78-.04-.08-.08-.15-.09-.18-.06-.11-.11-.23-.16-.35-.03-.08-.07-.16-.1-.24,0,0,0-.02-.01-.03-.02-.03-.04-.07-.06-.1-.06-.09-.14-.18-.16-.25-.03-.05-.05-.1-.06-.16-.02-.1-.02-.2,0-.3.05-.24.22-.45.43-.58.18-.11.43-.18.62-.08.08.03.14.07.2.14,0,0,.02.02.03.03.05.04.1.08.14.13.09.07.15.17.22.26.05.06.09.13.13.2.05.08.1.16.12.2.08.11.16.22.24.33,0,.01.02.02.03.03.03.04.07.08.1.12.14.14.27.29.4.43.15.16.29.34.42.52.06.09.12.18.17.27.05.09.12.18.16.28.05.12.11.24.16.35.18.28.38.55.57.82.05.08.11.14.16.22.06.08.11.17.17.25.05.08.1.15.15.22.03.05.06.1.09.15.04.07.08.13.13.2.06.07.11.15.17.22.14.17.3.32.46.46.09.07.18.13.28.2.08.04.17.09.25.13.05.03.11.05.16.07.06.02.11.04.17.07.07.04.13.07.2.11.06.02.11.05.17.08.07.02.13.04.2.08.07.04.14.09.22.13.18.09.36.18.53.3.14.1.28.2.41.31.08.06.14.15.22.22.05.04.09.08.14.13.12.1.23.22.35.33.08.06.16.11.25.16.16.07.32.13.48.21.16.08.32.16.48.23.18.09.36.17.53.26.06.03.15.06.21.11.08.06.16.13.24.19.14.04.29.08.43.11.14,0,.26.02.39.06.13.03.25.06.38.08.1.01.19.03.29.05.14.03.16.2.11.31-.06.12-.17.2-.3.2-.02,0-.03,0-.05,0Z"/><path d="m47.05,22.02c-.05-.11-.04-.28.11-.31.36-.04.71-.16,1.07-.18.25-.05.49-.11.67-.3.24-.13.49-.25.74-.37.4-.22.84-.35,1.21-.61.24-.22.48-.44.71-.67.76-.67,1.78-.89,2.58-1.47.5-.41.81-.98,1.17-1.51.49-.6.82-1.29,1.22-1.94.33-.49.84-.91,1.16-1.4.31-.5.81-1.35,1.49-.91.33.19.56.66.39,1.02-.05.14-.17.25-.24.39-.07.16-.18.43-.24.57-.24.55-.74,1.12-1.1,1.56-.49.63-1.06,1.19-1.67,1.71-.43.31-.91.56-1.31.91-.51.48-.88.91-1.42,1.41-.6.52-1.35.77-2.1.98-.29.08-.5.28-.76.43-.37.18-.77.3-1.16.41-.19.05-.39.1-.58.08-.19,0-.36.09-.53.14-.14.1-.32.11-.48.14-.18.02-.39.11-.58.11-.13,0-.25-.05-.32-.19Z"/></svg>