<?xml version="1.0" encoding="UTF-8"?>
<svg id="ILUSTRACIONES" xmlns="http://www.w3.org/2000/svg" viewBox="0 0 160 120">
  <path d="m76.84,66.24c-2.3-.13-2.86-3.23-1.17-4.54-1.13-1.16-1.33-3.52.41-4.19,0,0,0,0,0,0-.62-.66-.51-1.73-.03-2.43.47-.61,1.26-.84,1.99-.96-.59-.63-.46-1.54-.1-2.25.45-1.05,1.82-.88,2.35.01.37-.28.71-.15.94.23.31.49.78.83,1.13,1.28.77-1.63,1.71-.91,2.19.42.92-1.23,1.64-.44,2.19.59.96-.2,1.8.58,2.1,1.44.73,1.47.47,3.43-.84,4.49.63.49.97,1.36.56,2.1-.21.31-.97,1.81-1.38,1.25-.3-.74.74-1.32.59-2.06-.16-.43-.68-.58-.82-1.02-.13-.43.13-.78.36-1.12.28-.38.32-.83.38-1.28.14-.7.26-1.49,0-2.17-.36-.19-.84-.17-1.23-.06-.33.05-.55-.3-.56-.59-.01-.3.1-.59.34-.77,0-.07-.05-.19-.07-.24-.03-.06-.07-.12-.09-.17-.02-.03-.04-.05-.04-.06-.1-.13-.3-.25-.45-.19-.34.12-.51.49-.68.78-.08.19-.16.42-.4.43-.45-.08-.27-.62-.21-.93,0-.29-.26-.54-.45-.72-.68-.54-1.07.4-1.3.89-.46.35-.61-.49-.79-.77-.17-.26-.62-1.41-.96-1.2-.28.13-.39.7-.76.41-.15-.13-.1-.33-.18-.48-.21-.33-.64-.35-.99-.35-.65.03-1.04.56-.6,1.12.28.58,1.72,1.26,1.03,1.92-.55.3-1.23-.29-1.78.02-.43.21-.55.68-.7,1.09-.41.88.47,1.13,1.15,1.29.33.08.32.67,0,.78-.92.23-1.73.9-2.2,1.72-.1.58.52,1.02.96,1.28,1.92-.39,1.49,2.45-.17,1.26-1.14.52-2.19,1.52-.31,1.92.83.23,1.59.7,2.46.78.16.02.32.03.47-.01.18-.04.3.16.33.3.14,1-2.04.65-2.68.75Z"/>
  <path d="m44.91,66.41c-1.41-.29-2.36-1.73-2.42-3.11-.04-1.11.45-2.5,1.7-2.66.07-1.42.14-2.94,1.42-3.81-.45-.91-.5-1.98-.48-2.98-.96-.15-1.52-1.04-1.77-1.91-.27-.8-.27-1.59.37-2.21.44-.64,1.26-.6,1.94-.73,1.21-.24,2.64-.51,3.75.17,1.07-.16,2.07.24,3.03.66,1.26.26,2.66.69,2.8,2.19.88.28,1.82.63,2.25,1.5.61-.55,1.44-.16,2.12-.03,1.26,0,1.68,1.09,1.82,2.17.03.22-.25.36-.33.11-.13-.36-.12-.77-.28-1.11-.37-.28-.9-.27-1.31-.48-.58-.12-1.21-.01-1.78.12.13.84-.54,1.19-.63.16-.53-.76-1.16-1.39-1.94-1.86-.35,1.05-1.68.61-1.39-.43.07-.23.26-.42.51-.43-.64-.48-1.25-1-1.97-1.36-.66-.19-1.35-.1-2.03-.16-.29.92-1.99.33-1.74-.57-1-.16-2.07-.25-3.05.03-.44.21-.81.44-1.18.7-.27.12-.54.34-.69.58-.19.61.48,1.07.89,1.39.31.23.57.53.89.75.31-.43,1.06-.64,1.45-.21.22.28.16.73-.13.94-.29.21-.69.17-1.03.11-.54.93.38,1.76.92,2.43,1.76.23.76,2.17-.55,1-.41.16-.71.5-.84.92-.27.74-.47,1.53-.29,2.29,2.13.24.26,3.11-.63.97-.22.18-.44.5-.61.71-1.32,1.94-.01,2.92,2.01,2.48.88-.06.92,1.52.12,1.65-.31.04-.62.04-.93-.01Z"/>
  <path d="m44.1,74.65c-1.47-.81-1.28-3.01-.92-4.4.27-.75.87-1.3,1.56-1.66.49-.3,1-.63,1.57-.76-.42-.78-.3-1.8.31-2.45.43-.46,1.07-.64,1.58-1,.51-.33,1.13-.42,1.72-.31.37.02.78-.03,1.12.14.21.1.41.27.57.4.25.08.22.5,0,.59-.18.07-.34-.11-.46-.21-.19-.15-.42-.22-.64-.31-.47-.18-.92.1-1.32.29-.46.18-.96.28-1.37.56-.26.22-.54.58-.73.83-.28.39-.65.97-.22,1.39.53-.04,1.26.15,1.37.76.09.36-.25.89-.64.63-2.77-.71-3.1.2-3.69,2.67-.39,1.31,1.1,1.96,2.15,2.15.61.1,1.19-.12,1.77-.27.45-.1.53.69.15.81-1.24.28-2.65.76-3.86.17Z"/>
  <path d="m52.58,69.89c-.37-.05-.67-.25-.98-.44-.34-.14-.69-.28-.94-.55-.54-.73-1.09-1.71-.99-2.64.36-1.65,1.75-3.49,3.58-3.43-.57-1.58.77-3.35,2.48-2.96-1.26-2.25,2.05-5.55,4.07-3.5.78.89,1.26,2.26,1.2,3.43.13.49-.39,1.21-.89.8-.67-.19-.5-1.32.16-1.4.06-2.55-4.11-2.49-3.5-.31.19.67,1.23,1.1.89,1.88-.06.12-.18.21-.32.21-.52-.08-1.1-.14-1.6-.02-.8.21-1.78.98-1.22,1.87.41.66,1.18.97,1.74,1.49.46.34.27,1.24-.31,1.32-1.05,0-1.65-1.15-2.23-1.87-.88.09-1.75.41-2.5.87-.62.34-.95.91-.83,1.62.06.42.06.84.16,1.25.24.52.64.89.96,1.34.35.36.9.53,1.4.49.26.02.26.47.04.55-.11.04-.25.03-.36,0Z"/>
  <path d="m61.9,58.83c-1.16-1.11-1.07-3.75.87-3.88,0-1.79,1.19-1.91,2.6-1.36.77.16,1.77.22,2.1,1.07.08.24.07.58-.21.62-.07,0-.12-.04-.15-.09-.2-.35-.57-.52-.92-.67-.41-.21-.79-.3-1.23-.29-.39.05-1.73.11-1.39.75,2.18.43.59,3.49-.65.74-.64-.09-.92.72-.69,1.22.1.42.56.62.63,1.05.14.53-.4,1.31-.94.85Z"/>
  <path d="m64.12,66.95c-1.15-.19-2.01-1.32-1.89-2.48.15-1.07.58-2.38,1.72-2.72-.07-1.86,1.16-3.65,3.13-3.65.02-1.18,1.59-2.5,2.64-1.62.25.27.26.87-.14,1-.2.03-.3-.18-.3-.36-.24-.08-.49.02-.73.07-.24.07-.49.16-.64.37-.4.48.72.58,1.02.68.29.11.4.49.39.77-.09.89-.71.89-1.36.49-.85.11-1.61.62-2.42.88-.54.19-1.04.72-.93,1.31.78.08,1.52.92,1.22,1.71-.32.82-1.04.38-1.42-.14-.75-.27-1.84.52-1.37,1.33,0-.01-.01-.03-.02-.04,0,0,0,0-.01-.02.27.4.76.58,1.19.74.48.16.87.27,1.36.25.29-.03.6-.09.84-.27.12-.13.27-.24.45-.23.18,0,.33.13.43.28.72,1.7-2.11,1.77-3.16,1.65Z"/>
  <path d="m70.27,60.29c-1.32-1.01-.84-5.18,1.14-5.02.65-1.23,2.61-2.2,3.7-.99.74.56,1.11,4.28-.27,4.05-.45-.11-.58-.66-.54-1.06.04-.66.52-2.45-.42-2.6-.69.13-1.16.89-1.25,1.55.72,1.4-1.05,2.23-1.44.55-.39.25-.74.64-.98,1.03-.33.66.07,1.74.7,2.08.34.09.29.75-.07.75-.22,0-.43-.19-.58-.34Z"/>
  <path d="m57.91,69.39c-1.11-.7-1.59-1.98-.66-3.05.36-.42.71-.9,1.23-1.12-.48-.91.55-1.8,1.43-1.72.51.12.97.66,1.02,1.18-.03.19-.03.41-.15.57-.22.15-.25-.2-.17-.38.14-.6-.34-.62-.79-.67-.6-.13-.96.34-.78.89.45-.02,1.14.47.68.88-.07.04-.13.02-.2,0-.66-.13-1.67-.01-1.94.7-.26.69,0,1.52.68,1.85.39.23.14,1.13-.35.86Z"/>
  <path d="m39.35,59.63c-1.27-.78-1.43-2.48-1.06-3.8.23-1.1.08-2.72,1.38-3.17.11-.73.74-1.65,1.54-1.66.46.02.76.45,1,.79.15.2.3.41.33.66.13.12.02.43-.17.41-.22-.11-.19-.43-.32-.62-.27-.5-.95-.43-1.39-.22-.28.18-.27.57-.26.87.83.7-.08,1.8-.59.62-.68.77-1.2,1.84-1.01,2.87.13.72.17,1.56.68,2.13.32.15.56.44.44.8-.05.25-.34.48-.58.31Z"/>
  <path d="m41.49,50.6c-.29-.11-.17-.49-.17-.73,0-.27,0-.55.01-.82.03-.59-.22-1.13-.28-1.71-.08-.55-.04-1.1-.08-1.65.03-.66-.64-1.91.11-2.29.7-.13.59.85.63,1.29,0,.99.29,1.96.19,2.96-.08.5-.14,1.01-.05,1.52.01.32.12,1.47-.35,1.43Z"/>
  <path d="m40.64,48.81c-.47-.35-.85-.78-1.12-1.29-.4-.64-1.05-1.47-.67-2.24-.25-1.15-.85-2.21-.89-3.4-.09-1.01.62-2.46,1.77-1.64-.05-.8.18-1.57.41-2.32.24-.6.29-2.03,1.03-2.17,1.28.05.71,2.34,1.05,3.2.15-.36.33-.7.58-.99.5-.58,1.36-.11,1.46.55.39,1.69-.02,3.45-.26,5.13,0,0,0,0,0,0,.69.36.67,1.33.35,1.94-.48.92-1.02,1.81-1.6,2.68-.07.15-.26.24-.41.14-.64-.59.82-1.71,1.1-2.24.26-.38.31-.83.33-1.25,0-.23.11-.49.06-.72-.17.37-.36,1.03-.88.93-.43-.11-.41-.74-.22-1.03.33-.8.82-1.55.96-2.41.05-1.15.13-2.4-.34-3.45-.18.1-.24.45-.31.59-.23.76-.4,1.53-.57,2.3-.02.33.08.62-.12.9-.1.13-.26.22-.42.18-.64-.21-.39-1.48-.44-2.02,0-.91.24-1.88-.21-2.73-.39,1.28-.26,2.64-.49,3.95.07.18.01.44-.16.53-.38.13-.58-.42-.71-.7-.19-.16-.44-.26-.69-.27,0,0,0,0,0,0-.74.29-.41,1.7-.39,2.31.06.4.19.74.43,1.06.39.46.84.79,1.12,1.32.22.52-.29,1.04-.79.7.09.92.85,1.54,1.57,2.02.25.13.21.56-.05.65-.18.06-.36-.11-.48-.21Z"/>
  <path d="m46.12,48.25c-.13-.16-.08-.37-.08-.56,0-.39-.01-.75-.06-1.14-.04-.28-.05-.57-.05-.86,0-.21-.02-.46.16-.61.31-.19.43.26.35.49.01.77-.04,1.55.16,2.29.08.27-.24.66-.48.37Z"/>
  <path d="m45.89,47.13c-.44-.1-.44-.71-.6-1.06-.12-.67-.28-1.24-.52-1.86-.38-1.15-.14-2.26.09-3.39.11-.89-.02-1.79.17-2.67.19-.72.34-1.93,1.27-2,.34,0,.61.25.73.56.46,1.2.07,2.52.36,3.76.54-.66,1.38-.61,1.53.31.12.63-.22,1.22-.38,1.81-.24.89-.32,1.81-.64,2.67-.07.28-.35.55-.65.41-.62-.33-.25-1.36.19-1.68.27-.89.91-1.76.64-2.72,0,0,0,0,0,0-.3.18-.5.49-.56.83-.08.44.04,1.02-.42,1.28-1.38.46-.61-2.44-.57-3.12.14-.81.11-1.66-.26-2.4-.52,1.14-1.01,2.47-.54,3.71.3.36.54.86.34,1.33-.1.25-.33.51-.62.49-.01.88,0,1.75.39,2.56.06.19.1.41.23.57.19.17.12.62-.17.63Z"/>
  <path d="m36.54,52.5c-.2-.09-.27-.37-.21-.58-.04-.39-.09-.76-.16-1.14-.15-.6-.11-1.2-.09-1.81-.06-.2-.13-.75.22-.64.07.05.09.13.09.22-.05.69.33,1.36.34,2.04.03.53.28,1.04.28,1.56-.02.22-.24.46-.46.35Z"/>
  <path d="m37.4,50.88c-.46-.06-.51-.77-.18-1.01.6-.47.93-1.3.69-2.04-.12-.54-.29-.41-.7-.25-.42.02-.5-.51-.49-.84,0-.8-.07-1.68.31-2.4-.02-.88-.03-1.73-.23-2.59-.19-.99-.05-2.02-.25-3.01-.18-.7-.76-.4-.95.12-.2.4-.21.85-.23,1.29-.07.9.17,1.77.28,2.66.14.95.12,1.9.11,2.85.37.48.76,1.19.43,1.79-.26.49-.84.29-.91-.21,0,0,0,0,0,0-.03-.18-.09-.36-.15-.54.02,1.04.03,2.18.7,3.04.03.02.05.04.08.04.32.08.25.7-.1.66-.76-.23-.74-1.27-1-1.88-.36-.77-.95-2.88.17-3.22-.42-1.49-.35-3.04-.2-4.56.04-.89-.12-1.8.07-2.68.68-2.05,2.1-1.41,2.64.33.5,1.33.14,2.74.08,4.1.12,1.31.29,2.62.06,3.93,1.13-.09.95,1.45.76,2.18-.11.59-.32,2.12-.99,2.24Z"/>
  <path d="m34.83,65.39c-1.21-.44-2.32-1.15-3.03-2.25-.78-1.12-.65-3.03.77-3.55-.31-.98.13-2.07.87-2.73.41-.48.9-1.09,1.6-1.02-.34-1.13-.43-3.08,1.24-2.96.54.16.79.77.96,1.27.17.36.36.7.48,1.08.1.26-.24.53-.36.2-.13-.64-.38-1.26-.93-1.65-.15-.1-.32-.27-.5-.2-.14.09-.22.38-.28.49-.14.32-.27.61-.3.9-.05.4.1.79.33,1.11.29.17.57.52.38.86-.19.36-.62.1-.9,0-1.54-.62-1.92,1.39-1.68,2.49.37,0,.8.04,1.08.3.37.32.38,1.05-.1,1.26-.58.14-1.17-.29-1.53-.71-.9-.05-.57,1.21-.38,1.74.24.67.71,1.25,1.4,1.46.44.19.93.11,1.36.26.77.33.45,1.97-.46,1.66Z"/>
  <path d="m22.47,88.04c-1.6-.19-1.64-2.35-1.2-3.54.54-1.89,2.65-3.23,4.59-3.01,0-1.13.35-2.29,1.58-2.57-.83-.49-1.67-1.13-1.95-2.09-.29-1.07-.31-2.28.07-3.33.35-1.02,1.3-1.63,2.09-2.3-.54-.44-.83-1.05-1.05-1.65-.81-2.01,1.28-2.39,2.79-2.04.4-.72,1.21-1.04,1.91-1.4.33-.22.65-.49,1.04-.59.33-.1.7,0,1.03.04.42,0,.75.35.76.75,0,.11-.09.19-.12.29-.06.19-.25.06-.2-.09.02-.11.13-.18.11-.29-.25-.08-.54-.18-.82-.17-.23.04-.45.15-.68.21-.34.09-.68.13-1,.26-.46.27-.82.67-1.15,1.08.67.13,1.49.89,1.05,1.6-.66.68-2,.18-2.1-.76-3.01,0-2.75,1.09-.25,2.07.54-.13,1.34-.22,1.69.31.26.44-.05.99-.56.99-1.34-.04-3.03,0-3.37,1.6-.3.99-.69,2.05-.26,3.06.43,1.54,2.07,1.48,3.33,1.85.75.4.58,1.79-.27,1.94-.39.04-.77-.1-1.15-.16-.5-.01-1.04-.01-1.52.12-.21.46.05,1.07.08,1.56.18.74-.23,1.7-1.09,1.68-.68,0-1.24-.61-1.93-.43-.89.37-1.88,1.8-1.88,2.76-.01.9,1.06,1.44,1.8.99.72-.41,1.31-1.18,2.02-1.68.25-.22.61-.05.71.23.33.73-.47,1.16-.94,1.55-.43.37-.98.53-1.48.75-.53.22-1.09.45-1.67.43Z"/>
  <path d="m41.16,90.42c-.11-.18-.14-.38-.16-.59-.04-.32-.11-.63-.16-.94.01.42.07.84.12,1.25,0,.14-.11.32-.27.28-.16-.04-.21-.22-.25-.36-.12-.45-.15-.92-.08-1.38,0-.59.46-1.39,1.05-.75.42.63.39,1.47.44,2.2,0,.37-.43.69-.68.3Z"/>
  <path d="m46.48,90.87c-.1-.71-.06-1.46-.42-2.12,0,0,0,0,0,0-.21.51-.43,1.15-.19,1.68.02.06.07.09.1.14.12.29-.19.39-.3.1-.27-.75-.5-1.65-.04-2.38.18-.29.57-.54.9-.34.79.52.47,1.63.56,2.43.02.25.03.62-.24.73-.17.06-.32-.08-.37-.24Z"/>
  <path d="m58.38,91.52c-.38-.02-.54-.45-.54-.77,0-.07,0-.14,0-.21-.02.12-.15.16-.25.2-.26.05-.37-.29-.41-.49,0-.61-.11-3.2,1.03-2.5.56.47,1.34,3.78.16,3.78Zm-.52-1.12s0,0,0,0c0-.57.1-1.15.05-1.71-.31.49-.43.99-.28,1.55.11-.04.22.04.24.16Z"/>
  <path d="m41.01,87.96c-.15-.02-.19-.19-.21-.31-.06-.52-.07-1.05-.14-1.57-.11-.45-.3-.83-.38-1.28-.11-.51-.07-1.04-.23-1.54-.44-1.03-.51-2.14-.68-3.23-.41-1.16-.99-2.25-1.24-3.46-.29-1.08-.34-2.23-.78-3.27-.48-.85-1.07-1.63-1.49-2.52-.43-.91-.84-1.92-1.81-2.37-1.14-.57-2.34-1.06-3.57-1.38-.84-.18-1.63.22-2.35.63-1.08.67-2.32,1.15-3.19,2.1-.46.62-.85,1.26-1.23,1.8-.72,1.13-1.66,2.15-1.91,3.5-.2,1.44-.48,2.87-.65,4.32-.15.91-1.17.74-1.13-.16.09-1.09.1-2.2.44-3.25.26-.85.71-1.63,1.04-2.46.4-1.41.91-2.81,1.79-4.01.79-.91,1.61-1.84,2.57-2.57,1.18-.87,2.66-.93,4.08-.94,1.04-.12,2.12-.28,3.15.03,1.03.28,1.83,1.03,2.54,1.79.47.44.91.94,1.22,1.51.88,1.47.8,3.28,1.61,4.78.57,1.1.89,2.31,1.06,3.54.16.84.16,1.73.53,2.52.57.99.76,2.09.79,3.22.14.57.29,1.14.27,1.73-.1.76.19,1.49.17,2.24-.01.21.05.6-.23.62Z"/>
  <path d="m46.47,86.81c-.21-.28-.17-.64-.2-.97-.26-.8-.16-1.62-.23-2.43-.33-1.18.08-2.34.18-3.52-.27-2.96-.13-4.66,1.46-7.24.61-1.49,1.26-3.06,2.62-4.02,1.77-1.08,3.97-3.43,6.07-1.7.49.43.85.98,1.28,1.46.43.48.91.9,1.3,1.4.79,1.01,1.22,2.23,1.56,3.45.34,1.35.97,2.61,1.16,4,.07.79.51,2.02-.43,2.44-.42.14-.79-.2-.9-.58-.31-1.11-.32-2.28-.6-3.39-.26-.89-.71-1.7-1.04-2.56-.48-1.17-.75-2.42-1.35-3.54-1.1-2.03-3.61-1.36-5.23-.37-.76.49-1.28,1.24-1.9,1.88-.8.92-1.98,1.61-2.32,2.84-.41,1.98-.8,4-1.14,5.95-.04.76.15,1.5.13,2.25-.02.52-.16,1.02-.21,1.53,0,.34.03.67.03,1.01,0,.61-.32,1.29.02,1.85.2.19-.08.53-.27.26Z"/>
  <path d="m57.16,87.72c-.22-.17-.22-.49-.25-.74-.09-.53-.07-1.06-.13-1.58-.1-.49-.3-.95-.35-1.45-.09-.54-.04-1.11-.08-1.66-.16-.81-.22-1.64-.05-2.45.12-.51.3-1.01.44-1.52.18-.88.19-1.73.39-2.59.22-1.25.68-2.44,1.35-3.52,1.44-1.8,2.27-4.57,4.8-5.06,1.8-.11,3.86-.65,5.48.34,1.13.65,1.76,1.82,2.39,2.92,1.17,1.59,1.85,3.49,1.81,5.47,0,1.83.47,3.54.43,5.35.02,1.48-.26,2.95-.03,4.42.06.6-.66.9-.82.2-.26-2.27-.87-4.5-.9-6.79.06-1.57-.22-2.95-.49-4.46-.15-.94-.23-1.9-.44-2.83-.48-2.09-3.88-3.09-5.78-3.01-1.63.37-3.24,1.12-4.54,2.16-.72.74-.92,1.77-1.27,2.7-.48,1.67-1.39,3.19-1.8,4.87-.06.75-.01,1.5-.02,2.25-.1.88-.24,1.76-.04,2.65.1.96-.13,1.92.14,2.86.04.3.07.61.15.91.06.15.05.33-.05.46-.08.11-.24.17-.36.09Z"/>
  <path d="m99.93,93.02c-.58-.41-.13-1.82-.12-2.45.06-.57.38-1.75,1.15-1.25.61.68.66,1.7.8,2.57.17.68-.61,1.51-1.12.74-.35-.7.17-1.52-.04-2.24-.54.56-.64,1.31-.51,2.05.04.15.14.29.06.44-.03.09-.13.19-.23.15Z"/>
  <path d="m79.26,99.08c-.5-.22-.63-.91-.49-1.38.23-.83.48-1.65.68-2.49.18-2.24.17-4.54,1.07-6.65.62-1.83.29-3.82.67-5.7.18-1.3.59-2.54.89-3.81.13-.68.25-1.35.46-2.01.66-2.34,2.78-3.66,4.36-5.34,1.41-1.69,3.87-3.26,6.05-2.03.91.5,1.81,1.08,2.31,2.02.39.69.64,1.46,1.1,2.11.96,1.24,1.89,2.55,2.19,4.12.21.87.25,1.96.58,2.77.52,1.29.87,2.64.93,4.04.2,1.58,1.06,3.07.84,4.71-.09.44-.6.53-.75.07-.1-.74-.2-1.48-.4-2.2-.13-1.47-.99-2.68-1.49-4.03-.3-.87-.39-1.78-.65-2.66-.42-1.05-1-2.05-1.3-3.15-.43-1.41-.66-2.92-1.5-4.16-.7-1.05-2.34-1.56-3.56-1.55-1.69.15-3.62.65-4.73,2.01-.7,1.02-1.11,2.2-1.68,3.3-.42.87-.91,1.71-1.23,2.62-.31,1.13-.34,2.31-.58,3.45-.21,1.12-.57,2.19-.96,3.25-.4,1.08-.4,2.22-.4,3.36-.02,1.24-.14,2.48-.34,3.7-.08.48-.19.95-.29,1.42-.28.94-.3,4.76-1.77,4.22Z"/>
  <path d="m71.81,96.31c-.19-.73-.11-1.48.07-2.2.09-.37.12-.77.33-1.1.3-.51,1.01-.39,1.31.06.37.5.48,1.16.51,1.77.02.4.12.81-.04,1.19-.32.74-1.1.34-1.04-.35,0-.6-.11-1.21-.43-1.73-.33.63-.31,1.4-.19,2.07.45.49-.31,1.06-.52.3Z"/>
  <path d="m89.07,93.17c-.54-1.9-.22-3.93-.4-5.87-.15-1.25-.54-2.46-.69-3.72-.17-1.21-.09-2.44-.2-3.65-.23-1.25-.71-2.45-1.12-3.66-1.21-3.57-3.46-4.3-6.79-2.74-4.31,2.15-4.34,3.13-5.22,7.58-.2.8-.52,1.58-.64,2.39-.09.95.03,1.9-.09,2.85-.07.86-.41,1.67-.5,2.53-.09,1.42,0,2.85-.26,4.25-.03.22-.15.44-.39.43-.39-.03-.36-.52-.36-.82-.02-1.33.11-2.65.17-3.95-.04-1.09-.35-2.15-.28-3.24.02-.91.25-1.8.36-2.69.05-.89-.01-1.8.15-2.68.24-1.66,1.34-3,2.27-4.33.58-.95,1.05-2,1.84-2.79.41-.4.83-.8,1.27-1.17,1.25-1.13,3.05-1.5,4.67-1.13.77.19,1.35.76,1.98,1.2.74.51,1.48.78,2.16,1.34,1,.8,1.71,1.96,1.97,3.22.16.73.19,1.49.27,2.23.23,1.26.51,2.52.53,3.8.09,2.07-.55,4.19.27,6.18.39,1.18.64,2.41.79,3.65.07.53-.06,1.16-.56,1.44-.51.29-1.07-.12-1.21-.65Z"/>
  <path d="m105.61,86.54c-.34-.67,0-1.5.18-2.17.16-.72.16-1.47.43-2.16.24-.68.58-1.3.86-1.96.28-1.07.51-2.16,1.1-3.11.48-.89,1.27-1.58,1.75-2.47.63-1.42,1.22-2.89,2.25-4.08,1.25-1.53,3.11-2.33,5.02-2.65,2.01-.65,3.6-.85,5.13.89.55.61.99,1.33,1.3,1.94.86,1.32,1.62,2.76,1.79,4.35.26,1.61-.09,3.24.27,4.84.45,1.76.69,3.56.93,5.35.06.44-.05,1-.5,1.2-.47.21-.94-.21-1.04-.65-.21-.93-.44-1.86-.53-2.81-.13-1.3.09-2.61.03-3.91-.35-1.98-.99-3.91-1.56-5.83-.32-1.19-1.32-2.09-2.23-2.82-.79-.69-1.69-1.38-2.79-1.38-1.76,0-2.94,1.56-4.1,2.67-1.14,1.12-2.38,2.29-3.28,3.6-.81,1.36-.96,3.01-1.8,4.35-.64.89-1.08,1.86-1.44,2.9-.28.82-.94,1.46-1.16,2.3-.07.45-.19.82-.23,1.24.18.26-.16.7-.4.4Z"/>
  <path d="m106.97,90.38c-.15-1.27-.18-2.72-1.19-3.65-.53.85-.48,1.92-.59,2.88,0,.19.04.39-.02.57-.08.3-.44.35-.58.07-.43-1.03-.07-2.2.2-3.23.19-.62.29-1.41.88-1.77,1.88-.63,2.13,2.72,2.49,3.92.06.62.38,1.62-.4,1.9-.41.11-.75-.32-.8-.69Z"/>
  <path d="m108.38,74.86c-1.94-.01-3.01-1.73-1.88-3.38-2-1.83-.5-7.22,2.29-7.55-.82-.71-1.04-1.83-.99-2.87-.05-.64-.02-1.33.34-1.89.46-.8.97-1.61,1.86-1.98.31-.2.67-.26,1.02-.38.2-.12.4-.25.63-.32.18-.03.37,0,.53.09.14.04.31.08.36.25.04.26-.23.6-.23.91-.02.16-.19.06-.14-.06.08-.2.1-.41.11-.62-.19-.14-.44.08-.66.04-.18.01-.4,0-.56.07-.63.48-1.29.9-1.95,1.35-.6.36-.55,1.07-.65,1.68-.3,1.42.21,3.02,1.45,3.82.24.25.05.63-.23.72-.95.63-1.83,1.15-2.48,2.05-.37.8-.29,1.72-.34,2.58.02.41,0,.88.3,1.19.34.32,1.07,0,1.14.6.05.24-.07.52-.32.59-.25.26-.41.6-.47.95.37.3.95.32,1.39.29.17-.02.33,0,.47.12.54.42.51,1.49-.19,1.73-.26.09-.55.02-.8,0Z"/>
  <path d="m111.25,70.71c-.65-.35-.63-1.69.2-1.79.13-.06.21-.19.3-.29.88-1.14,1.05-2.66,1.52-3.99.35-1.15-.71-1.37-1.56-1.59-.33-.2-.47-.67-.31-1.02.73-1.01,1.68-2.11,1.44-3.46-.07-.41.04-.89-.28-1.21-.12-.1-.17-.27-.34-.28-.12.05-.22.16-.29.26.03.2-.16.38-.29.15-.17-.57.71-1.02,1.14-.7.33.36.46.84.61,1.29.12.54-.06,1.1-.22,1.61-.14.77-.32,1.55-.65,2.27,1.34.74,1.74,2.5,1.68,3.93-.1,1.18-.71,2.21-1.25,3.24-.36.59-.82,1.9-1.71,1.58Z"/>
  <path d="m101.44,83.28c-.44-.45-.5-1.24-.16-1.77.18-.7.42-1.38.61-2.08.23-.94-.19-1.83-.51-2.7-.58-.4-.61-1.65.21-1.77.2.02.38.01.57-.06,1.07-.44,2.2-2.46,1.67-3.57-.54.55-1.39.33-1.66-.37-.42-.89.2-2.31,1.32-2.05.25-.85.61-2.41-.13-3.07-.97-.51-2.19,0-2.83.82-.16.64-.24,1.43-.77,1.89-.59.43-1.25-.19-1.32-.8-.14-.8.25-1.63.89-2.11-.16-1.01-.5-2.37-1.61-2.69-.21-.06-.42-.01-.62.01-.29,0-.47-.29-.48-.56-.04-.58.53-.9.78-1.35.79-1.06.79-2.1.08-3.2-.34-.45-.73-1.12-1.38-1.04-.31.07-.51.23-.75.41-.63.58-1.21,1.21-1.91,1.72-.51.36-.74.94-.92,1.52-.05.21-.26.54.03.62.24,0,.45-.04.65-.15.13-.08.25-.23.41-.18.12.04.17.22.13.32-.13.3-.52.36-.79.49-.75.26-1.34-.61-1.27-1.29,0-.66.48-1.26.8-1.77.37-.7.8-1.4,1.46-1.86,1.05-.77,2.53-.96,3.68-.31,1.85,1.18,2.53,3.76.85,5.4,1.51.23,2.18,1.89,2.18,3.26.95-.19,1.87-.61,2.84-.63,1,.03,1.64,1.01,1.76,1.92.2,1.31-.3,2.61-.7,3.84.38,2.22.6,5.67-1.92,6.64.19.82.23,1.68.29,2.51.05.97.21,1.94.08,2.9,0,.83-.76,1.89-1.58,1.11Z"/>
  <path d="m87.71,70.71c-.2-.77-.36-3.2.52-3.54,0-1.07.38-2.23,1.14-3-.1-.79.21-1.68.86-2.16.58-.36,1.26-.67,1.96-.69,1.03-.02,1.65.98,2.19,1.72.27.46.25,1.02.51,1.49.04.2.26.46.07.64-.15.09-.23-.11-.26-.23-.14-.43-.27-.85-.59-1.18-.21-.3-.36-.66-.63-.92-.69-.31-1.44-.75-2.22-.69-.71.24-1.02,1.07-1.03,1.76.52.08,1.08.53,1.1,1.08-.04.74-1.03.56-1.42.2-.86.41-.8,1.51-.85,2.31.26.31.46.86.09,1.16-.28.19-.58-.08-.69-.34-.27.64-.14,1.39,0,2.04.18.59-.5,1.04-.75.35Z"/>
  <path d="m90.42,59.21c-.04-.15,0-.35.15-.43.05-.02.09-.06.13-.1.4-.47.74-1.02.92-1.59-.07-.33-.57-.38-.86-.36-.07.02-.14.09-.22.04-.29-.24.06-.7.09-.99.09-.34.19-1.17-.4-.91-.34.14-.68.28-.8.66-.06.11-.16.23-.14.36.04.13.21.22.12.37-.11.16-.26-.05-.28-.17-.04-.25-.03-.52.04-.77.2-.32.45-.67.8-.85.25-.09.52,0,.72.15.5.26.53.93.37,1.4,1.07-.31,1.31,1.14.96,1.87-.12.38-1.23,2.12-1.59,1.31Z"/>
  <path d="m82.37,69.51c.03-1.46-.47-2.88-.35-4.34.06-.44-.09-.87-.08-1.3,0-.34.08-.67.12-1,0-.13.11-.35.27-.25.18.1.13.3.15.47.12.54.17,1.09.17,1.64.09.41.2.82.25,1.24.16.94-.01,1.89.07,2.83-.02.36.25.94-.19,1.12-.22.06-.4-.2-.4-.41Z"/>
  <path d="m74.14,72.51c-.21-.34-.1-.78-.18-1.16-.22-1.18-.27-2.36-.25-3.56-.21-.69-.07-1.35-.12-2.04-.02-.4.45-.45.48-.03,0,.52.28.99.26,1.52.03,1.12.43,2.2.4,3.33.02.48.03.97.12,1.45.11.43-.35.94-.71.49Z"/>
  <path d="m124.04,66.68c-.78-.05-1.21-.95-.89-1.63.19-.48.8-.48.99,0,.88-.09,1.62-.63,2.32-1.14.38-.29.81-.61,1.07-.96,1.16-1.67.18-3.1-1.71-3.27-.29.81-1.23.99-1.36.01-.04-.41.19-.77.49-1.03.37-.75.61-1.55.69-2.39.05-1.17.36-2.4-.13-3.51-.61-.88-1.38-1.78-2.38-2.2-.55-.17-1.1.17-1.6.33-.55.27-1.28.19-1.35-.54.09-.69.51-1.31.71-1.98.28-1.09.61-2.19.65-3.32-.18-.82-1.06-1.36-1.85-1.49-.31-.06-.68.21-.92-.09-.09-.12-.15-.24-.16-.39,0-.27.1-.53.29-.71.43-.52.86-1.05,1.26-1.6.41-.6.88-1.29.61-2.05-.11-.3-.15-.8-.59-.69-.67.17-1.53.24-1.85.95.1.2.04.54-.22.57-.25,0-.37-.24-.38-.46,0-.34.23-.64.51-.82.57-.45,1.09-1.16,1.9-1.09.6.06,1.19.44,1.32,1.06.1.48-.07.98-.23,1.43-.27,1.18-.72,2.32-1.51,3.25,2.13-.58,2.68,1.07,2.74,2.84.02,1.33-.86,2.42-1.3,3.6,2.43-.9,4.44.57,4.96,2.99.81,2.11,1.02,3.3.32,5.5,2.76,0,2.67,4.78,1.9,6.6-.65,1.85-2.53,2.29-4.3,2.21Z"/>
  <path d="m129.69,81.41c-.5-.1-.65-.78-.44-1.18.05-.35.07-.7.09-1.05-.09-1.43-.21-2.85-.18-4.29-.26.17-.27-.31-.22-.46,0-.2-.1-.39-.09-.6.05-.34-.04-.66-.03-1-.11-.73-.02-1.48-.17-2.2-.08-.32.07-.64.08-.95,0-.09.04-.19.12-.24.16-.11.33.06.34.22,0,.15.07.28.11.42.09.29.06.59.06.89.03.6.19,1.18.2,1.78.01.74,0,1.47.13,2.21.4,1.38.68,2.81.61,4.25,0,.41,0,.82,0,1.23.13.4-.09,1.02-.58.98Z"/>
  <path d="m131.71,73.77c.11-1.42-.21-2.82-.4-4.22-.02-1.04.08-2.07-.11-3.1-.06-.54.11-1.08.09-1.62-.06-.34-.13-.67-.13-1.01-.18-.81.74-.87.65-.03.03.63-.07,1.26.16,1.87.14.61.11,1.24.1,1.86.08.63.18,1.25.26,1.88,0,.95-.11,1.9-.07,2.84.05.5.05,1.01.18,1.49.08.24-.02.65-.33.67-.31.02-.44-.38-.4-.63Z"/>
  <path d="m136.55,66.19c-.32,0-.59-.16-.84-.35-.51-.4-.51-1.37.09-1.68.88-.25.58.82,1.93.04.7-.38.66-1,.49-1.68-.55-2.51-.66-5.06-2.73-6.88-.4-.46-.87-.86-1.19-1.38-.39-.45-.72-1.22-1.42-1.12-1.51,2.93-3.37-.15-1.09-1.17.61-1.62,1.54-4.48-1.07-4.67-.65.02-1.33.08-1.45-.74-.04-.32,0-.63.22-.87.3-.5.51-1.03.64-1.6.12-.78.54-2.7-.22-3.19-.53-.2-1.02.29-1.54.35-.8-.03-.87-1.26-.3-1.66.85-1.08,1.53-2.32,1.71-3.7.08-.56.59-1.55-.08-1.88-.88-.25-2.36,1.16-2.78,1.88-.13.3-.26.6-.41.9-.23.36-.45.63-.5,1.05-.03.18-.24.33-.12.51.16.04.17.3.02.36-.24.06-.33-.27-.3-.46-.18-.58.2-1.08.32-1.62.12-.37.38-.67.64-.95.34-.38.56-.84.83-1.27,1.48-2.4,2.97-1.63,3.49.83.11.88-.18,1.72-.56,2.5-.31.67-.54,1.37-.87,2.03,2.54.62,2.62,3.68,1.64,5.64,1.14.31,1.74,1.44,1.95,2.53.4,1.24.69,2.57.34,3.86,2.98.26,3.22,3.42,4.48,5.52.86,1.37,1.82,2.7,2.07,4.32.2,1.17-.02,2.46-.91,3.3-.66.64-1.54,1.22-2.47,1.25Z"/>
  <path d="m126.71,51.52c-.15-1.32-.31-2.64-.46-3.95-.07-.73,0-1.46-.08-2.19-.26-.6-.31-1.25-.41-1.88-.08-.23-.15-.47-.11-.72-.3-.18-.04-.93.25-.47.04.08.05.15.04.24.07.17.23.31.23.51.01.34.11.65.23.95.02.23.06.46.08.68-.06.78.18,1.47.32,2.22.16.93.13,1.88.16,2.82.04.55.1,1.09.23,1.63.04.14.01.34-.14.41-.16.08-.3-.09-.33-.24Z"/>
  <path d="m98.92,26.88c-.35-.39-.78-.69-1.19-1.01-.29-.26-.47-.62-.72-.92-.2-.26-.48-.46-.68-.72-.32-.45-.55-.96-.99-1.31-.18-.17-.32-.39-.52-.54-.18-.11-.2-.53.07-.56.08,0,.16.04.21.09.39.39.65.88,1.01,1.29.17.17.39.27.55.45.21.22.36.49.54.73.35.44.86.74,1.1,1.27.24.34.47.67.77.96.13.11,0,.42-.16.27Z"/>
  <path d="m95.56,26.51c-.32-.54-.9-.85-1.21-1.4-.21-.43-.54-.76-.86-1.12-.26-.29-.4-.67-.67-.94-.18-.22-.59-.4-.49-.73.03-.06.09-.12.16-.11.33.16.49.6.77.85.43.29.71.7,1,1.12.22.27.47.46.66.74.33.43.48.96.81,1.39.1.12-.05.36-.17.19Z"/>
  <path d="m91.34,26.76c-.4-.41-.46-1.09-.8-1.56-.19-.26-.43-.48-.59-.76-.13-.31-.36-.56-.51-.86-.02-.24-.21-.37-.2-.56,0-.11.14-.15.19-.05.05.08.05.16.09.24.15.11.25.26.34.42.09.23.29.39.43.59.14.27.27.56.4.82.13.3,1.39,1.65.64,1.72Z"/>
  <path d="m88.45,26.76c-.37-.77-.69-1.55-1.23-2.23-.2-.35-.35-.73-.56-1.07-.06-.19-.13-.38-.22-.56-.07-.17.15-.34.24-.13.06.17.17.27.28.41.16.27.3.55.5.8.28.45.4.97.66,1.43.21.37.46.69.65,1.07.06.11.06.26-.04.35-.09.08-.22.04-.27-.06Z"/>
  <path d="m85.81,26.96c-.32-.82-.65-1.64-.78-2.52-.15-.42-.41-.85-.37-1.3.08-.35.43-.2.43.1.1.69.34,1.31.66,1.92.21.52.32,1.07.49,1.61.11.33-.29.6-.43.2Z"/>
  <path d="m83.31,26.99c-.09-.74-.4-1.41-.59-2.12-.02-.31-.18-.58-.25-.87.02-.25-.13-.45-.14-.69,0-.14.17-.2.22-.06.05.36.13.43.26.73.09.43.29.81.38,1.24.09.58.21,1.14.36,1.71.04.19-.19.28-.24.06Z"/>
  <path d="m80.57,27.9c-.04-.99-.21-1.93-.1-2.9.02-.43-.16-.88-.04-1.3.06-.14.21-.19.32-.08.17.2.04.5.07.73-.09.6.12,1.15.15,1.73.01.6,0,1.2.05,1.79.02.39-.43.42-.45.03Z"/>
  <path d="m79.22,28.33c-.07,0-.11-.1-.1-.16.02-.21.03-.42.05-.63-.08-.85-.05-1.7-.14-2.54,0-.41.07-.81-.02-1.22-.16-.56.41-.61.32-.02-.06.5.14.97.11,1.47-.04.36.09.72.08,1.08,0,.42-.07.84-.12,1.26-.02.21-.03.43-.05.64,0,.06-.05.14-.12.13Z"/>
  <path d="m77.3,28.4c-.36-.16-.15-.61-.12-.91.16-.56.13-1.13.11-1.71.1-.68.12-1.18.17-1.85,0-.24.17-.8.47-.49.19.28-.13.61-.11.93-.17.53.02,1.06,0,1.6-.13.45.12,2.56-.51,2.43Z"/>
  <path d="m74.52,29.4c-.07-.07-.08-.2-.03-.29.37-.64.67-1.26,1.03-1.9.26-.45.24-.98.39-1.46.14-.3.12-.64.23-.94.12-.26.17-.51.27-.77.06-.16.3-.28.33-.04,0,.08-.05.14-.1.2-.09.15-.15.3-.18.48,0,.28-.06.55-.15.81-.03.5-.16.97-.41,1.4-.22.78-.49,1.55-.99,2.2-.1.11-.2.44-.39.28Z"/>
  <path d="m72.61,29.43c-.06-.06-.07-.16-.02-.23.2-.31.36-.65.5-.99.23-.58.58-1.11.91-1.64.14-.33.18-.69.38-.99.25-.3.31-.71.63-.96.12-.16.16-.37.33-.48.18-.06.25.28.07.32-.19.2-.28.44-.38.7-.15.26-.31.5-.39.79-.18.4-.53.71-.62,1.16-.24.85-.82,1.53-1.24,2.29-.04.07-.12.08-.17.03Z"/>
  <path d="m69.25,29.04c-.13-.25.22-.39.36-.55.29-.23.51-.52.72-.82.41-.71,1.16-1.12,1.59-1.8.2-.47.73-.66,1.02-1.05.19-.24.52-.31.7-.56.12-.13.4-.55.54-.23.06.21-.19.29-.31.42-.37.24-.53.68-.91.91-.33.4-.62.75-1.07,1.01-.33.43-.58.89-.96,1.27-.37.42-.84.74-1.21,1.16-.13.1-.32.45-.48.24Z"/>
  <path d="m62.31,31.19c-.04-.09-.02-.21.06-.27.35-.25.71-.5,1.07-.74.38-.27.72-.6,1.16-.78.4-.23.67-.61,1.04-.87.47-.3.86-.71,1.38-.92.72-.52,1.36-1.16,2.18-1.53.32-.36.73-.62,1.15-.84.15-.15.27-.33.46-.42.16-.07.29-.16.42-.26.18-.07.35-.1.5-.22.14-.13.27.1.13.19-.2.06-.36.16-.51.31-.18.08-.34.19-.48.33-.35.17-.64.37-.92.66-.38.3-.83.46-1.14.85-.46.3-.87.69-1.38.92-.61.51-1.22,1.02-1.87,1.47-.48.25-.88.58-1.27.96-.59.42-1.19.82-1.79,1.23-.08.05-.17,0-.2-.09Z"/>
  <path d="m54.5,31.71c-.04-.13,0-.31.13-.37.57-.27,1.12-.57,1.69-.83.73-.17,1.35-.53,1.98-.92.5-.26,1.06-.39,1.55-.68.51-.26,1.11-.25,1.6-.55.51-.31,1.05-.52,1.61-.71.43-.28.92-.42,1.42-.51.43-.17.79-.47,1.2-.68.39-.18.81-.27,1.21-.42.38-.26.71-.59,1.17-.69.35-.17.62-.45,1.02-.53.27-.11.48-.32.71-.5.07-.12.22-.24.33-.09.16.23-.07.43-.26.54-.37.19-.69.41-1,.69-.32.15-.64.29-.9.52-.3.19-.65.23-.98.33-.36.21-.69.45-1.06.65-.6.26-1.27.35-1.78.8-.61.34-1.3.5-1.93.82-.67.11-1.25.38-1.82.73-.91.35-1.77.84-2.72,1.08-.78.34-1.45.9-2.25,1.2-.28.08-.74.56-.9.12Z"/>
  <path d="m106.18,27.38c-.55-.38-1.07-.8-1.45-1.35-.42-.35-.9-.65-1.29-1.04-.35-.4-.73-.77-1.21-1.04-.37-.15-.66-.42-.96-.67-.34-.13-.58-.41-.89-.56-.18-.1-.11-.49.12-.35.23.12.64.08.71.39.2.2.47.28.69.45.35.25.62.59.95.86.79.44,1.4,1.07,1.99,1.74.57.29.99.76,1.49,1.14.22.13.15.61-.15.43Z"/>
  <path d="m104.38,23.85c-.01-.07.02-.17.11-.17s.15.09.16.17c.01.07-.02.17-.11.17s-.15-.09-.16-.17Z"/>
  <path d="m108.08,27.43c-.77-.45-1.28-1.18-1.91-1.79-.52-.22-.83-.71-1.29-1.02-.26-.2-.45-.49-.73-.67-.16-.11-.51-.27-.35-.5.08-.07.19-.02.23.06.31.35.78.51,1.1.84.29.29.7.46.93.81.24.35.57.61.91.85.43.33.79.74,1.2,1.08.16.1.11.45-.11.32Z"/>
  <path d="m110.71,28.34c-.68-.41-1.09-1.12-1.74-1.57-.27-.11-.45-.33-.64-.54-.49-.34-.82-.76-1.31-1.09-.23-.33.27-.38.31-.09.35.33.83.51,1.14.9.4.21.62.6.93.91.49.38.99.75,1.44,1.19.07.05.1.16.07.24-.03.09-.13.11-.2.06Z"/>
  <path d="m113.26,28.63c-.92-.79-1.86-1.55-2.83-2.28-.12.03-.22-.05-.29-.15-.09-.03-.16-.1-.18-.19-.48-.15-.26-.76.11-.26.08-.02.16.04.2.1,0,0,0,.01.01.02.04.02.08.04.11.06.07.05.1.12.12.2.94.79,1.93,1.48,2.84,2.29.11.08.04.32-.11.21Z"/>
  <path d="m116.11,29.53c-.55-.46-.98-1.06-1.65-1.34-.35-.25-.69-.52-1.06-.75-.2-.21-.38-.27-.6-.42-.12-.09-.09-.36.09-.24.21.2.48.3.74.42.3.26.68.39.98.64.49.55,1.15.87,1.66,1.38.17.13.06.49-.16.31Z"/>
  <path d="m116.94,29.36c-.51-.28-1.01-.59-1.51-.89-.2-.12-.35-.48-.13-.64.08-.05.18-.04.25.01.49.34.98.67,1.49.97.27.12.25.7-.11.55Z"/>
  <path d="m93.82,27.14c-.28-.54-.64-1.03-.93-1.56-.26-.45-.35-1-.76-1.36-.25-.39-.4-.83-.69-1.2-.12-.16-.17-.36-.27-.53-.1-.11-.22-.22-.29-.35-.06-.1.03-.34.16-.21.11.12.2.25.27.4.41.36.58.9.93,1.31.12.16.2.34.25.54.17.45.53.79.74,1.22.26.53.45,1.08.76,1.58.09.12-.06.34-.17.17Z"/>
  <path d="m98.2,27.74c-.46-.52-.79-1.11-1.15-1.69-.59-.53-.97-1.23-1.44-1.86-.4-.23-.62-.64-.9-.98-.37-.31-.56-.78-.96-1.17-.08-.1-.15-.23-.1-.36.04-.17.24-.18.3-.02.13.55.68.8.96,1.24.2.21.4.42.59.63.17.36.42.7.69.97.61.51.85,1.31,1.42,1.85.31.33.55.72.82,1.07.07.09.08.23.01.32-.06.09-.18.08-.24,0Z"/>
  <path d="m101.43,27.87c-.57-.55-1.17-1.09-1.71-1.67-.35-.63-.97-1.04-1.46-1.57-.5-.57-.93-1.21-1.52-1.69-.35-.21-.56-.54-.83-.83,0,0-.02,0-.02,0-.1-.03-.15-.13-.16-.23-.49-.22-.15-.87.16-.27.08-.02.17.06.2.13.14.21.37.37.55.55.17.23.32.47.49.69.57.59,1.22,1.11,1.73,1.76.37.55.87.97,1.35,1.42.41.51.93.92,1.38,1.38.16.13.02.5-.18.33Z"/>
  <path d="m82.2,27.61c-.11-.84-.12-1.69-.45-2.48-.06-.47-.23-.91-.27-1.38-.09-.25-.21-.5-.2-.77.02-.16.2-.18.24-.02.06.39.17.77.34,1.12.07.34.19.66.27,1,.03.85.3,1.66.38,2.5.02.26-.29.3-.31.03Z"/>
  <path d="m66.71,29.53c-.06-.1-.05-.26.06-.32.24-.1.49-.24.66-.45.2-.33.53-.53.82-.78.27-.41.7-.62,1.1-.88.28-.31.55-.62.86-.89.43-.32.93-.53,1.25-.97.3-.38.72-.62,1.09-.93.14-.1.26-.23.39-.35.17-.01.33-.09.46-.21.08.08.08.24,0,.32-.54.45-1,.99-1.56,1.41-.67.28-1.04.9-1.59,1.32-.46.33-.94.61-1.24,1.11-.22.25-.53.38-.76.63-.21.28-.5.45-.79.61-.14.11-.39.45-.59.45-.05,0-.1-.02-.14-.08Z"/>
  <path d="m61.76,30.17c-.07-.01-.09-.1-.06-.16.1-.17.28-.22.42-.34.26-.05.44-.23.67-.34.44-.19.88-.49,1.38-.71.36-.27.82-.39,1.18-.66.31-.16.61-.32.88-.54.31-.06.49-.34.75-.47.62-.33,1.13-.83,1.72-1.21.62-.53,1.29-1,1.89-1.55.21-.13.4-.27.58-.43.03.03.06.05.1.07.02.02.05.03.07.04-.12.08-.23.15-.35.23-.39.4-.87.67-1.28,1.05-.5.37-1,.74-1.47,1.15-.19.08-.35.21-.5.33-.26.18-.53.35-.77.57-.28.1-.49.29-.72.45-.62.31-1.21.67-1.82,1.01-.4.14-.74.41-1.12.59-.25.05-.42.26-.66.34-.29.1-.52.33-.8.46.01.05-.01.11-.07.11,0,0,0,0,0,0Z"/>
  <path d="m53.24,30.9c-.12.02-.25-.11-.12-.22.07-.01.14.03.21.03.11.02.2-.07.31-.1.17,0,.32-.09.47-.16.27-.03.5-.11.72-.25.3-.16.66-.14.94-.35.32-.14.67-.25,1.01-.35.33-.02.57-.26.88-.34.39-.18.83-.24,1.21-.44.34-.19.73-.26,1.09-.4.22-.18.51-.25.79-.28.32-.06.55-.31.86-.38.5-.06.93-.37,1.41-.51.28-.06.49-.25.72-.41.16-.05.33-.09.5-.13.68-.36,1.39-.68,2.07-1.05.46-.19.93-.34,1.34-.63.76-.32,1.56-.54,2.31-.88.13-.05.18.19.06.24-.76.26-1.47.6-2.18.95-.48.12-.91.32-1.34.57-.88.42-1.84.73-2.64,1.29-.4.04-.73.23-1.08.4-.38.17-.8.26-1.14.5-.28.08-.57.09-.83.22-.2.11-.41.26-.65.28-.4.06-.74.29-1.12.41-.46.07-.86.36-1.3.49-.33.14-.68.15-.98.35-.42.17-.85.3-1.29.41-.33.25-.77.25-1.11.46-.21.14-.46.15-.69.25-.14,0-.28,0-.42.02Z"/>
  <path d="m117.06,68.22c-.48-.14-.44-.7-.47-1-.13-1.18-.13-2.36-.03-3.54.09-.69-.12-1.34-.18-2.01-.09-.64.09-1.28.06-1.91-.18-.81-.11-1.66-.09-2.48-.05-.51-.25-1.01-.34-1.51-.2-.82-.12-1.6-.02-2.39.04-.4-.02-1.18.46-1.29.36-.2.69-.46.82-.86-.1-.24-.36-.43-.61-.29-.07.15-.28.11-.32-.05-.08-.27.08-.54.28-.72-.23-.17-.27-.49-.28-.75-.16-.84-.04-1.8-.06-2.63-.05-.91-.16-1.82.02-2.72.06-.58.21-1.16.2-1.74-.01-.18.03-.41.22-.48.11-.05.22-.02.3.02.14.06.32.12.41.24,1.38,1.26,1.73,3.24,1.75,5.03.76.76.8,1.86.81,2.85.04,1.62.05,3.31-1.02,4.56,1.09,1.88,1.33,4.19-.06,5.99.76,1.81,1.8,3.91.82,5.83-.52.8-1.28,1.59-2.25,1.74-.16.08-.32.2-.5.11,0,0,.07.02.07.02Z"/>
  <path d="m122.04,67.5c-.35-.1-.35-.55-.37-.85-.06-.54-.03-1.1.14-1.62.34-.82.71-1.9.03-2.64-.99.21-.63-1.17.21-.89.35-.95.42-1.91-.67-2.35-.15-.09-.32-.17-.41-.32-.15-.22-.06-.61.23-.66.89-.84-.21-2.23-1.14-2.46-.17.09-.36-.04-.35-.23,0-.21.16-.34.3-.47.39-.47.68-1.1.73-1.71-.04-.28-.18-.53-.3-.78-.11-.27-.35-.68-.69-.47,0,.08-.05.24-.17.19-.15-.07-.13-.3-.05-.42.14-.23.42-.25.63-.11.62.22,1.02.78,1.04,1.44.14.73.06,1.57-.52,2.1,1.26.33,1.61,1.95,1.01,2.98,1.2.68,1.69,2.48.83,3.61.38.53.33,1.21.39,1.83.13.84-.23,1.6-.43,2.4-.13.45.29,1.41-.44,1.44Z"/>
  <path d="m57.4,34.27c.95.35.52,2.38-.56,1.8-.5-.31-.52-1.15-.06-1.51.12-.22.38-.37.63-.29Z"/>
  <path d="m56.16,41.22c.01.21-.02.43-.04.62,0,.06,0,.11,0,.17.02.21.05.42.05.63,0,.2-.05.4-.08.57-.02.09-.03.18-.04.27,0,.06,0,.12-.01.18,0,.1.01.2.02.29,0,.07.02.13.03.2.01.08.01.16.02.24.01.15.02.3.02.46,0,.2-.01.41-.04.61-.01.11-.03.21-.04.32-.01.1-.03.19-.04.29,0,.06,0,.11,0,.15,0,0,0,.01,0,.02,0,.03,0,.06,0,.09,0,.05.01.1.02.13,0,.03.01.07.01.1.01.09.02.17.03.26.01.09.02.18.02.28,0,.16,0,.32-.01.44,0,.09-.02.17-.03.26,0,.08,0,.15,0,.19,0,.21.02.42.03.63,0,.16,0,.31-.01.47,0,.04,0,.08,0,.08,0,.03,0,.07,0,.1,0,.04,0,.07,0,.11,0,.04,0,.08-.01.12h0s0,.03,0,.05c0,.01,0,.02,0,.04,0,.04,0,.07-.01.09,0,.03-.01.05-.03.07-.02.06-.06.11-.13.12,0,0,0,0,0,0-.07,0-.13-.07-.15-.13,0,0,0,0,0,0-.03-.08-.03-.17-.04-.25,0-.03,0-.06,0-.1,0-.02,0-.04,0-.06,0-.06,0-.12,0-.14,0-.08,0-.16,0-.23,0-.17,0-.35.02-.52,0-.05,0-.09.01-.14,0,0,0,0,0,0,0-.01,0-.02,0-.02.01-.15.03-.3.02-.42,0-.11-.02-.22-.03-.33,0-.11,0-.22,0-.33,0-.12.02-.23.03-.35.02-.13.03-.25.06-.38.01-.07.02-.13.03-.19,0-.04,0-.08,0-.12,0-.14-.02-.27-.04-.4-.04-.27-.06-.54-.05-.82,0-.22.03-.44.05-.63,0-.1.02-.19.04-.29.02-.1.03-.2.04-.29,0-.06,0-.12,0-.17,0-.05,0-.09,0-.11-.03-.23-.08-.45-.09-.68-.02-.25.03-.5.06-.75,0-.03,0-.06,0-.08,0-.1-.01-.2-.02-.31,0-.13-.01-.25,0-.38,0-.21.06-.42.09-.63,0-.09.01-.18.01-.27,0-.1-.01-.2-.02-.3,0-.09,0-.19,0-.28,0-.1,0-.21.01-.31,0-.05.01-.11.05-.15.04-.05.11-.05.15,0,.04.05.05.11.05.17.01.12,0,.25,0,.36,0,.07,0,.14,0,.21,0,.07-.01.15-.02.22,0,.1-.01.19-.01.29,0,.05,0,.1.01.15.01.08.02.16.04.24.02.1.02.2.03.29Z"/>
  <path d="m57.04,47.74c.11.29-.02.61.03.92-.05.28.12,1.01-.26,1.01-.29-.07-.18-.52-.2-.71.02-.24-.07-1.74.43-1.22Z"/>
  <path d="m57.76,47.64c.57-.58.48,1.61.45,1.86-.04.34-.45.42-.57.08-.14-.63-.04-1.33.12-1.95,0,0,0,0,0,0Z"/>
  <path d="m60.37,48.28c-.02.3.19.93-.2,1.03-.14,0-.22-.13-.25-.25-.06-.36.07-.7.05-1.06,0-.13-.01-.29.07-.4.37-.25.29.49.32.68Z"/>
  <path d="m60.62,48.96c0-.4.06-.8.06-1.19-.01-.15.11-.46.3-.32.08.06.1.18.08.27-.04.41.03.82.06,1.22,0,.44-.47.46-.5.02Z"/>
  <path d="m61.47,48.9c.04-.27.08-.54.05-.82,0-.12-.06-.32.07-.4.08-.02.11.09.13.15.05.37.08.72.13,1.09.01.36-.4.33-.38-.02Z"/>
  <path d="m62.3,49.34c-.36-.08-.31-.53-.23-.81.05-.28-.03-.6.09-.86.44-.41.43.73.47.96.04.26.03.73-.33.71Z"/>
  <path d="m63,48.74c.07-.24-.15-1.46.35-1.09.16.34.08.75.15,1.11.01.47-.52.43-.5-.02Z"/>
  <path d="m63.83,49.24c-.17-.36,0-.79.03-1.16.03-.17,0-.4.13-.53.42-.16.24.84.32,1.08.03.25.13.6-.15.75-.13.06-.27-.02-.34-.14Z"/>
  <path d="m89.85,45.2s0,0,.01,0h-.01Z"/>
  <path d="m88.64,45.26c-.05,0-.1-.04-.14-.08-.06-.13-.05-.21.01-.27-.04-.28,0-.58-.06-.85-.12-.57-.08-1.28-.14-1.91.02-.27.12-.54.12-.81-.01-.27-.08-.52-.08-.78-.08-.62.04-1.17.02-1.77-.17-.7-.1-1.45-.01-2.14.05-.37.06-.69.18-1.02.21-.43.29-.9.54-1.31.09-.18.27-.29.44-.39.38-.29.79-.57,1.3-.52.84-.03,1.43.52,1.82,1.22.24.51.31,1.08.5,1.61.33.91-.03,1.92.03,2.84.06.72.28,1.34.17,2.05-.17.61-.03,1.29-.07,1.9-.03.29-.05.6-.02.89.02.32.24,1.01-.17,1.1,0,0,0,.01,0,.02,0,.02,0,.03,0,.05-.04,0-.08-.02-.12-.02-.25-.04-.51-.04-.76-.02-.25.01-.51.04-.76.08-.18.03-.37.07-.55.1.02,0,.05,0,.07,0-.09.01-.18.03-.27.04-.03,0-.07,0-.1.01-.09,0-.18.01-.27.02h-.01,0s-.02,0-.03,0c.01,0,.02,0,.03,0-.17-.04-.33-.08-.5-.11-.22-.04-.47-.07-.68.03-.06.03-.11.06-.16.1-.11,0-.21,0-.32-.02Zm.8-.41h0c-.14-.41,0-.89-.11-1.31-.12-.39-.09-.8-.1-1.21-.12-.46-.11-.93-.02-1.39-.02-.85-.27-1.71-.03-2.56.16-.63-.02-1.29.09-1.92.05-.47.27-.91.54-1.29.32-.65.82-1.15,1.48-1.46-.22-.06-.45.06-.67.11-.3.07-.64.18-.84.42-.34.4-.79.76-.94,1.29,0,.62-.09,1.13-.19,1.74.09.58,0,1.13-.07,1.7.08.59.21,1.17.12,1.77-.04.37-.11.75-.03,1.11.09.6-.02,1.2.06,1.81-.04.38-.09.75-.03,1.11,0,.02,0,.05,0,.07.07-.01.15-.02.24-.02.15,0,.33.01.5.03Z"/>
  <path d="m88.86,48.18c-.21-.04-.14-.3-.19-.45-.22-.27-.31-2.63.34-2.16.4.63.22,1.46.06,2.14-.01.16.02.47-.21.46Z"/>
  <path d="m89.79,47.83c.01-.14.01-.3,0-.43-.05-.48-.14-.96-.12-1.45,0-.12.01-.26.1-.34.17-.15.33.08.34.24.08.52-.03,1.06-.05,1.57,0,.13,0,.25.03.37.04.27-.28.33-.3.04Z"/>
  <path d="m90.71,47.82c-.14-.02-.16-.18-.15-.28,0-.18-.05-.34-.06-.52.02-.49-.13-1.08,0-1.54.07-.14.26-.12.32.01.08.17.07.37.06.55,0,.39.05.79,0,1.18-.03.19.12.58-.17.59Z"/>
  <path d="m91.47,47.94c-.21-.28-.11-.69-.16-1.03-.05-.3-.25-1.79.36-1.43.29.42.23.99.22,1.47-.04.36.18.86-.2,1.05-.08.02-.16-.01-.22-.07Z"/>
  <path d="m92.37,47.71c-.06-.13-.06-.25-.07-.36-.03-.61-.08-1.26.09-1.85.09-.17.31-.1.35.07.1.47.09,1.06.11,1.52-.01.2.02.42-.05.6-.05.28-.36.29-.44.02Z"/>
  <path d="m67.38,35.27c-.77-.25-.63-1.46.08-1.69.2-.15.5-.17.68.01.27.24.27.64.23.97-.01.5-.51.87-.99.71Z"/>
  <path d="m52.44,34.54s-.09-.06-.14-.09c-.49-.28-.74-.75-1.27-.96-.17-.09-.32-.21-.46-.34-.43.08-.86.18-1.3.18.55.33.88.92,1.34,1.34.26.23.58.37.89.5.28.12.49.35.75.5.07.03.13.07.2.11,0-.31-.03-.62-.04-.95,0-.1,0-.2.01-.3Zm.17-1.25s.02-.1.05-.14c-.08.01-.16.02-.24.02-.34,0-.69-.03-1.03-.04.1.08.21.16.32.22.29.12.58.26.83.45.03-.17.05-.33.07-.5Zm1.17,1.49c.04-.4.14-.83.08-1.22-.03-.24-.06-.49-.09-.73-.28.11-.55.21-.84.27.1.08.11.26.13.38.02.31.07.61.1.92.18.16.41.26.63.37Zm.1,2.73c-.03-.22.06-.46.03-.68,0-.54-.15-1.01-.16-1.52-.02,0-.04-.01-.05-.03-.18-.13-.35-.28-.53-.4,0,.01,0,.02,0,.03-.11.52-.12.99-.13,1.46.02.09.02.19,0,.29-.01.27-.03.55-.09.84.31-.04.62-.03.93-.01h.02Zm.65,7.81s0,0-.01,0h0c-.42-.03-.84.03-1.25-.04-.1,0-.2-.02-.28-.07,0,.03,0,.06,0,.09,0,.28-.07.56-.1.84,0,.04,0,.08-.01.11,0,.08-.01.17,0,.25,0,.05,0,.1,0,.13,0,.03,0,.06.01.07.03.16.05.33.06.49,0,.01,0,.03,0,.05.08-.05.2-.08.34-.04.4.06.8.04,1.21.05-.04-.41-.05-.83-.03-1.25,0-.23.03-.45.06-.68Zm0,3.71c.05-.25.11-.5.08-.74-.02-.2-.05-.39-.07-.59-.18.11-.5.08-.68.09-.28-.02-.58,0-.85-.08,0,0-.02-.01-.02-.02,0,.02,0,.04,0,.06,0,.15.01.29,0,.44-.01.16-.02.33-.04.49,0,.09-.02.18-.04.27,0,.09-.01.19-.01.26,0,.05,0,.1,0,.16,0-.02.02-.05.04-.08.12-.12.32-.09.47-.1.29-.01.59-.05.87-.12.08-.02.16-.04.24-.04Zm.12-4.37c.07-.42.14-.84.13-1.27-.04-.59-.03-1.17.07-1.74-.12,0-.26-.03-.41-.08-.32-.03-.63-.17-.96-.14-.17,0-.36,0-.54-.04,0,.07,0,.13,0,.2,0,.18,0,.37,0,.55,0,.17-.04.35-.05.52,0,.07,0,.14,0,.21,0,.1.01.19.02.26,0,.02,0,.03,0,.05.03,0,.05,0,.08,0,.42-.07.85-.12,1.27-.1.22-.04.44.03.45.29.02.27-.18.35-.41.36-.3.05-.6.08-.91.07-.14,0-.28-.02-.41-.05,0,.17,0,.33-.02.47,0,.04,0,.07-.01.11,0,.04,0,.08-.01.12,0,.06,0,.12,0,.18,0,.04,0,.08.01.12,0,.03,0,.05.01.08.14-.09.35-.07.51-.12.38.02.81-.16,1.15-.05.01,0,.03,0,.04.02Zm.42-4.91c0-.11,0-.22.02-.33-.31.06-.62.08-.92-.01-.44-.07-.91-.02-1.32-.22.06.41-.08,1.3-.07,1.46,0,0,.01,0,.02,0,.71.04,1.32.23,2.04,0,.04-.1.07-.2.1-.3.02-.14.06-.28.1-.41,0,0,0-.02,0-.03.01-.06.02-.13.02-.19Zm3.09-3.59c.11-.23.11-.52.13-.77-.02-.44-.01-.95-.38-1.26-.32-.23-.95.16-1.07-.34,0,.08-.05.17-.14.18-.29.17-.47.5-.64.78-.16.39-.05.82-.01,1.23.07.51.65.51,1.06.49.28,0,.54-.09.81-.12.11,0,.18-.09.24-.18Zm.86-1.53c.04-.68-.18-1.32-.27-1.99-.05,0-.1.01-.14.02-1.43.33-2.9-.36-4.31,0-.02,0-.03.01-.05.02.03.45.01.9.04,1.36.2.79.28,1.6.21,2.4.02.34.04.56.11.86.02.07.03.15.02.22.66.15,1.27-.17,1.9-.34-.1-.05-.2-.12-.29-.18-.79-.4-.8-1.29-.54-2.02.08-.37.11-.77.39-1.04.14-.15.28-.37.51-.35.1-.02.19.02.22.12.04-.5.37-.33.69-.19.4.18.8.41,1.02.81.33.61.26,1.46-.1,2.04-.16.27-.31.6-.61.72-.02.01-.04.02-.06.04.41.02.82,0,1.23-.01.01-.19.05-.38.05-.53-.02-.65-.1-1.3,0-1.93Zm2,3.58c-.06-.02-.08-.13-.05-.19-.42-.04-.83.11-1.25.08-.53.01-1.03-.23-1.56-.11-.69.11-1.4.11-2.1.09-.5-.07-.96-.09-1.44.03-.07.01-.12,0-.17-.03h0s-.06,0-.1-.01c-.51-.04-1.03-.02-1.53-.13-.03-.03-.06-.06-.09-.09-.04.04-.09.06-.15.04-.07.18-.07.39-.08.58.05.18.26.12.4.13.36,0,.66.21,1.01.24.34,0,.67-.15,1.02-.12.44,0,.87.16,1.31.08.83-.27,1.7-.3,2.57-.31.56-.12.49.61.45.95.03.45.14.89.13,1.34,0,.51-.19,1.01-.16,1.52.05.69-.26,1.36-.17,2.04.09.61.29,1.31-.06,1.86-.09.07-.2.12-.32.16.36.09.71.21,1.08.12.36-.07.71-.03,1.05.04,0-.12.02-.24,0-.34-.78-.13-.39-1.22-.36-1.75.02-.37-.1-.74-.11-1.11-.03-.47.08-.93.13-1.39.05-.7-.15-1.37-.16-2.06-.06-.29.03-.6.26-.8.3-.2.44-.51.44-.84Zm2.32.17s-.09-.04-.14-.06c-.42-.06-.88.03-1.28-.12-.18-.05-.35-.03-.52,0h0c.01.09.03.18.04.27.02,0,.04,0,.06,0,.48,0,.96-.12,1.45-.07.13,0,.26,0,.39,0Zm.5-3.27c.16.08.31.19.43.31-.25-.46-.64-.87-1.18-.94-.4,0-.76.24-1.16.29-.2.03-.39.08-.56.19-.31.23-.66.42-.93.7-.32.41-.47.94-.55,1.44,0,.01,0,.02,0,.03.22.03.44.07.65.15,0-.05.01-.1.02-.14.08-.52.39-.93.67-1.34.21-.46.59-.75,1.04-.94.18-.1.42-.24.63-.22.38-.04.63.3.92.48Zm.46,11.04c.01-.13.01-.26,0-.39-.02.03-.05.06-.09.08-.15.09-.32.06-.49.04-.6-.13-1.19-.33-1.81-.24-.19-.04-.62.02-.95-.01,0,.05-.02.11-.04.16.22.12.21.4.2.62,0,.04.01.11.01.18.22.05.44.1.66.12.33,0,.64-.12.96-.16.48-.11.97-.19,1.44-.33.03,0,.06-.01.1-.02,0-.01,0-.03,0-.04Zm.61-9.29c.19-.07.39-.11.58-.1-.1-.08-.16-.21-.21-.32-.18-.5-.41-.98-.55-1.5-.27-.84-.86-1.53-1.09-2.4-.04-.11-.04-.25,0-.37-.23.06-.46.11-.7.14-.81.13-1.61-.11-2.41-.06-.45.07-.88.21-1.31.31.12.57.09,1.16.22,1.73.23.72.29,1.44.21,2.19.07-.27.18-.53.36-.74.2-.3.36-.68.6-.94.24-.28.63-.41.98-.46.16-.07.28-.18.44-.25.2-.1.43-.17.65-.16.26.05.52.2.76.31.99.16,1.39,1,1.39,1.92,0,.17.16.4.03.54.01.06.02.11.02.17.02,0,.03,0,.05,0Zm.65,5.88c0-.1.01-.2,0-.3,0-.15-.02-.3-.03-.45,0-.02,0-.05,0-.07,0-.02,0-.05-.01-.07-.03-.17-.05-.34-.05-.51,0-.16,0-.33.02-.48,0-.01,0-.02,0-.04,0,0,0-.01,0-.01.01-.11.03-.22.04-.33,0-.09.01-.18,0-.26-.01-.23-.04-.45-.05-.64,0-.1,0-.19,0-.29-.12.02-.25-.01-.34-.1-.17-.18-.39-.32-.55-.5,0,.35-.01.7-.04,1.06.04.52.12,1.02.02,1.52,0,.55.11,1.08-.07,1.61-.02.84.21,1.7.06,2.53-.02.11.01.26.04.42.01-.02.03-.04.05-.05.16-.17.54-.45.84-.45-.02-.13-.03-.26-.04-.39,0-.22,0-.44,0-.66,0-.21.02-.42.01-.59,0-.34.05-.67.08-.97Zm-.04-8.32c.1-.68.11-1.34.02-2.01.02-.09,0-.28-.02-.49-.28,0-.55,0-.83.02-.15.02-.29.04-.43.07.03.04.05.07.07.11.24.5.45,1.02.5,1.58-.03.31.41,1.14.7,1.86-.02-.39-.05-.78-.02-1.14Zm3.42.93c.23-.57.2-1.29-.03-1.85-.1-.11-.26-.17-.35-.3-.29-.16-.57-.34-.85-.48-.38-.04-.66.29-.98.45-.1.07-.19.16-.26.25-.18.34-.3.71-.32,1.09.01.03,0,.06,0,.09.02.25.04.5.01.76.06,0,.13.02.2.08.18.23.42.45.74.39.38-.05.67.07,1.03.04.33-.05.68-.19.82-.51Zm3.48,1c-.05-.09-.07-.2-.08-.32-.06-.09-.11-.2-.15-.29-.25-.5-.37-1.07-.62-1.58-.51-.69-.91-1.44-1.01-2.29-.03-.16-.11-.36-.12-.54-.1,0-.2-.01-.3-.02-1.28-.24-2.43.38-3.66.57-.15.02-.29.03-.44.04.02.48,0,.97-.04,1.45,0,.09.01.18.02.27.09-.19.22-.37.34-.53.13-.22.26-.45.46-.61.31-.24.74-.2,1.11-.22.57-.06.92.38,1.06.89.43.69.71,1.6.28,2.36-.46.48-.95,1.15-1.7,1.11-.5-.11-1.09-.12-1.46-.5.01.12.03.25.03.37,0,.13-.02.23-.07.3.09-.01.19-.04.28-.05.34-.08.68.04,1.02.07.58-.03,1.13-.27,1.71-.28.6.16,1.25.06,1.86.04.51-.23.96-.2,1.48-.21Zm.2-4.46c0-.28-.06-.57-.08-.86-.49.11-.99.22-1.49.27.03.11.05.23.09.31.39.79.51,1.69.89,2.48.16.27.29.56.41.85.05-.27.09-.51.1-.67-.07-.81-.01-1.59.09-2.39Zm.48,5.72c.03-.17.06-.34.09-.49-.54.09-1.1.15-1.64.03-.43-.22-.79-.23-1.25-.18-.43-.02-.81.07-1.2.2-.52.05-1.04-.04-1.55-.07-.3,0-.57.15-.87.17-.24.01-.48-.04-.72-.07-.31.01-.63.04-.92-.09-.09-.03-.16,0-.24,0,0,.05,0,.1-.03.15-.03.07-.06.11-.09.16-.08.1-.09.23-.09.35.12,0,.25-.01.37-.01.08,0,.17,0,.25,0,.07,0,.14,0,.21,0,.19.01.37.04.56.04.12,0,.23-.01.33-.03.12-.02.23-.05.35-.08.12-.03.25-.04.38-.05.26-.02.51.05.76.06.07,0,.13,0,.2-.02.13-.02.25-.05.38-.07.13-.02.26-.02.39-.01.16.01.31.05.46.08.08.01.15.03.23.04.06,0,.12.01.19.02.14,0,.28,0,.42-.02.13-.03.26-.07.39-.1.08-.01.16-.02.24-.03.05,0,.11-.02.16-.02.03,0,.05-.01.08-.01h.04c.25-.05.51-.07.76-.05.14,0,.27.02.41.04.12.01.24.02.33.04.03,0,.06,0,.09,0,.02,0,.03,0,.05,0,.03,0,.06,0,.09.01.09.01.18.01.27.02.04,0,.07,0,.11,0Zm2.16-3.53s-.07-.09-.07-.14c.03-.46-.14-.91-.08-1.36-.03-.6-.23-1.22-.23-1.82-.54.07-1.08.1-1.62.13-.11.02-.22.04-.34.06.02.27,0,.56,0,.64.06.79.3,1.57.15,2.37-.08.41.23,1.78-.01,2.35.08,0,.15.03.21.09,0,0,.01.01.02.02.18-.91.48-1.55,1.66-2.16.1-.07.2-.13.29-.18Zm.53.73c.14-.11.29-.19.45-.27-.44.1-.86.24-1.27.44-.32.23-.48.61-.74.91-.16.19-.36.36-.49.57-.41.99.09,2.09-.24,3.11-.04.36-.12.72-.15,1.08,0,.45.17.82.22,1.25.06.33,0,.66,0,1,.04.45.12.85.04,1.29-.01.22.04.42.09.63.07,0,.15,0,.22,0,.21,0,.43.03.63.04-.08-.36,0-.76-.07-1.12-.19-.79-.31-1.58-.24-2.4-.12-.9-.31-1.81-.09-2.7.22-.81.36-1.63.57-2.44.24-.55.61-1.02,1.09-1.37Zm.54-1.09c0-.42.03-.83-.04-1.25-.04-.35.03-.62.03-.95,0-.1-.1-.69-.09-1.04-.08.02-.15.05-.23.06-.23.06-.46.11-.69.15h0c.03.55.06,1.07.02,1.6.01.39.11.77.07,1.17-.02.16.11.37.07.52.32-.13.62-.16.91-.1-.02-.04-.04-.1-.04-.17Zm2.65-2.04c.01-.5-.03-1-.05-1.5-.48,0-.97-.09-1.46-.04-.08.01-.15.02-.23.04.19.82.6,1.54.75,2.37.35.68.66,1.36.78,2.13,0,.01.01.02.02.04.07-.55.08-1.11.02-1.67.01-.46.11-.9.16-1.36Zm3.61,3.78c.08-.02.17-.04.25-.04-.13-.26-.23-.54-.34-.79-.21-.36-.5-.67-.66-1.06-.12-.5-.56-.89-.45-1.43-.28-.72-.55-1.43-.84-2.14-.38.07-.75.13-1.13.17,0,0,0,0,0,0,.03.57-.03,1.13.01,1.7.2.84.09,1.68.07,2.53,0,.27-.03.54.04.8.02.2.07.4.05.59.24,0,.48,0,.71-.03.31-.05.59-.2.91-.22.16-.01.33,0,.49,0,.3.01.6.03.9-.07Zm.44-.5c0-.13,0-.27-.02-.4-.06-.4-.23-.77-.22-1.17.06-1.13-.26-2.23-.19-3.36,0-.1.02-.2.06-.3-.43.06-.87.13-1.3.13-.12.02-.25.03-.37.05,0,.01.01.02.01.03.24.65.5,1.31.74,1.96.19.11.31.33.37.54,0,.27.16.49.26.73.17.4.24.84.39,1.26.08.18.17.35.27.52Zm4.26.32v-.03s0-.05,0-.08h0s0-.05,0-.07c-.01,0-.03-.01-.04-.02-.03.02-.08.02-.14.01-.19-.26-.28-.59-.39-.9-.16-.44-.48-.81-.67-1.24-.21-.42-.28-.89-.46-1.31-.29-.53-.54-1.08-.67-1.68-.01-.03-.02-.07-.02-.11-.15-.04-.31-.09-.46-.15-.27-.06-.53-.08-.8-.07.32.55.01,1.66-.07,2.18-.13.5-.09,1.01-.11,1.52.01.46-.19.93-.18,1.39.01.24.05.47.06.69.15.01.29.03.43.05.36.05.73.1,1.09.04.82-.23,1.61-.23,2.42-.23Zm-.19-3.3c.05-.45.25-.87.22-1.33-.02-.33-.04-.66-.03-.99-.51.13-1.02.25-1.53.27.18.51.33,1.04.42,1.58.36.75.6,1.52.77,2.34.02.05.05.13.1.23.02-.28.06-.55.07-.83-.04-.42-.07-.85-.01-1.27Zm.44,13.18s0-.07,0-.08c-.01-.1-.03-.19-.05-.29-.01-.08-.02-.16-.03-.25-.02-.18.01-.37.02-.55,0-.2-.04-.39-.04-.59,0-.21.02-.42.05-.62,0,0,0,0,0-.01h0c0-.07,0-.14.01-.21,0-.04,0-.08,0-.13-.02-.17-.06-.34-.08-.5-.02-.15-.03-.3-.03-.45,0-.21.02-.41.02-.62,0-.17-.02-.34-.04-.51-.01-.14-.01-.28-.01-.42,0-.12.01-.23.02-.35.01-.16.04-.33.05-.46,0-.08.01-.15.01-.23,0-.08,0-.16-.01-.24-.02-.15-.05-.29-.08-.44-.03-.18-.05-.35-.05-.53,0-.21,0-.42.01-.63-.29,0-.58,0-.88-.01-.71-.15-1.37.07-2.05.25-.45.1-.91,0-1.36-.04-.22,0-.43.04-.65.08-.21.04-.43.08-.64.08-.05,0-.11,0-.16,0-.59-.14-1.18-.16-1.79-.06-.09-.02-.23,0-.39,0-.37.03-.79.05-.74-.31.04-.24.32-.21.5-.21.13,0,.26,0,.39,0,.2,0,.41-.02.61,0,.66.09,1.25-.28,1.9-.3.42.06.83,0,1.24-.06.34-.05.68-.1,1.02-.08.53.05,1.06.26,1.6.14.43-.11.9-.21,1.35-.24,0-.12,0-.24,0-.35,0-.02,0-.04,0-.06-.56.13-1.12.27-1.68.16-.39-.01-.78-.12-1.17-.05-.5.09-.99.29-1.5.29-.09,0-.17,0-.26-.02-.48-.11-.96-.03-1.44,0-.17,0-.33-.03-.49-.06-.2-.04-.4-.08-.6-.05-.15.01-.54.1-.86.11-.12.05-.24.03-.35-.04,0,0,0,0,0,0-.05-.02-.08-.05-.1-.09-.13-.15-.21-.38-.16-.59.01-.05.02-.11.03-.16-.06-.16-.12-.33-.19-.49-.43-.58-.68-1.27-.94-1.93-.51-.61-.6-1.38-.64-2.14,0-.16-.08-.33-.11-.49-.12.04-.24.08-.36.12.07.61.05,1.23.21,1.84.02.26,0,.53-.01.79.03.23.08.45.08.69,0,.13-.04.21-.1.26.13.06.26.13.38.21.03,0,.07,0,.1.01.15.05.26.18.31.33,0,0,0,0,0,0,.12.11.24.24.36.38.4.49.57,1.09.64,1.71.21.98.31,1.98.15,2.97-.07.81.21,1.58.15,2.38-.09.95.05,1.88,0,2.83.02.26-.1.42-.25.46,0,0,0,.01,0,.02.01.13-.03.28-.14.36-.05.04-.11.05-.17.04-.04,0-.08.01-.12.01h-.04s-.1,0-.14,0c-.06,0-.13,0-.14,0-.17,0-.34.01-.51.01-.04,0-.07,0-.11,0-.24,0-.5-.06-.69-.13l-.06-.02s-.04-.02-.06-.03c-.04-.01-.09-.02-.1-.03-.08-.02-.15-.04-.23-.05-.03,0-.05-.01-.08-.02-.03,0-.06-.01-.09-.02-.13-.02-.26-.03-.37-.04-.03,0-.07,0-.1,0-.13,0-.26.01-.4.01-.15,0-.3-.02-.45-.02h-.02c-.08,0-.15,0-.2,0-.19,0-.37-.01-.56-.03-.09-.01-.19-.03-.25-.11-.07-.08-.07-.2-.02-.29-.02-.04-.03-.09-.04-.12-.03-.36-.1-.67-.2-1.01,0-.75-.25-1.46-.21-2.21.08-.49.04-.97-.05-1.43-.1-.71-.07-1.43.05-2.13-.1,0-.19.02-.28.03-.02,0-.03,0-.05.01-.04,0-.07.02-.08.02-.03.01-.07.01-.1.02-.02,0-.04,0-.06.01-.02,0-.04,0-.05,0-.01,0-.02,0-.03,0-.02,0-.04,0-.07.01-.07.01-.15.02-.22.04-.1.01-.19.03-.29.04-.16.01-.32.02-.49.02-.18,0-.35-.03-.52-.05-.1-.01-.2-.01-.3-.02-.11-.01-.22-.04-.33-.07-.07-.01-.14-.02-.2-.02-.15,0-.3,0-.44.03-.08.01-.16.03-.24.05.03.05.04.11.05.17.01.34-.05.68-.05,1.02-.17.74-.04,1.45-.02,2.19-.06,1.1.09,2.19-.07,3.28.09.27.15.61-.17.75-.35.11-.72.26-1.1.18-.2-.07-.43-.11-.61-.23-.2-.16-.18-.43-.16-.66.03-.32.05-.61.11-.91.17-.51.1-1.04.06-1.55-.03-.45.09-.91.15-1.35.04-.34-.07-.66-.08-.99,0-.15.03-.3.04-.45,0-.21-.07-.38-.05-.59.01-.17.13-.31.24-.42.11-.11.17-.24.24-.37-.06,0-.13.01-.19.02-.18.04-.36.07-.54.07-.02,0-.03,0-.05,0-.19,0-.37-.04-.56-.07-.1-.02-.21-.03-.31-.04-.16,0-.32.01-.48.03-.08.01-.15.02-.23.03-.07,0-.15,0-.19,0-.1,0-.19,0-.29,0-.09,0-.17,0-.26,0,.1.12.27.21.36.3.15.1.27.32.47.23.02,0,.04,0,.06.01.04-.04.1-.06.17-.06.16.02.25.19.26.34,0,.04,0,.08,0,.12h0s0,.02,0,.02c0,.02,0,.05,0,.07v.04s0,.03,0,.04h0c0,.13,0,.27-.01.4,0,.02,0,.03,0,.05,0,.04,0,.07-.01.11,0,.05,0,.09-.01.14v.07c-.01.08-.01.16-.01.21,0,.01,0,.02,0,.03h0c0,.05,0,.1.01.15.03.21.05.42.06.64.01.23,0,.46-.04.69,0,.06-.02.12-.02.18,0,.02,0,.04,0,.07-.01.17-.02.33-.02.48,0,0,0,.02,0,.02,0,.21.04.42.06.63.01.13.03.26.03.4,0,.1,0,.21,0,.3h0c0,.15,0,.29.01.43,0,.01,0,.02,0,.03v.02c0,.22,0,.44,0,.66,0,.15-.02.31-.06.41-.03.1-.1.24-.22.25-.01.04-.03.07-.06.1-.07.07-.16.06-.24.02-.21,0-.43.11-.54.28,0,0,0,0,0,0,0,0,0,0,0,0,.09.02.16.07.21.14.02,0,.04,0,.05,0,.04,0,.07,0,.11,0,.04,0,.09,0,.13,0,.08,0,.17.01.24.02.05,0,.09,0,.13,0,.13-.02.25-.07.38-.08.14-.01.28,0,.42.01.02,0,.05,0,.07,0,.09-.01.17-.03.25-.05.09-.01.18-.02.27-.02.08,0,.16.02.25.04.09.02.18.03.28.04.06,0,.12,0,.16-.01.13-.03.27-.05.39-.07.16-.02.32-.05.48-.03.17.01.34.03.5.06h0s.09,0,.14,0c.02,0,.04,0,.05,0,.04,0,.07-.01.1-.01.09-.02.18-.04.27-.06.05-.01.09-.02.14-.03.04,0,.07-.02.11-.02.09,0,.17,0,.26,0,.09,0,.18.01.28.02.05,0,.11,0,.16-.01.06,0,.13-.02.19-.03.12-.02.24-.02.35-.02.11,0,.22.01.33.03.05,0,.1.02.15.02.06.01.12.01.18.01.07,0,.13-.01.2-.02.1-.02.19-.04.29-.06.05-.01.1-.02.15-.03.06,0,.12-.02.18-.03.11,0,.21-.01.32,0,.11,0,.21,0,.32.01.07,0,.14,0,.21,0,.07,0,.13-.02.2-.02.13-.01.27-.02.4-.03.07,0,.14,0,.2,0,.06,0,.12,0,.18.01.07,0,.13.02.2.03.08.01.16.02.24.03.06,0,.12,0,.19,0,.09-.01.18-.03.27-.05.09-.02.18-.04.27-.06.04,0,.08-.01.12-.01.05,0,.1-.01.15-.01.1,0,.19,0,.28,0,.1,0,.19.01.29.01.09,0,.19,0,.28-.02.09,0,.17,0,.26,0,.12,0,.23.01.33.02.06,0,.11,0,.17,0,.05,0,.1,0,.15-.01.09-.02.18-.04.26-.06.08-.02.17-.05.25-.07.08-.02.16-.03.24-.03.07,0,.15,0,.22,0,.14.02.28.05.42.07.08.01.16.02.25.03.09.01.18.02.26.03.11,0,.21,0,.31,0,0,0,0,0,0,0h0c.18-.03.35-.07.52-.11.18-.04.35-.11.54-.12.17-.01.33,0,.49.03.09.01.18.04.26.05.08.02.16.02.22.03h.02c.21,0,.41-.01.62-.04.11-.01.21-.03.32-.03.12,0,.24,0,.33.01.29,0,.59-.02.88-.04.15-.01.3-.01.46,0,.09,0,.19.03.28.04.08.01.16.02.24.02.1,0,.2,0,.31-.02.11-.02.23-.05.34-.08.11-.03.22-.06.33-.09.12-.03.26-.05.39-.06.13,0,.25.02.37.04.04,0,.09.01.13.02.04,0,.07.02.11.03.03,0,.07.01.1.01.03,0,.06,0,.09,0,.02,0,.03,0,.05.01,0,0,.01,0,.02,0,.01,0,.03,0,.05.01,0-.09.02-.17.03-.25,0-.05,0-.1,0-.15Zm3.09,4.14c-.06,0-.12-.01-.18-.02-.39.02-.75.13-1.14.07-.52-.15-1.05,0-1.57-.03,0,.02,0,.03,0,.05,0,.09.01.18.02.27,0,.1.01.2.01.3,0,.17.02.35,0,.52.05,0,.1-.01.16-.02.14-.01.28-.02.41-.03.09,0,.17-.01.25,0,.07,0,.14,0,.2.01.1,0,.19,0,.28-.01,0,0,0,0,0,0h0c.11-.02.21-.05.31-.08.1-.03.21-.06.32-.07.16-.02.32-.01.48,0,.04,0,.07,0,.11,0,.07,0,.15,0,.22-.01,0,0,.01,0,.02,0-.03-.28.06-.62.08-.87,0-.02,0-.05,0-.07Zm3.1-15.67c-.16-.36-.3-.73-.46-1.1-.32-.56-.82-1.01-1.06-1.62-.19-.42-.34-.87-.49-1.31-.13.01-.27.02-.4,0-.94-.04-1.88-.27-2.82-.2-.26.03-.53.09-.79.15-.01.58-.06,1.13.02,1.7.22.85-.01,1.7-.07,2.55.03.22.04.45.05.68.11-.15.24-.29.4-.42.18-.21.26-.47.43-.69.21-.27.51-.48.81-.66.18-.11.37-.24.59-.24.21-.06.43-.06.63-.13.32-.11.69-.29,1.03-.25.57,0,.99.43,1.46.7.32.19.5.52.68.83Zm.08,16.35s.01,0,.02,0c-.02-.23-.03-.46-.06-.69-.17.03-.35-.04-.52-.05-.33-.07-.67-.04-1.01-.1-.38-.03-.7.14-1.06.19-.02,0-.05,0-.07,0,.04.26.02.53.03.79.03,0,.07,0,.1,0,.32-.01.62.07.94.1.11,0,.21,0,.31-.02.17-.03.33-.08.5-.11.11-.02.23-.03.31-.04.02,0,.03,0,.05,0,.1-.02.2-.02.3-.03.03,0,.06-.02.1-.02.02,0,.05,0,.07,0Zm.05-6.18c.09-.57.18-1.12.09-1.7.03-.61-.09-1.2.03-1.81-.11-.72,0-1.2-.07-1.8-.1-.36-.11-.72-.06-1.1-.04-.47-.12-.93-.05-1.4.01-.65-.13-1.32-.11-1.96,0,0,0,0,0,0-.18-.24-.45-.34-.65-.55-.21-.19-.38-.43-.63-.55-.36.04-.75,0-1.09-.1-.98-.39-1.75.47-2.53.9-.2.16-.43.28-.57.5-.14.29-.28.57-.43.86,0,.03,0,.06,0,.09,0,.02,0,.05,0,.07,0,.08,0,.15,0,.18,0,.13.01.25.01.33v.04s0,.04,0,.05v.05c0,.12.01.24,0,.36.02.13.03.26.04.4-.01.12-.02.25-.03.37h-.03c0,.2.02.4.02.59,0,.18-.01.35-.04.53-.01.08-.03.16-.04.24-.01.09-.03.17-.04.25,0,.07-.01.13-.01.2,0,.09,0,.18.02.27.02.15.05.29.06.44.01.12.02.23.02.35,0,.13,0,.26,0,.4,0,.18-.03.37-.04.55,0,.18.02.35.03.53,0,.18,0,.36-.02.51-.02.16-.05.32-.07.47,0,0,0,0,0,.01h0c0,.06,0,.12-.01.19,0,.07,0,.15.01.21.03.2.06.41.06.62,0,.21-.03.41-.03.62,0,.17.03.34.03.51,0,.19-.05.38-.07.56,0,0,0,0,0,.01h0s0,.05,0,.08c0,.05,0,.11.01.14.03.2.06.41.07.61,0,.14,0,.28-.01.42,0,.06,0,.12-.01.18,0,.06-.02.13-.02.17,0,.06,0,.12-.01.18,0,.06,0,.11.01.15.03.17.07.34.08.51.01.17,0,.34-.02.51,0,.03,0,.06,0,.1,0,.21.04.41.04.62,0,.09-.01.17-.03.26.12-.02.24-.02.35-.04.52.07.97-.09,1.47-.18.41-.02.81.05,1.21-.07.6-.06,1.18.25,1.77.07.2-.09.43-.03.63-.13.17-.03.34-.11.51-.1.02-.63.21-1.25.15-1.88-.18-.96.06-1.91,0-2.87Zm.28-11.75c.07-.98-.08-1.93-.02-2.9,0-.06,0-.12.02-.18-.54.1-1.06.31-1.59.46.21.44.48.85.62,1.32.18.58.32,1.23.59,1.75.04.08.15.27.27.51.02-.33.05-.65.1-.96Zm4.77,3.47c-.03-.23-.05-.45-.07-.69-.61-.1-1.18-.28-1.79-.05-.59.17-1.2-.04-1.8.05-.27.02-.51-.12-.77-.15-.08.05-.17.05-.26.01h0s-.07,0-.1,0c.02.34,0,.69-.04,1.01,0,.02,0,.04,0,.06.2-.06.54,0,.69-.03.41.09.79-.01,1.19-.11.27-.04.54.01.8-.02.29-.07.57-.17.87-.14.43.1.86.09,1.28.04Zm.86-6.21c-.01-.28-.05-.56-.04-.83,0-.02,0-.05,0-.07-.63.05-1.28-.03-1.91.05-.1.02-.2.04-.3.06.05.08.12.16.19.24.34.39.47.89.67,1.35.43.72.55,1.54.79,2.32.14.32.33.61.5.91,0,0,0,0,0-.01-.08-.63-.12-1.26.03-1.88-.06-.72-.02-1.42.07-2.13Zm1.3-3.41c.03-.18.11-.35.24-.48-.52-.14-1.06-.21-1.56-.44-.55-.21-.86-.72-1.31-1.06-.63-.38-1.15-.89-1.54-1.51-.18-.22-.4-.39-.63-.57l-.04-.02c-.41.09-.79.28-1.21.38-.66.18-1.35.11-2.02.07-1.26-.13-2.34.66-3.56.79-1.15-.11-2.2-.22-3.29.22-.77.17-1.57.11-2.35.18-.53.09-1.06.14-1.61.13-.76-.06-1.41.34-2.12.47-.88.08-1.77-.17-2.65-.07-.77.11-1.48.45-2.25.54-.66.03-1.3-.21-1.95-.14-.8.13-1.6.04-2.41.13-.38.04-.75-.11-1.1-.22-.72.13-1.35.6-2.06.78-.57.17-1.16.25-1.7.5-.43.21-.89.37-1.37.43-.81-.04-1.4.45-2.13.7-.84.17-1.64.44-2.41.83-.74.32-1.61.1-2.34.47-.93.54-1.95.91-2.97,1.19-.8.12-1.56.37-2.23.83-.58.4-1.28.46-1.97.45-.23.04-.46.1-.69.17.23.01.47.04.7.09.54-.01,1.05-.23,1.59-.31.52-.06,1.02.07,1.53.12.81.05,1.55-.34,2.33-.47.74-.1,1.51.11,2.24-.12,1.13-.22,2.3-.29,3.43-.43.43-.05.82-.2,1.23-.29.45-.09.9,0,1.36.01.85.04,1.63-.42,2.47-.48.6.04,1.2.1,1.79-.08.9-.23,1.82-.2,2.72-.39.55-.11,1.13-.04,1.67-.2.82-.11,1.64-.12,2.41-.48.58-.15,1.17.12,1.75.01,1.22-.37,2.54-.23,3.75-.64.57-.1,1.13.11,1.7.08.61-.04,1.18-.36,1.79-.32.96.18,1.91-.05,2.88-.09.39-.02.78.07,1.17.07.47-.09.94-.23,1.42-.25.73.02,1.44-.22,2.18-.16.68.1,1.3-.23,1.96-.28.61.04,1.21-.13,1.81-.1.29,0,.58.07.86.12.43,0,.84-.12,1.27-.15.61-.06,1.2.12,1.81.09.46-.17.93-.13,1.4-.11Zm.31,18.91c.08-.04.17-.04.24-.01-.02-.26-.07-.52-.08-.79.02-.32.02-.65.02-.97h-.09s-.05.06-.08.09c-.1.07-.24.05-.35.05-.21.01-.42.04-.63.01-.35,0-.66,0-.99-.02.02.17.05.34.07.52.03.4,0,.81.01,1.22.15-.02.33-.01.43-.02.48-.04.96.09,1.44-.06Zm.24.49s-.03,0-.05.01c-.36,0-.71-.07-1.07-.04-.31.02-.67.06-.98-.02,0,.63-.24,1.24-.11,1.85,0,.03,0,.05.01.08.17,0,.36.02.46-.01.4.01.8.07,1.21.01.07,0,.12.04.15.09.08,0,.16-.02.24-.04-.02-.36-.04-.73.01-1.07.01-.29.09-.58.12-.87Zm0-9.86c0-.23,0-.46-.02-.69-.71-.04-1.42.21-2.13.15-.11,0-.22,0-.32-.02,0,.2,0,.44,0,.62.2-.03.4-.06.6-.1.52-.05,1.03.12,1.55.06.11-.02.24-.06.33-.02Zm.04,2.36c-.02-.35-.01-.71.03-1.06-.05-.31-.07-.62-.07-.94-.02,0-.03.01-.05.01-.48-.07-.92.09-1.39.15-.32.05-.65.03-.97-.01.11.51.09,1.02.16,1.53-.02.22-.05.44-.04.66.58-.13,1.22-.03,1.8-.18.15-.07.3-.15.46-.18.02,0,.05,0,.07.01Zm.02,3.59c-.02-.22-.03-.44-.04-.66,0,0-.01,0-.02,0-.34.03-.72-.05-1.05-.06-.38.01-.73.07-1.11.09.02.5-.02,1-.03,1.49-.03.12-.05.25-.05.37.34-.03.68-.02,1.02-.06.21-.03.42-.01.64-.02.13-.02.28-.04.37.07.02.02.03.03.04.05.03,0,.07,0,.1,0,0-.42.03-.85.12-1.27Zm0-13.07s-.05,0-.07,0c-.56-.03-1.05-.07-1.56.02.06.47-.04,1.33.07,1.52.12.57.1,1.09.04,1.65.12.75-.06,1.47-.13,2.21-.03.16.03.47-.2.47-.08-.01-.13-.08-.15-.15-.08.03-.18,0-.23-.08-.35-.44-.37-1.06-.63-1.54-.51-.65-.62-1.46-.93-2.21-.35-.5-.49-1.09-.69-1.65-.86.17-1.72.33-2.59.37.14.51.14,1.15.13,1.67-.07,1.24.18,2.49-.1,3.72,0,.05,0,.09,0,.13.19-.04.37-.1.57-.11.38,0,.75-.02,1.12-.14.54-.13,1.08.14,1.62.08,1.07-.22,2.18-.07,3.25,0,.12.02.25.01.38-.01h0c-.09,0-.18-.04-.26-.14-.19-.26-.09-.59-.07-.88.03-.48.14-.94.25-1.41.09-.65-.09-1.3.05-1.95.13-.42.04-.85.11-1.28.04-.1.05-.2.05-.3Zm.07,10.41c-.02-.16-.04-.31-.05-.47-.01.01-.03.02-.05.02-.26.07-.53,0-.8.03-.49.05-.97.23-1.47.23v.04c.12.48,0,.97.02,1.45.03.14.04.28.06.42.28-.03.57-.06.85-.08.42-.05.75-.33,1.16-.42.07-.03.13-.04.18-.03.01-.39.05-.79.1-1.18Zm2.53-8.31s0,0-.01,0c-.37-.26-.71-.61-1.02-.94,0,0,0,0-.01,0,.05.52.14,1.05.02,1.57,0,.37.02.73.02,1.1.14-.33.27-.68.54-.94.18-.24.31-.52.46-.79Zm.98,9.2c-.01-.29-.05-.57-.05-.86-.02,0-.04,0-.07,0-.65-.09-1.26-.11-1.9-.26-.37.01-.73-.09-1.06-.23-.04,0-.08-.01-.11-.02-.07.34-.13.68-.03,1.03.05.31.05.61.03.92.36.06.74.11,1.08.07.59-.1,1.19.06,1.75.2,0,0,0,0,0,0,.05.01.1.02.15.03.06.01.11.05.14.09-.02-.32.04-.65.05-.97Zm-.07,7.57s.07-.01.11-.01c-.03-.47-.08-.95-.07-1.42-.57-.18-1.12-.22-1.7-.25-.53-.14-1.06-.3-1.61-.29.04.4.16.79.17,1.19,0,.28,0,.55-.01.83.26,0,.57.08.69.08.4.04.78-.12,1.17-.16.42-.04.85.05,1.26.03Zm.1-16.56c-.02-.15-.03-.31-.03-.46-.22.35-.48.69-.78.98-.27.23-.4.58-.62.85-.16.26-.42.44-.61.68-.02.28-.05.56-.12.83-.04.2-.01.57-.3.56-.29-.07-.22-.42-.26-.64-.1-.73-.03-1.49.13-2.19-.03-.74.1-1.45.23-2.17,0-.17,0-.34,0-.52-.38-.01-.76-.07-1.11-.25,0,.02,0,.04.01.05.13.32.12.66.12.99.03.34.11.68.09,1.03-.09.72-.37,1.34-.24,2.07.02.44.03.88.08,1.31.02.12-.01.23-.07.32,0,.04.01.09.02.13.03,0,.05,0,.08,0,.39-.04.77.11,1.15.05.4-.08.78.1,1.17.15.3-.01.61-.03.92,0-.2-.34.13-1.14.06-1.48-.09-.78-.03-1.54.08-2.31Zm-.03,7.51c.03-.59-.15-1.18-.18-1.77,0-.03,0-.06,0-.08-.19.02-.35.02-.47,0-.5-.04-.96-.25-1.44-.31-.23-.03-.72.06-1.06.01-.03.52-.05,1.04.03,1.56,0,.17-.03.34-.06.51.29.02.57-.11.87-.06.37.06.71-.03,1.08-.06.25.01.64.02.84.11.11.05.22.04.33.06.01,0,.03.01.04.02Zm-.03,4.65c.06-.62.18-1.24.02-1.86-.05.14-.18.25-.37.17-.41-.07-.83-.02-1.24-.13-.29-.05-.53-.24-.81-.3-.27-.04-.54-.07-.81-.12-.04.31-.09.62-.14.93.05.4.1.79.08,1.19.15.01.29.03.43.03.65-.03,1.31-.18,1.95.06.23.04.4.05.62.05.09-.03.18-.05.26-.02Zm.03,1.99s.03,0,.05,0c0-.4-.1-.8-.11-1.2-.04,0-.09,0-.14-.02-.45-.16-.9-.05-1.35-.14-.6-.09-1.15-.33-1.76-.35,0,.03,0,.06-.01.1.03.52.07,1.05-.02,1.57,0,.06-.01.12-.01.17.26.02.51.07.77.1.27,0,.53-.1.81-.11.35-.02.75.06,1.09,0,.24-.03.46-.12.7-.13Zm.06-15.56c0-.13-.02-.26-.03-.39-.35-.08-.67-.24-1.03-.26-.34-.02-.68,0-1.03,0,0,.11-.02.22-.03.33,0,.04,0,.09,0,.13.07,0,.16.03.24.13.26.18.4.48.63.66.11.1.31.18.37.32.07-.1.15-.2.24-.28.19-.21.42-.4.64-.58,0-.02,0-.04.01-.07Zm-1.41,6.35c.72-.12,1.44-.13,2.17-.12,0-.06-.02-.13-.05-.18-.37-.1-.76-.03-1.14-.12-.33-.06-.62-.25-.96-.24-.41-.02-.79-.2-1.19-.3-.26-.03-.52-.02-.78-.01-.01.06-.04.12-.09.15,0,.02,0,.04,0,.06.02.22.08.43.14.65.03,0,.05.02.08.04.12.05.27.05.4.08.22.02.43.11.66.14.26.01.51-.08.76-.12Zm2.42-3.69c.19-.22.31-.48.45-.73-.29-.34-.4-.82-.77-1.09-.12-.1-.24-.21-.34-.34.02.07.03.15.03.22-.03.64.08,1.26.08,1.9,0,.2-.05.41-.1.61.03-.03.06-.06.09-.09.16-.19.38-.31.55-.48Zm1.52-1.96c.17-.24.33-.49.51-.72-.28-.11-.57-.21-.87-.27-.65-.11-1.32.04-1.97-.06,0,.06,0,.13,0,.19,0,.01,0,.02,0,.03.09-.01.17.05.18.17.12.08.21.23.34.3.25.27.52.59.77.85.08.09.19.17.28.27.23-.27.51-.5.75-.76Zm.41,8.93c.02-.64.2-1.28.07-1.91-.22-.62-.16-1.26-.19-1.9-.11-.42-.23-.93-.58-1.21-.39-.13-.86.06-1.2.26.39,0,.61.36.7.84.18.58.19,1.18.11,1.78.09.56.07,1.13-.02,1.69.11.95.11,1.87-.03,2.8-.02.47.15.91.14,1.37-.01.66.01,1.27.08,1.92,0,.03,0,.07,0,.1.17,0,.34,0,.51.01.12-.01.33,0,.33-.16-.18-1.02,0-2.01-.01-3.03.21-.92.13-1.64.11-2.56Zm1.82-5.89c.12-.41.39-.74.66-1.06-.32-.42-.67-.81-.91-1.28.02.39-.03.79-.03,1.18.06.54.05,1.15-.05,1.69.12-.17.28-.34.33-.53Zm2.11-2.82c.04-.06.1-.14.16-.19-.21,0-.42,0-.63,0-.65-.04-1.31-.01-1.93-.2-.03,0-.06-.02-.09-.03,0,.17.03.34.07.51.15.12.31.22.48.33.32.26.52.62.8.92.29-.51.73-.93,1.14-1.34Zm.27,7.62c0-.54-.17-1.06-.24-1.58-.11-.5-.03-1.06-.31-1.51-.3-.25-.72-.32-1.13-.31.2.24.33.62.43.86.3.69.29,1.44.22,2.17.01.46.14.9.1,1.36-.04.56-.26,1.14-.2,1.71.21,1.18.32,2.35.18,3.55,0,.22-.01.45-.03.68.29-.11.59-.22.9-.25.1-.57-.05-1.17.07-1.74-.08-1.08-.29-2.14-.15-3.23.02-.57.15-1.13.16-1.7Zm2.29-9.56c.1.03.21.07.31.1-.56-.19-1.1-.42-1.66-.62-.46-.21-.89-.45-1.38-.59-.56-.16-1.13-.13-1.69-.26-.83-.27-1.49-.9-2.28-1.26-.95-.46-2.04-.39-3.01-.74-.45-.23-.81-.62-1.32-.77-1.08-.42-2.24-.63-3.36-.93-.55-.13-1.05-.38-1.58-.56-.39-.09-.77-.17-1.14-.26.48.31.84.75,1.29,1.1.74.41,1.59.67,2.28,1.15.48.3.95.63,1.51.76.17.04.25.2.26.37.05,0,.1.01.15.02.22.02.44.04.66.1.1.03.19.06.28.09.03,0,.06.02.09.02.22.06.44.13.65.21.31.12.61.26.92.37.16.04.32.07.49.1.18.01.36.02.55.01.21,0,.43.01.64.04.2.02.4.06.6.1.22.05.44.12.65.18.1.03.19.05.29.08.12.03.25.05.37.07.44.04.9.05,1.33.18.12.04.23.07.35.12.12.05.23.09.35.14.11.05.22.09.32.14.13.06.27.11.41.16.1.02.2.05.3.07.04,0,.09.01.13.01.06,0,.12.01.18.02.28,0,.56.01.83.04.13.01.25.02.38.04.15.02.3.04.45.07.14.02.28.07.42.11Zm1.17.41c.05,0,.11-.01.16-.02-.24-.05-.48-.12-.72-.19.11.03.21.07.31.11.08.03.16.07.25.1h0Zm8.53,1.43c.26.25.31.75.04,1.01-.19.18-.49.15-.74.14-.72-.09-1.43-.38-2.17-.29-.96.2-1.94.36-2.9.11-.72-.2-1.46-.25-2.2-.31.01.23-.01.48-.02.57-.01.36.1.7.1,1.06-.06.55-.02,1.08-.02,1.63-.02.31-.12.61-.13.91,0,.36.08.71.06,1.07-.06.58-.15,1.14-.05,1.72-.02.48-.04.94-.01,1.42,0,.38-.12.78-.01,1.14.15.62.08,1.27.11,1.9.1.69.08,1.42-.05,2.09-.09.56.15,1.11.11,1.68-.03.57-.04,1.13-.03,1.7-.06.48-.03.94.02,1.38.09.38.18.78.13,1.18,0,.26-.02.66-.34.7-.16,0-.3-.15-.33-.3-.19-.67.08-1.4.06-2.07-.04-1.03-.12-2.06-.06-3.09.05-.35.13-.74.09-1.09-.21-1.08-.05-2.17-.1-3.26-.01-.42.17-.83.13-1.25-.11-.95-.11-1.95.05-2.89-.08-.58-.09-1.2.03-1.77.07-.53-.15-1.04-.1-1.56.08-.4,0-.8-.02-1.21,0-.36.11-.71.08-1.07-.04-.2-.03-.41-.1-.6,0,0,0-.01,0-.02-.21-.02-.42-.05-.63-.08-.5-.09-1-.21-1.48-.36.08.62-.05,1.67-.01,1.86.1.81.11,1.61-.05,2.41,0,.16-.1.37-.29.35-.23-.03-.28-.3-.26-.49-.09-.74.06-1.47.18-2.17.02-.7-.06-1.35-.06-2.05,0-.02,0-.04,0-.06-.29-.07-.58-.09-.87-.1,0,0,.01.01.02.02.08.1.09.27,0,.38-.15.17-.26.37-.4.56-.25.52-.66.89-1.09,1.25-.33.6-.93.99-1.21,1.61-.08.08-.09.24-.19.29-.03,0-.06,0-.09-.02-.01.2-.01.42-.15.49,0,.01,0,.02,0,.04,0,.02,0,.03,0,.05.11-.13.24-.24.39-.33.57-.41,1.27-1.05,1.99-.6.46.29.71.83.98,1.29.3.66.21,1.4.11,2.1-.17.97.13,1.94.1,2.91,0,.74-.16,1.47-.3,2.18-.09.78.28,1.57.02,2.33-.06.17-.1.34-.25.4-.52.2-1.04.5-1.62.46-.31-.05-.62-.07-.93-.02-.03.01-.05.01-.08.01-.01.19-.04.38-.08.57-.1.69.1,1.37.14,2.05.05.59-.08,1.2-.07,1.79,0,.54-.6.5-.58-.03.06-.68-.12-1.36-.04-2.05.02-.43.14-.85.16-1.28,0-.54-.15-1.03-.16-1.57.03-.76.05-1.41,0-2.14,0-.47.17-.92.13-1.38-.18-.8-.14-1.62-.04-2.43-.11-.6-.19-1.18-.11-1.78-.09-.48-.1-.96-.02-1.45-.01-.45-.09-.89-.12-1.34-.04-.08,0-.2.07-.24-.08-.73-.18-1.46.05-2.19.09-.42,0-.8.03-1.22,0-.32.14-.62.17-.94,0-.03,0-.06,0-.09-.08-.03-.15-.06-.22-.09-.18.39-.75.66-1.05.93-.24.22-.4.49-.62.73-.39.35-.82.65-1.15,1.06-.13.22-.37.34-.56.49-.06.04-.13.09-.2.06-.02-.02-.04-.03-.06-.05-.03.17-.06.35-.06.52-.02.18.06.48.07.74.24-.4.71-.71,1.17-.73.5,0,1.07,0,1.43.4.46.5.28,1.22.49,1.82.13.56,0,1.11-.04,1.67.13.99.17,1.96-.08,2.93-.05.45.08.88.11,1.32.04.42-.1.85-.11,1.27,0,.58,0,1.18-.08,1.76-.03.26-.23.41-.48.45-.51.24-1.06.4-1.62.39-.19,0-.3-.19-.48-.2-.08,0-.13.01-.2.03-.03,0-.05,0-.07,0,.02.08.02.16,0,.24.03.15.06.3.08.46.06.49-.05,1.01.02,1.49.12.68-.03,1.36-.02,2.04.01.24.19.76-.18.79-.15-.02-.2-.2-.19-.33.12-.6.04-1.18-.05-1.78-.16,0-.33-.02-.45-.01-.67-.05-1.33-.25-1.98-.39-.27,0-.55-.02-.82-.02,0,.22,0,.43.03.65-.02.4.2,1.65-.24,1.71-.16,0-.27-.18-.27-.32-.08-.62-.11-1.32-.07-1.93,0-.02,0-.04,0-.06-.3-.02-.61.02-.89-.04-.01,0-.02-.01-.03-.02-.38-.02-.76,0-1.14-.02,0,.46-.04.93,0,1.4-.02.29,0,.51-.01.79-.01.1-.1.21-.21.19-.28-.07-.14-.5-.19-.69-.04-.73-.13-1.49,0-2.21.13-.51.02-1.03.03-1.56.05-.61.03-1.21,0-1.81.02-.26.06-.51.07-.77,0-.02,0-.05,0-.07,0-.02,0-.03,0-.05,0-.18,0-.35-.05-.53-.02-.52.06-1.02.02-1.54.17-.75-.06-1.49,0-2.24.07-.34-.06-.66-.11-.99,0-.53-.09-1.05-.09-1.58-.1-.01-.2-.03-.3-.04-.48-.01-.91.26-1.39.21-.52-.11-1.02.13-1.53.04-.48-.1-.96.02-1.44,0-.04,0-.09,0-.14,0,.04.17.08.35.08.52.01.34-.07.67-.02,1,.04.34-.07.66-.11.99.06.53.11,1.06.04,1.59.06.44.15.85.09,1.29.05.42.04.84-.04,1.25.13,1.28.21,2.58.04,3.87-.06.36,0,.73.07,1.09.11.56.04,1.12-.01,1.68-.07.28.15.79-.18.92-.01.1-.06.19-.15.24-.04.02-.08.02-.11.01-.02,0-.04,0-.06,0-.04,0-.07,0-.1-.01-.04,0-.08,0-.12,0-.07,0-.13,0-.17,0-.1,0-.21,0-.28,0-.2,0-.4-.05-.59-.06h0c-.09,0-.18,0-.25.01-.32.05-.63.17-.95.21-.25.03-.49-.03-.73-.05-.08,0-.16,0-.24.01-.16.03-.33.06-.49.06-.11,0-.22,0-.33-.02-.06,0-.12-.02-.18-.03-.07-.01-.15-.02-.22-.02-.1,0-.2,0-.28.02-.16.03-.31.06-.47.06-.14,0-.28.01-.41.01-.02,0-.04,0-.06,0-.06,0-.13,0-.19,0-.03,0-.07,0-.1-.02-.04-.02-.06-.07-.07-.11h0v-.02s0,0,0,0h0s0-.01,0-.01h0s0-.02,0-.02h0c-.02-.19-.01-.39-.01-.58,0-.1,0-.21,0-.31,0-.11.02-.22.02-.34,0-.06,0-.12-.01-.18-.02-.15-.06-.3-.06-.46-.01-.21.02-.41.03-.61v-.09c-.03-.17-.05-.35-.04-.52.01-.16.05-.33.07-.49h0c0-.06,0-.11.01-.16,0-.06,0-.11-.01-.16,0,0,0,0,0-.01h0c-.03-.23-.06-.46-.06-.69,0,0,0,0,0,0,0,0-.01,0-.02,0-.05.02-.11.02-.16.03-.01,0-.03,0-.04,0-.01,0-.03,0-.04.01-.04.01-.07.03-.11.04-.06.02-.13.03-.19.04-.08.01-.16.03-.24.04-.07,0-.15,0-.18,0-.03,0-.06,0-.09,0-.13,0-.26-.03-.35-.06-.03,0-.06-.01-.1-.02-.17-.03-.33-.06-.5-.08-.1,0-.2,0-.3.01-.11.02-.22.04-.34.07-.12.03-.24.04-.36.05-.22.01-.43,0-.65,0-.1,0-.2,0-.31,0-.12,0-.24.02-.36.04-.1.01-.21,0-.31,0-.11,0-.22-.01-.32-.02h-.02c-.16,0-.33,0-.49.02-.15.03-.29.07-.44.11-.16.04-.32.06-.49.04-.08,0-.15-.02-.23-.03-.09-.02-.18-.04-.28-.06-.18-.03-.36-.06-.53-.08h-.01s-.05,0-.07,0c-.08,0-.16,0-.23.01-.16.02-.31.06-.47.09-.14.03-.27.06-.41.09-.15.03-.3.03-.45.01-.09-.01-.17-.03-.26-.05-.11-.02-.22-.04-.33-.05-.05,0-.1,0-.14,0-.06,0-.12,0-.17,0-.12,0-.23.03-.35.04-.11.01-.22.01-.33,0-.11,0-.22,0-.33.02-.09.01-.19.02-.28.03-.1.01-.21,0-.31,0-.05,0-.1,0-.14-.01-.06-.01-.12-.02-.19-.03-.11-.02-.21-.03-.32-.04-.06,0-.13,0-.19,0-.11.02-.23.04-.34.07-.12.03-.25.04-.38.05-.24.02-.47,0-.71,0-.05,0-.1,0-.15,0-.07,0-.14.01-.21.02-.12.01-.25.03-.37.03-.25,0-.49-.05-.72-.08-.07,0-.14,0-.21,0-.03,0-.06,0-.1.01-.03,0-.06,0-.08.01,0,0,0,0,0,0-.18.04-.35.07-.53.09-.17.01-.33,0-.5-.01-.05,0-.11,0-.16,0-.04,0-.09.01-.13.02-.05,0-.11.01-.16.02-.08.01-.15.01-.23.01-.04,0-.07,0-.11,0-.07,0-.13-.02-.2-.03-.05-.01-.11-.02-.16-.03-.07-.01-.14-.02-.21-.02-.04,0-.09,0-.13.01-.21.05-.43.09-.64.1-.13.01-.27-.01-.41-.02-.14-.01-.28-.04-.42-.05-.05,0-.1,0-.16.01-.15.03-.3.08-.46.1-.03,0-.06,0-.1,0-.14,0-.27-.03-.41-.04-.15,0-.3.04-.45.04-.14,0-.28-.04-.41-.06-.09,0-.18,0-.26.02-.11.02-.22.02-.34.02.07.34-.14.62-.49.63-.74.11-1.48.07-2.22.03-.76-.14-1.46.17-2.21.16-.32,0-.61-.15-.92-.19-.27.01-.54.08-.81,0-.14-.03-.29-.06-.43-.1-.04.02-.09.03-.16.02-.08-.02-.14-.1-.17-.18-.33-.02-.65.02-.98.03-.13,0-.27,0-.4-.04-.11-.07-.06-.23.04-.29.03-.02.07-.04.11-.06h0s0-.03,0-.03h0s0-.05,0-.07c0-.11-.01-.21-.02-.31,0-.05,0-.1-.01-.15,0-.18-.01-.37,0-.55,0-.03,0-.06,0-.1v-.04c0-.09.01-.18.02-.28,0-.1.02-.21.03-.28.01-.16.02-.31.02-.46,0-.08-.01-.15-.02-.23-.02-.11-.04-.23-.06-.34-.02-.12-.04-.23-.05-.35-.02-.22,0-.45.03-.67,0-.06,0-.11,0-.17,0-.07-.01-.13-.02-.2-.02-.18-.05-.37-.05-.55,0-.21.03-.41.06-.62,0-.1.01-.21,0-.29,0-.11-.02-.22-.03-.33,0-.03,0-.06-.01-.09-.01-.05-.01-.1-.02-.14-.01-.12,0-.24-.01-.35,0-.15-.01-.3-.02-.46,0-.08,0-.17,0-.26-.19,0-.38-.01-.57,0-.17.04-.35.09-.54.14,0,0,0,.01,0,.02,0,.02,0,.03-.01.05.09.04.14.14.14.23,0,.25.01.48.04.73.14.53.09.94-.17,1.13.05.32.12.64.1.97-.03.48-.25.93-.29,1.41-.06.4.05.8.05,1.2.2,1.21-.24,2.4-.17,3.61,0,.42.38,1.37-.19,1.5-.11,0-.21-.05-.28-.14-.07-.13-.1-.27-.11-.41-.31.1-.64.14-.97.1-.18,0-.46-.06-.55-.2,0,.01,0,.02,0,.04.01.05.02.1.02.11,0,.02,0,.05.01.07h0s0,.02,0,.03c0,.01,0,.02.01.03,0,.01,0,.02.01.04,0,.01,0,.02.01.03h0s0,.01,0,.02c0,0,0,.02,0,.02,0,.01,0,.03.01.04,0,0,0,0,0,0,0,.01,0,.02.01.03,0,0,0,0,0,.02.02.06.04.15.03.15,0,.07.02.14,0,.2-.03.15-.12.32-.29.33,0,0-.01,0-.02,0-.18,0-.3-.18-.33-.35-.01-.05-.01-.1-.01-.15,0-.07.01-.14.04-.21,0-.04.02-.07.04-.11,0-.03.01-.05.02-.08,0,0,0-.01,0-.02v-.03s.02-.01.02-.02c0,0,0,0,0,0v-.04c.03-.1.04-.21.05-.29,0,0,0-.01,0-.02,0-.09,0-.19,0-.25,0-.07,0-.15-.01-.22,0-.04-.01-.09-.02-.13,0-.05-.02-.1-.01-.11-.02-.12-.02-.23-.03-.35,0-.12-.02-.25-.02-.37,0-.26.01-.52.04-.77,0-.1.01-.2.03-.3.02-.11.03-.22.05-.33,0-.03,0-.06,0-.1,0-.08,0-.15-.01-.23,0-.05-.01-.11-.02-.16-.05-.26-.1-.53-.1-.79,0-.22.03-.44.05-.66,0-.03,0-.06,0-.09,0-.16-.03-.31-.04-.46-.01-.12-.01-.25-.01-.37,0-.09.01-.18.02-.27h0s0-.06.01-.09c.01-.1.03-.19.04-.28,0-.09.01-.18.01-.28,0-.17-.03-.33-.05-.5-.02-.18-.02-.37-.02-.55,0-.2,0-.4,0-.59,0-.03,0-.06,0-.1-.15-.35.01-.79-.02-1.13-.01-.31-.02-.56.06-.84.02-.02.03-.03.04-.04-.22-.17-.4-.41-.42-.68,0-.31-.01-.67.2-.91.04-.04.09-.07.14-.07-.03-.15-.05-.3-.06-.44-.01,0-.02-.02-.03-.03-.73-.66-1.43-1.37-2.24-1.95-.36-.21-.79-.35-1.11-.65-.32-.26-.58-.58-.92-.82-.34-.2-.71-.32-1-.6-.44-.23-.83-.54-1.11-.96-.24.08-.32-.4-.17-.54-.13-.14-.09-.41.08-.51.42-.18.93-.26,1.36-.37.52-.16.95-.52,1.46-.7.55-.2,1.12-.16,1.67-.31.45-.15.87-.37,1.33-.49.63-.17,1.29-.06,1.92-.24.9-.34,1.68-.95,2.61-1.19.58-.18,1.22-.12,1.79-.3,1-.5,2.01-.94,3.13-1.11.82-.32,1.69-.44,2.55-.54.71-.34,1.4-.73,2.19-.86.86-.27,1.68-.71,2.57-.86.39-.1.77-.12,1.16-.1.24-.06.45-.2.71-.22,1.03-.04,2.07.07,3.1.06.56-.04,1.06-.32,1.61-.39.76-.07,1.51.17,2.27.11.77-.09,1.48-.44,2.23-.62.57-.15,1.13.04,1.7.07.92-.08,1.81-.35,2.75-.32,1.02-.16,2.03-.23,3.05-.18.95-.07,1.71-.77,2.64-.91.89-.07,1.85.16,2.73.04.79-.12,1.58-.31,2.38-.34.5-.04.98-.3,1.49-.21.91.06,1.74.44,2.59.72,1.84.18,3.38,1.12,5.09,1.72.46.19.97.09,1.44.24,1,.4,1.94.96,2.95,1.34,1.02.25,2.08.35,2.96.97.67.3,1.38.48,2.07.71.65.23,1.23.61,1.9.81,1.17.16,2.27.62,3.44.76,1.4,0,2.66.55,3.88,1.17.43.22.89.38,1.38.43.14,0,.24.07.3.17.04.02.08.05.11.09Z"/>
  <path d="m56.72,51.77c.29-.05.58.04.86-.07.18-.05.36-.01.55,0,.17-.03.35-.07.53-.06.62.15,1.21-.14,1.83-.04.33.03.61-.13.92-.21.33-.03.66-.05.99-.12.47-.06.95.1,1.41-.06.71-.15,1.45-.12,2.17-.26.52-.03,1.05.11,1.56-.04.4-.26.88-.19,1.33-.21.43-.09.87-.08,1.3-.09.49-.06.96-.32,1.46-.23.48.05.98.19,1.46.14.43-.06.84-.21,1.27-.26.45-.08.88.11,1.33.15.69-.03,1.37.03,2.06.04.6-.09,1.2.09,1.8.05.44-.06.85-.25,1.3-.25.5.01.99.22,1.49.19.62-.12,1.25-.06,1.88-.06.4-.04.78.08,1.17.14.61-.02,1.23-.09,1.83.01.08.02.15.03.23.03.17,0,.18.31.01.33-.19.03-.37.09-.56.07-1.07.14-2.12-.15-3.19-.14-.77.15-1.56-.11-2.32.18-.69.27-1.38-.12-2.08-.11-.86.21-1.74.12-2.61.13-.42-.04-.84-.13-1.26-.05-.38.1-.77.22-1.17.16-.67-.11-1.34-.29-2.01-.07-.31.05-.62.17-.94.18-.37.03-.73-.13-1.1-.13-.7.05-1.4.24-2.11.28-.29,0-.53-.15-.81-.13-.59.02-1.15.28-1.74.26-.75.05-1.44.15-2.19.02-.42.07-.84.18-1.27.16-.33.04-.65.15-.98.12-.45-.08-.86.16-1.31.13-.39-.08-.77-.02-1.15.08-.3.02-.59-.05-.89.01-.18,0-.35-.07-.53-.05-.17.04-.34.06-.51.1-.14,0-.16-.27-.02-.31Z"/>
  <path d="m114.05,50.86c-.67-.14-1.33-.27-2.01-.16-.61.06-1.23-.03-1.85.03-.68.04-1.34-.29-2.02-.18-1.16.26-2.34.02-3.51.1-.65-.04-1.31-.29-1.96-.11-.73.16-1.44-.04-2.15.13-.48.08-.96-.06-1.43-.14-.43,0-.86.08-1.29.07-.5,0-.98-.13-1.47-.14-.39.08-.77.21-1.16.13-.18,0-.35.07-.54.06-.3-.02-.58-.11-.88-.03-.04,0-.08.01-.12,0-.07-.01-.09-.11-.06-.16.11-.16.36-.06.53-.09.31-.09.63-.14.96-.1.22-.04.44-.14.67-.11.66.15,1.27-.09,1.93-.12.42.01.83.12,1.24.15.39.03.73-.17,1.11-.2.33-.04.65,0,.97.03.44-.02.83-.13,1.27-.08.43.02.84.19,1.28.15.81-.23,1.61-.22,2.44-.15.86-.12,1.7,0,2.54.16.48.04.93-.18,1.4-.2.39-.01.78.05,1.17.08.69-.05,1.38.12,2.07.04.68-.18,1.37-.31,2.06-.1.34.02.66.11,1,.17.24.04.22.5-.04.48-.72-.04-1.4.38-2.13.29Z"/>
  <path d="m116.2,51.05c-.04-.13,0-.34.16-.38,0,0,.01,0,.02,0-.35-.13-.7-.08-1.05-.04-.12,0-.25.07-.36,0-.08-.06-.09-.21-.01-.28.29-.1.66.02.97-.02.32-.06.78-.26,1,.09.14.24,0,.51-.2.66-.16.17-.44.28-.53-.02Z"/>
  <path d="m116.37,69.49c-.07-.88-.2-1.76-.11-2.65-.03-.77-.09-1.56.04-2.32.14-.72-.15-1.38-.18-2.09,0-.77,0-1.53-.09-2.3.04-.84.2-1.58,0-2.4-.17-.87.13-1.76-.05-2.62-.12-.43-.06-.86-.05-1.3-.12-.52.03-1.04-.06-1.57,0-.07-.02-.15-.02-.22,0-.19.24-.22.27-.01,0,.23,0,.49-.01.71.06.35.19.69.14,1.06.12.56.13,1.1.05,1.67.13,1.04.27,2.1.14,3.15.12.82.32,1.61.22,2.44.08.93.16,1.85.03,2.78.08,1.01.3,2,.15,3.02.09.88.11,1.74.13,2.63.01.17-.09.4-.28.4-.19,0-.31-.21-.31-.38Z"/>
  <path d="m102.08,63.35c0-.25,0-.5-.09-.73-.11-.56-.09-1.14-.08-1.7,0-.4-.11-.8-.1-1.21-.01-.49.12-.95.11-1.42-.2-1.1-.18-2.18-.11-3.29-.22-.82-.1-1.65-.18-2.49.03-.36.09-.7.02-1.06-.04-.18.19-.29.25-.08.02.13.03.27.01.4,0,.25.11.48.12.73-.04.75.22,1.48.06,2.23-.06.55.13,1.1.17,1.65.07.64,0,1.28-.06,1.91.03.63.23,1.24.18,1.87-.06.57.04,1.14.04,1.71.05.5-.12.97-.07,1.46.01.23-.27.26-.28.01Z"/>
  <path d="m105.99,62.96c-.24-1.34-.46-2.76-.26-4.12-.08-.82-.23-1.63-.09-2.46.17-.69-.1-1.37-.07-2.06.09-.48-.04-.94-.03-1.42,0-.2.05-.4.04-.6-.03-.26-.11-.52-.1-.78.11-.32.35-.08.31.16,0,.65.24,1.26.18,1.92.05.61.18,1.21.01,1.82-.08.64.1,1.28.09,1.93.03.57-.16,1.17-.05,1.74.18.61.12,1.23.12,1.86.14.67.1,1.34.1,2.01,0,.2-.24.24-.25.01Z"/>
  <path d="m97.59,57c-.06-.56,0-1.11-.03-1.67-.07-.45-.14-.9-.1-1.36.05-.42.12-.86.03-1.28,0-.27-.21-1.05.19-1.07.12.02.18.15.18.26.05.46-.02.93.01,1.39.1.55.22,1.11.17,1.66-.02.69.23,1.35.19,2.05.01.56-.61.59-.65.02Z"/>
  <path d="m100.94,54.3c-.9-.25-1.83,0-2.74-.15-.02,0-.05,0-.07,0-.02-.01-.03-.02-.04-.03-.26.11-.27-.31,0-.2,0,0,.02-.02.04-.03.02-.02.05-.02.08,0,.91-.13,1.84.07,2.72-.23.38-.05.4.68.02.65Z"/>
  <path d="m104.93,54.74c-1.09.03-2.06-.57-3.15-.48-.13,0-.19-.15-.18-.26,0-.09.08-.21.18-.2.3-.04.58.02.88.05.91-.09,1.83-.31,2.74-.11.45.08.45.92-.02.97-.15-.01-.3.05-.45.02Z"/>
  <path d="m99.4,57.08c-.47-.12-.94-.1-1.42-.01-.3.19-.48-.38-.17-.48.31-.06.62.02.92-.02.37-.07.72-.2,1.1-.23.55-.05,1.12,0,1.64-.21.55-.09.64.96.1,1.01-.75-.05-1.44.06-2.17-.05Z"/>
  <path d="m104.89,57.38c-.8,0-1.52-.45-2.3-.54-.28-.02-.61.03-.86-.13-.09-.09-.08-.29.04-.35.45-.04.9.17,1.36.07.46-.1.94-.13,1.41-.17.43-.07.92,0,.93.54.03.34-.23.64-.58.58Z"/>
  <path d="m101.2,59.76c-.6-.12-1.18-.24-1.8-.23-.1-.01-.2-.1-.3-.09-.17.06-.18-.3,0-.26,0,0,0,0,0,0,.35-.16.66-.12,1.04-.11.35-.06.69-.16,1.03-.25.11-.03.22.02.29.1.25.24.16.88-.26.84Z"/>
  <path d="m105.32,60.15c-.31-.06-.6-.22-.9-.3-.59-.11-1.2-.03-1.76-.28-.3-.11-.66.05-.95-.08-.11-.12-.01-.33.16-.3.21-.01.41.04.62.04.33-.02.64-.14.97-.13.65.09,1.3,0,1.95,0,.51.09.47,1.09-.08,1.05Z"/>
  <path d="m100.17,62.39c-.09-.15-.04-.44.17-.46.15,0,.35.01.48-.01.24-.04.42-.05.64-.11.17-.05.28.16.28.3.02.41-.39.3-.67.33-.25,0-.48.04-.72.07-.08,0-.14-.06-.18-.13Z"/>
  <path d="m59.78,53.21c-.17-.06-.33-.03-.49,0-.21-.06-.08-.43.12-.3.2.04.37-.1.57-.09.38.04.73-.06,1.11-.1.26,0,.52.05.77.07.4-.02.79-.17,1.19-.18.59,0,1.17.16,1.74-.06.36-.1.72-.1,1.09-.05.38-.02.74-.11,1.12-.09.76.14,1.37.02,2.11-.13.9-.01,1.34-.04,2.21-.1.66.03,1.3.2,1.94-.02,1.07-.1,2.16.17,3.2-.18.86-.12,1.72.33,2.58.01.33-.08.67-.16,1.01-.09.34.08.67.2,1.02.15.7-.09,1.39-.02,2.09-.07.35-.01.68.11,1.03.11.33-.02.61-.15.92-.21.74-.06,1.46.31,2.22.11.3-.02.63.04.92.02.47-.11.94-.05,1.42-.09.83-.19,1.68,0,2.51-.1.88-.31,1.78-.03,2.67.02.42-.02.83-.15,1.24-.23.39-.07.8.1,1.17.11.95-.04,1.9.02,2.84-.07.73.02,1.45.08,2.17-.12.8-.19,1.6.15,2.4.17.92-.13,1.83-.42,2.76-.15.39.06.77.19,1.16.13.31-.06.61-.15.92-.16.49-.02.98.13,1.47.06.92-.2,1.86.05,2.79.1.71,0,1.42-.03,2.13,0,.27.02.54-.04.81.04.27.1.28.6-.01.69-.35.03-.71.01-1.06.04-.55.03-1.07-.12-1.61-.15-.85-.05-1.69.08-2.53.08-.77-.17-1.54.02-2.31-.07-.37-.08-.73-.23-1.11-.18-.5.09-.99.23-1.49.27-.6.03-1.23-.19-1.82-.22-.64-.01-1.25.21-1.89.25-.51,0-1-.19-1.51-.23-.66.03-1.3.17-1.97.11-.77.07-1.53-.04-2.3,0-.44.1-.89.2-1.34.07-.86-.22-1.71.03-2.57.07-.35,0-.67-.13-1-.16-.37-.04-.74.07-1.11.09-.82.11-1.62.02-2.45.09-.35-.06-.7-.02-1.05.02-.42.03-.84-.11-1.26-.04-.41.06-.81.23-1.23.16-.36-.07-.72-.19-1.09-.15-.54.14-1.08.1-1.63.09-.79.11-1.59-.09-2.35.16-.64.09-1.24-.24-1.88-.2-.42.04-.83.18-1.24.24-.37.05-.73-.07-1.09-.11-.81,0-1.63.13-2.44.13-.5-.06-.98-.22-1.48-.03-.9.17-1.83.09-2.74.2-.58-.02-1.16-.22-1.73-.02-.77.16-1.56.1-2.34.17-.35-.02-.69-.14-1.04-.11-.34.03-.67.14-1.01.15-.68-.05-1.3-.12-1.97.09-.31.04-.62-.06-.93.02-.13.01-.26.03-.4-.01Z"/>
  <path d="m65.48,51.17c-.32-.78-.15-1.71-.02-2.5.07-.76-.02-1.56.13-2.3.25-.3.4.17.37.39.06.74-.18,1.41-.03,2.12.23.65.1,1.35.11,2.01.04.35-.34.64-.57.27Z"/>
  <path d="m67.57,48.98c-.42-.08-.87.06-1.28-.07-.2-.07-.42.05-.61-.04-.1-.07,0-.26.1-.19.28.05.55-.05.82-.09.27-.01.54.05.8-.06.39-.1.79.12,1.17-.03.61-.23,1.25-.19,1.88-.22.41-.12.81-.29,1.25-.21.36,0,.71-.1,1.07-.06.28.02.55.15.83.13.46-.08.91-.11,1.38-.08.42-.06.87-.1,1.29-.01.42.02.84-.21,1.26-.15.35-.01.7,0,1.04-.03.21-.03.4-.13.61-.15.39-.04.78.11,1.16.09.37,0,.72-.2,1.09-.18.49.15.98-.02,1.48.04.49,0,.98,0,1.47.11.3.01.59-.1.88-.14.45-.09.91.12,1.34.13.27,0,.53,0,.79-.06.24-.02.29.41.05.45-.25,0-.53-.04-.77-.05-.41-.03-.77.14-1.17.14-.26-.02-.54-.12-.79-.17-.3-.08-.59,0-.89.03-.51-.04-1.05-.04-1.56-.07-.33-.04-.61.11-.92.15-.39.02-.77-.15-1.17-.13-.3.02-.57.12-.86.17-.25.04-.49-.05-.74-.06-.7.06-1.4.19-2.11.09-.55.15-1.1.19-1.66.2-.46.12-.92,0-1.37-.08-.85.09-1.42.08-2.26.18-.45-.06-.89-.05-1.32.13-.51.16-1.06.07-1.58.11-.23.05-.47.17-.72.17Z"/>
  <path d="m69.78,47.16s0-.03.01-.05c0-.01.02-.03.04-.03.04,0,.06.04.06.07,0,.02,0,.03-.01.05,0,.01-.02.03-.04.03-.04,0-.06-.04-.06-.07Z"/>
  <path d="m69.41,48.7c-.13-.13-.12-.33-.1-.5.06-.53.22-1.01.21-1.52-.09-.1-.04-.33.09-.38.24-.01.2.37.22.53-.07.46-.17.9-.09,1.37.15.25,0,.76-.33.51Z"/>
  <path d="m74.38,48.55c-.57-.32-.09-1.03-.02-1.49.07-.22-.19-1.12.12-1.1.06.02.09.08.09.14,0,.43-.01.9.01,1.33.04.21.04.42.13.61.08.22-.06.59-.34.52Z"/>
  <path d="m80.08,48c-.2-.18-.13-.46-.14-.7,0-.23-.03-.5-.02-.72,0-.21-.03-.43,0-.64.06-.24.35-.16.36.06.03.57.1,1.16.07,1.71.07.18-.11.46-.29.29Z"/>
  <path d="m71.44,50.54c-.03-.62-.08-1.28-.05-1.89-.02-.17,0-.48.24-.43.23.1.18.41.18.62-.02.49,0,.9-.04,1.38,0,.18.09.5-.15.55-.12,0-.19-.12-.19-.22Z"/>
  <path d="m67.57,51.14c-.23-.33.02-.73.05-1.08.02-.45-.08-.89-.04-1.33.06-.21.3-.11.29.08.01.64.03,1.29,0,1.93.19.21-.06.68-.31.4Z"/>
  <path d="m76.54,50.34c-.18-.54-.07-1.11-.03-1.66,0-.11-.01-.73.16-.43.06.21,0,.42.03.63.06.32.18.61.22.93,0,.22.14.59-.13.7-.11.03-.22-.07-.24-.18Z"/>
  <path d="m84.48,47.78c-.09-.34-.11-.66-.17-.99-.03-.33-.13-.73.04-1.04.08-.12.25-.08.31.03.19.59.1,1.25.18,1.86.03.23-.25.39-.36.13Z"/>
  <path d="m82.01,50.56c-.08-.11-.06-.23-.03-.35.05-.43-.04-.83-.09-1.25-.01-.26-.41-1.51.17-1.23.32.73.11,1.6.21,2.38,0,.08.03.15.05.22.05.19-.14.42-.3.22Z"/>
  <path d="m97.97,45.77c-.31-.02-.64-.08-.94-.11-.26,0-.5.11-.76.11-.36-.03-.71-.07-1.08-.04-.29-.03-.57-.14-.87-.1-.16,0-.22-.26-.03-.25h0s.02,0,.03,0c.01-.02.03-.04.06-.04.05,0,.08.03.09.08.23.04.46-.09.69-.09.16,0,.31.05.47.06.44-.11.88-.02,1.32.05.53-.03,1.03-.29,1.56-.22.26.01.51.07.77.08.1.01.15.13.14.22,0,.09-.06.19-.16.18-.44-.03-.86.13-1.3.09Z"/>
  <path d="m97.53,48.02c-.33-.07-.66-.02-.99,0-.44-.02-.82-.19-1.25-.1-.27.02-.55-.02-.82-.03-.09,0-.14-.08-.16-.16-.03-.15.09-.26.24-.24.38.02.73.05,1.1.09.29,0,.53-.1.81-.11.43,0,.84.1,1.26-.06.33-.07.67.06,1,.08.13,0,.33-.03.33.16,0,.07-.03.17-.11.17-.48.02-.92.3-1.4.18Z"/>
  <path d="m106.18,47.67c-.21-.36-.13-.76-.11-1.15.05-.27.02-.61.2-.83,0,0,0,0,0,0,.26-.12.26.3.28.46.09.36.02.71,0,1.07.06.26-.04.76-.38.46Z"/>
  <path d="m107.18,47.79c-.2-.22-.15-.54-.13-.81.05-.46,0-.96.21-1.38.13-.13.2.12.2.22.09.55.07,1.11.15,1.66.04.24-.23.52-.44.31Z"/>
  <path d="m108.33,47.66c-.21-.65-.19-1.32-.13-1.99.02-.2.01-.52.26-.57.28.01.28.38.31.59.05.44.18.86.26,1.3.05.31.14.74-.19.91-.2.1-.42-.05-.49-.25Z"/>
  <path d="m110.24,47.66c-.12-.19-.1-.45-.08-.66.06-.38,0-.76,0-1.14,0,0,0,0,0,0,.02-.14.12-.25.26-.19.07.03.11.1.13.17.1.37.12.77.22,1.11.05.18.12.34.09.54-.03.35-.45.51-.64.17Z"/>
  <path d="m111.07,47.3c0-.36.06-.73.08-1.08.03-.22,0-.47.12-.66.53-.43.35,1.15.51,1.42.22.71-.54,1.18-.71.32Z"/>
  <path d="m112.02,47.63c-.06-.56-.07-1.14.06-1.69-.04-.04-.02-.11,0-.15.01-.05-.01-.1.03-.14.06-.07.15-.02.16.06.14.61.27,1.21.31,1.84,0,.37-.44.47-.55.09Z"/>
  <path d="m112.87,47.09c.1-.49.02-.98-.02-1.47-.05-.16-.09-.4.08-.49.13-.06.24.07.27.19.07.6.22,1.19.25,1.79.01.55-.59.51-.58-.02Z"/>
  <path d="m115.49,49.36c-.43-.07-.86-.3-1.3-.31-.22,0-.44.05-.64.13-.47.07-.95.19-1.43.16-.54-.05-1.08-.2-1.61-.26-.46-.01-.89.18-1.35.23-.36.04-.72-.08-1.08-.11-.28.01-.56.06-.84.01-.32-.03-.63-.11-.95-.09-.21.04-.42.05-.62-.01-.03.05-.1,0-.1-.04.01-.41.68-.21.94-.29.53-.14,1.05-.25,1.6-.13.41-.03.81-.19,1.22-.11.41.03.81.18,1.23.13.29-.05.55-.13.84-.15.84-.11,1.71-.11,2.53.05.52.04,1.03-.11,1.54-.18.21,0,.46-.06.6.14.3.47,0,.99-.58.81Z"/>
  <path d="m113.73,48.04c-.02-.62-.12-1.23-.11-1.85.08-.89.05-1.77.13-2.66-.2-.78-.06-1.58-.12-2.37.02-.43.15-.86.08-1.29-.15-.77-.11-1.54-.02-2.31-.05-.53-.17-1.04-.06-1.57-.06-.37,0-.74-.04-1.1,0-.05-.02-.12.05-.13.05,0,.06.06.06.1.11.5.15,1.01.27,1.5.11.47-.1.95-.03,1.42.07.47.15.93.13,1.41,0,.41-.15.84-.1,1.25.16.79.03,1.59.07,2.39-.11.69,0,1.27.04,1.95-.1.92.18,1.83,0,2.75,0,.18-.03.36-.02.53,0,.09-.06.2-.16.2-.11,0-.18-.12-.19-.21Z"/>
</svg>